<?xml version="1.0" encoding="utf-8"?>
<!-- Generator: Adobe Illustrator 18.0.0, SVG Export Plug-In . SVG Version: 6.00 Build 0)  -->
<!DOCTYPE svg PUBLIC "-//W3C//DTD SVG 1.1//EN" "http://www.w3.org/Graphics/SVG/1.1/DTD/svg11.dtd">
<svg version="1.1" id="Layer_1" xmlns="http://www.w3.org/2000/svg" xmlns:xlink="http://www.w3.org/1999/xlink" x="0px" y="0px"
	 viewBox="0 379.5 611.7 33.1" enable-background="new 0 379.5 611.7 33.1" xml:space="preserve">
<path d="M17.7,411.9v-2.5c-0.8,0.4-2.4,1.4-2.4,1.4c-1.4,0.8-4,1.7-6.4,1.7c-5.8,0-8.9-4.2-8.9-7.5c0-1,0.4-8.1,12.1-8.1
	c1.8,0,3.9,0.1,5.6,0.4v-0.7c0-3.2-3.9-3.2-5.1-3.2c-3.1,0-6.1,0.8-8.9,2.1l-1.9-4.2c3.3-1.4,7.2-2.6,11-2.6c1.1,0,6.8,0,8.8,4.2
	c0.8,1.7,0.8,3.8,0.8,5.7v8.6h4.2v4.9h-8.8V411.9z M17.7,402.1c-1.5-0.1-3.5-0.4-6.4-0.4c-2.6,0-6.5,0.8-6.5,3.3
	c0,1.7,2.1,2.6,4.2,2.6c3.3,0,6.4-1.8,8.8-4C17.7,403.6,17.7,402.1,17.7,402.1z M58.5,411.9v-1.8c-2.1,1.7-4.7,2.5-7.4,2.5
	c-7.1,0-12.4-5.6-12.4-12c0-6.3,5-12.1,12.1-12.1c2.8,0,5.6,0.8,7.5,2.5v-6.7h-6.3v-4.9h11v27.6h4v4.9H58.5z M57.6,397
	c-0.8-2.1-3.8-3.8-6.4-3.8c-4.3,0-7.7,3.1-7.7,7.1s3.3,7.2,7.4,7.2c1.7,0,7.4-0.8,7.4-7.1C58.5,399.4,58.2,398.2,57.6,397z
	 M117.2,411.9v-4.9h4v-10.2c0-1.7-0.7-3.5-3.3-3.5c-1.4,0-4.2,0.4-7.7,3.1v10.6h3.9v4.9h-12.7v-4.9h4v-22.7h-4v-4.9h8.8v11.6
	c2.4-1.4,4.7-2.5,7.7-2.5c5.3,0,6.8,3.2,7.2,3.9c0.7,1.5,0.8,3.1,0.8,4.7v9.9h4v4.9C130,411.9,117.2,411.9,117.2,411.9z
	 M154.6,412.5c-5.7,0-13.6-3.1-13.6-11.8c0-7.9,6.7-12.1,13.4-12.1c8.9,0,13.2,6.1,13.2,12C167.7,409,160.8,412.5,154.6,412.5z
	 M154.2,393.4c-4.6,0-8.4,2.8-8.4,7.2c0,5.7,5.6,7.1,8.6,7.1c4,0,8.2-2.2,8.2-7.2C162.8,397.3,160.5,393.4,154.2,393.4z
	 M193.7,412.5c-6.3,0-12.5-4.3-12.5-12c0-5.7,4.2-12,13.2-12c1.9,0,3.8,0.3,5.6,1v-1h4.7v10.2H200v-4.2c-1.7-0.8-3.6-1.3-5.6-1.3
	c-5.1,0-8.4,3.1-8.4,7.2c0,4.7,4,7.1,8.2,7.1c3.9,0,6.7-1.7,9.6-3.8l2.6,3.8C203.1,410.5,198.6,412.5,193.7,412.5z M259.2,402.9v8.9
	h-4.9v-8.9h-8.9V398h8.9v-8.9h4.9v8.9h8.9v4.9H259.2z M324.7,411.9v-2.5c-0.8,0.4-2.4,1.4-2.4,1.4c-1.4,0.8-4,1.7-6.4,1.7
	c-5.8,0-8.9-4.2-8.9-7.5c0-1,0.4-8.1,12.1-8.1c1.8,0,3.9,0.1,5.6,0.4v-0.7c0-3.1-3.9-3.2-5.1-3.2c-3.1,0-6.1,0.8-8.9,2.1l-1.8-4.2
	c3.3-1.4,7.2-2.6,11-2.6c1.1,0,6.8,0,8.8,4.2c0.8,1.7,0.8,3.8,0.8,5.7v8.6h4v4.9h-8.8V411.9z M324.7,402.1c-1.5-0.1-3.5-0.4-6.4-0.4
	c-2.6,0-6.5,0.8-6.5,3.3c0,1.7,2.1,2.6,4.2,2.6c3.3,0,6.4-1.8,8.8-4V402.1z M365.5,411.9v-1.8c-2.1,1.7-4.7,2.5-7.4,2.5
	c-7.1,0-12.4-5.6-12.4-12c0-6.3,5-12.1,12.1-12.1c2.8,0,5.6,0.8,7.5,2.5v-6.7h-6.3v-4.9h11v27.6h3.9v4.9H365.5z M364.7,397
	c-0.8-2.1-3.8-3.8-6.4-3.8c-4.3,0-7.7,3.1-7.7,7.1s3.3,7.2,7.4,7.2c1.7,0,7.4-0.8,7.4-7.1C365.5,399.4,365.2,398.2,364.7,397z
	 M405,411.9v-1.8c-2.1,1.7-4.7,2.5-7.4,2.5c-7.1,0-12.4-5.6-12.4-12c0-6.3,5-12.1,12.1-12.1c2.8,0,5.6,0.8,7.5,2.5v-6.7h-6.3v-4.9
	h11v27.6h3.9v4.9H405z M404.2,397c-0.8-2.1-3.8-3.8-6.4-3.8c-4.3,0-7.7,3.1-7.7,7.1s3.3,7.2,7.4,7.2c1.7,0,7.4-0.8,7.4-7.1
	C404.9,399.4,404.6,398.2,404.2,397z M438.6,412.5c-8.5,0-12.9-5.7-12.9-11.8c0-8.1,6.8-12.1,12.8-12.1c6.5,0,12.1,4.3,12.1,10.7
	c0,1.1-0.1,2.9-0.1,3.5h-19.9c0.3,1.8,1.9,5,8.1,5c3.8,0,7.5-1.4,10.6-2.9l2.2,4C447.8,411,443.2,412.5,438.6,412.5z M445.7,397
	c-1.4-2.9-4.5-3.6-7.4-3.6c-3.1,0-6.3,1.4-7.4,4.5h15L445.7,397z M479.1,411.9v-4.9h3.9v-10c0-2.1-0.3-3.6-3.8-3.6
	c-1.5,0-4.9,0.6-7.4,2.9v10.9h4v4.9h-12.9v-4.9h4v-12.9h-4.2v-5h8.9v1.7c2.1-1.4,5-2.4,7.9-2.4c2.8,0,5.1,0.7,6.8,2.9
	c0.8,1.3,1.3,2.8,1.3,4.5v11.1h3.9v4.9H479.1z M523.2,411.9v-1.8c-2.1,1.7-4.7,2.5-7.4,2.5c-7.1,0-12.4-5.6-12.4-12
	c0-6.3,5-12.1,12.1-12.1c2.8,0,5.6,0.8,7.5,2.5v-6.7h-6.3v-4.9h11v27.6h3.9v4.9H523.2z M522.4,397c-0.8-2.1-3.8-3.8-6.4-3.8
	c-4.3,0-7.7,3.1-7.7,7.1s3.3,7.2,7.4,7.2c1.7,0,7.4-0.8,7.4-7.1C523.1,399.4,522.8,398.2,522.4,397z M561.6,411.9v-1.7
	c-1.9,1.3-4.3,2.2-6.8,2.2c-3.3,0-7.2-1.4-8.5-4.9c-0.3-0.8-0.6-2.1-0.6-4V394h-4v-4.7h8.8v14.5c0,1.3,0.1,4,4.3,4
	c3.1,0,5-1.5,6.8-3.2v-10.4h-3.9v-4.9h8.8v17.8h4v4.9H561.6z M604.2,411.9v-16.6c0-0.6-0.4-1.9-2.2-1.9c-0.8,0-2.2,0.4-3.5,2.1v11.6
	h3.1v4.9h-7.9v-15.9c0-1.1-0.4-2.6-2.4-2.6c-1.3,0-2.5,0.8-3.3,1.7v11.8h4v4.9H579v-4.9h4V394h-4v-4.7h8.8v1.1
	c1-1.3,2.5-1.8,4.2-1.8c1.3,0,3.1,0.4,4.5,2.5c1.4-1.5,3.5-2.5,5.6-2.5c4.2,0,6.8,3.2,6.8,7.1v11.4h2.9v4.9H604.2z"/>
</svg>
