<?xml version="1.0" encoding="utf-8"?>
<!-- Generator: Adobe Illustrator 18.0.0, SVG Export Plug-In . SVG Version: 6.00 Build 0)  -->
<!DOCTYPE svg PUBLIC "-//W3C//DTD SVG 1.1//EN" "http://www.w3.org/Graphics/SVG/1.1/DTD/svg11.dtd">
<svg version="1.1" id="Layer_1" xmlns="http://www.w3.org/2000/svg" xmlns:xlink="http://www.w3.org/1999/xlink" x="0px" y="0px"
	 viewBox="0 0 265.4 54.2" enable-background="new 0 0 265.4 54.2" xml:space="preserve">
<g>
	<path fill="#020202" d="M19.2,0.7c3,0,5.9,0,8.9,0c2.3,1.7,4.6,3.4,7,5.2c6.4,15.7,12.8,31.5,19.2,47.4c-4,0-7.9,0-11.9,0
		c-2.3-1.7-4.7-3.5-7.1-5.3c-0.2-0.5-0.4-0.9-0.6-1.4c-4.3,0-8.6,0-13,0c-0.8,2.2-1.7,4.4-2.6,6.6c-4,0-8,0-12.1,0
		c-2.3-1.7-4.7-3.5-7.1-5.3C6.4,32.1,12.8,16.4,19.2,0.7z M45.7,46.9C39.6,31.8,33.5,16.7,27.4,1.7c-2.6,0-5.1,0-7.6,0
		C13.7,16.8,7.6,31.8,1.5,46.9c3.3,0,6.5,0,9.7,0c0.9-2.2,1.7-4.4,2.6-6.6c6.6,0,13.1,0,19.6,0c0.9,2.2,1.7,4.4,2.6,6.6
		C39.2,46.9,42.4,46.9,45.7,46.9z"/>
	<path fill="#020202" d="M63.5,0.6c0.3,0,0.5,0,0.7,0c5.6,0,11.3,0,16.9,0.1c6,0.1,11.5,1.9,16.3,5.4c2.1,1.5,4.1,3,6.1,4.6
		c4.9,3.7,7.7,8.6,8.6,14.7c0.7,4.7,0.4,9.3-1.2,13.8c-2.3,6.2-6.7,10.1-12.8,12.4c-3.1,1.1-6.2,1.7-9.5,1.7c-6,0-12,0-18.1,0
		c-2.3-1.7-4.7-3.5-7.1-5.2C63.5,32.3,63.5,16.5,63.5,0.6z M102.7,33.3c0.1-0.2,0.2-0.3,0.3-0.5c0,0,0,0,0,0
		c0.3-0.9,0.5-1.8,0.8-2.7c0.5-1.5,0.7-3,0.6-4.6c0-0.9,0-1.7,0-2.6c-0.2-1.4-0.2-2.9-0.5-4.3c-1.2-5.9-4.4-10.5-9.7-13.6
		C90.1,2.8,85.6,1.8,81,1.7c-5.2-0.1-10.3,0-15.5,0c-0.3,0-0.6,0-0.9,0.1c0,15.1,0,30.2,0,45.2c5.8,0,11.5,0,17.2,0
		c0.5,0,0.9-0.2,1.4-0.2c0.3,0,0.6,0,0.9,0c0.3,0,0.5-0.1,0.8-0.1c0.1,0,0.3,0,0.4-0.1c0.2,0,0.4,0,0.6,0c3.7-0.7,7.1-2,10.2-4.2
		c1.5-1.1,2.9-2.3,3.9-4c0.1-0.1,0.2-0.3,0.2-0.4c0,0,0,0,0,0c0.2-0.2,0.3-0.5,0.5-0.7l0,0c0.1-0.1,0.2-0.2,0.2-0.3
		c0.4-0.6,0.8-1.3,1.1-1.9c0.1-0.3,0.2-0.6,0.3-0.9c0,0,0,0,0,0C102.5,33.8,102.6,33.6,102.7,33.3L102.7,33.3z"/>
	<path fill="#020202" d="M140.3,0.7c3.8,0,7.5,0,11.3,0c2.4,1.8,4.8,3.5,7.2,5.4c0,10.6,0,21.3,0,32c3.7,0,7.3,0,10.9,0
		c2.5,1.8,4.9,3.6,7.4,5.4c0,3.2,0,6.4,0,9.7c-9.9,0-19.7,0-29.8,0c-2.2-1.6-4.6-3.4-7-5.2C140.3,32.3,140.3,16.5,140.3,0.7z
		 M150.6,39.1c0-12.6,0-25,0-37.4c-3.1,0-6.2,0-9.2,0c0,15.1,0,30.2,0,45.2c2.7,0.2,26.6,0.1,27.4-0.1c0-2.6,0-5.1,0-7.7
		C162.7,39.1,156.8,39.1,150.6,39.1z"/>
	<path fill="#020202" d="M222.4,0.6c0.2,0,0.4,0,0.6,0c5.8,0,11.5,0,17.3,0.1c4.1,0.1,7.9,1.3,11.3,3.8c2.1,1.6,4.1,3.2,6.3,4.6
		c5.9,4,8,13.3,1.6,19.6c-0.1,0.1-0.3,0.3-0.6,0.5c0.5,0.4,1,0.8,1.5,1.1c2.7,1.8,4.4,4.3,4.9,7.5c0.8,5.7-0.8,11.1-6.7,13.7
		c-1.4,0.6-2.9,1.1-4.3,1.3c-2,0.3-4,0.5-6,0.5c-5.8,0.1-11.6,0-17.4,0c-0.4,0-0.9,0-1.3,0c-2.4-1.7-4.7-3.5-7.1-5.2
		C222.4,32.3,222.4,16.5,222.4,0.6z M223.4,46.9c0.2,0,0.3,0.1,0.4,0.1c6,0,12.1,0,18.1-0.1c2.6,0,5.2-0.5,7.7-1.4
		c6.9-2.5,8.3-9.2,7-14.1c-0.9-3.3-3.1-5.6-6.2-7c-0.4-0.2-0.7-0.3-1.2-0.6c1.6-0.8,2.8-1.7,3.7-3c3.6-4.9,2.4-12.2-2.6-15.9
		c-3.1-2.3-6.7-3.2-10.4-3.3c-5.2-0.1-10.5,0-15.7,0c-0.3,0-0.5,0-0.8,0C223.4,16.8,223.4,31.8,223.4,46.9z"/>
	<path fill="#020202" d="M188.6,48c0-15.8,0-31.6,0-47.3c3.8,0,7.5,0,11.4,0c2.4,1.7,4.8,3.5,7.2,5.3c0,15.7,0,31.4,0,47.2
		c-3.8,0-7.6,0-11.5,0C193.3,51.5,191,49.7,188.6,48z M189.6,46.9c2.1,0.2,8.4,0.1,9.2-0.1c0-15,0-30,0-45.1c-3.1,0-6.2,0-9.2,0
		C189.6,16.8,189.6,31.8,189.6,46.9z"/>
	<path fill="#D4A48B" d="M45.7,46.9c-3.3,0-6.4,0-9.7,0c-0.8-2.2-1.7-4.4-2.6-6.6c-6.5,0-13.1,0-19.6,0c-0.9,2.2-1.7,4.4-2.6,6.6
		c-3.2,0-6.4,0-9.7,0C7.6,31.8,13.7,16.8,19.8,1.7c2.5,0,5,0,7.6,0C33.5,16.7,39.6,31.8,45.7,46.9z M23.6,14.9
		c-2.3,5.9-4.5,11.7-6.7,17.4c1.7,0.2,12.5,0.2,13.4-0.1C28.1,26.5,25.9,20.8,23.6,14.9z"/>
	<path fill="#D4A48B" d="M81.8,47c-5.7,0-11.4,0-17.2,0c0-15.1,0-30.1,0-45.2c0.3,0,0.6-0.1,0.9-0.1c5.2,0,10.3-0.1,15.5,0
		c4.6,0.1,9.1,1.1,13.2,3.5c5.3,3.1,8.4,7.7,9.7,13.6c0.3,1.4,0.3,2.8,0.5,4.3l0,2.6c0.1,1.6-0.1,3.1-0.6,4.6c0,0-0.8,2.6-0.8,2.7
		l0,0c-0.1,0.2-0.2,0.3-0.3,0.5c0,0,0,0,0,0c-0.1,0.2-0.2,0.5-0.3,0.7l0,0c0,0,0.2-0.6-0.3,0.9c-0.4,0.6-0.8,1.3-1.1,1.9
		c-0.1,0.1-0.2,0.2-0.2,0.3c0,0,0,0,0,0c-0.7,1,0.2-0.3-0.5,0.7l0,0c-0.1,0.1-0.2,0.3-0.2,0.4c-1,1.6-2.4,2.8-3.9,4
		c-3,2.3-6.5,3.5-10.2,4.2 M74.2,38.5c0.1,0-0.6,0-0.5,0c0,0.1,0.1,0.3,0.2,0.5c1.9,0,3.7,0.1,5.6,0c1.6-0.1,3.2-0.2,4.7-0.5
		c4.4-1,7.7-3.5,9.4-7.7c1.5-3.6,1.6-7.4,0.6-11.1c-1.1-4.4-3.9-7.4-8.1-9c-1.9-0.7-3.9-0.7-5.8-0.9c-0.2-0.1-0.4,0.1-0.6,0.1
		c-1.7,0-3.3,0.1-5.1,0.1c-0.2,0-0.4-0.5-0.5-0.5c-0.1,0.1-0.1,0.1-0.2,0c-0.1,0,0.4,0.3,0.3,0.3"/>
	<path fill="#D4A48B" d="M150.6,39.1c6.2,0,12.2,0,18.2,0c0,2.6,0,5.2,0,7.7c-0.8,0.2-24.7,0.3-27.4,0.1c0-15,0-30.1,0-45.2
		c3.1,0,6.1,0,9.2,0C150.6,14.1,150.6,26.5,150.6,39.1z"/>
	<path fill="#D4A48B" d="M223.4,46.9c0-15.1,0-30.1,0-45.3c0.3,0,0.6,0,0.8,0c5.2,0,10.5-0.1,15.7,0c3.8,0.1,7.3,1,10.4,3.3
		c5,3.7,6.2,11,2.6,15.9c-0.9,1.2-2.1,2.2-3.7,3c0.5,0.2,0.9,0.4,1.2,0.6c3.1,1.4,5.3,3.7,6.2,7c1.3,4.9-0.2,11.6-7,14.1
		c-2.5,0.9-5.1,1.3-7.7,1.4c-6,0.1-12.1,0.1-18.1,0.1C223.8,47,223.6,46.9,223.4,46.9z M232.7,39.3c1.1,0,2,0,3,0
		c2.3,0,4.5,0,6.8-0.2c2-0.1,3.8-0.9,4.5-2.9c0.6-1.5,0.5-3.1-0.1-4.7c-0.4-0.9-1-1.6-1.9-2.1c-1.3-0.7-2.7-0.9-4.2-0.9
		c-2.5,0-5,0-7.4,0c-0.3,0-0.5,0.1-0.8,0.1C232.7,32.1,232.7,35.6,232.7,39.3z M232.8,20.8c1,0,1.9,0,2.7,0c1.8,0,3.6,0,5.4-0.2
		c2.9-0.4,4.3-1.7,4.7-4.4c0.1-0.6,0.1-1.2,0-1.8c-0.3-2.6-1.4-4.1-4.2-4.6c-0.9-0.2-1.7-0.3-2.6-0.3c-2,0-4.1,0-6.1,0
		C232.8,13.2,232.8,16.9,232.8,20.8z"/>
	<path fill="#D4A48B" d="M189.6,46.9c0-15.1,0-30.1,0-45.1c3.1,0,6.1,0,9.2,0c0,15,0,30,0,45.1C198,47,191.6,47.1,189.6,46.9z"/>
	<path fill="#020202" d="M23.6,14.9c2.3,5.9,4.5,11.6,6.7,17.3c-0.9,0.3-11.7,0.3-13.4,0.1C19.1,26.5,21.3,20.8,23.6,14.9z M29,31.6
		c-0.3-0.6-0.5-1.1-0.7-1.6c-0.1,0-0.2,0-0.2,0c-0.2,0.5-0.4,1-0.6,1.6C28.1,31.6,28.4,31.6,29,31.6z"/>
	<path fill="#020202" d="M73.9,9.5c0.1,0,0.2,0,0.2,0c2.1,0,4.2,0,6.2,0c2,0.2,4,0.4,5.8,1.1c4.2,1.6,7,4.6,8.1,9
		c1,3.8,0.9,7.5-0.6,11.1c-1.7,4.3-5.1,6.7-9.4,7.7c-1.5,0.4-3.2,0.4-4.7,0.5c-1.9,0.1-3.7,0-5.6,0c-0.1-0.2-0.1-0.4-0.2-0.5
		c0-0.4,0-0.8,0-1.2c0-8.8,0-17.7,0-26.5C73.8,10.4,73.9,10,73.9,9.5z M82.1,37.9c0.2,0,0.3,0,0.5,0c0.5-0.1,0.9-0.1,1.4-0.3
		c4.4-1.2,7.6-3.7,9.1-8.2c0.9-2.7,1-5.6,0.4-8.4c-0.3-1.7-0.9-3.2-1.8-4.6c-2.5-0.6-7-0.8-9.6-0.5C82.1,23.2,82.1,30.5,82.1,37.9z"
		/>
	<path fill="#020202" d="M232.7,39.3c0-3.6,0-7.1,0-10.7c0.3,0,0.5-0.1,0.8-0.1c2.5,0,5,0,7.4,0c1.4,0,2.9,0.2,4.2,0.9
		c0.9,0.5,1.5,1.1,1.9,2.1c0.6,1.6,0.6,3.1,0.1,4.7c-0.8,2.1-2.5,2.8-4.5,2.9c-2.3,0.1-4.5,0.1-6.8,0.2
		C234.7,39.3,233.8,39.3,232.7,39.3z M246.3,35c-1.8,0-3.6,0-5.4,0c0,1.1,0,2.1,0,3.1C243.7,38.4,245.6,37.3,246.3,35z"/>
	<path fill="#020202" d="M232.8,20.8c0-3.8,0-7.6,0-11.3c2.1,0,4.1,0,6.1,0c0.9,0,1.7,0.1,2.6,0.3c2.8,0.5,3.9,2.1,4.2,4.6
		c0.1,0.6,0,1.2,0,1.8c-0.4,2.7-1.9,4.1-4.7,4.4c-1.8,0.2-3.6,0.1-5.4,0.2C234.6,20.8,233.8,20.8,232.8,20.8z M244.6,15.7
		c-1.2,0-2.4,0-3.7,0c0,1.2,0,2.3,0,3.4c0,0.1,0.1,0.2,0.1,0.3C243.4,19,244.5,17.8,244.6,15.7z"/>
</g>
</svg>
