<?xml version="1.0" encoding="utf-8"?>
<!-- Generator: Adobe Illustrator 17.1.0, SVG Export Plug-In . SVG Version: 6.00 Build 0)  -->
<!DOCTYPE svg PUBLIC "-//W3C//DTD SVG 1.1//EN" "http://www.w3.org/Graphics/SVG/1.1/DTD/svg11.dtd">
<svg version="1.1" id="Layer_1" xmlns="http://www.w3.org/2000/svg" xmlns:xlink="http://www.w3.org/1999/xlink" x="0px" y="0px"
	 viewBox="216.4 369.2 179 53.4" enable-background="new 216.4 369.2 179 53.4" xml:space="preserve">
<g>
	<g>
		<path fill="#933F22" d="M226.5,397c-0.3,0-3.4-0.1-3.4-0.1c-0.2,0-0.2,0.1-0.2,0.2s0,4.6,0,4.7s0,0.2,0.1,0.2s2.9,0,3.6,0
			c0.9,0,1.3-0.2,1.8-0.6c0.3-0.3,0.6-0.5,0.8-1.1c0.4-0.9,0.2-2-0.4-2.6c-0.3-0.3-0.8-0.6-1.5-0.7C227,397,226.9,397,226.5,397
			 M227.5,390.7c-0.6-0.1-1.5,0-2.3,0c-0.8,0-2.2,0-2.3,0s-0.1,0-0.1,0.1v3.8c0,0.1,0,0.1,0.1,0.1s4,0,4.5-0.1
			c0.5-0.1,0.9-0.3,1.3-0.5c0.5-0.5,0.6-1.3,0.4-1.8C229.1,391.7,228.5,390.8,227.5,390.7 M229.2,388.3c0.6,0.1,1.3,0.3,2,0.6
			c0.9,0.5,1.7,1.3,1.8,2.2c0.3,1.3,0,3.1-2.4,4c-0.7,0.3-1.5,0.3-1.5,0.4v0.1c0,0,0.8,0.2,1.4,0.4c0.7,0.3,1.3,0.5,2.1,1.3
			c0.8,0.8,1.2,2.2,0.8,3.9c-0.3,1.7-2.5,3-4.4,3.2c-1.1,0-2.8,0-2.8,0H217c0,0-0.1,0-0.1-0.1v-2.3c0-0.1,0-0.1,0.1-0.1h2.1
			c0.1,0,0.2-0.1,0.2-0.3v-11.1c0-0.2,0-0.2-0.2-0.2s-2,0-2,0c-0.1,0-0.1,0-0.1-0.1v-2.2c0-0.1,0-0.1,0.1-0.1h10.5
			C227.6,388.2,228.6,388.2,229.2,388.3"/>
		<path fill="#F2D383" d="M226.5,397c-0.3,0-3.4-0.1-3.4-0.1c-0.2,0-0.2,0.1-0.2,0.2s0,4.6,0,4.7s0,0.2,0.1,0.2s2.9,0,3.6,0
			c0.9,0,1.3-0.2,1.8-0.6c0.3-0.3,0.6-0.5,0.8-1.1c0.4-0.9,0.2-2-0.4-2.6c-0.3-0.3-0.8-0.6-1.5-0.7C227,397,226.9,397,226.5,397
			 M227.5,390.7c-0.6-0.1-1.5,0-2.3,0c-0.8,0-2.2,0-2.3,0s-0.1,0-0.1,0.1v3.8c0,0.1,0,0.1,0.1,0.1s4,0,4.5-0.1
			c0.5-0.1,0.9-0.3,1.3-0.5c0.5-0.5,0.6-1.3,0.4-1.8C229.1,391.7,228.5,390.8,227.5,390.7 M229.2,388.3c0.6,0.1,1.3,0.3,2,0.6
			c0.9,0.5,1.7,1.3,1.8,2.2c0.3,1.3,0,3.1-2.4,4c-0.7,0.3-1.5,0.3-1.5,0.4v0.1c0,0,0.8,0.2,1.4,0.4c0.7,0.3,1.3,0.5,2.1,1.3
			c0.8,0.8,1.2,2.2,0.8,3.9c-0.3,1.7-2.5,3-4.4,3.2c-1.1,0-2.8,0-2.8,0H217c0,0-0.1,0-0.1-0.1v-2.3c0-0.1,0-0.1,0.1-0.1h2.1
			c0.1,0,0.2-0.1,0.2-0.3v-11.1c0-0.2,0-0.2-0.2-0.2s-2,0-2,0c-0.1,0-0.1,0-0.1-0.1v-2.2c0-0.1,0-0.1,0.1-0.1h10.5
			C227.6,388.2,228.6,388.2,229.2,388.3"/>
		<path fill="#933F22" d="M230.2,404.1l3.1-2.6C232.9,402.7,231.7,403.7,230.2,404.1 M225.9,404.5l7.3-6.2c0.1,0.3,0.2,0.5,0.3,0.8
			l-6.5,5.5c-0.4,0-0.8,0-0.8,0H225.9z M216.9,404.4V404l6-5c0,0.3,0,0.6,0,0.9l-5.4,4.6L216.9,404.4
			C216.9,404.5,216.9,404.4,216.9,404.4 M217,402h0.6l-0.7,0.6L217,402C216.9,402,216.9,402,217,402 M219,402l-2,1.8v-1l0.9-0.8H219
			z M217,390.4v-0.3l2.2-1.8h1.1l-2.7,2.3C217.4,390.5,217.1,390.5,217,390.4C217,390.5,217,390.5,217,390.4 M217,388.2h0.5
			l-0.6,0.5L217,388.2L217,388.2 M217,388.9l0.8-0.7h1.1l-1.9,1.7C217,389.9,217,388.9,217,388.9z M225.7,388.2l-6.4,5.5v-1l5.3-4.5
			C225,388.2,225.4,388.2,225.7,388.2 M228.4,388.2l-2.8,2.4c-0.1,0-0.2,0-0.3,0c-0.3,0-0.5,0-0.8,0l2.9-2.4h0.3
			C227.5,388.2,228,388.2,228.4,388.2 M229.6,388.4l-2.6,2.3c-0.3,0-0.8,0-1.1,0l2.8-2.4c0.3,0,0.4,0,0.6,0.1
			C229.3,388.3,229.5,388.4,229.6,388.4 M231.5,389.1l-2.7,2.4c-0.2-0.2-0.3-0.3-0.5-0.5l2.5-2.2c0.2,0.1,0.3,0.1,0.4,0.2
			C231.3,389,231.4,389,231.5,389.1 M232.2,389.6l-3,2.6l0,0c0-0.2-0.2-0.4-0.3-0.7l2.8-2.4C231.8,389.3,232,389.4,232.2,389.6
			 M230.6,395.1c-0.3,0.1-0.7,0.2-0.9,0.3l3.3-2.8C232.8,393.6,232.2,394.6,230.6,395.1 M232,396.7l-2.5,2.2
			c-0.1-0.3-0.2-0.5-0.3-0.8l2.1-1.8C231.5,396.5,231.7,396.6,232,396.7 M227.6,401.9c0.3-0.1,0.6-0.3,0.8-0.4
			c0.3-0.2,0.5-0.4,0.8-0.8l3.6-3c0.2,0.2,0.3,0.3,0.4,0.6l-7.6,6.3h-1.1L227.6,401.9z M226.1,402c0.3,0,0.4,0,0.6,0
			c0.3,0,0.4,0,0.6-0.1l-2.9,2.5h-1.1L226.1,402z M224.8,402c0.3,0,0.8,0,1.1,0l-2.9,2.5h-1.1L224.8,402z M223.4,402h1.1l-2.9,2.5
			h-1.1L223.4,402z M222.9,401.2v0.6c0,0.1,0,0.2,0.1,0.2h0.1l-2.9,2.5h-1.1L222.9,401.2z M222.9,401l-4,3.4h-1.1l5.1-4.4V401z
			 M228.5,397.5c-0.2-0.1-0.4-0.3-0.7-0.3l1.7-1.4c0.3,0.1,0.5,0.1,0.8,0.3L228.5,397.5z M228.7,400.6c-0.5,0.7-1.1,0.9-1.8,1
			c-0.5,0-2.6,0-2.6,0c-0.1,0-0.1,0-0.1-0.1s0-2.9,0-3.1s0-0.3,0.2-0.3c0.1,0,3,0,3.5,0c0.5,0.1,0.8,0.2,0.9,0.3
			c0.1,0.1,0.3,0.2,0.3,0.8C229.1,399.6,229,400.2,228.7,400.6 M229.5,399.2l2.7-2.3c0.2,0.2,0.3,0.3,0.5,0.5l-3.3,2.9
			C229.5,399.8,229.5,399.5,229.5,399.2 M230.6,396.1c0.2,0.1,0.4,0.2,0.6,0.3l-2.1,1.8c-0.1-0.1-0.2-0.3-0.3-0.3s-0.1-0.1-0.2-0.2
			l1.8-1.5C230.4,396.1,230.5,396.1,230.6,396.1 M233.1,392.4l-3.6,3.1c-0.2,0-0.3,0.1-0.3,0.1v0.1c0,0,0,0,0.1,0l-1.6,1.4
			c-0.1,0-0.2,0-0.3-0.1c-0.3-0.1-0.4,0-0.8,0l0,0l6.6-5.5C233.1,391.8,233.1,392,233.1,392.4 M228.5,394.2c0.1-0.1,0.2-0.1,0.3-0.2
			l0,0l4.1-3.4c0.1,0.2,0.2,0.4,0.2,0.7v0.1l-6.7,5.8c-0.3,0-0.7,0-1.1,0L228.5,394.2z M223.8,397l2.8-2.4c0.4,0,0.7,0,0.8,0
			c0.2,0,0.3-0.1,0.4-0.1l-2.9,2.5C224.6,397,224.2,397,223.8,397 M219.3,400.9l3.6-3.1v0.9l-3.6,3.1
			C219.3,401.8,219.3,400.9,219.3,400.9z M219.3,391.6l4-3.4h1.1l-5,4.3C219.3,392.5,219.3,391.6,219.3,391.6z M222.9,393l-3.6,3.1
			v-0.9l3.6-3.1V393z M219.3,398.5l4.6-4c0.3,0,0.8,0,1.1,0l-5.7,4.9V398.5z M219.3,397.4l3.6-3.1v0.2c0,0.1,0,0.1,0.1,0.1
			c0,0,0.3,0,0.7,0l-4.3,3.7L219.3,397.4L219.3,397.4z M219.3,396.2l3.6-3.1v0.9l-3.6,3.1C219.3,397.2,219.3,396.2,219.3,396.2z
			 M223.1,397c-0.2,0-0.2,0.1-0.2,0.2v0.4l-3.6,3.1v-0.9l6-5.1c0.4,0,0.8,0,1.1,0l-2.8,2.4C223.3,397,223.1,397,223.1,397
			 M229.1,392.5l3.1-2.7c0.2,0.2,0.3,0.4,0.4,0.6l-3.7,3.1C229.2,393.1,229.2,392.7,229.1,392.5 M227.5,390.7c-0.1,0-0.3,0-0.4,0
			l2.6-2.2c0.3,0.1,0.5,0.2,0.8,0.3l-2.5,2.2C228,390.8,227.8,390.7,227.5,390.7 M227.5,391.7c0.7,0,0.9,0.2,1.1,0.3
			c0.2,0.1,0.3,0.2,0.3,0.3c0.1,0.2,0.1,0.6,0,0.9c-0.1,0.4-0.4,0.9-1.2,1c-0.6,0.1-3.2,0.1-3.3,0.1s-0.1,0-0.1-0.1v-2.4
			c0-0.1,0-0.1,0.1-0.1C224.3,391.7,227.3,391.7,227.5,391.7 M223.2,390.6l2.9-2.4h1.1l-2.9,2.4
			C223.8,390.6,223.3,390.6,223.2,390.6 M222.9,391.8l-3.6,3.1V394l3.6-3.1V391.8z M221.9,388.2h1.1l-3.7,3.1v-0.7
			c0-0.1,0-0.2-0.1-0.2L221.9,388.2z M219,390.5c-0.3,0-0.7,0-1.1,0l2.7-2.3c0.3,0,0.8,0,1.1,0L219,390.5z M228.4,404.5
			c-0.4,0-0.8,0-1.2,0l6.2-5.3c0.1,0.3,0.1,0.6,0.1,0.9L228.4,404.5z M229.1,404.4c-0.2,0-0.3,0-0.4,0l4.9-4.1
			c0,0.3-0.1,0.7-0.2,0.9l-3.5,3C229.6,404.3,229.4,404.4,229.1,404.4 M234.1,398.2c-0.8-1.1-2.4-1.8-2.4-1.9c-0.1,0-0.1,0,0-0.1
			c0,0,1.3-0.6,1.8-1.3c0.7-0.8,1.1-1.6,0.8-3.2c-0.3-2.1-2.2-3.8-5.9-4c-1.3-0.1-2.3-0.1-2.9-0.1c-0.6,0-1,0-2.4,0.1
			c-1.3,0-6.1,0-6.3,0c-0.3,0-0.4,0-0.4,0.2v2.9c0,0.1,0.2,0.2,0.3,0.3c0.2,0.2,0.7,0.6,0.7,0.7c0,0,0,0,0.1,0h1.1v0.1
			c0,0,0,9.3,0,9.6c0,0.2,0,0.3-0.1,0.3s-2.1,0-2.2,0s-0.1,0-0.1,0.1c0,0,0,2.9,0,2.9s0.1,0.2,0.2,0.3s0.8,0.7,0.9,0.8
			c0.1,0,0.2,0.1,0.3,0.1h5.1c0,0,6.3-0.1,7.4-0.2c1.8-0.2,3.6-1.3,4.3-3.3C235.1,400.8,234.8,399.3,234.1,398.2"/>
		<path fill="#F2D383" d="M250.6,390.6c-2.8,0-4.4,1.7-4.4,5.7c0,4.5,1.9,6.2,4.5,6.2c2.4,0,4-2.1,4-6
			C254.7,392.7,253.4,390.6,250.6,390.6 M258.9,397.2c0,3.9-2.8,7.8-8.7,7.8c-4,0-8.2-2.8-8.2-8.3s4.6-8.4,8.1-8.4
			C257,388.3,258.9,393,258.9,397.2"/>
		<path fill="#933F22" d="M253.7,404.5l4.4-3.7C257.2,402.4,255.8,403.8,253.7,404.5 M244,402.4l2.9-2.4c0.1,0.3,0.2,0.4,0.3,0.7
			l-2.7,2.3C244.3,402.7,244.1,402.5,244,402.4 M247.5,388.8l-4.5,3.9C244,390.7,245.8,389.4,247.5,388.8 M242.8,393l5.2-4.4
			c0.5-0.2,0.9-0.3,1.4-0.3l-7.1,6C242.4,393.9,242.6,393.5,242.8,393 M250.7,388.3l-8.7,7.4c0-0.3,0.1-0.8,0.2-1.1l7.4-6.3
			c0.2,0,0.3,0,0.4,0C250.3,388.3,250.6,388.3,250.7,388.3 M252.4,402.1c0.3-0.2,0.7-0.5,0.9-0.8l5.5-4.7c0,0.2,0,0.4,0,0.6
			c0,0.1,0,0.2,0,0.3l-8.9,7.6c-0.3,0-0.7,0-0.9-0.1L252.4,402.1z M250.6,402.5c0.1,0,0.1,0,0.2,0c0.4,0,0.8-0.1,1.2-0.2l-3,2.6
			c-0.3-0.1-0.6-0.1-0.9-0.2L250.6,402.5z M249.4,402.4c0.3,0.1,0.6,0.2,0.9,0.2l-2.6,2.2c-0.3-0.1-0.5-0.2-0.8-0.3L249.4,402.4z
			 M248.6,402c0.3,0.2,0.4,0.3,0.7,0.3l-2.4,2.1c-0.3-0.1-0.5-0.3-0.7-0.3L248.6,402z M247.8,401.4c0.2,0.2,0.3,0.3,0.6,0.5l-2.4,2
			c-0.3-0.1-0.4-0.3-0.7-0.4L247.8,401.4z M247.7,401.3l-2.5,2.2c-0.2-0.2-0.4-0.3-0.6-0.5l2.7-2.3
			C247.4,400.9,247.5,401.1,247.7,401.3 M246.5,399c0.1,0.3,0.2,0.5,0.3,0.8l-2.9,2.5c-0.2-0.2-0.3-0.3-0.4-0.6L246.5,399z
			 M246.4,398c0,0.3,0.1,0.6,0.2,0.8l-3.2,2.7c-0.2-0.2-0.3-0.4-0.3-0.7L246.4,398z M246.3,396.9c0,0.3,0,0.6,0.1,0.8l-3.4,2.9
			c-0.1-0.3-0.2-0.4-0.3-0.7L246.3,396.9z M246.3,395.8c0,0.2,0,0.3,0,0.6c0,0.2,0,0.3,0,0.4l-3.7,3.2c-0.1-0.3-0.2-0.5-0.3-0.8
			L246.3,395.8z M246.4,394.6c-0.1,0.3-0.1,0.7-0.1,1l-4,3.4c-0.1-0.3-0.1-0.5-0.2-0.8L246.4,394.6z M242,397.1l4.8-4
			c-0.2,0.3-0.3,0.8-0.3,1.3l-4.4,3.7C242.1,397.7,242,397.4,242,397.1 M250.7,390.6L250.7,390.6c-0.5,0-0.8,0-1.2,0.1l2.7-2.3
			c0.3,0.1,0.6,0.1,0.9,0.2L250.7,390.6z M251.8,390.8c-0.3-0.1-0.6-0.2-0.9-0.2l2.3-1.9c0.3,0.1,0.5,0.2,0.8,0.3L251.8,390.8z
			 M252.8,391.2c-0.3-0.2-0.4-0.3-0.7-0.3l2.2-1.8c0.3,0.1,0.5,0.3,0.7,0.3L252.8,391.2z M253.4,391.8c-0.2-0.2-0.3-0.3-0.5-0.5
			l2.2-1.8c0.3,0.1,0.4,0.3,0.6,0.4L253.4,391.8z M253.9,392.5c-0.1-0.3-0.3-0.4-0.4-0.6l2.3-1.9c0.2,0.2,0.4,0.3,0.6,0.5
			L253.9,392.5z M254.5,394.3c-0.1-0.3-0.1-0.5-0.2-0.8l2.8-2.4c0.2,0.2,0.3,0.4,0.4,0.6L254.5,394.3z M254.6,395.4
			c0-0.3-0.1-0.6-0.1-0.8l3-2.6c0.2,0.3,0.3,0.4,0.3,0.7L254.6,395.4z M254.7,396.5c0-0.3,0-0.6,0-0.9l3.4-2.9
			c0.1,0.3,0.2,0.5,0.3,0.7L254.7,396.5z M254.6,397.7c0-0.3,0.1-0.7,0.1-1l3.7-3.1c0.1,0.3,0.2,0.5,0.3,0.8L254.6,397.7z
			 M258.7,395.3l-4.4,3.7c0.1-0.3,0.2-0.7,0.2-1.1l4-3.4C258.6,394.8,258.7,395.1,258.7,395.3 M254.4,399.3l4.5-3.8
			c0,0.3,0.1,0.6,0.1,0.8l-5.1,4.4C254,400.4,254.2,399.8,254.4,399.3 M248.3,401.2c-0.4-0.7-0.8-2.4-0.5-5c0.4-3.7,1.8-4.3,2.8-4.4
			s2,0,2.6,0.4c0.3,0.3,1.1,1.4,1.1,4.4c0,3-1.1,5.6-3.4,5.6C249.1,402.1,248.6,401.7,248.3,401.2 M257,391l-2.7,2.4
			c-0.1-0.3-0.2-0.5-0.3-0.7l2.5-2.2C256.7,390.7,256.8,390.9,257,391 M242,396.7c0-0.3,0-0.5,0-0.8l9-7.7c0.3,0,0.7,0.1,0.9,0.1
			l-2.9,2.4c-0.9,0.3-1.7,0.9-2.2,1.8l-5,4.2C242,396.8,242,396.7,242,396.7 M258.7,398.8l-7.2,6.1c-0.4,0.1-0.8,0.1-1.2,0.1
			l8.6-7.3C258.8,398.1,258.8,398.5,258.7,398.8 M258.2,400.4l-5,4.2c-0.5,0.2-0.9,0.3-1.5,0.3l6.9-5.9
			C258.6,399.5,258.4,400,258.2,400.4 M250.4,387.9c-5,0-8.8,3.6-8.7,9.2s5.1,9.2,9.9,9.2c5.2-0.1,8.8-4,8.8-9.1
			S255.8,387.9,250.4,387.9"/>
		<path fill="#F2D383" d="M356.7,390.6c-2.8,0-4.4,1.7-4.4,5.7c0,4.5,1.9,6.2,4.5,6.2c2.4,0,4-2.1,4-6
			C360.7,392.7,359.5,390.6,356.7,390.6 M364.9,397.2c0,3.9-2.8,7.8-8.7,7.8c-4,0-8.2-2.8-8.2-8.3s4.6-8.4,8.1-8.4
			C363.1,388.3,364.9,393,364.9,397.2"/>
		<path fill="#933F22" d="M359.7,404.5l4.4-3.7C363.2,402.4,361.8,403.8,359.7,404.5 M350,402.4l2.9-2.4c0.1,0.3,0.2,0.4,0.3,0.7
			l-2.7,2.3C350.4,402.7,350.2,402.5,350,402.4 M353.7,388.8l-4.5,3.9C350.1,390.7,351.8,389.4,353.7,388.8 M348.9,393l5.2-4.4
			c0.5-0.2,0.9-0.3,1.4-0.3l-7.1,6.1C348.5,393.9,348.7,393.5,348.9,393 M356.8,388.3l-8.7,7.4c0-0.3,0.1-0.8,0.2-1.1l7.4-6.3
			c0.2,0,0.3,0,0.4,0C356.3,388.3,356.6,388.3,356.8,388.3 M358.4,402.1c0.3-0.2,0.7-0.5,0.9-0.8l5.5-4.7c0,0.2,0,0.4,0,0.6
			c0,0.1,0,0.2,0,0.3l-8.9,7.6c-0.3,0-0.7,0-0.9-0.1L358.4,402.1z M356.6,402.5c0.1,0,0.1,0,0.2,0c0.4,0,0.8-0.1,1.2-0.2l-3,2.6
			c-0.3-0.1-0.6-0.1-0.8-0.2L356.6,402.5z M355.5,402.4c0.3,0.1,0.6,0.2,0.9,0.2l-2.6,2.2c-0.3-0.1-0.5-0.2-0.8-0.3L355.5,402.4z
			 M354.6,402c0.3,0.2,0.4,0.3,0.7,0.3l-2.4,2.1c-0.3-0.1-0.5-0.3-0.7-0.3L354.6,402z M353.9,401.4c0.2,0.2,0.3,0.3,0.6,0.5
			l-2.4,2.1c-0.3-0.1-0.4-0.3-0.7-0.4L353.9,401.4z M353.7,401.3l-2.5,2.2c-0.2-0.2-0.4-0.3-0.6-0.5l2.7-2.3
			C353.5,400.9,353.6,401.1,353.7,401.3 M352.6,399c0.1,0.3,0.2,0.5,0.3,0.8l-2.9,2.5c-0.2-0.2-0.3-0.3-0.4-0.6L352.6,399z
			 M352.4,398c0,0.3,0.1,0.6,0.2,0.8l-3.2,2.7c-0.2-0.2-0.3-0.4-0.3-0.7L352.4,398z M352.3,396.9c0,0.3,0,0.6,0.1,0.8l-3.4,2.9
			c-0.1-0.3-0.2-0.4-0.3-0.7L352.3,396.9z M352.3,395.8c0,0.2,0,0.3,0,0.6c0,0.2,0,0.3,0,0.4l-3.7,3.2c-0.1-0.3-0.2-0.5-0.3-0.8
			L352.3,395.8z M352.5,394.6c-0.1,0.3-0.1,0.7-0.1,1l-4,3.4c-0.1-0.3-0.1-0.5-0.2-0.8L352.5,394.6z M348.1,397.1l4.8-4
			c-0.2,0.3-0.3,0.8-0.3,1.3l-4.4,3.7C348.1,397.7,348.1,397.4,348.1,397.1 M356.8,390.6L356.8,390.6c-0.5,0-0.8,0-1.2,0.1l2.7-2.3
			c0.3,0.1,0.6,0.1,0.9,0.2L356.8,390.6z M357.9,390.8c-0.3-0.1-0.6-0.2-0.9-0.2l2.3-1.9c0.3,0.1,0.5,0.2,0.8,0.3L357.9,390.8z
			 M358.8,391.2c-0.3-0.2-0.4-0.3-0.7-0.3l2.2-1.8c0.3,0.1,0.5,0.3,0.7,0.3L358.8,391.2z M359.5,391.8c-0.2-0.2-0.3-0.3-0.5-0.5
			l2.2-1.8c0.3,0.1,0.4,0.3,0.6,0.4L359.5,391.8z M360,392.5c-0.1-0.3-0.3-0.4-0.4-0.6l2.3-1.9c0.2,0.2,0.4,0.3,0.6,0.5L360,392.5z
			 M360.5,394.3c-0.1-0.3-0.1-0.5-0.2-0.8l2.8-2.4c0.2,0.2,0.3,0.4,0.4,0.6L360.5,394.3z M360.7,395.4c0-0.3-0.1-0.6-0.1-0.8l3-2.6
			c0.2,0.3,0.3,0.4,0.3,0.7L360.7,395.4z M360.7,396.5c0-0.3,0-0.6,0-0.9l3.4-2.9c0.1,0.3,0.2,0.5,0.3,0.7L360.7,396.5z
			 M360.7,397.7c0-0.3,0.1-0.7,0.1-1l3.7-3.1c0.1,0.3,0.2,0.5,0.3,0.8L360.7,397.7z M364.8,395.3l-4.4,3.7c0.1-0.3,0.2-0.7,0.2-1.1
			l4-3.4C364.8,394.8,364.8,395.1,364.8,395.3 M360.4,399.3l4.5-3.8c0,0.3,0.1,0.6,0.1,0.8l-5.1,4.4
			C360,400.4,360.2,399.8,360.4,399.3 M354.3,401.2c-0.3-0.7-0.8-2.4-0.5-5c0.4-3.7,1.8-4.3,2.8-4.4c1-0.1,2,0,2.6,0.4
			c0.3,0.3,1.1,1.4,1.1,4.4c0,3-1.1,5.6-3.4,5.6C355.3,402.1,354.6,401.7,354.3,401.2 M363.1,391l-2.7,2.4c-0.1-0.3-0.2-0.5-0.3-0.7
			l2.5-2.2C362.7,390.7,362.9,390.9,363.1,391 M348.1,396.7c0-0.3,0-0.5,0-0.8l8.9-7.7c0.3,0,0.7,0.1,0.9,0.1l-2.9,2.4
			c-0.9,0.3-1.7,0.9-2.2,1.8l-5,4.2C348.1,396.8,348.1,396.7,348.1,396.7 M364.8,398.8l-7.2,6.1c-0.4,0.1-0.8,0.1-1.3,0.1l8.6-7.3
			C364.9,398.1,364.8,398.5,364.8,398.8 M364.2,400.4l-5,4.2c-0.5,0.2-0.9,0.3-1.5,0.3l6.9-5.9C364.6,399.5,364.5,400,364.2,400.4
			 M356.4,387.9c-5,0-8.8,3.6-8.7,9.2s5.1,9.2,9.9,9.2c5.2-0.1,8.8-4,8.8-9.1S361.9,387.9,356.4,387.9"/>
		<path fill="#F2D383" d="M276.2,388.3v2.1c0,0.2,0,0.2-0.1,0.2H274c-0.1,0-0.1,0-0.1,0.1v8.6c0,0.8,0.8,3.4,3.7,3.4
			c3.2,0,3.9-1.4,3.9-4.2v-7.7c0-0.1,0-0.1-0.1-0.1h-1.9c-0.1,0-0.1,0-0.1-0.1v-2.2c0-0.1,0-0.1,0.1-0.1h6.7c0.1,0,0.1,0,0.1,0.1
			v2.2c0,0.1,0,0.1-0.1,0.1h-2c-0.1,0-0.2,0-0.2,0.2s0,7.7,0,9.1c0,1.4-0.7,3.1-2.8,4.5c-2.1,1.3-6.9,1.2-9.1-0.4
			c-1.4-0.8-1.9-2.4-1.9-3.9v-9.3c0-0.1,0-0.1-0.1-0.1h-2.3c-0.1,0-0.1,0-0.1-0.1v-2.2c0-0.1,0-0.1,0.1-0.1h8.1
			C276.2,388.2,276.2,388.2,276.2,388.3"/>
		<path fill="#933F22" d="M286.2,390.6L286.2,390.6L286.2,390.6L286.2,390.6L286.2,390.6 M281.3,404.3c-0.3,0.3-0.8,0.4-1.3,0.6
			l3.6-3.1C283.3,402.6,282.5,403.5,281.3,404.3 M277.1,405.2l7-6v0.6c0,0.1,0,0.2,0,0.3l-5.9,5
			C277.8,405.2,277.5,405.2,277.1,405.2 M272,403.8l2.7-2.4c0.2,0.2,0.3,0.3,0.5,0.5l-2.6,2.3C272.4,404.1,272.3,404.1,272,403.8
			C272.2,403.8,272.1,403.8,272,403.8 M271.3,403.2l2.9-2.5c0.1,0.2,0.3,0.4,0.4,0.6l-2.8,2.4C271.7,403.5,271.5,403.4,271.3,403.2
			 M268.6,390.6l2.8-2.4h1l-2.8,2.4H268.6z M267.9,390.5V390l2.1-1.8h1.1l-2.8,2.4L267.9,390.5C267.9,390.6,267.9,390.6,267.9,390.5
			 M268,388.2h0.5l-0.6,0.5L268,388.2C267.9,388.2,267.9,388.2,268,388.2 M267.9,388.9l0.8-0.7h1l-1.8,1.6V388.9z M276.2,388.3
			L276.2,388.3l-5.9,5.1v-1l5-4.3h0.8C276.2,388.2,276.2,388.2,276.2,388.3 M276.1,390.6h-0.8l0.9-0.8L276.1,390.6
			C276.2,390.6,276.2,390.6,276.1,390.6 M273.9,392.7l-3.6,3.1v-0.9l3.6-3.1V392.7z M273.9,399.8c0.1,0.3,0.2,0.5,0.3,0.8l-2.9,2.5
			c-0.2-0.2-0.3-0.4-0.4-0.6L273.9,399.8z M273.9,398.8v0.5c0,0.1,0,0.3,0,0.3l-3.1,2.7c-0.1-0.3-0.2-0.4-0.3-0.7L273.9,398.8z
			 M273.9,397.6v0.9l-3.4,2.9c-0.1-0.3-0.1-0.5-0.2-0.8L273.9,397.6z M270.2,400v-0.5l3.6-3.1v0.9l-3.5,3.1
			C270.2,400.3,270.2,400.1,270.2,400 M270.2,398.3l3.6-3.1v0.9l-3.6,3.1V398.3L270.2,398.3z M270.2,391.2v-0.5c0-0.1,0-0.1-0.1-0.1
			h-0.4l2.8-2.4h1.2L270.2,391.2z M270.2,391.4l3.7-3.1h1.1l-4.8,4V391.4L270.2,391.4z M273.9,393.9l-3.6,3.1v-0.9l3.6-3.1V393.9z
			 M270.2,397.2l3.6-3.1v0.9l-3.6,3.1V397.2L270.2,397.2z M273.9,390.7v0.8l-3.6,3.1v-0.9L273.9,390.7
			C273.9,390.6,273.9,390.7,273.9,390.7 M274,390.6C273.9,390.6,273.9,390.6,274,390.6l2.2-1.9v0.9l-1.2,1
			C275,390.6,274,390.6,274,390.6z M273.5,404.6c-0.3-0.1-0.5-0.2-0.8-0.3l2.6-2.2c0.2,0.2,0.4,0.3,0.7,0.3L273.5,404.6z
			 M276.3,402.5c0.3,0.1,0.6,0.2,0.9,0.2l-2.7,2.3c-0.3-0.1-0.6-0.2-0.8-0.3L276.3,402.5z M278.6,402.6l-2.9,2.4
			c-0.3,0-0.6-0.1-0.9-0.2l2.7-2.3c0.1,0,0.2,0,0.3,0C278,402.6,278.3,402.6,278.6,402.6 M281.3,400.5l2.8-2.4v0.9l-7.2,6.1
			c-0.3,0-0.7,0-1-0.1l3-2.5C280.3,402.4,281,401.6,281.3,400.5 M280.7,390.6l2.8-2.4h1.1l-3.1,2.6v-0.2c0-0.1,0-0.1-0.1-0.1H280.7z
			 M279.5,390.6C279.4,390.6,279.4,390.6,279.5,390.6l2.6-2.4h1.1l-2.8,2.4H279.5z M279.5,388.2h1l-1.1,0.9L279.5,388.2
			C279.4,388.2,279.4,388.2,279.5,388.2 M281.9,388.2l-2.4,2.1v-0.9l1.3-1.2H281.9z M285.9,388.2l-4.5,3.8v-0.9l3.4-2.9H285.9z
			 M284.8,390.6l1.4-1.3v0.9l-0.4,0.3H284.8z M281.5,394.3v-0.9l2.5-2.2v0.9L281.5,394.3z M284,393.3l-2.5,2.2v-0.9l2.5-2.2V393.3z
			 M281.5,399.2l2.6-2.2v0.9l-2.8,2.4C281.4,399.9,281.4,399.6,281.5,399.2 M284,394.5l-2.5,2.2v-0.9l2.5-2.2V394.5z M281.5,397.8
			v-0.9l2.5-2.2v1L281.5,397.8z M284,396.7l-2.6,2.2c0-0.2,0-0.3,0-0.5V398l2.5-2.2C284,396.2,284,396.5,284,396.7 M286.2,388.2
			C286.3,388.2,286.3,388.2,286.2,388.2l0.1,0.9l-1.7,1.4h-0.3c-0.1,0-0.2,0-0.2,0.2c0,0,0,0.1,0,0.3l-2.5,2.2v-0.9L286.2,388.2
			L286.2,388.2z M283.8,401.4l-4.1,3.5c-0.4,0.1-0.8,0.2-1.3,0.2l5.6-4.8C284,400.7,284,401.1,283.8,401.4 M286.6,388
			c-0.3-0.3-0.3-0.2-0.7-0.2h-6.7c-0.1,0-0.2,0-0.2,0.1v3.1c0,0,0.3,0.2,0.5,0.4c0.3,0.2,0.5,0.3,0.5,0.3h0.9c0.2,0,0.2,0,0.2,0.1
			c0,0.2,0,6.1,0,7c0,0.9-0.2,3.4-2.9,3.4s-2.9-2.4-2.9-3.7V392c0-0.2,0-0.3,0.2-0.3h1.9c0.2,0,0.2,0,0.2-0.2v-2.5
			c0-0.1-0.3-0.3-0.5-0.7s-0.5-0.6-0.5-0.6h-8.8c-0.2,0-0.2,0-0.2,0.2v3c0,0.1,0.2,0.2,0.5,0.3c0.3,0.2,0.6,0.4,0.7,0.4h1.1
			c0.1,0,0.1,0,0.1,0.1v7.7c0,1.7,0.3,3.4,1.6,4.5c2.1,2,4.3,2.2,7,2.2s7-1.5,7-6.5v-7.8c0-0.1,0-0.2,0.1-0.2h1.9
			c0.1,0,0.1,0,0.1-0.1V389C287.5,388.9,286.8,388.2,286.6,388"/>
		<path fill="#F2D383" d="M308.2,389.3c0.2,0.2,0.3,0,0.3-0.2v-0.8h2.2c0.2,0,0.2,0,0.2,0.1v5.4c0,0.1,0,0.1-0.2,0.1s-2.3,0-2.3,0
			s-0.1-0.3-0.2-0.7c-0.5-1.8-2-3.1-4.4-3c-1.7,0.1-4.4,2.1-4.4,5.7c-0.1,4.6,3.2,6.9,6.4,6.1c2.1-0.5,3.3-2.3,3.3-2.4
			c0.2-0.2,0.2-0.2,0.3-0.1c0.2,0.2,1.7,1.3,1.8,1.3s0.1,0.1,0,0.2c-1.3,1.8-3.3,4-7.4,4c-1.6,0-7.1-0.5-8.6-6.8
			c-0.7-2.9,0.3-6.1,2.4-8.1c2.6-2.4,5-2.4,6.7-2.3C306.5,387.9,307.7,388.8,308.2,389.3"/>
		<path fill="#933F22" d="M311.2,401c-0.9,1.3-2.2,2.7-4.2,3.4l4.2-3.6C311.3,400.9,311.3,401,311.2,401 M303.9,405l6-5.1
			c0.2,0.1,0.3,0.3,0.6,0.4l-5.5,4.6C304.6,405,304.2,405,303.9,405 M297.5,402.5l2.9-2.5c0.2,0.2,0.3,0.4,0.4,0.6L298,403
			C297.8,402.8,297.7,402.6,297.5,402.5 M297.7,390.1c0.5-0.5,1-0.8,1.5-1.2l-2.3,1.9C297.2,390.6,297.5,390.3,297.7,390.1
			 M304.7,387.9l-9.7,8.2c0-0.3,0.1-0.7,0.1-1l8.5-7.2c0.3,0,0.6,0,0.8,0C304.6,387.9,304.6,387.9,304.7,387.9 M305.8,390.5
			c-0.3-0.1-0.5-0.2-0.8-0.3l2-1.8c0.3,0.2,0.4,0.3,0.7,0.3L305.8,390.5z M308.3,388.2L308.3,388.2L308.3,388.2L308.3,388.2z
			 M310.7,388.3v0.3l-3.4,2.9c-0.2-0.2-0.3-0.3-0.5-0.5l3.4-2.9L310.7,388.3C310.7,388.2,310.7,388.2,310.7,388.3 M310.5,393.9h-0.3
			l0.5-0.4v0.3C310.7,393.9,310.7,393.9,310.5,393.9 M308.9,393.9l1.8-1.5v0.9l-0.8,0.6C309.7,393.9,309.3,393.9,308.9,393.9
			 M308.3,393.9c0,0-0.1-0.2-0.2-0.5l2.6-2.2v0.9l-2,1.8C308.4,393.9,308.3,393.9,308.3,393.9 M307.8,392.5l2.9-2.4v0.9l-2.6,2.3
			l0,0C308,393,307.9,392.7,307.8,392.5 M307.3,391.7l3.4-2.9v0.9l-2.9,2.5C307.7,392.1,307.5,391.9,307.3,391.7 M308.2,389.3
			c0.2,0.2,0.3,0,0.3-0.2v-0.6l0.3-0.3h1.1l-3.2,2.8c-0.2-0.2-0.4-0.3-0.7-0.4l1.8-1.6C307.9,389.1,308.1,389.2,308.2,389.3
			 M303.7,390.1l2.4-2c0.3,0.1,0.6,0.2,0.8,0.3l-2,1.8C304.5,390.2,304.1,390.1,303.7,390.1 M300,399.2c0.1,0.3,0.3,0.4,0.3,0.7
			l-2.9,2.5c-0.2-0.2-0.3-0.3-0.4-0.5L300,399.2z M299.7,398.3c0.1,0.3,0.2,0.5,0.3,0.8l-3.1,2.7c-0.2-0.2-0.3-0.4-0.4-0.6
			L299.7,398.3z M299.4,397.2c0,0.3,0.1,0.6,0.2,0.8l-3.3,2.8c-0.1-0.2-0.3-0.4-0.3-0.7L299.4,397.2z M299.3,396.2
			c0,0.3,0,0.6,0.1,0.8l-3.5,3c-0.1-0.3-0.2-0.4-0.3-0.7L299.3,396.2z M299.4,395c0,0.3-0.1,0.6-0.1,0.9v0.1l-3.8,3.3
			c-0.1-0.3-0.2-0.5-0.3-0.8L299.4,395z M303.5,390.2c-1.2,0.2-2.7,1.2-3.5,3l-4.8,4.1c0-0.3-0.1-0.7-0.1-0.9l9.9-8.4
			c0.3,0,0.7,0.1,0.9,0.2L303.5,390.2z M295.6,393.5l6.6-5.5c0.4-0.1,0.8-0.1,1.3-0.1l-8.2,7C295.3,394.4,295.4,394,295.6,393.5
			 M296.6,391.4l3.4-2.9c0.6-0.3,1.2-0.5,1.8-0.6l-6.1,5.2C295.9,392.6,296.2,392,296.6,391.4 M295.3,398.2
			c-0.1-0.3-0.1-0.5-0.2-0.8l4.6-4c-0.2,0.4-0.3,0.8-0.3,1.3L295.3,398.2C295.3,398.3,295.3,398.3,295.3,398.2 M301.5,401.1
			l-2.8,2.4c-0.2-0.2-0.4-0.3-0.6-0.4l2.9-2.4C301.1,400.8,301.4,400.9,301.5,401.1 M302.3,401.6l-2.8,2.4c-0.3-0.1-0.4-0.3-0.7-0.3
			l2.8-2.4C301.9,401.4,302,401.5,302.3,401.6 M300.4,404.4c-0.3-0.1-0.5-0.2-0.8-0.3l2.8-2.4c0.3,0.1,0.5,0.2,0.8,0.3L300.4,404.4z
			 M303.4,402c0.3,0.1,0.7,0.1,0.9,0.1l-2.9,2.5c-0.3-0.1-0.5-0.2-0.8-0.3L303.4,402z M305.7,402C305.8,402,305.8,402,305.7,402
			l-3.4,2.9c-0.3,0-0.5-0.1-0.8-0.2l2.9-2.5C305,402.1,305.4,402.1,305.7,402 M309.1,399.6c0.2-0.2,0.2-0.2,0.3-0.1
			c0.1,0,0.2,0.1,0.3,0.3l-6.1,5.2c-0.3,0-0.6,0-0.9-0.1l3.5-3C308,401.2,309,399.7,309.1,399.6 M311.1,400.8l-4.5,3.9
			c-0.4,0.1-0.8,0.3-1.3,0.3l5.3-4.5C310.8,400.6,311,400.7,311.1,400.8 M312.4,401.3c-0.1-0.1-0.8-0.6-0.8-0.6s-2-1.5-2.2-1.7
			c-0.3-0.2-0.3-0.2-0.4,0.2c-0.1,0.2-1.3,2.3-3.8,2.6c-2.6,0.3-4.5-1.6-4.5-5.3c0-3.3,2.3-5.3,3.6-5.4c2-0.1,3,0.6,3.6,3
			c0,0,0.2,0.2,0.3,0.3s0.7,0.8,0.8,0.8h2.8c0.2,0,0.2,0,0.2-0.2v-5.9L312,389c0,0-0.9-1-1-1h-2.9c-0.1,0-0.1,0-0.1,0.1v0.4v0.1
			l-0.1,0.1c-0.6-0.5-1.8-1.2-4.2-1.3c-1,0-3.1,0-5.2,1.4c-2.1,1.5-4.3,4.4-4,8.4c0.5,5,4.7,9,10.1,8.9c4.2-0.1,6.7-3.2,7.7-4.6
			C312.5,401.4,312.5,401.4,312.4,401.3"/>
		<path fill="#F2D383" d="M328.6,390.7C328.6,390.8,328.6,390.8,328.6,390.7l-2.1,0.1c-0.1,0-0.2,0-0.2,0.1v4.1c0,0.2,0,0.2,0.1,0.2
			h2.1h4.8c0.1,0,0.1,0,0.1-0.2v-4c0-0.2,0-0.2-0.1-0.2h-2.1c-0.1,0-0.1-0.1-0.1-0.2c0-0.2,0-2,0-2.1s0-0.1,0.1-0.1h8.1
			c0.1,0,0.1,0,0.1,0.1v2.2c0,0.2,0,0.2-0.2,0.2h-2c-0.1,0-0.2,0-0.2,0.2v11.2c0,0.2,0,0.2,0.1,0.2h2c0.1,0,0.1,0,0.1,0.1
			s0,1.7,0,1.8s0,0.3-0.2,0.3h-7.8c-0.1,0-0.1,0-0.1-0.2v-1.9c0-0.1,0-0.1,0.1-0.1h2c0.2,0,0.2,0,0.2-0.3v-4.4c0-0.2,0-0.2-0.2-0.2
			h-6.8c-0.1,0-0.1,0-0.1,0.3v4.3c0,0.2,0.1,0.2,0.2,0.2h2c0.1,0,0.1,0,0.1,0.1v1.9c0,0.1-0.1,0.2-0.3,0.2h-7.8
			c-0.1,0-0.1,0-0.1-0.2v-2c0-0.1,0-0.1,0.1-0.1h1.8c0.2,0,0.2,0,0.2-0.2v-1.6v-9.5c0-0.2,0-0.2-0.1-0.2h-1.8c-0.1,0-0.1,0-0.1-0.1
			v-2.2c0-0.1,0-0.1,0.2-0.1c0.1,0,7.8,0,7.9,0s0.1,0,0.1,0.1V390.7L328.6,390.7z"/>
		<path fill="#F2D383" d="M391.5,388.5v2c0,0.2,0,0.2-0.1,0.2h-2c-0.1,0-0.1,0-0.1,0.2s0,13.4,0,13.5s0,0.2-0.1,0.2h-3.7
			c-0.1,0-0.2-0.2-0.2-0.2s-6.7-11.7-6.9-11.9c-0.3-0.6-0.5-0.3-0.5,0.1s0,9.4,0,9.5s0,0.1,0.1,0.1h2c0.1,0,0.1,0,0.1,0.1
			s0,2.1,0,2.2s0,0.2-0.1,0.2h-6.7c-0.1,0-0.1,0-0.1-0.1v-2.2c0-0.1,0-0.1,0.1-0.1h2c0.2,0,0.2-0.1,0.2-0.3v-11.1
			c0-0.2,0-0.2-0.1-0.2s-0.7,0-1.2,0c-0.5,0-1,0-1,0c0-0.1,0-0.6,0-0.9s0-1.3,0-1.3c0-0.1,0-0.1,0.1-0.1h6.6c0,0,6.7,11,6.9,11.3
			s0.3,0.1,0.3-0.2s0-8.5,0-8.7s0-0.2-0.2-0.2s-1.7,0-1.8,0c-0.2,0-0.2,0-0.2-0.1v-2.1c0-0.2,0-0.2,0.1-0.2h6.3
			C391.5,388.3,391.5,388.4,391.5,388.5"/>
		<path fill="#933F22" d="M339.3,390.8h-0.6l0.8-0.6v0.4C339.4,390.8,339.4,390.8,339.3,390.8 M339.3,402.4v0.3l-2.2,1.8H336
			l2.6-2.3h0.5C339.3,402.3,339.3,402.3,339.3,402.4 M339.1,404.6h-0.4l0.6-0.5v0.3C339.3,404.5,339.3,404.6,339.1,404.6
			 M337.3,404.6l1.9-1.6c0,0.3,0,0.6,0,0.8l-0.8,0.8H337.3z M334.7,404.6l2.6-2.3h1.1l-2.6,2.3H334.7z M331.1,404.4v-0.2l2.2-1.9
			l0,0l3.7-3.2v0.9l-5.3,4.5h-0.6C331.1,404.6,331.1,404.6,331.1,404.4 M331.2,402.3h0.5l-0.6,0.5v-0.3
			C331.1,402.3,331.1,402.3,331.2,402.3 M333.1,402.3l-1.9,1.7v-1l0.8-0.7H333.1z M328.6,402.4v0.3l-2.3,1.9h-1.1l2.7-2.3
			L328.6,402.4C328.6,402.3,328.6,402.3,328.6,402.4 M328.3,404.6h-0.4l0.7-0.6v0.3C328.6,404.5,328.5,404.6,328.3,404.6
			 M326.6,404.6l2-1.7v0.9l-0.9,0.8H326.6z M320.4,404.4V404l5.9-5v0.9l-5.4,4.6L320.4,404.4C320.4,404.6,320.4,404.6,320.4,404.4
			 M320.5,402.3h0.3l-0.4,0.3v-0.3C320.4,402.3,320.4,402.3,320.5,402.3 M322.2,402.3l-1.8,1.5v-0.9l0.7-0.6H322.2z M320.4,390.7
			v-0.5l2.2-1.8h1.1l-2.9,2.4L320.4,390.7C320.4,390.8,320.4,390.8,320.4,390.7 M320.6,388.3h0.4l-0.6,0.5v-0.3
			C320.4,388.3,320.4,388.3,320.6,388.3 M320.4,389.1l0.8-0.8h1l-1.9,1.6L320.4,389.1L320.4,389.1z M328.6,388.4v0.3l-6.1,5.1V393
			l5.5-4.6L328.6,388.4C328.6,388.3,328.6,388.4,328.6,388.4 M328.5,390.8h-0.7l0.8-0.7v0.5C328.6,390.8,328.6,390.8,328.5,390.8
			 M327.9,395.1l-5.4,4.6v-0.9l4.3-3.6L327.9,395.1L327.9,395.1z M329.3,395.1l-6.7,5.8v-0.3v-0.7l5.6-4.8h0.4
			C328.6,395.1,329.3,395.1,329.3,395.1z M330.9,395.1h1.1l-2.9,2.4H328L330.9,395.1z M326.7,397.6l2.9-2.4h1.1l-2.9,2.4H326.7z
			 M322.5,401.1l3.8-3.3v0.9l-3.8,3.3V401.1z M326.3,393l-3.9,3.3v-0.9l3.9-3.3V393z M322.5,397.6l3.9-3.3v0.6c0,0.2,0,0.2,0.1,0.2
			h0.1l-4,3.4V397.6L322.5,397.6z M326.3,394.1l-3.9,3.3v-0.9l3.9-3.3V394.1z M326.3,390.9v0.9l-3.9,3.3v-0.9L326.3,390.9
			L326.3,390.9 M326.5,390.8L326.5,390.8l2.1-1.8v0.9l-1,0.8H326.5z M326.6,388.3c0.4,0,0.8,0,1.1,0l-5.2,4.5v-0.9L326.6,388.3z
			 M325.2,388.3h1.1l-3.9,3.3v-0.7c0-0.2,0-0.2-0.1-0.2L325.2,388.3z M322.1,390.8H321l2.9-2.4c0.3,0,0.8,0,1.1,0L322.1,390.8z
			 M326.5,402.3h1.1l-2.7,2.3h-1.1L326.5,402.3z M326.3,401.4v0.8v0.1l-2.7,2.3h-1.1L326.3,401.4z M326.3,401.1l-4,3.4h-1.1l5.1-4.4
			V401.1z M333.3,395.1L333.3,395.1l-2.9,2.4h-1.1l2.9-2.4H333.3z M331.9,390.8l2.9-2.4h1.1l-2.9,2.4H331.9z M331.1,390.6
			c0,0,0-0.2,0-0.3l2.3-1.9h1.1l-2.9,2.4h-0.4C331.1,390.8,331.1,390.7,331.1,390.6 M331.2,388.3h0.6l-0.7,0.6
			C331.1,388.7,331.1,388.5,331.2,388.3C331.1,388.3,331.1,388.3,331.2,388.3 M331.1,389.2l0.9-0.8h1.1l-2,1.7
			C331.1,389.8,331.1,389.4,331.1,389.2 M339.4,388.4v0.3l-6,5.1V393l5.4-4.6L339.4,388.4C339.4,388.3,339.4,388.3,339.4,388.4
			 M337.3,390.8l2.1-1.8v0.9l-1,0.8H337.3z M333.4,391.6v-0.7c0-0.1,0-0.1-0.1-0.1h-0.1l2.9-2.4h1.1L333.4,391.6z M333.4,391.8
			l4-3.4h1.1l-5.1,4.4V391.8z M333.4,395.1L333.4,395.1v-0.9l3.7-3.1v0.9L333.4,395.1z M337.1,393l-5.3,4.5h-1.1l6.4-5.5V393z
			 M333.4,401l3.7-3.1v0.9l-3.7,3.2V401z M337.1,394.5v0.9l-3.7,3.1v-0.8c0-0.1,0-0.1,0-0.1L337.1,394.5z M337.1,394.2l-4,3.4H332
			l5-4.3V394.2z M337.1,396.6l-3.7,3.1v-0.9l3.7-3.1V396.6z M337.1,397.7l-3.7,3.1v-0.9l3.7-3.1V397.7z M337.1,401.2l-4,3.4H332
			l5-4.3V401.2z M337.1,402.3l-2.7,2.3h-1l3.7-3.1V402.3C337.1,402.2,337.1,402.2,337.1,402.3 M340.8,389.2c0-0.1-0.9-1-0.9-1
			s-0.2-0.2-0.3-0.2s-8.4,0-8.6,0c-0.3,0-0.3,0-0.3,0.3v2.7c0,0.1,0.1,0.1,0.3,0.3s0.6,0.6,0.7,0.7s0.2,0.2,0.3,0.2
			c0.1,0,0.8,0,0.9,0c0.2,0,0.2,0,0.2,0.1v2.5c0,0.1,0,0.1-0.3,0.1H331h-3.1c-0.1,0-0.1,0-0.1-0.1s0-2.4,0-2.5s0-0.1,0.1-0.1h2
			c0,0,0.2,0,0.2-0.2s0-0.8,0-1.4c0-0.5,0.1-1.2,0-1.3c0-0.1-0.2-0.2-0.2-0.2l-0.8-0.8c0,0-0.1-0.2-0.3-0.2h-8.6
			c-0.2,0-0.3,0.1-0.3,0.3v2.7c0,0.1,0.1,0.2,0.2,0.3s0.8,0.8,0.8,0.8h0.9c0.1,0,0.1,0,0.1,0.2v9.6c0,0.2,0,0.2-0.1,0.2h-1.8
			c-0.2,0-0.3,0.1-0.3,0.2v2.9c0,0.1,0.1,0.2,0.2,0.3s0.7,0.7,0.8,0.7s0.3,0,0.6,0s8,0,8.2,0c0.2,0,0.2-0.1,0.2-0.3v-2.8
			c0-0.1-0.9-0.9-1-0.9h-1.1c-0.1,0-0.1,0-0.1-0.1v-2.9c0-0.1,0-0.2,0.2-0.2h5c0.1,0,0.1,0,0.1,0.1v2.9c0,0.1,0,0.2-0.2,0.2H331
			c-0.2,0-0.3,0-0.3,0.2v2.8c0,0.1,0.1,0.2,0.2,0.2c0.1,0.1,0.4,0.4,0.6,0.6s0.3,0.3,0.3,0.3s2.3,0,3.3,0c0.9,0,5.3,0,5.5,0
			c0.3,0,0.3-0.1,0.3-0.2s0-2.6,0-2.7s-0.8-0.8-0.8-0.9c-0.1-0.1-0.2-0.2-0.3-0.2c-0.1,0-0.9,0-1,0s-0.2,0-0.2-0.1s0-9.4,0-9.6
			c0-0.3,0.1-0.3,0.2-0.3h1.9c0,0,0.2,0,0.2-0.2s0-0.6,0-1.1C340.8,390,340.8,389.3,340.8,389.2"/>
		<path fill="#933F22" d="M389.1,404.6h-0.6l0.7-0.6v0.4C389.2,404.6,389.2,404.6,389.1,404.6 M385.9,404.6l3.3-2.8v0.9l-2.2,1.8
			H385.9z M385.3,404.5c0,0-0.1-0.1-0.2-0.3l4.1-3.5v0.8l-3.5,3L385.3,404.5C385.4,404.6,385.3,404.5,385.3,404.5 M379,402.2
			l-2.8,2.4h-1.1l2.8-2.4H379z M380.1,402.3v0.3l-2.4,2.1h-1.1l2.8-2.4h0.6C380.1,402.2,380.1,402.3,380.1,402.3 M380,404.6h-0.8
			l0.8-0.7v0.5C380.1,404.6,380.1,404.6,380,404.6 M377.9,404.6l2.2-1.8c0,0.3,0,0.6,0,0.9l-1.1,0.9H377.9L377.9,404.6z
			 M373.1,404.5v-0.4l2.2-1.8c0.2,0,0.2-0.1,0.2-0.2l2.4-2.1v0.9l-4.3,3.7h-0.3C373.1,404.6,373.1,404.6,373.1,404.5 M373.1,403
			l0.8-0.7h1.1l-1.9,1.6L373.1,403L373.1,403z M373.2,402.2h0.4l-0.5,0.4L373.2,402.2C373.1,402.3,373.2,402.2,373.2,402.2
			 M373.9,390.7l2.8-2.4h1.1l-2.8,2.4c-0.3,0-0.6,0-0.8,0C374.1,390.7,374,390.7,373.9,390.7 M373.1,390.3l2.3-1.9h1.1l-2.8,2.4
			c-0.3,0-0.5,0-0.5-0.1C373.1,390.6,373.1,390.5,373.1,390.3 M373.2,388.3h0.6l-0.7,0.6C373.1,388.7,373.1,388.5,373.2,388.3
			C373.1,388.3,373.2,388.3,373.2,388.3 M373.1,389.8c0-0.2,0-0.3,0-0.6l0.9-0.8h1.1l-2,1.8C373.1,389.9,373.1,389.8,373.1,389.8
			 M380.1,388.7l-4.6,4v-0.9l3.9-3.3h0.5C379.8,388.3,379.9,388.5,380.1,388.7 M386.2,390.6l2.7-2.3h1.1l-2.9,2.5v-0.1
			c0-0.2,0-0.2-0.2-0.2C386.9,390.6,386.2,390.6,386.2,390.6z M385,390.6c-0.1,0-0.2,0-0.2-0.1l2.6-2.2h1.1l-2.7,2.3
			C385.5,390.6,385.1,390.6,385,390.6 M385,388.3h0.8l-1,0.8v-0.7C384.9,388.3,384.9,388.3,385,388.3 M384.9,389.4l1.3-1h1.1l-2.4,2
			V389.4z M389.2,393.5l-2.3,1.9c0-0.3,0-0.6,0-0.9l2.3-1.9V393.5z M389.2,399.6v0.9l-4.2,3.6c-0.1-0.2-0.3-0.3-0.3-0.6L389.2,399.6
			z M389.2,398.4v0.9l-4.7,4c-0.1-0.2-0.3-0.4-0.3-0.6L389.2,398.4z M386.6,399.5C386.6,399.6,386.7,399.6,386.6,399.5
			c0.3,0.3,0.3,0.2,0.3-0.1v-0.3l2.3-1.9v0.9l-5.1,4.4c-0.1-0.2-0.3-0.4-0.3-0.6L386.6,399.5z M386.1,398.8c0.2,0.3,0.3,0.5,0.3,0.6
			l-2.9,2.4c-0.1-0.2-0.3-0.4-0.3-0.6L386.1,398.8z M386.9,396.9l2.3-1.9v0.9l-2.3,1.9C386.9,397.6,386.9,397.2,386.9,396.9
			 M386.9,392v-0.9l3.3-2.8h1.1L386.9,392z M386.9,393.5l2.3-1.9v1l-2.3,1.9V393.5z M389.2,394.7l-2.3,1.9v-0.9l2.3-1.9
			C389.2,394,389.2,394.4,389.2,394.7 M389.2,397.1l-2.3,1.9v-0.9l2.3-1.9V397.1z M391.5,390.5l-0.2,0.2h-1.2l1.3-1.2V390.5
			L391.5,390.5z M391.5,389.3l-1.6,1.3h-0.5c-0.1,0-0.1,0-0.1,0.2v0.3l-2.3,1.9v-0.9l4.5-3.9v0.1L391.5,389.3L391.5,389.3z
			 M385.7,398c0.2,0.3,0.3,0.4,0.4,0.6l-2.9,2.4c-0.1-0.2-0.3-0.4-0.3-0.6L385.7,398z M385.2,397.2c0.2,0.3,0.3,0.4,0.3,0.6
			l-2.8,2.4c-0.1-0.2-0.3-0.4-0.3-0.6L385.2,397.2z M384.8,396.5c0.1,0.2,0.3,0.4,0.3,0.6l-2.8,2.4c-0.1-0.2-0.3-0.4-0.3-0.6
			L384.8,396.5z M384.3,395.7c0.2,0.3,0.3,0.4,0.4,0.7l-2.8,2.4c-0.1-0.3-0.3-0.4-0.4-0.7L384.3,395.7z M383.8,395
			c0.2,0.2,0.3,0.4,0.3,0.6l-2.8,2.4c-0.1-0.2-0.3-0.4-0.3-0.6L383.8,395z M383.3,394.2c0.2,0.2,0.3,0.4,0.3,0.6l-2.8,2.4
			c-0.1-0.3-0.3-0.4-0.3-0.6L383.3,394.2z M382.9,393.4c0.2,0.2,0.3,0.4,0.4,0.6l-2.7,2.4c-0.2-0.3-0.3-0.4-0.3-0.7L382.9,393.4z
			 M382.4,392.6c0.1,0.2,0.3,0.4,0.3,0.6l-2.7,2.4c-0.2-0.3-0.3-0.4-0.3-0.6L382.4,392.6z M382,391.9c0.1,0.2,0.3,0.4,0.3,0.6
			l-2.7,2.3c-0.1-0.3-0.3-0.4-0.3-0.6L382,391.9z M377.9,396.3l-2.4,2.1v-0.9l2.4-2.1V396.3z M377.9,402.2l-2.9,2.4h-1.2l4-3.4
			V402.2L377.9,402.2z M375.4,400.9l2.4-2.1v0.9l-2.4,2.1V400.9z M375.3,390.7L375.3,390.7l2.7-2.4h1l-3.6,3.1v-0.6
			C375.4,390.7,375.4,390.7,375.3,390.7 M375.4,393.8v-0.9l4.7-4c0.1,0.2,0.3,0.3,0.4,0.6L375.4,393.8z M378.3,392.5
			c-0.3-0.5-0.4-0.2-0.4,0.2v0.3l-2.4,2.1V394l5.1-4.4c0.1,0.2,0.3,0.4,0.3,0.6L378.3,392.5z M378.7,393.3c-0.2-0.3-0.3-0.5-0.3-0.7
			l2.7-2.3c0.1,0.2,0.3,0.4,0.3,0.6L378.7,393.3z M375.4,396.3l2.4-2.1v1l-2.4,2.1V396.3z M375.4,395.1l2.4-2.1c0,0.3,0,0.6,0,0.9
			l-2.4,2.1V395.1z M377.9,397.5l-2.4,2.1v-1l2.4-2.1V397.5z M377.9,398.7l-2.4,2.1v-0.9l2.4-2.1V398.7z M381.9,391.8l-2.7,2.3
			c-0.2-0.3-0.3-0.4-0.3-0.7l2.7-2.3C381.7,391.4,381.7,391.5,381.9,391.8 M389.2,403.8l-0.9,0.8h-1l1.9-1.6V403.8z M392.1,388.3
			c-0.1-0.1-0.2-0.2-0.3-0.3c-0.1-0.1-0.3-0.2-0.3-0.2s-6.8,0-7,0s-0.2,0-0.2,0.1v2.9c0,0.1,0.7,0.6,0.8,0.8s0.3,0.3,0.3,0.3
			s0.7,0,0.8,0s0.1,0,0.1,0.1v5c0,0.1,0,0-0.1,0l-1.5-2.4l-3-5l-1.7-1.3l-0.4-0.3h-7c-0.2,0-0.2,0-0.2,0.2s0,2.8,0,2.9
			s0.7,0.6,0.8,0.7s0.3,0.2,0.3,0.3c0.1,0,0.9,0,1,0c0.1,0,0.1,0.1,0.1,0.2v9.6c0,0.2,0,0.3-0.2,0.3s-0.3,0-0.8,0s-0.9,0-1.1,0
			s-0.2,0-0.2,0.3s0,0.6,0,1c0,0.3,0,0.7,0,1.1l0,0l0,0c0,0.3,0,0.7,0,0.8s0.8,0.9,0.9,0.9h7.6c0.3,0,0.3,0,0.3-0.2
			c0-0.2,0-2.7,0-2.8s-0.1-0.2-0.2-0.3s-0.8-0.9-0.8-0.9h-1.2c-0.1,0-0.1,0-0.1-0.2v-6.5c0-0.3,0.1-0.2,0.2,0s5.7,9.8,5.7,9.8l1.2,1
			h4.1c0.3,0,0.3,0,0.3-0.3v-13.5c0-0.3,0-0.3,0.2-0.3h1.9c0.1,0,0.1,0,0.1-0.2v-2.8C392.8,388.9,392.4,388.6,392.1,388.3"/>
	</g>
	<path fill="#933F22" d="M284.5,369.2h-7.4h-0.2v0.3h0.1c0.2,0.1,0.4,0.3,0.4,0.3v7.9c0,0.1-0.3,0.3-0.4,0.3h-0.1v0.3h7.6
		c0.9,0,1.7-0.7,1.7-1.6v-1.6c0-0.5-0.4-1-0.8-1.3c0.5-0.3,0.8-0.8,0.8-1.3v-1.9C286.1,369.8,285.4,369.2,284.5,369.2z M282.7,372.9
		h-2.4v-1.2h2.4c0.3,0,0.5,0.2,0.5,0.4v0.3C283.3,372.6,283,372.9,282.7,372.9z M280.3,375h2.4c0.3,0,0.5,0.2,0.5,0.5v0.3
		c0,0.3-0.3,0.5-0.5,0.5h-2.4V375z"/>
	<path fill="#933F22" d="M309.6,377.8l-2.8-7.9c-0.1-0.2,0.3-0.3,0.3-0.3h0.1v-0.4h-4.7v0.4h0.1c0,0,0.3,0.2,0.3,0.3l-2.9,7.9
		c-0.1,0.2-0.4,0.3-0.6,0.4h-0.1v0.4h4.1v-0.4h-0.1c-0.1,0-0.3-0.1-0.3-0.2V378l0.3-0.8l1.4,0.4l0,0l1.7-0.4l0.3,0.8c0,0,0,0,0,0.1
		s-0.3,0.2-0.3,0.3h-0.1v0.4h4v-0.4h-0.1C309.9,378.1,309.6,377.9,309.6,377.8z M305.6,374.8l-0.8,0.2l-0.8-0.2l0.8-2.1L305.6,374.8
		z"/>
	<path fill="#933F22" d="M333.6,378.2c-0.3-0.1-0.6-0.3-0.7-0.4l-1.3-2.5c0.8-0.1,1.5-0.8,1.5-1.6v-2.9c0-0.8-0.8-1.6-1.7-1.6h-8.2
		v0.3h0.1c0.2,0.1,0.4,0.3,0.4,0.3v7.9c0,0.1-0.3,0.3-0.4,0.3h-0.1v0.3h3.9v-0.3H327c-0.2-0.1-0.4-0.3-0.4-0.3v-2.5h1.9l1.2,2.6
		c0.1,0.2-0.2,0.3-0.2,0.3l-0.1,0.1v0.3h4.3v-0.4H333.6z M326.6,371.7h3.2c0.3,0,0.5,0.2,0.5,0.5v0.2c0,0.3-0.3,0.5-0.5,0.5h-3.2
		V371.7z"/>
	<path fill="#933F22" d="M383.2,374.1c-1.1,0-1.9-0.2-3.4-0.9l-0.2-0.1v0.2c0,0.8-0.4,0.8-1,0.8h-0.1h-8.4c-4.8,0-8.4-0.2-11.3-0.3
		c-1.9-0.1-3.5-0.2-5-0.2c-0.8,0-1.3,0.3-1.6,0.4c0,0-0.1,0-0.2,0h-0.7c-0.8,0-1.2-0.2-1.5-0.6l-0.1-0.1l-0.1,0.1
		c-0.3,0.4-0.8,0.6-1.5,0.6h-0.7c-0.2,0-0.3,0.2-0.3,0.3c0,0.2,0.1,0.3,0.3,0.3h0.7c0.8,0,1.2,0.2,1.5,0.6l0.1,0.1l0.1-0.1
		c0.3-0.4,0.8-0.6,1.5-0.6h0.7c0.1,0,0.1,0,0.2,0c0.3,0.2,0.8,0.4,1.6,0.4c1.5,0,3.1-0.1,5-0.2c2.9-0.1,6.5-0.3,11.3-0.3h8.4h0.1
		c0.7,0,1,0.1,1,0.8v0.2l0.2-0.1c1.3-0.8,2.3-0.9,3.4-0.9c0.2,0,0.3-0.2,0.3-0.3C383.5,374.2,383.4,374.1,383.2,374.1z"/>
	<path fill="#933F22" d="M261.8,374h-0.7c-0.8,0-1.2-0.2-1.5-0.6l-0.1-0.1l-0.1,0.1c-0.3,0.4-0.8,0.6-1.5,0.6h-0.7
		c-0.1,0-0.1,0-0.2,0c-0.3-0.2-0.8-0.4-1.6-0.4c-1.4,0-3.1,0.1-5,0.2c-2.9,0.1-6.5,0.3-11.3,0.3h-8.4l0,0l0,0h-0.1
		c-0.6,0-1-0.1-1-0.8v-0.2l-0.2,0.1c-1.3,0.8-2.3,0.9-3.4,0.9c-0.2,0-0.3,0.2-0.3,0.3c0,0.2,0.1,0.3,0.3,0.3c1.1,0,1.9,0.2,3.4,0.9
		l0.2,0.1v-0.2c0-0.8,0.4-0.8,1-0.8h0.1l0,0l0,0h8.4c4.8,0,8.4,0.2,11.3,0.3c1.9,0.1,3.5,0.2,5,0.2c0.8,0,1.3-0.3,1.6-0.4
		c0,0,0.1,0,0.2,0h0.7c0.8,0,1.2,0.2,1.5,0.6l0.1,0.1V375c0.3-0.4,0.8-0.6,1.5-0.6h0.7c0.2,0,0.3-0.2,0.3-0.3
		C262.1,374,262,374,261.8,374z"/>
	<g>
		<path fill="#933F22" d="M257.6,418.6c0-1.2-1.1-1.3-1.8-1.3h-3.4v5.3h3.4c1.4,0,2-0.8,2-1.6c0-0.8-0.3-1-0.6-1.3
			C257.6,419.3,257.6,419.1,257.6,418.6z M253.5,418.1h2.4c0.5,0,0.8,0.1,0.8,0.6c0,0.4-0.3,0.6-0.8,0.6h-2.4V418.1z M256,421.5
			h-2.4v-1.4h2.4c0.7,0,1.1,0.1,1.1,0.8C257,421.5,256.6,421.5,256,421.5z"/>
		<polygon fill="#933F22" points="263.1,420.2 265.1,420.2 265.1,419.3 263.1,419.3 263.1,418.1 266.8,418.1 266.8,417.2 
			262.2,417.2 262.2,422.5 266.9,422.5 266.9,421.5 263.1,421.5 		"/>
		<polygon fill="#933F22" points="273.1,421.4 270.9,417.2 269.9,417.2 272.6,422.5 273.5,422.5 276.3,417.2 275.3,417.2 		"/>
		<polygon fill="#933F22" points="280.8,420.2 282.9,420.2 282.9,419.3 280.8,419.3 280.8,418.1 284.5,418.1 284.5,417.2 
			279.9,417.2 279.9,422.5 284.7,422.5 284.7,421.5 280.8,421.5 		"/>
		<path fill="#933F22" d="M294.2,418.7c0-1.2-0.9-1.5-2-1.5h-3.3v5.3h0.9v-2.2h1.8l1.5,2.2h1.1l-1.5-2.2
			C293.4,420.2,294.2,419.9,294.2,418.7z M289.8,419.4v-1.3h2.4c0.7,0,1.1,0.1,1.1,0.7c0,0.5-0.4,0.7-1,0.7H289.8z"/>
		<polygon fill="#933F22" points="299.1,417.2 298.2,417.2 298.2,422.5 302.4,422.5 302.4,421.5 299.1,421.5 		"/>
		<polygon fill="#933F22" points="307.7,419.3 306.1,417.2 305,417.2 307.2,420.1 307.2,422.5 308.2,422.5 308.2,420.1 310.4,417.2 
			309.3,417.2 		"/>
		<polygon fill="#933F22" points="324.1,419.4 320.9,419.4 320.9,417.2 319.9,417.2 319.9,422.5 320.9,422.5 320.9,420.2 
			324.1,420.2 324.1,422.5 325,422.5 325,417.2 324.1,417.2 		"/>
		<rect x="330" y="417.2" fill="#933F22" width="0.9" height="5.3"/>
		<polygon fill="#933F22" points="336.8,417.2 335.8,417.2 335.8,422.5 339.9,422.5 339.9,421.5 336.8,421.5 		"/>
		<polygon fill="#933F22" points="344.6,417.2 343.6,417.2 343.6,422.5 347.8,422.5 347.8,421.5 344.6,421.5 		"/>
		<path fill="#933F22" d="M353.8,419.3c-1.5,0-1.7-0.2-1.7-0.7c0-0.4,0.5-0.7,1.5-0.7c1.2,0,1.8,0.3,2.2,0.6l0.4-0.8
			c-0.3-0.2-1.3-0.7-2.6-0.7c-1.8,0-2.4,0.8-2.4,1.7c0,1.1,0.8,1.4,2,1.4c1.9,0.1,2.4,0.1,2.4,0.8c0,0.6-0.7,0.8-1.6,0.8
			c-1.5,0-2.1-0.4-2.7-0.8l-0.4,0.8c0.3,0.3,1.3,0.9,3.1,0.9c1.2,0,2.6-0.3,2.6-1.8C356.5,420,356.2,419.3,353.8,419.3z"/>
	</g>
	<g>
		<path fill="#933F22" d="M394.4,387.9c0.5,0,0.9,0.4,0.9,0.9c0,0.5-0.4,0.9-0.9,0.9s-0.9-0.4-0.9-0.9
			C393.5,388.3,393.8,387.9,394.4,387.9z M393.6,388.8c0,0.4,0.3,0.8,0.8,0.8s0.8-0.3,0.8-0.8c0-0.4-0.3-0.8-0.8-0.8
			S393.6,388.4,393.6,388.8z M394.8,389.2h-0.2l-0.3-0.3h-0.1v0.3h-0.2v-0.8h0.3c0.2,0,0.3,0.1,0.3,0.3c0,0.1-0.1,0.2-0.2,0.3
			L394.8,389.2z M394.3,388.8c0.1,0,0.2-0.1,0.2-0.2s-0.1-0.2-0.2-0.2h-0.1L394.3,388.8L394.3,388.8L394.3,388.8z"/>
	</g>
</g>
</svg>
