<?xml version="1.0" encoding="utf-8"?>
<!-- Generator: Adobe Illustrator 18.0.0, SVG Export Plug-In . SVG Version: 6.00 Build 0)  -->
<!DOCTYPE svg PUBLIC "-//W3C//DTD SVG 1.1//EN" "http://www.w3.org/Graphics/SVG/1.1/DTD/svg11.dtd">
<svg version="1.1" id="Layer_1" xmlns="http://www.w3.org/2000/svg" xmlns:xlink="http://www.w3.org/1999/xlink" x="0px" y="0px"
	 viewBox="-0.3 211 612.3 370" enable-background="new -0.3 211 612.3 370" xml:space="preserve">
<g>
	<path fill="#705D50" d="M47,268.1l10.7-8.9C56.2,263.2,51.6,266.6,47,268.1 M32.3,269.2l25.1-21.3c0.3,0.9,0.6,1.7,0.9,2.6
		l-22.2,18.7c-1.4,0-2.6,0-2.6,0H32.3z M1.4,269v-1.4l20.5-17.3c0,1.2,0,2,0,3.2L3.5,269H1.4C1.4,269.2,1.4,269.2,1.4,269
		 M1.7,260.9h2l-2.3,2L1.7,260.9C1.4,260.9,1.4,260.9,1.7,260.9 M8.7,260.9l-6.9,6.1v-3.2l3.2-2.6h3.7V260.9z M1.7,221.4v-1.2
		l7.5-6.3H13l-9.2,7.5C2.6,221.4,2,221.4,1.7,221.4L1.7,221.4 M1.7,213.6h1.7l-1.7,1.7V213.6L1.7,213.6 M1.7,216.2l2.9-2.3h3.7
		l-6.6,5.8C1.7,219.6,1.7,216.2,1.7,216.2z M31.4,213.6L9.5,232.3v-3.2l18.2-15.6C29.1,213.6,30.3,213.6,31.4,213.6 M40.7,213.9
		l-9.5,8.1c-0.3,0-0.6,0-0.9,0c-0.9,0-1.7,0-2.6,0l9.8-8.4h0.9C37.8,213.6,38.9,213.6,40.7,213.9 M44.7,214.4l-8.9,7.8
		c-1.2,0-2.6,0-3.7,0l9.2-8.4c0.9,0,1.4,0,2,0.3C43.8,214.2,44.1,214.2,44.7,214.4 M51.3,216.5l-9.2,8.1c-0.6-0.6-1.2-1.2-1.7-1.7
		l8.7-7.5c0.6,0.3,1.2,0.3,1.4,0.6C50.8,216.2,51,216.5,51.3,216.5 M53.6,218.5l-10.4,8.9l0,0c0-0.6-0.6-1.4-0.9-2.3l9.5-8.1
		C52.5,217.3,53.1,217.9,53.6,218.5 M48.5,237.5c-1.2,0.3-2.3,0.6-3.2,0.9l11.2-9.5C55.7,232,53.6,235.2,48.5,237.5 M52.8,243
		l-8.7,7.5c-0.3-0.9-0.6-1.7-0.9-2.6l7.2-6.3C51.3,241.8,51.9,242.4,52.8,243 M38.1,260.3c1.2-0.3,2-0.9,2.9-1.4s1.7-1.4,2.6-2.9
		l12.1-10.4c0.6,0.6,0.9,1.2,1.4,2l-25.7,21.9h-3.7L38.1,260.3z M32.9,260.9c0.9,0,1.4,0,2,0c0.9,0,1.4,0,2-0.3l-10.1,8.7h-4
		L32.9,260.9z M28.3,260.9c1.2,0,2.6,0,3.7,0l-9.8,8.4h-3.7L28.3,260.9z M23.6,260.9h3.7l-10.1,8.4h-3.7L23.6,260.9z M21.9,258.3v2
		c0,0.3,0,0.6,0.3,0.6h0.3l-9.8,8.4H8.9L21.9,258.3z M21.9,257.4L8.1,269.2H4.3l17.6-15V257.4z M40.7,245.3
		c-0.6-0.3-1.4-0.9-2.3-1.2l5.8-4.9c0.6,0.3,1.7,0.3,2.9,0.9L40.7,245.3z M41.5,256c-1.7,2.3-3.7,3.2-5.8,3.5c-1.7,0-8.7,0-8.9,0
		s-0.3,0-0.3-0.3c0-0.3,0-10.1,0-10.7s0-0.9,0.6-0.9c0.3,0,10.4,0,12.1,0c1.7,0.3,2.6,0.6,3.2,0.9c0.3,0.3,0.9,0.6,0.9,2.6
		C43,252.5,42.7,254.8,41.5,256 M44.1,251.1l9.2-7.8c0.6,0.6,1.2,0.9,1.7,1.7l-11.2,9.8C44.1,253.4,44.4,252.2,44.1,251.1
		 M47.9,240.4c0.6,0.3,1.4,0.6,2,0.9l-7.2,6.1c-0.3-0.3-0.6-0.9-0.9-1.2c-0.3-0.3-0.3-0.3-0.6-0.6l6.1-5.2
		C47.6,240.4,47.9,240.4,47.9,240.4 M56.5,228l-12.4,10.7c-0.6,0-1.2,0.3-1.2,0.3v0.3c0,0,0,0,0.3,0l-5.5,4.9c-0.3,0-0.6,0-0.9-0.3
		c-0.9-0.3-1.4,0-2.6,0l0,0l22.2-19C56.5,225.7,56.8,226.8,56.5,228 M41,234.1c0.3-0.3,0.6-0.3,0.9-0.6l0,0L56,221.7
		c0.3,0.6,0.6,1.4,0.6,2v0.3l-23.1,19.6c-0.9,0-2.3,0-3.7,0L41,234.1z M25.1,243.6l9.5-8.1c1.4,0,2.3,0,2.6,0c0.6,0,1.2-0.3,1.4-0.3
		l-10.1,8.7C27.4,243.6,26.2,243.6,25.1,243.6 M9.5,256.8l12.4-10.4v3.2L9.5,260V256.8z M9.5,225.1l13.6-11.5h3.7L9.5,228.3V225.1z
		 M21.9,229.7L9.5,240.4v-3.5l12.4-10.4V229.7z M9.5,248.8l15.6-13.3c1.2,0,2.6,0,3.7,0L9.2,252.2v-3.5H9.5z M9.5,245l12.4-10.7v0.6
		c0,0.3,0,0.3,0.3,0.3c0,0,0.9,0,2.3,0L9.8,247.9V245H9.5z M9.5,241l12.4-10.7v3.2L9.5,243.9C9.5,243.9,9.5,241,9.5,241z
		 M22.5,243.6c-0.6,0-0.6,0.3-0.6,0.6v1.4L9.5,256v-3.2L30,235.5c1.4,0,2.6,0,3.7,0l-9.5,8.1C23.1,243.6,22.5,243.6,22.5,243.6
		 M43.3,228l10.7-9.2c0.6,0.6,1.2,1.4,1.4,2l-12.7,10.7C43.3,230.6,43.5,229.2,43.3,228 M37.8,222.2c-0.3,0-0.9,0-1.4,0l8.9-7.5
		c0.9,0.3,1.7,0.3,2.9,0.9l-8.7,7.2C38.9,222.2,38.4,222.2,37.8,222.2 M37.5,225.7c2.3,0,3.2,0.6,3.7,0.9c0.6,0.3,0.9,0.6,0.9,1.2
		c0.3,0.6,0.3,2,0,3.2c-0.3,1.4-1.4,3.2-4,3.5c-2,0.3-11,0.3-11.2,0.3c-0.3,0-0.3,0-0.3-0.3V226c0-0.3,0-0.3,0.3-0.3
		C26.8,225.7,36.9,225.7,37.5,225.7 M22.8,221.9l9.8-8.4h3.7l-10.1,8.4C24.8,221.9,23.4,221.9,22.8,221.9 M21.9,225.7L9.5,236.4
		v-3.2l12.4-10.7V225.7z M18.5,213.6h3.7l-12.7,11v-2.3c0-0.3,0-0.6-0.3-0.6L18.5,213.6z M8.4,221.4c-0.9,0-2.3,0-3.7,0l9.2-7.8
		c1.2,0,2.6,0,3.7,0L8.4,221.4z M40.7,269.2c-1.4,0-2.6,0-3.7,0l21.3-18.2c0.3,0.9,0.3,2,0.3,3.2L40.7,269.2z M43,269
		c-0.6,0-0.9,0-1.4,0l16.7-14.1c0,1.2-0.3,2-0.6,3.2l-12.1,10.7C44.7,268.7,43.8,269,43,269 M60,247.9c-2.6-3.7-8.1-6.3-8.4-6.3
		c-0.3,0-0.3,0,0-0.3c0,0,4.3-2,6.3-4.3c2.3-2.6,3.7-5.5,2.9-11c-1.2-7.2-7.5-13-20.2-13.8c-4.3-0.3-7.8-0.3-9.5-0.3
		c-2,0-3.5,0-8.1,0.3c-4.6,0-20.5,0-21.6,0s-1.4,0-1.4,0.6v9.8c0,0,0.6,0.6,1.2,1.2s2.3,2,2.3,2s0,0,0.3,0h3.7v0.3c0,0,0,32,0,32.9
		c0,0.6,0,0.9-0.3,0.9s-7.2,0-7.5,0c0.3,0,0.3,0,0.3,0.3c0,0,0,9.8,0,10.1c0,0.3,0.3,0.3,0.6,0.9c0.3,0.3,2.6,2.3,3.2,2.6
		c0.3,0,0.6,0.3,0.9,0.3h17.6c0,0,21.6-0.3,25.1-0.6c6.3-0.6,12.4-4.6,14.7-11.2C63.7,256.6,62.6,251.7,60,247.9"/>
	<path fill="#705D50" d="M127.2,269.5l15-12.7C139.3,262.3,134.4,266.9,127.2,269.5 M94,262l9.8-8.4c0.3,0.9,0.6,1.4,1.2,2.3
		l-9.2,7.8C95.2,263.2,94.6,262.6,94,262 M106.1,215.6l-15.6,13.3C94.3,222.2,100.1,217.6,106.1,215.6 M90,230l17.6-15
		c1.7-0.6,3.2-0.9,4.9-0.9l-24.2,20.8C88.8,233.2,89.4,231.5,90,230 M117.1,213.9l-29.7,25.4c0-1.2,0.3-2.6,0.6-3.7l25.4-21.6
		c0.6,0,0.9,0,1.4,0C115.7,213.9,116.5,213.9,117.1,213.9 M122.9,261.2c1.2-0.6,2.3-1.7,3.2-2.6l19-16.2c0,0.6,0,1.4,0,2
		c0,0.3,0,0.6,0,0.9l-30.3,26c-1.2,0-2.3,0-3.2-0.3L122.9,261.2z M116.5,262.6c0.3,0,0.3,0,0.6,0c1.4,0,2.6-0.3,4-0.6l-10.4,8.9
		c-1.2-0.3-2-0.3-2.9-0.6L116.5,262.6z M112.5,262c0.9,0.3,2,0.6,3.2,0.6l-8.7,7.5c-0.9-0.3-1.7-0.6-2.6-0.9L112.5,262z
		 M109.6,260.9c0.9,0.6,1.4,0.9,2.3,1.2l-8.4,7.2c-0.9-0.3-1.7-0.9-2.3-1.2L109.6,260.9z M107,258.9c0.6,0.6,1.2,1.2,2,1.7l-8.4,7.2
		c-0.9-0.3-1.4-0.9-2.3-1.4L107,258.9z M106.7,258.3l-8.7,7.5c-0.6-0.6-1.4-1.2-2-1.4l9.2-7.8C105.6,257.1,106.1,257.7,106.7,258.3
		 M102.7,250.5c0.3,0.9,0.6,1.7,0.9,2.6l-10.1,8.7c-0.6-0.6-0.9-1.2-1.4-2L102.7,250.5z M102.1,247c0,0.9,0.3,2,0.6,2.9l-11,9.2
		c-0.6-0.6-0.9-1.4-1.2-2L102.1,247z M101.8,243.6c0,1.2,0,2,0.3,2.9l-11.8,10.1c-0.3-0.9-0.6-1.4-1.2-2.3L101.8,243.6z
		 M101.8,239.5c0,0.6,0,1.2,0,2c0,0.6,0,0.9,0,1.4l-12.7,11c-0.3-0.9-0.6-1.7-0.9-2.6L101.8,239.5z M102.4,235.2
		c-0.3,1.2-0.3,2.3-0.3,3.5l-13.8,11.8c-0.3-0.9-0.3-1.7-0.6-2.9L102.4,235.2z M87.4,244.2l16.4-13.8c-0.6,1.2-0.9,2.6-1.2,4.3
		l-15,12.7C87.4,246.2,87.4,245,87.4,244.2 M117.1,221.9h-0.3c-1.4,0-2.6,0-3.7,0.3l9.2-7.8c1.2,0.3,2,0.3,3.2,0.6L117.1,221.9z
		 M120.8,222.5c-0.9-0.3-2-0.6-3.2-0.6l7.8-6.6c0.9,0.3,1.7,0.6,2.6,0.9L120.8,222.5z M124,224c-0.9-0.6-1.4-0.9-2.3-1.2l7.5-6.3
		c0.6,0.3,1.4,0.6,2.3,1.2L124,224z M126.3,226c-0.6-0.6-1.2-1.2-1.7-1.7l7.5-6.3c0.9,0.3,1.4,0.9,2,1.4L126.3,226z M128.1,228.3
		c-0.3-0.9-0.9-1.4-1.4-2l7.8-6.6c0.6,0.6,1.4,1.2,2,1.7L128.1,228.3z M130.1,234.6c-0.3-0.9-0.3-1.7-0.6-2.6l9.5-8.1
		c0.6,0.6,0.9,1.4,1.4,2L130.1,234.6z M130.4,238.1c0-1.2-0.3-2-0.3-2.9l10.4-8.9c0.6,0.9,0.9,1.4,1.2,2.3L130.4,238.1z
		 M130.6,242.1c0-1.2,0-2,0-3.2l11.5-9.8c0.3,0.9,0.6,1.7,0.9,2.3L130.6,242.1z M130.4,246.2c0-1.2,0.3-2.3,0.3-3.5l12.7-10.7
		c0.3,0.9,0.6,1.7,0.9,2.6L130.4,246.2z M144.5,238.1l-14.7,12.7c0.3-1.2,0.6-2.3,0.6-3.7l13.8-11.8
		C144.2,236.1,144.5,237.2,144.5,238.1 M129.5,251.7l15.3-13c0,0.9,0.3,2,0.3,2.9l-17.6,15C128.3,255.1,128.9,253.7,129.5,251.7
		 M108.7,258.3c-1.2-2.3-2.6-8.4-1.7-17.3c1.4-12.7,6.1-14.7,9.5-15c3.5-0.3,6.9,0,8.9,1.4c1.2,0.9,3.7,4.9,3.7,14.7
		c0,10.4-3.7,19-11.8,19C111.9,261.5,109.6,259.7,108.7,258.3 M138.4,223.4l-9.2,8.1c-0.3-0.9-0.6-1.7-0.9-2.3l8.7-7.5
		C137.3,222.2,137.9,222.8,138.4,223.4 M87.4,242.7c0-0.9,0-1.7,0-2.6l30.6-26c1.2,0,2.3,0.3,3.2,0.3l-9.5,8.1
		c-3.2,0.9-5.8,3.2-7.5,6.3l-17,14.4C87.4,243.3,87.4,243,87.4,242.7 M144.5,249.9L119.7,271c-1.4,0.3-2.6,0.3-4,0.3l29.4-25.1
		C144.8,247.6,144.8,248.8,144.5,249.9 M142.8,255.4l-17,14.4c-1.7,0.6-3.2,0.9-5.2,1.2l23.6-20.2
		C143.9,252.5,143.3,254,142.8,255.4 M115.9,212.7c-17.3,0-30.3,12.4-30,31.4s17.6,31.7,34,31.4c17.9-0.3,30-13.6,30-31.1
		S134.4,212.7,115.9,212.7"/>
	<path fill="#705D50" d="M490,269.5l15-12.7C502.1,262.3,497.2,266.9,490,269.5 M456.8,262l9.8-8.4c0.3,0.9,0.6,1.4,1.2,2.3
		l-9.2,7.8C458,263.2,457.4,262.6,456.8,262 M469.2,215.6l-15.6,13.3C457.1,222.2,463.2,217.6,469.2,215.6 M452.8,230l17.6-15
		c1.7-0.6,3.2-0.9,4.9-0.9l-24.2,20.8C451.6,233.2,452.2,231.5,452.8,230 M480.2,213.9l-29.7,25.4c0-1.2,0.3-2.6,0.6-3.7l25.4-21.6
		c0.6,0,0.9,0,1.4,0C478.8,213.9,479.3,213.9,480.2,213.9 M486,261.2c1.2-0.6,2.3-1.7,3.2-2.6l19-16.2c0,0.6,0,1.4,0,2
		c0,0.3,0,0.6,0,0.9l-30.3,26c-1.2,0-2.3,0-3.2-0.3L486,261.2z M479.3,262.6c0.3,0,0.3,0,0.6,0c1.4,0,2.6-0.3,4-0.6l-10.4,8.9
		c-1.2-0.3-2-0.3-2.9-0.6L479.3,262.6z M475.6,262c0.9,0.3,2,0.6,3.2,0.6l-8.9,7.5c-0.9-0.3-1.7-0.6-2.6-0.9L475.6,262z
		 M472.4,260.9c0.9,0.6,1.4,0.9,2.3,1.2l-8.4,7.2c-0.9-0.3-1.7-0.9-2.3-1.2L472.4,260.9z M470.1,258.9c0.6,0.6,1.2,1.2,2,1.7
		l-8.4,7.2c-0.9-0.3-1.4-0.9-2.3-1.4L470.1,258.9z M469.8,258.3l-8.7,7.5c-0.6-0.6-1.4-1.2-2-1.4l9.2-7.8
		C468.7,257.1,469.2,257.7,469.8,258.3 M465.8,250.5c0.3,0.9,0.6,1.7,0.9,2.6l-10.1,8.7c-0.6-0.6-0.9-1.2-1.4-2L465.8,250.5z
		 M465.2,247c0,0.9,0.3,2,0.6,2.9l-11,9.2c-0.6-0.6-0.9-1.4-1.2-2L465.2,247z M464.9,243.6c0,1.2,0,2,0.3,2.9l-11.8,10.1
		c-0.3-0.9-0.6-1.4-1.2-2.3L464.9,243.6z M464.9,239.5c0,0.6,0,1.2,0,2c0,0.6,0,0.9,0,1.4l-12.7,11c-0.3-0.9-0.6-1.7-0.9-2.6
		L464.9,239.5z M465.2,235.2c-0.3,1.2-0.3,2.3-0.3,3.5l-13.8,11.8c-0.3-0.9-0.3-1.7-0.6-2.9L465.2,235.2z M450.2,244.2l16.4-13.8
		c-0.6,1.2-0.9,2.6-1.2,4.3l-15,12.7C450.5,246.2,450.2,245,450.2,244.2 M479.9,221.9h-0.3c-1.4,0-2.6,0-3.7,0.3l9.2-7.8
		c1.2,0.3,2,0.3,3.2,0.6L479.9,221.9z M483.9,222.5c-0.9-0.3-2-0.6-3.2-0.6l7.8-6.6c0.9,0.3,1.7,0.6,2.6,0.9L483.9,222.5z
		 M486.8,224c-0.9-0.6-1.4-0.9-2.3-1.2l7.5-6.3c0.9,0.3,1.7,0.9,2.3,1.2L486.8,224z M489.1,226c-0.6-0.6-1.2-1.2-1.7-1.7l7.5-6.3
		c0.9,0.3,1.4,0.9,2,1.4L489.1,226z M490.9,228.3c-0.3-0.9-0.9-1.4-1.4-2l7.8-6.6c0.6,0.6,1.4,1.2,2,1.7L490.9,228.3z M492.9,234.6
		c-0.3-0.9-0.3-1.7-0.6-2.6l9.5-8.1c0.6,0.6,0.9,1.4,1.4,2L492.9,234.6z M493.5,238.1c0-1.2-0.3-2-0.3-2.9l10.4-8.9
		c0.6,0.9,0.9,1.4,1.2,2.3L493.5,238.1z M493.5,242.1c0-1.2,0-2,0-3.2l11.5-9.8c0.3,0.9,0.6,1.7,0.9,2.3L493.5,242.1z M493.5,246.2
		c0-1.2,0.3-2.3,0.3-3.5l12.7-10.7c0.3,0.9,0.6,1.7,0.9,2.6L493.5,246.2z M507.6,238.1l-15,12.7c0.3-1.2,0.6-2.3,0.6-3.7l13.8-11.8
		C507.3,236.1,507.3,237.2,507.6,238.1 M492.3,251.7l15.3-13c0,0.9,0.3,2,0.3,2.9l-17.6,15C491.2,255.1,491.7,253.7,492.3,251.7
		 M471.8,258.3c-1.2-2.3-2.6-8.4-1.7-17.3c1.4-12.7,6.1-14.7,9.5-15s6.9,0,8.9,1.4c1.2,0.9,3.7,4.9,3.7,14.7c0,10.4-3.7,19-11.8,19
		C474.7,261.5,472.4,259.7,471.8,258.3 M501.5,223.4l-9.2,8.1c-0.3-0.9-0.6-1.7-0.9-2.3l8.7-7.5C500.4,222.2,501,222.8,501.5,223.4
		 M450.2,242.7c0-0.9,0-1.7,0-2.6l30.6-26c1.2,0,2.3,0.3,3.2,0.3l-9.5,8.1c-3.2,0.9-5.8,3.2-7.5,6.3l-17,14.4
		C450.2,243.3,450.2,243,450.2,242.7 M507.3,249.9L482.5,271c-1.4,0.3-2.6,0.3-4,0.3l29.4-25.1C507.9,247.6,507.6,248.8,507.3,249.9
		 M505.6,255.4l-17,14.4c-1.7,0.6-3.2,0.9-5.2,1.2l23.6-20.2C506.7,252.5,506.4,254,505.6,255.4 M478.8,212.7
		c-17.3,0-30.3,12.4-30,31.4s17.6,31.7,34,31.4c17.9-0.3,30.3-13.6,30.3-31.1C513.1,226.8,497.5,212.7,478.8,212.7"/>
	<path fill="#705D50" d="M238.5,221.9L238.5,221.9l0.3-0.3L238.5,221.9L238.5,221.9 M221.8,268.7c-1.2,0.9-2.6,1.4-4.3,2l12.4-10.7
		C228.4,263.2,225.8,266.1,221.8,268.7 M207.4,271.8l23.9-20.5v2c0,0.3,0,0.6,0,0.9l-20.2,17.3C209.7,271.8,208.5,271.8,207.4,271.8
		 M190.1,266.9l9.2-8.1c0.6,0.6,1.2,1.2,1.7,1.7l-8.9,7.8c-0.6-0.3-1.2-0.6-1.7-1.2C190.3,267.2,190.3,266.9,190.1,266.9
		 M187.8,264.9l10.1-8.7c0.3,0.6,0.9,1.4,1.4,2l-9.5,8.1C188.9,266.1,188.3,265.5,187.8,264.9 M178.2,221.9l9.2-8.1h3.5l-9.2,8.1
		H178.2z M175.9,221.7v-1.7l7.2-6.1h3.5l-9.5,8.1L175.9,221.7C175.9,221.9,175.9,221.9,175.9,221.7 M176.2,213.9h1.7l-2,1.4v-1.2
		C175.9,213.9,175.9,213.9,176.2,213.9 M175.9,216.2l2.9-2.3h3.5l-6.3,5.2V216.2z M204.2,214.2v0.3L184,231.8v-3.5l17.3-14.7h2.9
		C204.2,213.9,204.2,213.9,204.2,214.2 M203.9,221.7H201l3.2-2.6v2.3C204.2,221.9,204.2,221.7,203.9,221.7 M196.4,229.2L184,239.8
		v-3.5l12.4-10.7V229.2z M196.7,253.4c0.3,0.9,0.3,1.7,0.9,2.6l-10.1,8.7c-0.6-0.6-0.9-1.4-1.4-2L196.7,253.4z M196.4,249.6v1.7
		c0,0.3,0,0.9,0,1.2l-10.7,9.2c-0.3-0.9-0.6-1.4-0.9-2.3L196.4,249.6z M196.4,245.6v3.2l-11.8,10.1c-0.3-0.9-0.3-1.7-0.6-2.9
		L196.4,245.6z M184,254v-1.7l12.4-10.7v3.2L184,255.4C184,254.8,184,254.5,184,254 M184,248.2l12.4-10.7v3.2L184,251.4V248.2z
		 M184,223.7v-1.7c0-0.3,0-0.3-0.3-0.3h-1.4l9.5-7.8h3.7L184,223.7z M184,224.5l12.7-10.7h3.7L184,227.7V224.5z M196.4,232.9
		L184,243.6v-3.2l12.4-10.7V232.9z M184,244.4l12.4-10.7v3.2L184,247.6V244.4z M196.4,222.2v2.9L184,235.8v-3.2L196.4,222.2
		C196.4,221.9,196.4,221.9,196.4,222.2 M196.7,221.7L196.7,221.7l7.5-6.6v3.2l-4,3.5H196.7z M195.3,269.5c-0.9-0.3-1.7-0.6-2.6-1.2
		l8.9-7.5c0.6,0.6,1.4,0.9,2.3,1.2L195.3,269.5z M204.5,262.3c0.9,0.3,2,0.6,2.9,0.6l-8.9,7.8c-0.9-0.3-2-0.6-2.9-0.9L204.5,262.3z
		 M212.3,262.9l-9.8,8.7c-1.2,0-2-0.3-3.2-0.6l9.2-7.8c0.3,0,0.6,0,0.9,0C210.2,263.2,211.4,263.2,212.3,262.9 M221.5,255.7l9.5-8.1
		v3.2l-24.5,21.1c-1.2,0-2.3,0-3.5-0.3l10.4-8.7C218.3,262,220.6,259.7,221.5,255.7 M219.5,221.9l9.5-8.1h3.7l-10.7,8.9v-0.6
		c0-0.3,0-0.3-0.3-0.3C221.8,221.9,219.5,221.9,219.5,221.9z M215.4,221.9C215.2,221.9,215.2,221.9,215.4,221.9l8.9-8.1h3.7
		l-9.5,8.1H215.4z M215.4,213.9h3.5l-3.7,3.2v-2.9C215.2,213.9,215.2,213.9,215.4,213.9 M223.5,213.9l-8.4,7.2v-3.5l4.6-3.7H223.5z
		 M237.4,213.9l-15,13v-3.5l11.5-9.8h3.5V213.9z M233.6,221.9l4.9-4.3v3.2l-1.4,1.2C237.1,221.9,233.6,221.9,233.6,221.9z
		 M222.4,234.6v-3.2l8.7-7.5v3.2L222.4,234.6z M231,231.2l-8.7,7.5v-3.5l8.7-7.5V231.2z M222.4,251.4l8.9-7.5v3.2l-9.2,7.8
		C222.1,253.7,222.4,252.5,222.4,251.4 M231,234.9l-8.7,7.5v-3.2l8.7-7.5V234.9z M222.4,246.5v-3.2l8.7-7.5v3.5L222.4,246.5z
		 M231,243l-8.7,7.5c0-0.6,0-1.2,0-1.7v-1.4l8.7-7.5C231,241,231,241.8,231,243 M238.5,213.9c0.3,0,0.3,0,0.3,0.3v2.9l-5.8,4.9h-1.2
		c-0.3,0-0.6,0-0.6,0.6c0,0,0,0.3,0,0.9l-8.7,7.5v-3.5L238.5,213.9L238.5,213.9z M230.1,258.9L216,271c-1.4,0.3-2.9,0.6-4.3,0.6
		l19.3-16.4C231,256.6,230.7,257.7,230.1,258.9 M239.7,213c-0.9-0.9-0.9-0.6-2.3-0.6h-23.1c-0.3,0-0.6,0-0.6,0.3v10.7
		c0,0,0.9,0.6,1.7,1.4c0.9,0.6,1.7,1.2,1.7,1.2h3.2c0.6,0,0.6,0,0.6,0.3c0,0.6,0,20.8,0,23.9c0,3.2-0.6,11.5-10.1,11.5
		s-10.1-8.4-10.1-12.7v-22.5c0-0.6,0-0.9,0.6-0.9h6.6c0.6,0,0.6,0,0.6-0.6v-8.4c0-0.3-0.9-1.2-1.7-2.3c-0.9-1.2-1.7-2-1.7-2h-30
		c-0.6,0-0.6,0-0.6,0.6v10.4c0,0.3,0.6,0.6,1.7,1.2c1.2,0.6,2,1.4,2.3,1.4h3.7c0.3,0,0.3,0,0.3,0.3v26.2c0,5.8,1.2,11.5,5.5,15.6
		c6.9,6.9,14.7,7.5,23.9,7.5c9.2,0,23.6-5.2,23.6-22.2v-27.1c0-0.3,0-0.6,0.3-0.6h6.6c0.3,0,0.3,0,0.3-0.3v-9.2
		C242.8,216.2,240.5,213.6,239.7,213"/>
	<path fill="#705D50" d="M324.2,257.7c-3.2,4.3-7.5,9.2-14.4,11.8l14.4-12.4C324.2,257.1,324.2,257.4,324.2,257.7 M298.8,271
		l20.5-17.6c0.6,0.3,1.2,0.9,2,1.4l-18.7,15.9C301.4,271,300.2,271,298.8,271 M277.2,262.3l10.1-8.7c0.6,0.6,0.9,1.4,1.4,2l-9.8,8.4
		C278.3,263.5,277.7,262.9,277.2,262.3 M278,220.2c1.7-1.7,3.5-2.9,5.2-4l-7.8,6.6C276.3,221.9,277.2,221.1,278,220.2 M302,212.4
		l-33.2,28.3c0-1.2,0.3-2.3,0.3-3.5l28.8-24.8c1.2,0,2,0,2.9,0C301.4,212.4,301.7,212.4,302,212.4 M305.4,221.4
		c-0.9-0.3-1.7-0.6-2.6-0.9l6.9-6.1c0.9,0.3,1.4,0.9,2.3,1.2L305.4,221.4z M314.4,213.6L314.4,213.6L314.4,213.6L314.4,213.6z
		 M322.4,214.2v1.2l-11.8,10.1c-0.6-0.6-1.2-1.2-1.7-1.7l11.5-9.8h1.7C322.2,213.6,322.4,213.9,322.4,214.2 M321.9,232.9h-1.2
		l1.7-1.4v0.9C322.4,232.9,322.2,232.9,321.9,232.9 M316.1,232.9l6.1-5.2v3.2l-2.6,2C318.7,232.9,317.2,232.9,316.1,232.9
		 M313.8,232.9c0,0-0.3-0.6-0.6-1.7l8.9-7.5v3.2l-6.9,6.1C314.7,232.9,314.1,232.9,313.8,232.9 M312.3,228.3l9.8-8.4v3.2l-8.9,7.8
		l0,0C313.2,229.7,312.9,228.9,312.3,228.3 M310.9,225.7l11.5-9.8v3.2l-10.1,8.7C311.8,226.8,311.5,226.3,310.9,225.7 M313.5,217
		c0.6,0.6,0.9,0,0.9-0.6v-1.7l1.2-0.9h3.7l-11,9.2c-0.6-0.6-1.4-0.9-2.3-1.4l6.3-5.5C312.9,216.8,313.2,217,313.5,217 M298.5,220.2
		l8.1-6.9c0.9,0.3,2,0.6,2.6,1.2l-7.2,6.1C300.8,220.2,299.7,220.2,298.5,220.2 M285.5,251.1c0.3,0.9,0.9,1.4,1.2,2.3l-10.1,8.7
		c-0.6-0.6-1.2-1.2-1.4-1.7L285.5,251.1z M284.7,248.2c0.3,0.9,0.6,1.7,0.9,2.3l-10.7,9.2c-0.6-0.6-0.9-1.4-1.4-2L284.7,248.2z
		 M283.8,244.7c0,0.9,0.3,2,0.6,2.9l-11.2,9.5c-0.3-0.6-0.9-1.4-1.2-2.3L283.8,244.7z M283.5,241c0,1.2,0,2,0.3,2.9l-12.1,10.4
		c-0.3-0.9-0.6-1.4-0.9-2.3L283.5,241z M283.8,236.9c0,0.9-0.3,2-0.3,3.2v0.3l-13,11c-0.3-0.9-0.6-1.7-0.9-2.6L283.8,236.9z
		 M297.6,220.2c-4,0.6-9.2,4-12.1,10.4l-16.4,14.1c0-1.2-0.3-2.3-0.3-3.2l33.7-28.8c1.2,0,2.3,0.3,3.2,0.6L297.6,220.2z
		 M270.5,231.8l22.2-19c1.4-0.3,2.9-0.3,4.3-0.3l-28,23.9C269.7,234.6,269.9,233.2,270.5,231.8 M274,224.8l11.5-9.8
		c2-0.9,4-1.7,6.1-2l-20.8,17.9C271.7,228.6,272.8,226.6,274,224.8 M269.7,247.9c-0.3-0.9-0.3-1.7-0.6-2.6l15.9-13.6
		c-0.6,1.4-0.9,2.9-1.2,4.3l-14.1,12.1C269.7,247.9,269.7,247.9,269.7,247.9 M290.7,257.7l-9.5,8.1c-0.6-0.6-1.4-0.9-2-1.4l9.8-8.4
		C289.6,256.8,290.1,257.4,290.7,257.7 M293.6,259.4l-9.2,8.1c-0.9-0.3-1.4-0.9-2.3-1.2l9.5-8.1
		C291.9,258.6,292.7,259.2,293.6,259.4 M287.3,269c-0.9-0.3-1.7-0.6-2.6-1.2l9.2-8.1c0.9,0.3,1.7,0.6,2.6,0.9L287.3,269z
		 M297.3,260.9c1.2,0.3,2.3,0.3,3.2,0.3l-10.1,8.7c-0.9-0.3-1.7-0.6-2.9-0.9L297.3,260.9z M305.4,260.9L305.4,260.9l-11.5,9.8
		c-0.9,0-1.7-0.3-2.9-0.6l10.1-8.7C302.8,261.5,304,261.2,305.4,260.9 M316.7,252.8c0.3-0.6,0.6-0.6,1.2-0.3c0.3,0,0.6,0.3,1.2,0.9
		l-20.8,17.9c-0.9,0-2,0-3.2-0.3l12.1-10.4C313.2,258.3,316.7,253.1,316.7,252.8 M323.6,256.8l-15.3,13.3c-1.4,0.3-2.9,0.9-4.6,0.9
		l18.2-15.6C322.7,256,323.3,256.6,323.6,256.8 M328.2,258.3c-0.3-0.3-2.6-2-2.6-2s-6.9-5.2-7.5-5.8c-0.9-0.6-0.9-0.6-1.4,0.6
		c-0.3,0.6-4.6,7.8-13,8.9c-8.9,1.2-15.3-5.5-15-18.2c0-11.2,7.8-18.2,12.4-18.5c6.9-0.3,10.4,2,12.4,10.4c0,0,0.6,0.6,1.2,0.9
		c0.6,0.6,2.3,2.6,2.6,2.6h9.5c0.6,0,0.6,0,0.6-0.6v-20.2l-0.3-0.6c0,0-3.2-3.5-3.5-3.5h-9.8c-0.3,0-0.3,0-0.3,0.3v2v0.3l-0.3,0.3
		c-2-1.7-6.3-4-14.4-4.3c-3.5,0-10.7,0-17.9,4.9c-7.2,5.2-14.7,15-13.6,28.8c1.7,17.3,16.2,30.9,34.6,30.6
		c14.4-0.3,22.8-11,26.2-15.9C328.5,258.6,328.5,258.6,328.2,258.3"/>
	<path fill="#705D50" d="M419.9,222.5h-2l2.6-2v1.4C420.5,222.5,420.5,222.5,419.9,222.5 M420.2,262v1.2l-7.5,6.3H409l8.9-7.8h1.7
		C420.2,261.7,420.2,261.7,420.2,262 M419.3,269.5h-1.4l2-1.7v0.9C420.2,269.2,419.9,269.5,419.3,269.5 M413.6,269.5l6.6-5.5
		c0,0.9,0,2,0,2.9l-2.9,2.6H413.6z M404.6,269.5l8.9-7.8h3.7l-8.9,7.8H404.6z M392.2,269v-0.6l7.5-6.6l0,0l12.7-11v3.2l-18.2,15.6
		h-2C392.2,269.5,392.2,269.5,392.2,269 M392.5,261.7h1.7l-2,1.7v-1.2C392.2,262,392.2,261.7,392.5,261.7 M398.9,261.7l-6.6,5.8
		v-3.5l2.9-2.3H398.9z M383.6,262.3v0.6l-7.8,6.6H372l9.2-7.8h2.3C383.6,261.7,383.6,262,383.6,262.3 M382.7,269.5h-1.4l2.3-2v1.2
		C383.6,269.2,383.3,269.5,382.7,269.5 M376.7,269.5l6.9-5.8v3.2l-3.2,2.6H376.7z M355.6,269v-1.4l20.2-17v3.2l-18.5,15.9h-1.4
		C355.6,269.5,355.6,269.5,355.6,269 M356.2,261.7h0.9l-1.4,1.2V262C355.6,261.7,355.6,261.7,356.2,261.7 M361.7,261.7l-6.1,5.2
		v-3.2l2.3-2C357.9,261.7,361.7,261.7,361.7,261.7z M355.6,222.2v-1.7l7.5-6.3h3.7l-9.8,8.4h-1.2
		C355.6,222.5,355.6,222.5,355.6,222.2 M356.2,214.2h1.4l-2,1.7v-1.4C355.6,214.2,355.6,214.2,356.2,214.2 M355.6,216.8l2.9-2.6h3.5
		l-6.3,5.5V216.8z M383.6,214.4v1.2l-20.8,17.6V230l18.7-15.9h1.7C383.6,214.2,383.6,214.2,383.6,214.4 M383,222.5h-2.3l2.6-2.3v1.7
		C383.6,222.5,383.3,222.5,383,222.5 M381.3,237.2l-18.5,15.6v-3.2l14.7-12.4C377.5,237.2,381.3,237.2,381.3,237.2z M385.9,237.2
		l-23.1,19.9V256v-2.3l19.3-16.4h1.4H385.9z M391.4,237.2h3.7l-9.8,8.4h-3.7L391.4,237.2z M376.9,245.9l9.8-8.4h3.7l-9.8,8.4H376.9z
		 M362.8,257.7l13-11.2v3.2l-13,11.2V257.7z M375.8,230l-13.3,11.2v-3.2l13.3-11.2V230z M362.8,245.9l13.3-11.2v2
		c0,0.6,0,0.6,0.3,0.6h0.3l-13.8,11.5L362.8,245.9L362.8,245.9z M375.8,233.8L362.5,245v-3.2l13.3-11.2V233.8z M375.8,222.8v3.2
		l-13.3,11.2v-3.2L375.8,222.8L375.8,222.8 M376.4,222.5L376.4,222.5l7.2-6.1v3.2l-3.5,2.9H376.4z M376.7,214.2c1.4,0,2.9,0,3.7,0
		l-17.9,15.3V226L376.7,214.2z M372,214.2h3.7l-13,11.2v-2.3c0-0.6,0-0.6-0.3-0.6L372,214.2z M361.7,222.5h-3.7l9.8-8.4
		c1.2,0,2.3,0,3.7,0L361.7,222.5z M376.4,261.7h3.7l-9.2,7.8h-3.7L376.4,261.7z M375.8,258.6v2.9v0.3l-9.2,7.8h-3.7L375.8,258.6z
		 M375.8,257.7L362,269.5h-3.7l17.6-15V257.7z M399.7,237.2L399.7,237.2l-9.8,8.4h-3.7l9.8-8.4H399.7z M394.8,222.5l9.8-8.4h3.7
		l-9.8,8.4H394.8z M392.2,221.9c0,0,0-0.6,0-1.2l7.8-6.6h3.7l-9.8,8.4h-1.4C392.2,222.5,392.2,222.2,392.2,221.9 M392.5,214.2h2
		l-2.3,2c0-0.9,0-1.4,0-1.7S392.2,214.2,392.5,214.2 M392.2,216.8l3.2-2.6h3.7l-6.9,5.8C392.2,219.1,392.2,217.9,392.2,216.8
		 M420.5,214.4v1.2L400,233.2V230l18.5-15.9h1.4C420.5,214.2,420.5,214.2,420.5,214.4 M413.3,222.5l7.2-6.1v3.2l-3.5,2.9H413.3z
		 M400,225.1v-2.3c0-0.3,0-0.3-0.3-0.3h-0.3l9.8-8.4h3.7L400,225.1z M400,226l13.8-11.8h3.7l-17.6,15V226z M400,237.2v-0.3v-2.9
		l12.7-10.7v3.2L400,237.2z M412.7,230.3l-18.2,15.6h-3.7l21.9-18.7V230.3z M400,257.7l12.7-10.7v3.2L400,260.9V257.7z M412.7,234.9
		v3.2L400,248.8v-2.9c0-0.3,0-0.3,0-0.3L412.7,234.9z M412.7,234.3l-13.6,11.5h-3.7l17.3-14.7V234.3z M412.7,242.1L400,252.8v-3.2
		l12.7-10.7V242.1z M412.7,246.2L400,256.8v-3.2l12.7-10.7V246.2z M412.7,258l-13.6,11.5h-3.7l17.3-14.7V258z M412.7,261.7l-9.2,7.8
		h-3.7l12.7-10.7v2.6C412.7,261.5,412.7,261.7,412.7,261.7 M425.4,216.8c0-0.3-3.2-3.5-3.2-3.5s-0.6-0.6-1.2-0.6
		c-0.6,0-28.8,0-29.4,0c-0.9,0-0.9,0-0.9,0.9v8.9c0,0.3,0.3,0.3,0.9,0.9c0.6,0.6,2,2,2.3,2.3s0.6,0.6,0.9,0.6s2.9,0,3.2,0
		c0.6,0,0.6,0,0.6,0.3v8.7c0,0.3,0,0.3-0.9,0.3h-6.1H381c-0.3,0-0.3,0-0.3-0.3s0-8.4,0-8.7s0-0.3,0.3-0.3h6.9c0,0,0.6,0,0.6-0.6
		s0-2.6,0-4.9c0-1.7,0.3-4,0-4.6c0-0.3-0.6-0.6-0.6-0.6l-2.6-2.6c0,0-0.3-0.6-0.9-0.6H355c-0.6,0-0.9,0.3-0.9,1.2v8.9
		c0,0.3,0.3,0.6,0.6,0.9c0.3,0.3,2.6,2.6,2.9,2.6h3.2c0.3,0,0.3,0,0.3,0.6v32.9c0,0.6,0,0.6-0.3,0.6H355c-0.6,0-0.9,0.3-0.9,0.6v9.8
		c0,0.3,0.3,0.6,0.6,0.9c0.3,0.3,2.3,2.3,2.6,2.3c0.3,0,0.9,0,2,0c0.9,0,27.4,0,28,0s0.6-0.3,0.6-1.2v-9.2c0-0.3-3.2-3.2-3.5-3.2
		h-3.7c-0.3,0-0.3,0-0.3-0.3v-9.8c0-0.3,0-0.6,0.6-0.6h17.3c0.3,0,0.3,0,0.3,0.3V260c0,0.3,0,0.6-0.6,0.6h-6.3c-0.6,0-0.9,0-0.9,0.6
		v9.5c0,0.3,0.3,0.6,0.6,0.6c0.3,0.3,1.4,1.4,2,2s0.9,0.9,1.2,0.9c0.3,0,7.8,0,11,0s17.9,0,18.7,0s0.9-0.3,0.9-0.6
		c0-0.3,0-8.9,0-9.2c0-0.3-2.6-2.9-2.9-3.2s-0.6-0.6-0.9-0.6s-3.2,0-3.5,0c-0.3,0-0.6,0-0.6-0.3c0-0.3,0-32,0-32.9s0.3-0.9,0.6-0.9
		h6.6c0,0,0.6,0,0.6-0.6c0-0.6,0-2,0-3.7C425.1,219.9,425.4,217,425.4,216.8"/>
	<path fill="#705D50" d="M590.7,269.8h-2l2.3-2v1.4C591.2,269.8,591.2,269.8,590.7,269.8 M580,269.8l11.2-9.5v3.2l-7.5,6.3
		C583.7,269.8,580,269.8,580,269.8z M577.4,269.5c0,0-0.3-0.3-0.6-0.9l14.1-12.1v2.9l-12.1,10.4h-1.2L577.4,269.5 M556.3,261.7
		l-9.5,8.1h-3.7l9.5-8.1H556.3z M559.8,262v0.9l-8.4,7.2h-3.7l9.5-8.1h2C559.8,261.7,559.8,261.7,559.8,262 M559.2,269.8h-2.6
		l2.9-2.3v2C559.8,269.8,559.8,269.8,559.2,269.8 M552.3,269.8l7.5-6.3c0,0.9,0,2,0,3.2l-3.7,3.2H552.3z M535.9,269.5v-1.4l7.5-6.3
		c0.6,0,0.6-0.3,0.6-0.6l8.4-7.2v3.2l-14.7,12.4h-1.2C535.9,269.8,535.9,269.8,535.9,269.5 M535.9,264.1l2.6-2.3h3.7l-6.3,5.5V264.1
		z M536.1,261.7h1.4l-1.7,1.4L536.1,261.7C535.9,261.7,535.9,261.7,536.1,261.7 M538.7,222.2l9.5-8.1h3.7l-9.5,8.1
		c-0.9,0-1.7,0-2.9,0C539,222.2,539,222.2,538.7,222.2 M535.9,220.8l7.8-6.6h3.7l-9.5,8.1c-0.9,0-1.7,0-1.7-0.3
		C535.9,221.9,535.9,221.4,535.9,220.8 M536.1,214.2h2l-2.3,2c0-0.9,0-1.4,0-1.7C535.9,214.2,535.9,214.2,536.1,214.2 M535.9,218.8
		c0-0.6,0-1.2,0-2l3.2-2.6h3.7l-6.9,6.1C535.9,219.6,535.9,219.4,535.9,218.8 M559.5,215.3l-15.6,13.3v-3.2l13.3-11.2h1.7
		C558.9,214.2,559.2,214.4,559.5,215.3 M580.6,221.9l8.9-7.8h3.7l-10.1,8.7v-0.3c0-0.6,0-0.6-0.6-0.6H580.6z M576.8,221.9
		c-0.3,0-0.6,0-0.6-0.3l8.9-7.5h3.7l-9.2,7.8C578.3,221.9,576.8,221.9,576.8,221.9 M576.5,214.2h2.9l-3.5,2.9v-2.3
		C576.2,214.2,576.2,214.2,576.5,214.2 M576.2,217.6l4.3-3.5h3.7l-8.1,6.9V217.6z M591.2,232l-7.8,6.6c0-1.2,0-2,0-3.2l7.8-6.6V232z
		 M591.2,252.5v3.2l-14.4,12.4c-0.3-0.6-0.9-1.2-1.2-2L591.2,252.5z M591.2,248.5v3.2l-15.9,13.6c-0.3-0.6-0.9-1.4-1.2-2
		L591.2,248.5z M582,252.2c0,0.3,0.3,0.3,0.3,0.3c0.6,0.9,0.9,0.3,0.9-0.6v-0.6l7.8-6.6v3.2l-17.6,15c-0.3-0.6-0.9-1.4-1.2-2
		L582,252.2z M580.6,249.6c0.6,0.9,0.9,1.7,1.2,2l-9.8,8.4c-0.3-0.6-0.9-1.4-1.2-2L580.6,249.6z M583.2,243.3l7.8-6.6v3.2l-7.8,6.6
		C583.2,245.6,583.2,244.4,583.2,243.3 M583.2,226.8v-3.2l11-9.5h3.7L583.2,226.8z M583.2,231.5l7.8-6.6v3.5l-7.8,6.6V231.5z
		 M591.2,236.1l-7.8,6.6v-3.2l7.8-6.6C591.2,233.8,591.2,234.9,591.2,236.1 M591.2,243.9l-7.8,6.6v-3.2l7.8-6.6V243.9z M598.7,221.7
		l-0.6,0.6h-4l4.6-4V221.7L598.7,221.7z M598.7,217.6l-5.5,4.6h-1.7c-0.3,0-0.3,0-0.3,0.6v1.2l-7.8,6.6v-3.2l15.6-13.3v0.3v3.2
		H598.7z M578.8,247c0.6,0.9,0.9,1.4,1.4,2l-9.5,8.1c-0.3-0.6-0.9-1.4-1.2-2L578.8,247z M577.4,244.4c0.6,0.9,0.9,1.4,1.2,2
		l-9.5,8.1c-0.3-0.6-0.9-1.4-1.2-2L577.4,244.4z M575.7,241.8c0.3,0.6,0.9,1.4,1.2,2l-9.5,8.1c-0.3-0.6-0.9-1.4-1.2-2L575.7,241.8z
		 M574.2,239.3c0.6,0.9,0.9,1.4,1.4,2.3l-9.5,8.1c-0.3-0.9-0.9-1.4-1.2-2.3L574.2,239.3z M572.5,236.7c0.6,0.6,0.9,1.4,1.2,2
		l-9.5,8.1c-0.3-0.6-0.9-1.4-1.2-2L572.5,236.7z M571,234.1c0.6,0.6,0.9,1.4,1.2,2l-9.5,8.1c-0.3-0.6-0.9-1.4-1.2-2L571,234.1z
		 M569.3,231.5c0.3,0.6,0.9,1.4,1.4,2l-9.2,8.1c-0.6-0.9-0.9-1.4-1.2-2.3L569.3,231.5z M567.9,228.9c0.3,0.6,0.9,1.4,1.2,2l-9.2,7.8
		c-0.6-0.9-0.9-1.4-1.2-2L567.9,228.9z M566.1,226.3c0.3,0.6,0.9,1.4,1.2,2l-9.2,7.8c-0.3-0.9-0.9-1.4-1.2-2L566.1,226.3z
		 M552,241.6l-8.4,7.2v-3.2l8.4-7.2V241.6z M552.3,261.5l-9.8,8.4h-4l13.8-11.8L552.3,261.5L552.3,261.5z M543.9,257.1l8.4-7.2v3.2
		l-8.4,7.2V257.1z M543.4,222.2L543.4,222.2l9.2-8.1h3.5l-12.4,10.7v-2C543.9,222.2,543.6,222.2,543.4,222.2 M543.9,232.6v-3.2
		l15.9-13.6c0.3,0.6,0.9,1.2,1.4,2L543.9,232.6z M553.7,228.3c-1.2-1.7-1.4-0.6-1.4,0.6v0.9l-8.4,7.2v-3.5l17.6-15
		c0.3,0.6,0.9,1.4,1.2,2L553.7,228.3z M555.2,230.9c-0.6-1.2-1.2-1.7-1.2-2.3l8.9-7.8c0.3,0.6,0.9,1.4,1.2,2L555.2,230.9z
		 M543.9,241.3l8.4-7.2v3.2l-8.4,7.2V241.3z M543.9,237.5l8.4-7.2c0,0.9,0,2,0,3.2l-8.4,7.2V237.5z M552,245.3l-8.4,7.2v-3.2
		l8.4-7.2V245.3z M552,249.3l-8.4,7.2v-3.2l8.4-7.2V249.3z M565.9,225.7l-9.2,7.8c-0.6-0.9-0.9-1.4-1.2-2.3l9.2-7.8
		C565,224.3,565.6,225.1,565.9,225.7 M591.2,267.2l-3.2,2.6h-3.5l6.6-5.5V267.2z M600.8,213.9c-0.3-0.3-0.6-0.6-0.9-0.9
		c-0.3-0.3-0.9-0.6-0.9-0.6s-23.4,0-23.6,0c-0.6,0-0.6,0-0.6,0.3v9.8c0,0.3,2.3,2,2.9,2.6c0.6,0.6,0.9,0.9,1.2,0.9
		c0.3,0,2.3,0,2.6,0s0.3,0,0.3,0.3v17.3c0,0.3,0,0-0.3,0l-5.2-8.4l-10.4-17.3l-5.8-4.6l-1.4-1.2h-23.9c-0.6,0-0.6,0-0.6,0.6
		s0,9.5,0,9.8s2.3,2,2.9,2.3c0.6,0.3,0.9,0.6,1.2,0.6c0.3,0,3.2,0,3.5,0c0.3,0,0.3,0.3,0.3,0.6v32.9c0,0.6,0,0.9-0.6,0.9
		c-0.6,0-0.9,0-2.9,0s-3.2,0-3.7,0c-0.6,0-0.6,0-0.6,0.9c0,0.9,0,2,0,3.5c0,0.9,0,2.3,0,3.7l0,0l0,0c0,1.2,0,2.3,0,2.6
		c0,0.3,2.6,3.2,3.2,3.2H563c0.9,0,0.9,0,0.9-0.6s0-9.2,0-9.2c0-0.3-0.3-0.6-0.6-0.9c-0.3-0.3-2.9-3.2-2.9-3.2h-3.7
		c-0.3,0-0.3,0-0.3-0.6v-21.6c0-0.9,0.3-0.6,0.6,0c0.3,0.6,19.6,33.5,19.6,33.5l4,3.5h14.1c0.9,0,0.9,0,0.9-0.9v-46.1
		c0-0.6,0-0.9,0.6-0.9h6.6c0.3,0,0.3,0,0.3-0.6v-9.5C603.3,216.2,601.9,215,600.8,213.9"/>
	<g>
		<path fill="#FFFFFF" d="M37.2,414c7.5,0,11.5,0,11.5,24.8V455c0,18.7-3.5,18.7-8.4,18.7h-7.5V414H37.2z M36.3,328.7
			c6.6,0,9.8,0,9.8,19.6v19.9c0,16.2-5.5,16.2-8.4,16.2h-5.2v-55.7H36.3z M5.5,297.8H0.6V504h42.1c11.2,0,20.8-3.5,26.8-9.8
			c8.7-8.9,11.5-21.3,11.5-48.7c0-16.4-1.2-26-4.3-33.2c-2.3-6.3-5.5-10.4-11-14.1c1.2-0.9,2-1.7,2.9-2.9c6.6-7.8,9.2-19,9.2-41.5
			c0-41-11.8-56-43.5-56"/>
		<path fill="none" stroke="#FFFFFF" stroke-width="0.7652" stroke-miterlimit="10" d="M28,478.6h12.1c10.1,0,13.3-5.5,13.3-23.4
			v-16.2c0-23.6-3.2-29.7-16.2-29.7H28V478.6z M28,388.6h10.1c8.9,0,13-6.3,13-20.8V348c0-19-2.9-24.2-14.4-24.2H28V388.6z
			 M34.3,302.4c29.1,0,38.9,13.3,38.9,51.3c0,21.3-2,31.7-8.1,38.4c-2,2.3-3.7,3.7-8.4,6.1c8.9,4.6,12.7,8.4,15.6,15.9
			c2.9,6.6,4,15.9,4,31.1c0,26.5-2.6,37.8-10.1,45.6c-5.5,5.5-13.8,8.4-23.6,8.4H5.2V302.4"/>
		<path fill="none" stroke="#FFFFFF" stroke-width="0.3877" d="M28,478.6h12.1c10.1,0,13.3-5.5,13.3-23.4v-16.2
			c0-23.6-3.2-29.7-16.2-29.7H28V478.6z M28,388.6h10.1c8.9,0,13-6.3,13-20.8V348c0-19-2.9-24.2-14.4-24.2H28V388.6z M34.3,302.4
			c29.1,0,38.9,13.3,38.9,51.3c0,21.3-2,31.7-8.1,38.4c-2,2.3-3.7,3.7-8.4,6.1c8.9,4.6,12.7,8.4,15.6,15.9c2.9,6.6,4,15.9,4,31.1
			c0,26.5-2.6,37.8-10.1,45.6c-5.5,5.5-13.8,8.4-23.6,8.4H5.2V302.4H34.3z"/>
		<path fill="#FFFFFF" d="M143.6,364.4c2.9,28,5.5,52.5,6.1,58h-12.1C138.1,416.9,140.7,392.1,143.6,364.4 M158.6,297.8h-34
			L97.5,504h30.9c0,0,5.5-45.9,6.1-53.1h18.5c0.9,6.9,6.1,53.1,6.1,53.1h30.6l-27.1-206.2"/>
		<path fill="none" stroke="#FFFFFF" stroke-width="0.7652" stroke-miterlimit="10" d="M132.4,427h22.2l-10.4-105.6h-0.6L132.4,427z
			 M158.6,302.4l26,197h-21.1l-6.1-53.1h-26.8l-6.3,53.1H103l26-197"/>
		<path fill="none" stroke="#FFFFFF" stroke-width="0.3877" d="M132.4,427h22.2l-10.4-105.6h-0.6L132.4,427z M158.6,302.4l26,197
			h-21.1l-6.1-53.1h-26.8l-6.3,53.1H103l26-197H158.6L158.6,302.4z"/>
		<path fill="#FFFFFF" d="M289,297.8h-25.7c0,0-11.5,34.3-19.3,58v-58h-31.7V504H244v-72.1c8.7,28.6,21.3,72.1,21.3,72.1h32.3
			c0,0-33.7-110.7-34.6-113.6c0.9-2.9,32.6-92.9,32.6-92.9"/>
		<polyline fill="none" stroke="#FFFFFF" stroke-width="0.7652" stroke-miterlimit="10" points="239.4,302.4 239.4,382.9 
			239.7,382.9 266.8,302.4 289,302.4 258.1,390.4 291.3,499.4 268.8,499.4 239.7,401.6 239.4,401.6 239.4,499.4 216.9,499.4 
			216.9,302.4 		"/>
		<polygon fill="none" stroke="#FFFFFF" stroke-width="0.3877" points="239.4,302.4 239.4,382.9 239.7,382.9 266.8,302.4 289,302.4 
			258.1,390.4 291.3,499.4 268.8,499.4 239.7,401.6 239.4,401.6 239.4,499.4 216.9,499.4 216.9,302.4 		"/>
		<polyline fill="#FFFFFF" points="384.2,297.8 316.1,297.8 316.1,504 391.7,504 391.7,473.7 347.8,473.7 347.8,413.2 383.3,413.2 
			383.3,382.9 347.8,382.9 347.8,328.1 388.8,328.1 388.8,297.8 		"/>
		<polyline fill="none" stroke="#FFFFFF" stroke-width="0.7652" stroke-miterlimit="10" points="384.2,302.4 384.2,323.5 
			342.9,323.5 342.9,387.8 378.4,387.8 378.4,408.3 343.2,408.3 343.2,478.3 387,478.3 387,499.4 320.7,499.4 320.7,302.4 		"/>
		<polygon fill="none" stroke="#FFFFFF" stroke-width="0.3877" points="384.2,302.4 384.2,323.5 342.9,323.5 342.9,387.8 
			378.4,387.8 378.4,408.3 343.2,408.3 343.2,478.3 387,478.3 387,499.4 320.7,499.4 320.7,302.4 		"/>
		<path fill="#FFFFFF" d="M447,328.7c8.7,0,10.1,2,11,4.6v0.3v0.3c0.6,1.4,0.9,2,0.9,2.3v0.3v0.3c0.3,2.3,0.6,8.1,1.2,15.9l0.3,5.2
			v4.9c0,23.6-3.2,24.5-14.7,24.5h-1.4v-58.5H447z M417,297.8h-4.6V504h31.7v-86.5h2.6c1.7,6.6,21.6,86.5,21.6,86.5h31.7
			c0,0-22.2-89.4-23.6-95.2c11.5-8.7,16.4-20.2,16.4-40.4v-19.9c0-41.8-22.2-50.8-41-50.8"/>
		<path fill="none" stroke="#FFFFFF" stroke-width="0.7652" stroke-miterlimit="10" d="M439.5,391.8h6.3c15.9,0,19.3-5.2,19.3-29.4
			v-5.2c-0.6-11-0.9-18.2-1.4-21.6c0-1.4-0.6-2.6-1.4-4.3c-2-5.8-6.3-7.5-15.3-7.5h-7.5L439.5,391.8L439.5,391.8z M451.9,302.4
			c23.9,0,36.3,15.3,36.3,46.1v19.9c0,20.2-4.6,30.6-17,38.4l22.8,92.6h-22.2l-21.6-86.5h-11v86.5h-22.5v-197"/>
		<path fill="none" stroke="#FFFFFF" stroke-width="0.3877" d="M439.5,391.8h6.3c15.9,0,19.3-5.2,19.3-29.4v-5.2
			c-0.6-11-0.9-18.2-1.4-21.6c0-1.4-0.6-2.6-1.4-4.3c-2-5.8-6.3-7.5-15.3-7.5h-7.5L439.5,391.8L439.5,391.8z M451.9,302.4
			c23.9,0,36.3,15.3,36.3,46.1v19.9c0,20.2-4.6,30.6-17,38.4l22.8,92.6h-22.2l-21.6-86.5h-11v86.5h-22.5v-197H451.9z"/>
		<path fill="#FFFFFF" d="M591.8,297.8h-26.2c0,0-9.8,43.8-14.7,66.3c-5.2-22.2-15.3-66.3-15.3-66.3h-32.3c0,0,31.7,118,32,119.1
			V504h32v-87.7c0.3-1.2,30.6-118.5,30.6-118.5"/>
		<path fill="#705D50" d="M42.7,504.6H0V296.9h34.3c32.3,0,44.4,15.3,44.4,56.8c0,22.8-2.6,34.3-9.5,42.1c-0.9,0.9-1.4,1.7-2.3,2.3
			c4.9,3.7,8.1,7.8,10.7,13.8c3.2,7.2,4.3,16.7,4.3,33.5c0,27.7-2.9,40.1-11.8,49.3C63.7,501.1,53.9,504.6,42.7,504.6z M1.4,503.4
			h41.2c11,0,20.5-3.5,26.5-9.5c8.4-8.7,11.2-21.1,11.2-48.2c0-16.4-1.2-25.7-4.3-32.9c-2.3-6.3-5.5-10.4-10.7-13.8l-0.9-0.6
			l0.6-0.6c1.2-0.9,2-1.7,2.9-2.9c6.6-7.5,8.9-18.7,8.9-41.2c0-40.4-11.5-55.4-43-55.4H1.4V503.4z M40.1,474.6H32v-61.1h5.2
			c8.4,0,12.1,1.2,12.1,25.7v16.2C49.3,473.7,45.9,474.6,40.1,474.6z M33.5,473.1h6.6c4.9,0,7.8,0,7.8-18.2v-16.2
			c0-24.2-3.5-24.2-10.7-24.2h-3.7V473.1z M37.8,384.9h-6.1v-57.1h4.3c7.5,0,10.7,0.9,10.7,20.2v19.9
			C46.7,384.9,41,384.9,37.8,384.9z M33.5,383.5h4.6c2.6,0,7.5,0,7.5-15.3v-19.9c0-18.7-2.6-18.7-9.2-18.7h-2.9
			C33.5,329.5,33.5,383.5,33.5,383.5z M190.6,504.6h-32V504c0,0-5.2-43.5-6.1-52.5h-17.3c-1.2,8.7-6.1,52.5-6.1,52.5v0.6H96.9v-0.9
			L124,296.9h39.2v0.6L190.6,504.6z M160.1,503.4h29.1l-26.8-204.8h-37.2L98.3,503.4h29.4c0.6-5.5,5.5-45.9,6.1-52.5v-0.6h19.9v0.6
			C154.6,457.6,159.2,497.7,160.1,503.4z M150.5,423H137v-0.9c0.6-4.9,2.6-25.7,5.2-50.2l1.4-14.7l2.9,28c2,18.5,3.5,32.9,3.7,36.9
			L150.5,423z M138.4,421.5h10.4c-0.6-4.9-2-18.7-3.7-36.1l-1.4-14.4v1.2C141.3,395.6,139,415.5,138.4,421.5z M298.8,504.6h-34
			l-20.2-68.1v68.1h-32.9V296.9h33.2v54.5l18.2-54.5h33.7l-0.3,0.9c0,0-30.6,86.8-32.6,92.6c2,6.1,34.6,113.3,34.6,113.3
			L298.8,504.6z M265.9,503.4h30.9c-3.2-10.7-33.7-109.9-34.6-112.8v-0.3v-0.3c0.9-2.6,28.8-82.2,32.3-91.7h-30.6l-20.5,61.7v-61.7
			h-30.6v204.8h30.3V427L265.9,503.4z M392.5,504.6h-77.3V296.9h74.1v31.7h-41.2v53.6h35.5v31.4h-35.2v59.1h43.8v31.7H392.5z
			 M316.7,503.4h74.4v-28.8h-43.8v-62.3h35.2v-28.6H347v-56.5h41.2v-28.8h-71.5V503.4z M501,504.6h-33.2V504c0,0-19-76.7-21.3-86.2
			H445v86.5h-33.5V296.6h40.4c19,0,41.8,8.9,41.8,51.3v19.9c0,20.2-4.6,32-16.2,40.7L501,504.6z M469,503.4h30.3l-23.4-94.9l0.3-0.3
			c11.2-8.4,16.2-19.9,16.2-39.8v-19.9c0-41.2-21.9-49.9-40.4-49.9H413v204.8h30.6v-86.5h4v0.6C449,423.3,467.2,496.2,469,503.4z
			 M445.6,387.8h-2.3v-60h3.5c8.9,0,10.7,2,11.5,4.9l0.3,0.3c0.6,1.2,0.9,2,0.9,2.6v0.6c0.3,2.6,0.6,8.1,1.2,15.6l0.3,5.8v4.9
			C461.2,385.5,458.3,387.8,445.6,387.8z M444.7,386.3h0.9c10.7,0,14.1,0,14.1-23.9v-4.9l-0.3-5.5c-0.3-7.5-0.6-13-0.9-15.3v-0.3
			v-0.6c0,0,0-0.3-0.9-2l-0.3-0.6c-0.9-2-1.4-4-10.4-4h-2.3L444.7,386.3L444.7,386.3z M567.9,504.6h-33.5v-87.7l-32.3-120h33.7v0.6
			c0,0,9.2,40.1,14.7,63.2c5.2-23.1,13.8-63.2,13.8-63.2v-0.6h33.7l-0.3,0.9c0,0-29.7,114.8-30.6,118.5v88.3H567.9z M535.9,503.4
			h30.6v-87.1c0.3-1.2,27.7-107,30.6-117.7h-30.9c-1.2,5.2-9.8,44.7-14.4,65.8l-0.6,3.2l-0.6-2.9c-4.9-20.8-14.1-60.6-15.3-65.8
			h-30.9l31.7,118.5v85.9H535.9z"/>
		<path fill="#BCD19E" d="M28,478.6h12.1c10.1,0,13.3-5.5,13.3-23.4v-16.2c0-23.6-3.2-29.7-16.2-29.7H28V478.6z M28,388.6h10.1
			c8.9,0,13-6.3,13-20.8V348c0-19-2.9-24.2-14.4-24.2H28V388.6z M34.3,302.4c29.1,0,38.9,13.3,38.9,51.3c0,21.3-2,31.7-8.1,38.4
			c-2,2.3-3.7,3.7-8.4,6.1c8.9,4.6,12.7,8.4,15.6,15.9c2.9,6.6,4,15.9,4,31.1c0,26.5-2.6,37.8-10.1,45.6c-5.5,5.5-13.8,8.4-23.6,8.4
			H5.2V302.4 M132.4,427h22.2l-10.4-105.6h-0.6L132.4,427z M158.6,302.4l26,197h-21.1l-6.1-53.1h-26.8l-6.3,53.1H103l26-197
			 M239.4,302.4v80.5h0.6l26.8-80.5H289l-30.9,88l33.2,109h-22.5l-29.1-97.8h-0.3v97.8h-22.2v-197 M384.2,302.4v21.1h-41.2v64.3
			h35.5v20.8h-35.2v70.1H387v21.1h-66.3V302.4 M439.5,391.8h6.3c15.9,0,19.3-5.2,19.3-29.4v-5.2c-0.6-11-0.9-18.2-1.4-21.6
			c0-1.4-0.6-2.6-1.4-4.3c-2-5.8-6.3-7.5-15.3-7.5h-7.5L439.5,391.8L439.5,391.8z M451.9,302.4c23.9,0,36.3,15.3,36.3,46.1v19.9
			c0,20.2-4.6,30.6-17,38.4l22.8,92.6h-22.2l-21.6-86.5h-11v86.5h-22.5v-197 M531.8,302.4l18.7,81.6h0.6l17.9-81.6h22.5l-28.8,113.3
			v83.6h-22.5V416l-30.6-113.9"/>
		<polyline fill="none" stroke="#FFFFFF" stroke-width="0.7652" stroke-miterlimit="10" points="531.8,302.4 550.6,384 551.1,384 
			569.3,302.4 591.8,302.4 562.7,415.8 562.7,499.4 539.9,499.4 539.9,416 509.3,302.4 		"/>
		<polygon fill="none" stroke="#FFFFFF" stroke-width="0.3877" points="531.8,302.4 550.6,384 551.1,384 569.3,302.4 591.8,302.4 
			562.7,415.8 562.7,499.4 539.9,499.4 539.9,416 509.3,302.4 		"/>
	</g>
	<g>
		<path fill="#705D50" d="M608.8,212.7c1.7,0,3.2,1.4,3.2,3.2s-1.4,3.2-3.2,3.2s-3.2-1.4-3.2-3.2S606.8,212.7,608.8,212.7z
			 M605.9,215.9c0,1.4,1.2,2.6,2.6,2.6c1.4,0,2.6-1.2,2.6-2.6s-1.2-2.6-2.6-2.6C607.1,213.3,605.9,214.4,605.9,215.9z M610,217h-0.6
			l-0.9-0.9h-0.3v1.2h-0.6v-2.9h0.9c0.6,0,1.2,0.3,1.2,0.9c0,0.3-0.3,0.6-0.6,0.9L610,217z M608.5,215.9c0.3,0,0.6-0.3,0.6-0.6
			s-0.3-0.6-0.6-0.6h-0.3v0.9h0.3V215.9z"/>
	</g>
</g>
<g>
	<path d="M173.3,566c-1.2,5.8-0.6,6.6,2.9,6.6l-0.3,1.2h-12.1l0.3-1.2c3.7,0,4.3-1.2,5.5-6.6l0.6-2.9c2.9-16.4-0.3-22.2-3.7-22.2
		c-0.9,0-2.3,0.9-2.9,1.4v-1.4c1.4-1.4,3.2-2,4.6-2c4.3,0,6.3,4.3,6.1,17c3.5-9.8,7.2-17,12.1-17c2.6,0,3.5,2,3.5,3.5
		c0,0.9-0.9,1.7-1.7,1.7c-2,0-0.9-2.9-2.9-2.9c-3.5,0-9.5,13.8-11,21.6L173.3,566z"/>
	<path d="M191.8,575c-4.9,0-8.1-4.9-6.9-10.7s5.8-10.7,10.7-10.7s7.8,4.6,6.9,10.7C201.3,570.1,196.7,575,191.8,575z M195.3,555.3
		c-3.5,0-5.8,4-6.6,8.7c-0.9,4.9,0,8.9,3.5,8.9s5.8-4,6.6-8.9C199.6,559.4,198.7,555.3,195.3,555.3z"/>
	<path d="M223.5,574.7c-2,0-2.9-1.7-2.6-4v-0.6c-1.7,2.9-4,4.6-6.6,4.6c-4,0-4.9-3.7-4-8.7l1.4-7.8c0.3-1.4,0.3-2.3-0.6-2.3
		c-0.6,0-2,0.9-2.3,1.4v-1.4c1.2-1.2,2.6-2,3.7-2c2,0,2.9,1.7,2.6,4l-1.4,8.1c-0.6,3.7-0.3,6.1,2.6,6.1c1.7,0,5.2-2.9,6.3-8.9
		l1.4-8.7h3.2l-2.9,15.6c-0.3,1.4,0,2.3,0.6,2.3c0.6,0,2-0.9,2.3-1.2v1.4C226.1,573.8,224.4,574.7,223.5,574.7z"/>
	<path d="M233.3,573.8l2.6-15.6c0.3-1.4,0.3-2.3-0.6-2.3c-0.6,0-2,0.9-2.3,1.4v-1.4c1.2-1.2,2.6-2,3.7-2c2,0,2.9,1.7,2.6,4v0.6
		c1.7-2.9,4.3-4.6,6.6-4.6c3.7,0,4.9,3.7,4,8.7l-1.4,7.8c-0.3,1.4,0,2.3,0.6,2.3c0.6,0,2-0.9,2.3-1.2v1.4c-1.2,1.2-2.6,2-3.7,2
		c-2,0-2.9-1.7-2.6-4l1.4-8.1c0.6-3.7,0.3-6.1-2.6-6.1c-2,0-5.2,2.9-6.3,8.9l-1.4,8.7h-2.9V573.8z"/>
	<path d="M261.6,568.3c-0.6,2.6,0,4,1.4,4c0.9,0,2-0.6,3.7-2.6v1.7c-1.7,2.3-4,3.2-5.2,3.2c-2.6,0-3.7-2-3.2-6.3l2-11.5h-3.7l0.3-2
		h3.7l1.7-9.2h3.2l-1.7,9.2h4.6l-0.3,2h-4.6L261.6,568.3z"/>
	<path d="M280.3,553.6c-0.6,4-2.6,7.2-3.7,13.6c-0.6,3.7,0.9,5.5,2.6,5.5c2.6,0,5.8-3.2,6.6-8.4c1.2-7.2-1.7-7.5-1.4-9.5
		c0-0.9,0.9-1.2,1.4-1.2c1.4,0,3.2,2.6,1.7,10.7c-1.2,5.8-4.9,10.7-8.9,10.7c-5.2,0-6.1-3.5-5.2-7.2c0.6-3.7,3.7-8.4,4-10.7
		c-1.4-0.6-2-1.2-3.7-1.2c-0.6,0-2,0.9-2.3,1.4v-1.4c1.2-1.2,2.6-2,3.7-2c2,0,2.3,0.9,4-0.3H280.3L280.3,553.6z"/>
	<path d="M298.2,572.6c0.6,0,2-0.9,2.3-1.2v1.4c-1.2,1.2-2.6,2-3.7,2c-2,0-2.9-1.7-2.6-4l2-12.1c0.3-1.4,0.3-2.3-0.6-2.3
		c-0.6,0-2,0.9-2.3,1.4v-1.4c1.2-1.2,2.6-2,3.7-2c2,0,2.9,1.7,2.6,4l-2.3,12.4C297.3,571.5,297.6,572.6,298.2,572.6z M299.9,547.6
		c-1.2,0-2-0.9-1.7-2c0.3-1.2,1.2-2,2.3-2c1.2,0,2,0.9,1.7,2C302.3,546.7,301.1,547.6,299.9,547.6z"/>
	<path d="M308.6,540.9l0.3-1.2l6.9-1.4l-5.8,32c-0.3,1.4,0,2.3,0.6,2.3s2-0.9,2.3-1.2v1.4c-1.2,1.2-2.6,2-3.7,2c-2,0-2.9-1.7-2.6-4
		l4-22.8C311.8,541.8,311.5,540.9,308.6,540.9z"/>
	<path d="M321.6,540.9l0.3-1.2l6.9-1.4l-5.8,32c-0.3,1.4,0,2.3,0.6,2.3c0.6,0,2-0.9,2.3-1.2v1.4c-1.2,1.2-2.6,2-3.7,2
		c-2,0-2.9-1.7-2.6-4l4-22.8C325,541.8,324.5,540.9,321.6,540.9z"/>
	<path d="M340.3,572.6c1.4,0,3.7-1.2,5.2-2.6l0.6,1.2c-2,2-4.9,3.7-7.2,3.7c-4.9,0-7.2-4.9-6.1-10.7c1.2-6.1,5.8-10.7,9.8-10.7
		c3.2,0,4.9,2.3,4.3,4.9c-0.6,2.9-4,6.6-11,8.1C335.7,570.3,337.1,572.6,340.3,572.6z M343.8,558.8c0.3-1.4-0.3-2.6-1.7-2.6
		c-2.6,0-5.2,3.2-6.1,8.4c0,0.3,0,0.6-0.3,0.9C340.9,564,343.5,561.1,343.8,558.8z"/>
	<path d="M354.7,574.4c-1.4,0-2.6-1.2-2.3-2.9c0.3-1.4,1.7-2.9,3.2-2.9c1.4,0,2.9,1.2,2.6,3.7c-0.6,2.6-2.9,6.3-6.9,8.7l-0.6-0.6
		c2.6-2.3,3.7-3.7,4.3-6.1C355,574.4,354.7,574.4,354.7,574.4z"/>
	<path d="M401.8,573.2c0-1.4,0-2.9-0.6-3.2c-2.6,3.2-5.8,4.9-8.9,4.9c-7.2,0-11.8-8.4-10.1-18.2c1.7-10.1,9.2-18.2,16.4-18.2
		c3.2,0,5.5,1.7,7.2,4.9c0.6-0.6,1.2-1.7,1.7-3.2h1.2l-2.3,12.7h-1.2c0.3-7.5-2.3-12.1-6.9-12.1c-6.3,0-10.4,8.9-11.8,16.2
		c-1.2,7.2,0,15.9,6.1,15.9c4.6,0,8.9-4.6,11.2-12.1h1.2l-2.3,12.7h-0.9V573.2z"/>
	<path d="M415,568.3c-1.7,3.2-0.9,4.3,2.6,4.3l-0.3,1.2h-10.7l0.3-1.2c3.2,0,4-0.9,6.1-4.9l14.7-29.4h1.2l4.3,29.4
		c0.6,4,0.9,4.9,4.3,4.9l-0.3,1.2h-12.4l0.3-1.2c3.7,0,4.6-1.2,4.3-4.3l-0.9-6.3h-10.4L415,568.3z M426,546.1l-6.9,13.6h8.7
		L426,546.1z"/>
</g>
</svg>
