<?xml version="1.0" encoding="utf-8"?>
<!-- Generator: Adobe Illustrator 18.0.0, SVG Export Plug-In . SVG Version: 6.00 Build 0)  -->
<!DOCTYPE svg PUBLIC "-//W3C//DTD SVG 1.1//EN" "http://www.w3.org/Graphics/SVG/1.1/DTD/svg11.dtd">
<svg version="1.1" id="Layer_1" xmlns="http://www.w3.org/2000/svg" xmlns:xlink="http://www.w3.org/1999/xlink" x="0px" y="0px"
	 viewBox="-0.3 206.9 612.3 378.1" enable-background="new -0.3 206.9 612.3 378.1" xml:space="preserve">
<g>
	<path fill="#705D50" d="M47,264.1l10.7-8.9C56.2,259.2,51.6,262.6,47,264.1 M32.3,265.2l25.1-21.3c0.3,0.9,0.6,1.7,0.9,2.6
		l-22.2,18.7c-1.4,0-2.6,0-2.6,0H32.3z M1.4,264.9v-1.4l20.5-17.3c0,1.2,0,2,0,3.2L3.5,264.9H1.4C1.4,265.2,1.4,265.2,1.4,264.9
		 M1.7,256.8h2l-2.3,2L1.7,256.8C1.4,256.8,1.4,256.8,1.7,256.8 M8.7,256.8l-6.9,6.1v-3.2l3.2-2.6h3.7V256.8z M1.7,217.3v-1.2
		l7.5-6.3H13l-9.2,7.5C2.6,217.3,2,217.3,1.7,217.3L1.7,217.3 M1.7,209.5h1.7l-1.7,1.7V209.5L1.7,209.5 M1.7,212.1l2.9-2.3h3.7
		l-6.6,5.8C1.7,215.6,1.7,212.1,1.7,212.1z M31.4,209.5L9.5,228.3v-3.2l18.2-15.6C29.1,209.5,30.3,209.5,31.4,209.5 M40.7,209.8
		l-9.5,8.1c-0.3,0-0.6,0-0.9,0c-0.9,0-1.7,0-2.6,0l9.8-8.4h0.9C37.8,209.5,38.9,209.5,40.7,209.8 M44.7,210.4l-8.9,7.8
		c-1.2,0-2.6,0-3.7,0l9.2-8.4c0.9,0,1.4,0,2,0.3C43.8,210.1,44.1,210.1,44.7,210.4 M51.3,212.4l-9.2,8.1c-0.6-0.6-1.2-1.2-1.7-1.7
		l8.7-7.5c0.6,0.3,1.2,0.3,1.4,0.6C50.8,212.1,51,212.4,51.3,212.4 M53.6,214.4l-10.4,8.9l0,0c0-0.6-0.6-1.4-0.9-2.3l9.5-8.1
		C52.5,213.3,53.1,213.9,53.6,214.4 M48.5,233.5c-1.2,0.3-2.3,0.6-3.2,0.9l11.2-9.5C55.7,228,53.6,231.2,48.5,233.5 M52.8,239
		l-8.7,7.5c-0.3-0.9-0.6-1.7-0.9-2.6l7.2-6.3C51.3,237.8,51.9,238.4,52.8,239 M38.1,256.3c1.2-0.3,2-0.9,2.9-1.4
		c0.9-0.6,1.7-1.4,2.6-2.9l12.1-10.4c0.6,0.6,0.9,1.2,1.4,2l-25.7,21.9h-3.7L38.1,256.3z M32.9,256.8c0.9,0,1.4,0,2,0
		c0.9,0,1.4,0,2-0.3l-10.1,8.7h-4L32.9,256.8z M28.3,256.8c1.2,0,2.6,0,3.7,0l-9.8,8.4h-3.7L28.3,256.8z M23.6,256.8h3.7l-10.1,8.4
		h-3.7L23.6,256.8z M21.9,254.2v2c0,0.3,0,0.6,0.3,0.6h0.3l-9.8,8.4H8.9L21.9,254.2z M21.9,253.4L8.1,265.2H4.3l17.6-15V253.4z
		 M40.7,241.3c-0.6-0.3-1.4-0.9-2.3-1.2l5.8-4.9c0.6,0.3,1.7,0.3,2.9,0.9L40.7,241.3z M41.5,251.9c-1.7,2.3-3.7,3.2-5.8,3.5
		c-1.7,0-8.7,0-8.9,0s-0.3,0-0.3-0.3s0-10.1,0-10.7s0-0.9,0.6-0.9c0.3,0,10.4,0,12.1,0c1.7,0.3,2.6,0.6,3.2,0.9
		c0.3,0.3,0.9,0.6,0.9,2.6C43,248.5,42.7,250.8,41.5,251.9 M44.1,247l9.2-7.8c0.6,0.6,1.2,0.9,1.7,1.7l-11.2,9.8
		C44.1,249.3,44.4,248.2,44.1,247 M47.9,236.4c0.6,0.3,1.4,0.6,2,0.9l-7.2,6.1c-0.3-0.3-0.6-0.9-0.9-1.2c-0.3-0.3-0.3-0.3-0.6-0.6
		l6.1-5.2C47.6,236.4,47.9,236.4,47.9,236.4 M56.5,224l-12.4,10.7c-0.6,0-1.2,0.3-1.2,0.3v0.3c0,0,0,0,0.3,0l-5.5,4.9
		c-0.3,0-0.6,0-0.9-0.3c-0.9-0.3-1.4,0-2.6,0l0,0l22.2-19C56.5,221.7,56.8,222.8,56.5,224 M41,230c0.3-0.3,0.6-0.3,0.9-0.6l0,0
		L56,217.6c0.3,0.6,0.6,1.4,0.6,2v0.3l-23.1,19.6c-0.9,0-2.3,0-3.7,0L41,230z M25.1,239.5l9.5-8.1c1.4,0,2.3,0,2.6,0
		c0.6,0,1.2-0.3,1.4-0.3l-10.1,8.7C27.4,239.5,26.2,239.5,25.1,239.5 M9.5,252.8l12.4-10.4v3.2L9.5,256V252.8z M9.5,221.1l13.6-11.5
		h3.7L9.5,224.3V221.1z M21.9,225.7L9.5,236.4v-3.5l12.4-10.4V225.7z M9.5,244.7l15.6-13.3c1.2,0,2.6,0,3.7,0L9.2,248.2v-3.5H9.5z
		 M9.5,241l12.4-10.7v0.6c0,0.3,0,0.3,0.3,0.3c0,0,0.9,0,2.3,0L9.8,243.9V241H9.5z M9.5,236.9l12.4-10.7v3.2L9.5,239.8
		C9.5,239.8,9.5,236.9,9.5,236.9z M22.5,239.5c-0.6,0-0.6,0.3-0.6,0.6v1.4L9.5,251.9v-3.2L30,231.5c1.4,0,2.6,0,3.7,0l-9.5,8.1
		C23.1,239.5,22.5,239.5,22.5,239.5 M43.3,224l10.7-9.2c0.6,0.6,1.2,1.4,1.4,2l-12.7,10.7C43.3,226.6,43.5,225.1,43.3,224
		 M37.8,218.2c-0.3,0-0.9,0-1.4,0l8.9-7.5c0.9,0.3,1.7,0.3,2.9,0.9l-8.7,7.2C38.9,218.2,38.4,218.2,37.8,218.2 M37.5,221.7
		c2.3,0,3.2,0.6,3.7,0.9c0.6,0.3,0.9,0.6,0.9,1.2c0.3,0.6,0.3,2,0,3.2c-0.3,1.4-1.4,3.2-4,3.5c-2,0.3-11,0.3-11.2,0.3
		c-0.3,0-0.3,0-0.3-0.3v-8.4c0-0.3,0-0.3,0.3-0.3C26.8,221.7,36.9,221.7,37.5,221.7 M22.8,217.9l9.8-8.4h3.7l-10.1,8.4
		C24.8,217.9,23.4,217.9,22.8,217.9 M21.9,221.7L9.5,232.3v-3.2l12.4-10.7V221.7z M18.5,209.5h3.7l-12.7,11v-2.3
		c0-0.3,0-0.6-0.3-0.6L18.5,209.5z M8.4,217.3c-0.9,0-2.3,0-3.7,0l9.2-7.8c1.2,0,2.6,0,3.7,0L8.4,217.3z M40.7,265.2
		c-1.4,0-2.6,0-3.7,0L58.3,247c0.3,0.9,0.3,2,0.3,3.2L40.7,265.2z M43,264.9c-0.6,0-0.9,0-1.4,0l16.7-14.1c0,1.2-0.3,2-0.6,3.2
		l-12.1,10.7C44.7,264.6,43.8,264.9,43,264.9 M60,243.9c-2.6-3.7-8.1-6.3-8.4-6.3c-0.3,0-0.3,0,0-0.3c0,0,4.3-2,6.3-4.3
		c2.3-2.6,3.7-5.5,2.9-11c-1.2-7.2-7.5-13-20.2-13.8c-4.3-0.3-7.8-0.3-9.5-0.3c-2,0-3.5,0-8.1,0.3c-4.6,0-20.5,0-21.6,0
		s-1.4,0-1.4,0.6v9.8c0,0,0.6,0.6,1.2,1.2s2.3,2,2.3,2s0,0,0.3,0h3.7v0.3c0,0,0,32,0,32.9c0,0.6,0,0.9-0.3,0.9s-7.2,0-7.5,0
		c0.3,0,0.3,0,0.3,0.3c0,0,0,9.8,0,10.1c0,0.3,0.3,0.3,0.6,0.9c0.3,0.3,2.6,2.3,3.2,2.6c0.3,0,0.6,0.3,0.9,0.3h17.6
		c0,0,21.6-0.3,25.1-0.6c6.3-0.6,12.4-4.6,14.7-11.2C63.7,252.5,62.6,247.6,60,243.9"/>
	<path fill="#705D50" d="M127.2,265.5l15-12.7C139.3,258.3,134.4,262.9,127.2,265.5 M94,258l9.8-8.4c0.3,0.9,0.6,1.4,1.2,2.3
		l-9.2,7.8C95.2,259.2,94.6,258.6,94,258 M106.1,211.6l-15.6,13.3C94.3,218.2,100.1,213.6,106.1,211.6 M90,226l17.6-15
		c1.7-0.6,3.2-0.9,4.9-0.9l-24.2,20.8C88.8,229.2,89.4,227.4,90,226 M117.1,209.8l-29.7,25.4c0-1.2,0.3-2.6,0.6-3.7l25.4-21.6
		c0.6,0,0.9,0,1.4,0C115.7,209.8,116.5,209.8,117.1,209.8 M122.9,257.1c1.2-0.6,2.3-1.7,3.2-2.6l19-16.2c0,0.6,0,1.4,0,2
		c0,0.3,0,0.6,0,0.9l-30.3,26c-1.2,0-2.3,0-3.2-0.3L122.9,257.1z M116.5,258.6c0.3,0,0.3,0,0.6,0c1.4,0,2.6-0.3,4-0.6l-10.4,8.9
		c-1.2-0.3-2-0.3-2.9-0.6L116.5,258.6z M112.5,258c0.9,0.3,2,0.6,3.2,0.6l-8.7,7.5c-0.9-0.3-1.7-0.6-2.6-0.9L112.5,258z
		 M109.6,256.8c0.9,0.6,1.4,0.9,2.3,1.2l-8.4,7.2c-0.9-0.3-1.7-0.9-2.3-1.2L109.6,256.8z M107,254.8c0.6,0.6,1.2,1.2,2,1.7l-8.4,7.2
		c-0.9-0.3-1.4-0.9-2.3-1.4L107,254.8z M106.7,254.2l-8.7,7.5c-0.6-0.6-1.4-1.2-2-1.4l9.2-7.8C105.6,253.1,106.1,253.7,106.7,254.2
		 M102.7,246.5c0.3,0.9,0.6,1.7,0.9,2.6l-10.1,8.7c-0.6-0.6-0.9-1.2-1.4-2L102.7,246.5z M102.1,243c0,0.9,0.3,2,0.6,2.9l-11,9.2
		c-0.6-0.6-0.9-1.4-1.2-2.3L102.1,243z M101.8,239.5c0,1.2,0,2,0.3,2.9l-11.8,10.1c-0.3-0.9-0.6-1.4-1.2-2.3L101.8,239.5z
		 M101.8,235.5c0,0.6,0,1.2,0,2c0,0.6,0,0.9,0,1.4l-12.7,11c-0.3-0.9-0.6-1.7-0.9-2.6L101.8,235.5z M102.4,231.2
		c-0.3,1.2-0.3,2.3-0.3,3.5l-13.8,11.8c-0.3-0.9-0.3-1.7-0.6-2.9L102.4,231.2z M87.4,240.1l16.4-13.8c-0.6,1.2-0.9,2.6-1.2,4.3
		l-15,12.7C87.4,242.1,87.4,241,87.4,240.1 M117.1,217.9h-0.3c-1.4,0-2.6,0-3.7,0.3l9.2-7.8c1.2,0.3,2,0.3,3.2,0.6L117.1,217.9z
		 M120.8,218.5c-0.9-0.3-2-0.6-3.2-0.6l7.8-6.6c0.9,0.3,1.7,0.6,2.6,0.9L120.8,218.5z M124,219.9c-0.9-0.6-1.4-0.9-2.3-1.2l7.5-6.3
		c0.6,0.3,1.4,0.6,2.3,1.2L124,219.9z M126.3,221.9c-0.6-0.6-1.2-1.2-1.7-1.7l7.5-6.3c0.9,0.3,1.4,0.9,2,1.4L126.3,221.9z
		 M128.1,224.3c-0.3-0.9-0.9-1.4-1.4-2l7.8-6.6c0.6,0.6,1.4,1.2,2,1.7L128.1,224.3z M130.1,230.6c-0.3-0.9-0.3-1.7-0.6-2.6l9.5-8.1
		c0.6,0.6,0.9,1.4,1.4,2L130.1,230.6z M130.4,234.1c0-1.2-0.3-2-0.3-2.9l10.4-8.9c0.6,0.9,0.9,1.4,1.2,2.3L130.4,234.1z
		 M130.6,238.1c0-1.2,0-2,0-3.2l11.5-9.8c0.3,0.9,0.6,1.7,0.9,2.3L130.6,238.1z M130.4,242.1c0-1.2,0.3-2.3,0.3-3.5l12.7-10.7
		c0.3,0.9,0.6,1.7,0.9,2.6L130.4,242.1z M144.5,234.1l-14.7,12.7c0.3-1.2,0.6-2.3,0.6-3.7l13.8-11.8
		C144.2,232,144.5,233.2,144.5,234.1 M129.5,247.6l15.3-13c0,0.9,0.3,2,0.3,2.9l-17.6,15C128.3,251.1,128.9,249.6,129.5,247.6
		 M108.7,254.2c-1.2-2.3-2.6-8.4-1.7-17.3c1.4-12.7,6.1-14.7,9.5-15c3.5-0.3,6.9,0,8.9,1.4c1.2,0.9,3.7,4.9,3.7,14.7
		c0,10.4-3.7,19-11.8,19C111.9,257.4,109.6,255.7,108.7,254.2 M138.4,219.4l-9.2,8.1c-0.3-0.9-0.6-1.7-0.9-2.3l8.7-7.5
		C137.3,218.2,137.9,218.8,138.4,219.4 M87.4,238.7c0-0.9,0-1.7,0-2.6l30.6-26c1.2,0,2.3,0.3,3.2,0.3l-9.5,8.1
		c-3.2,0.9-5.8,3.2-7.5,6.3l-17,14.4C87.4,239.3,87.4,239,87.4,238.7 M144.5,245.9l-24.8,21.1c-1.4,0.3-2.6,0.3-4,0.3l29.4-25.1
		C144.8,243.6,144.8,244.7,144.5,245.9 M142.8,251.4l-17,14.4c-1.7,0.6-3.2,0.9-5.2,1.2l23.6-20.2
		C143.9,248.5,143.3,249.9,142.8,251.4 M115.9,208.7c-17.3,0-30.3,12.4-30,31.4s17.6,31.7,34,31.4c17.9-0.3,30-13.6,30-31.1
		S134.4,208.7,115.9,208.7"/>
	<path fill="#705D50" d="M490,265.5l15-12.7C502.1,258.3,497.2,262.9,490,265.5 M456.8,258l9.8-8.4c0.3,0.9,0.6,1.4,1.2,2.3
		l-9.2,7.8C458,259.2,457.4,258.6,456.8,258 M469.2,211.6l-15.6,13.3C457.1,218.2,463.2,213.6,469.2,211.6 M452.8,226l17.6-15
		c1.7-0.6,3.2-0.9,4.9-0.9l-24.2,20.8C451.6,229.2,452.2,227.4,452.8,226 M480.2,209.8l-29.7,25.4c0-1.2,0.3-2.6,0.6-3.7l25.4-21.6
		c0.6,0,0.9,0,1.4,0C478.8,209.8,479.3,209.8,480.2,209.8 M486,257.1c1.2-0.6,2.3-1.7,3.2-2.6l19-16.2c0,0.6,0,1.4,0,2
		c0,0.3,0,0.6,0,0.9l-30.3,26c-1.2,0-2.3,0-3.2-0.3L486,257.1z M479.3,258.6c0.3,0,0.3,0,0.6,0c1.4,0,2.6-0.3,4-0.6l-10.4,8.9
		c-1.2-0.3-2-0.3-2.9-0.6L479.3,258.6z M475.6,258c0.9,0.3,2,0.6,3.2,0.6l-8.9,7.5c-0.9-0.3-1.7-0.6-2.6-0.9L475.6,258z
		 M472.4,256.8c0.9,0.6,1.4,0.9,2.3,1.2l-8.4,7.2c-0.9-0.3-1.7-0.9-2.3-1.2L472.4,256.8z M470.1,254.8c0.6,0.6,1.2,1.2,2,1.7
		l-8.4,7.2c-0.9-0.3-1.4-0.9-2.3-1.4L470.1,254.8z M469.8,254.2l-8.7,7.5c-0.6-0.6-1.4-1.2-2-1.4l9.2-7.8
		C468.7,253.1,469.2,253.7,469.8,254.2 M465.8,246.5c0.3,0.9,0.6,1.7,0.9,2.6l-10.1,8.7c-0.6-0.6-0.9-1.2-1.4-2L465.8,246.5z
		 M465.2,243c0,0.9,0.3,2,0.6,2.9l-11,9.2c-0.6-0.6-0.9-1.4-1.2-2.3L465.2,243z M464.9,239.5c0,1.2,0,2,0.3,2.9l-11.8,10.1
		c-0.3-0.9-0.6-1.4-1.2-2.3L464.9,239.5z M464.9,235.5c0,0.6,0,1.2,0,2c0,0.6,0,0.9,0,1.4l-12.7,11c-0.3-0.9-0.6-1.7-0.9-2.6
		L464.9,235.5z M465.2,231.2c-0.3,1.2-0.3,2.3-0.3,3.5l-13.8,11.8c-0.3-0.9-0.3-1.7-0.6-2.9L465.2,231.2z M450.2,240.1l16.4-13.8
		c-0.6,1.2-0.9,2.6-1.2,4.3l-15,12.7C450.5,242.1,450.2,241,450.2,240.1 M479.9,217.9h-0.3c-1.4,0-2.6,0-3.7,0.3l9.2-7.8
		c1.2,0.3,2,0.3,3.2,0.6L479.9,217.9z M483.9,218.5c-0.9-0.3-2-0.6-3.2-0.6l7.8-6.6c0.9,0.3,1.7,0.6,2.6,0.9L483.9,218.5z
		 M486.8,219.9c-0.9-0.6-1.4-0.9-2.3-1.2l7.5-6.3c0.9,0.3,1.7,0.9,2.3,1.2L486.8,219.9z M489.1,221.9c-0.6-0.6-1.2-1.2-1.7-1.7
		l7.5-6.3c0.9,0.3,1.4,0.9,2,1.4L489.1,221.9z M490.9,224.3c-0.3-0.9-0.9-1.4-1.4-2l7.8-6.6c0.6,0.6,1.4,1.2,2,1.7L490.9,224.3z
		 M492.9,230.6c-0.3-0.9-0.3-1.7-0.6-2.6l9.5-8.1c0.6,0.6,0.9,1.4,1.4,2L492.9,230.6z M493.5,234.1c0-1.2-0.3-2-0.3-2.9l10.4-8.9
		c0.6,0.9,0.9,1.4,1.2,2.3L493.5,234.1z M493.5,238.1c0-1.2,0-2,0-3.2l11.5-9.8c0.3,0.9,0.6,1.7,0.9,2.3L493.5,238.1z M493.5,242.1
		c0-1.2,0.3-2.3,0.3-3.5l12.7-10.7c0.3,0.9,0.6,1.7,0.9,2.6L493.5,242.1z M507.6,234.1l-15,12.7c0.3-1.2,0.6-2.3,0.6-3.7l13.8-11.8
		C507.3,232,507.3,233.2,507.6,234.1 M492.3,247.6l15.3-13c0,0.9,0.3,2,0.3,2.9l-17.6,15C491.2,251.1,491.7,249.6,492.3,247.6
		 M471.8,254.2c-1.2-2.3-2.6-8.4-1.7-17.3c1.4-12.7,6.1-14.7,9.5-15s6.9,0,8.9,1.4c1.2,0.9,3.7,4.9,3.7,14.7c0,10.4-3.7,19-11.8,19
		C474.7,257.4,472.4,255.7,471.8,254.2 M501.5,219.4l-9.2,8.1c-0.3-0.9-0.6-1.7-0.9-2.3l8.7-7.5C500.4,218.2,501,218.8,501.5,219.4
		 M450.2,238.7c0-0.9,0-1.7,0-2.6l30.6-26c1.2,0,2.3,0.3,3.2,0.3l-9.5,8.1c-3.2,0.9-5.8,3.2-7.5,6.3l-17,14.4
		C450.2,239.3,450.2,239,450.2,238.7 M507.3,245.9l-24.8,21.1c-1.4,0.3-2.6,0.3-4,0.3l29.4-25.1
		C507.9,243.6,507.6,244.7,507.3,245.9 M505.6,251.4l-17,14.4c-1.7,0.6-3.2,0.9-5.2,1.2l23.6-20.2
		C506.7,248.5,506.4,249.9,505.6,251.4 M478.8,208.7c-17.3,0-30.3,12.4-30,31.4s17.6,31.7,34,31.4c17.9-0.3,30.3-13.6,30.3-31.1
		C513.1,222.8,497.5,208.7,478.8,208.7"/>
	<path fill="#705D50" d="M238.5,217.9L238.5,217.9l0.3-0.3L238.5,217.9L238.5,217.9 M221.8,264.6c-1.2,0.9-2.6,1.4-4.3,2l12.4-10.7
		C228.4,259.2,225.8,262,221.8,264.6 M207.4,267.8l23.9-20.5v2c0,0.3,0,0.6,0,0.9l-20.2,17.3C209.7,267.8,208.5,267.8,207.4,267.8
		 M190.1,262.9l9.2-8.1c0.6,0.6,1.2,1.2,1.7,1.7l-8.9,7.8c-0.6-0.3-1.2-0.6-1.7-1.2C190.3,263.2,190.3,262.9,190.1,262.9
		 M187.8,260.9l10.1-8.7c0.3,0.6,0.9,1.4,1.4,2l-9.5,8.1C188.9,262,188.3,261.5,187.8,260.9 M178.2,217.9l9.2-8.1h3.5l-9.2,8.1
		H178.2z M175.9,217.6v-1.7l7.2-6.1h3.5l-9.5,8.1L175.9,217.6C175.9,217.9,175.9,217.9,175.9,217.6 M176.2,209.8h1.7l-2,1.4v-1.2
		C175.9,209.8,175.9,209.8,176.2,209.8 M175.9,212.1l2.9-2.3h3.5l-6.3,5.2V212.1z M204.2,210.1v0.3L184,227.7v-3.5l17.3-14.7h2.9
		C204.2,209.8,204.2,209.8,204.2,210.1 M203.9,217.6H201l3.2-2.6v2.3C204.2,217.9,204.2,217.6,203.9,217.6 M196.4,225.1L184,235.8
		v-3.5l12.4-10.7V225.1z M196.7,249.3c0.3,0.9,0.3,1.7,0.9,2.6l-10.1,8.7c-0.6-0.6-0.9-1.4-1.4-2L196.7,249.3z M196.4,245.6v1.7
		c0,0.3,0,0.9,0,1.2l-10.7,9.2c-0.3-0.9-0.6-1.4-0.9-2.3L196.4,245.6z M196.4,241.6v3.2l-11.8,10.1c-0.3-0.9-0.3-1.7-0.6-2.9
		L196.4,241.6z M184,249.9v-1.7l12.4-10.7v3.2L184,251.4C184,250.8,184,250.5,184,249.9 M184,244.2l12.4-10.7v3.2L184,247.3V244.2z
		 M184,219.6v-1.7c0-0.3,0-0.3-0.3-0.3h-1.4l9.5-7.8h3.7L184,219.6z M184,220.5l12.7-10.7h3.7L184,223.7V220.5z M196.4,228.9
		L184,239.5v-3.2l12.4-10.7V228.9z M184,240.4l12.4-10.7v3.2L184,243.6V240.4z M196.4,218.2v2.9L184,231.8v-3.2L196.4,218.2
		C196.4,217.9,196.4,217.9,196.4,218.2 M196.7,217.6L196.7,217.6l7.5-6.6v3.2l-4,3.5H196.7z M195.3,265.5c-0.9-0.3-1.7-0.6-2.6-1.2
		l8.9-7.5c0.6,0.6,1.4,0.9,2.3,1.2L195.3,265.5z M204.5,258.3c0.9,0.3,2,0.6,2.9,0.6l-8.9,7.8c-0.9-0.3-2-0.6-2.9-0.9L204.5,258.3z
		 M212.3,258.9l-9.8,8.7c-1.2,0-2-0.3-3.2-0.6l9.2-7.8c0.3,0,0.6,0,0.9,0C210.2,259.2,211.4,259.2,212.3,258.9 M221.5,251.7l9.5-8.1
		v3.2l-24.5,21.1c-1.2,0-2.3,0-3.5-0.3l10.4-8.7C218.3,258,220.6,255.7,221.5,251.7 M219.5,217.9l9.5-8.1h3.7l-10.7,8.9v-0.6
		c0-0.3,0-0.3-0.3-0.3C221.8,217.9,219.5,217.9,219.5,217.9z M215.4,217.9C215.2,217.9,215.2,217.9,215.4,217.9l8.9-8.1h3.7
		l-9.5,8.1H215.4z M215.4,209.8h3.5l-3.7,3.2v-2.9C215.2,209.8,215.2,209.8,215.4,209.8 M223.5,209.8l-8.4,7.2v-3.5l4.6-3.7H223.5z
		 M237.4,209.8l-15,13v-3.5l11.5-9.8h3.5V209.8z M233.6,217.9l4.9-4.3v3.2l-1.4,1.2C237.1,217.9,233.6,217.9,233.6,217.9z
		 M222.4,230.6v-3.2l8.7-7.5v3.2L222.4,230.6z M231,227.1l-8.7,7.5v-3.5l8.7-7.5V227.1z M222.4,247.3l8.9-7.5v3.2l-9.2,7.8
		C222.1,249.6,222.4,248.5,222.4,247.3 M231,230.9l-8.7,7.5v-3.2l8.7-7.5V230.9z M222.4,242.4v-3.2l8.7-7.5v3.5L222.4,242.4z
		 M231,239l-8.7,7.5c0-0.6,0-1.2,0-1.7v-1.4l8.7-7.5C231,236.9,231,237.8,231,239 M238.5,209.8c0.3,0,0.3,0,0.3,0.3v2.9l-5.8,4.9
		h-1.2c-0.3,0-0.6,0-0.6,0.6c0,0,0,0.3,0,0.9l-8.7,7.5v-3.5L238.5,209.8L238.5,209.8z M230.1,254.8L216,266.9
		c-1.4,0.3-2.9,0.6-4.3,0.6l19.3-16.4C231,252.5,230.7,253.7,230.1,254.8 M239.7,209c-0.9-0.9-0.9-0.6-2.3-0.6h-23.1
		c-0.3,0-0.6,0-0.6,0.3v10.7c0,0,0.9,0.6,1.7,1.4c0.9,0.6,1.7,1.2,1.7,1.2h3.2c0.6,0,0.6,0,0.6,0.3c0,0.6,0,20.8,0,23.9
		c0,3.2-0.6,11.5-10.1,11.5s-10.1-8.4-10.1-12.7v-22.5c0-0.6,0-0.9,0.6-0.9h6.6c0.6,0,0.6,0,0.6-0.6v-8.4c0-0.3-0.9-1.2-1.7-2.3
		c-0.9-1.2-1.7-2-1.7-2h-30c-0.6,0-0.6,0-0.6,0.6v10.4c0,0.3,0.6,0.6,1.7,1.2c1.2,0.6,2,1.4,2.3,1.4h3.7c0.3,0,0.3,0,0.3,0.3v26.2
		c0,5.8,1.2,11.5,5.5,15.6c6.9,6.9,14.7,7.5,23.9,7.5c9.2,0,23.6-5.2,23.6-22.2v-27.1c0-0.3,0-0.6,0.3-0.6h6.6c0.3,0,0.3,0,0.3-0.3
		v-9.2C242.8,212.1,240.5,209.5,239.7,209"/>
	<path fill="#705D50" d="M324.2,253.7c-3.2,4.3-7.5,9.2-14.4,11.8l14.4-12.4C324.2,253.1,324.2,253.4,324.2,253.7 M298.8,266.9
		l20.5-17.6c0.6,0.3,1.2,0.9,2,1.4l-18.7,15.9C301.4,266.9,300.2,266.9,298.8,266.9 M277.2,258.3l10.1-8.7c0.6,0.6,0.9,1.4,1.4,2
		l-9.8,8.4C278.3,259.4,277.7,258.9,277.2,258.3 M278,216.2c1.7-1.7,3.5-2.9,5.2-4l-7.8,6.6C276.3,217.9,277.2,217,278,216.2
		 M302,208.4l-33.2,28.3c0-1.2,0.3-2.3,0.3-3.5l28.8-24.8c1.2,0,2,0,2.9,0C301.4,208.4,301.7,208.4,302,208.4 M305.4,217.3
		c-0.9-0.3-1.7-0.6-2.6-0.9l6.9-6.1c0.9,0.3,1.4,0.9,2.3,1.2L305.4,217.3z M314.4,209.5L314.4,209.5L314.4,209.5L314.4,209.5z
		 M322.4,210.1v1.2l-11.8,10.1c-0.6-0.6-1.2-1.2-1.7-1.7l11.5-9.8h1.7C322.2,209.5,322.4,209.8,322.4,210.1 M321.9,228.9h-1.2
		l1.7-1.4v0.9C322.4,228.9,322.2,228.9,321.9,228.9 M316.1,228.9l6.1-5.2v3.2l-2.6,2C318.7,228.9,317.2,228.9,316.1,228.9
		 M313.8,228.9c0,0-0.3-0.6-0.6-1.7l8.9-7.5v3.2l-6.9,6.1C314.7,228.9,314.1,228.9,313.8,228.9 M312.3,224.3l9.8-8.4v3.2l-8.9,7.8
		l0,0C313.2,225.7,312.9,224.8,312.3,224.3 M310.9,221.7l11.5-9.8v3.2l-10.1,8.7C311.8,222.8,311.5,222.2,310.9,221.7 M313.5,213
		c0.6,0.6,0.9,0,0.9-0.6v-1.7l1.2-0.9h3.7l-11,9.2c-0.6-0.6-1.4-0.9-2.3-1.4l6.3-5.5C312.9,212.7,313.2,213,313.5,213 M298.5,216.2
		l8.1-6.9c0.9,0.3,2,0.6,2.6,1.2l-7.2,6.1C300.8,216.2,299.7,216.2,298.5,216.2 M285.5,247c0.3,0.9,0.9,1.4,1.2,2.3l-10.1,8.7
		c-0.6-0.6-1.2-1.2-1.4-1.7L285.5,247z M284.7,244.2c0.3,0.9,0.6,1.7,0.9,2.3l-10.7,9.2c-0.6-0.6-0.9-1.4-1.4-2L284.7,244.2z
		 M283.8,240.7c0,0.9,0.3,2,0.6,2.9l-11.2,9.5c-0.3-0.6-0.9-1.4-1.2-2.3L283.8,240.7z M283.5,236.9c0,1.2,0,2,0.3,2.9l-12.1,10.4
		c-0.3-0.9-0.6-1.4-0.9-2.3L283.5,236.9z M283.8,232.9c0,0.9-0.3,2-0.3,3.2v0.3l-13,11c-0.3-0.9-0.6-1.7-0.9-2.6L283.8,232.9z
		 M297.6,216.2c-4,0.6-9.2,4-12.1,10.4l-16.4,14.1c0-1.2-0.3-2.3-0.3-3.2l33.7-28.8c1.2,0,2.3,0.3,3.2,0.6L297.6,216.2z
		 M270.5,227.7l22.2-19c1.4-0.3,2.9-0.3,4.3-0.3l-28,23.9C269.7,230.6,269.9,229.2,270.5,227.7 M274,220.8l11.5-9.8
		c2-0.9,4-1.7,6.1-2l-20.8,17.9C271.7,224.5,272.8,222.5,274,220.8 M269.7,243.9c-0.3-0.9-0.3-1.7-0.6-2.6l15.9-13.6
		c-0.6,1.4-0.9,2.9-1.2,4.3l-14.1,12.1C269.7,243.9,269.7,243.9,269.7,243.9 M290.7,253.7l-9.5,8.1c-0.6-0.6-1.4-0.9-2-1.4l9.8-8.4
		C289.6,252.8,290.1,253.4,290.7,253.7 M293.6,255.4l-9.2,8.1c-0.9-0.3-1.4-0.9-2.3-1.2l9.5-8.1
		C291.9,254.5,292.7,255.1,293.6,255.4 M287.3,264.9c-0.9-0.3-1.7-0.6-2.6-1.2l9.2-8.1c0.9,0.3,1.7,0.6,2.6,0.9L287.3,264.9z
		 M297.3,256.8c1.2,0.3,2.3,0.3,3.2,0.3l-10.1,8.7c-0.9-0.3-1.7-0.6-2.9-0.9L297.3,256.8z M305.4,256.8L305.4,256.8l-11.5,9.8
		c-0.9,0-1.7-0.3-2.9-0.6l10.1-8.7C302.8,257.4,304,257.1,305.4,256.8 M316.7,248.8c0.3-0.6,0.6-0.6,1.2-0.3c0.3,0,0.6,0.3,1.2,0.9
		l-20.8,17.9c-0.9,0-2,0-3.2-0.3l12.1-10.4C313.2,254.2,316.7,249.1,316.7,248.8 M323.6,252.8l-15.3,13.3c-1.4,0.3-2.9,0.9-4.6,0.9
		l18.2-15.6C322.7,251.9,323.3,252.5,323.6,252.8 M328.2,254.2c-0.3-0.3-2.6-2-2.6-2s-6.9-5.2-7.5-5.8c-0.9-0.6-0.9-0.6-1.4,0.6
		c-0.3,0.6-4.6,7.8-13,8.9c-8.9,1.2-15.3-5.5-15-18.2c0-11.2,7.8-18.2,12.4-18.5c6.9-0.3,10.4,2,12.4,10.4c0,0,0.6,0.6,1.2,0.9
		c0.6,0.6,2.3,2.6,2.6,2.6h9.5c0.6,0,0.6,0,0.6-0.6v-20.2l-0.3-0.6c0,0-3.2-3.5-3.5-3.5h-9.8c-0.3,0-0.3,0-0.3,0.3v2v0.3l-0.3,0.3
		c-2-1.7-6.3-4-14.4-4.3c-3.5,0-10.7,0-17.9,4.9c-7.2,5.2-14.7,15-13.6,28.8c1.7,17.3,16.2,30.9,34.6,30.6
		c14.4-0.3,22.8-11,26.2-15.9C328.5,254.5,328.5,254.5,328.2,254.2"/>
	<path fill="#705D50" d="M419.9,218.5h-2l2.6-2v1.4C420.5,218.5,420.5,218.5,419.9,218.5 M420.2,258v1.2l-7.5,6.3H409l8.9-7.8h1.7
		C420.2,257.7,420.2,257.7,420.2,258 M419.3,265.5h-1.4l2-1.7v0.9C420.2,265.2,419.9,265.5,419.3,265.5 M413.6,265.5l6.6-5.5
		c0,0.9,0,2,0,2.9l-2.9,2.6H413.6z M404.6,265.5l8.9-7.8h3.7l-8.9,7.8H404.6z M392.2,264.9v-0.6l7.5-6.6l0,0l12.7-11v3.2l-18.2,15.6
		h-2C392.2,265.5,392.2,265.5,392.2,264.9 M392.5,257.7h1.7l-2,1.7v-1.2C392.2,258,392.2,257.7,392.5,257.7 M398.9,257.7l-6.6,5.8
		V260l2.9-2.3H398.9z M383.6,258.3v0.6l-7.8,6.6H372l9.2-7.8h2.3C383.6,257.7,383.6,258,383.6,258.3 M382.7,265.5h-1.4l2.3-2v1.2
		C383.6,265.2,383.3,265.5,382.7,265.5 M376.7,265.5l6.9-5.8v3.2l-3.2,2.6H376.7z M355.6,264.9v-1.4l20.2-17v3.2l-18.5,15.9h-1.4
		C355.6,265.5,355.6,265.5,355.6,264.9 M356.2,257.7h0.9l-1.4,1.2V258C355.6,257.7,355.6,257.7,356.2,257.7 M361.7,257.7l-6.1,5.2
		v-3.2l2.3-2C357.9,257.7,361.7,257.7,361.7,257.7z M355.6,218.2v-1.7l7.5-6.3h3.7l-9.8,8.4h-1.2
		C355.6,218.5,355.6,218.5,355.6,218.2 M356.2,210.1h1.4l-2,1.7v-1.4C355.6,210.1,355.6,210.1,356.2,210.1 M355.6,212.7l2.9-2.6h3.5
		l-6.3,5.5V212.7z M383.6,210.4v1.2l-20.8,17.6V226l18.7-15.9h1.7C383.6,210.1,383.6,210.1,383.6,210.4 M383,218.5h-2.3l2.6-2.3v1.7
		C383.6,218.5,383.3,218.5,383,218.5 M381.3,233.2l-18.5,15.6v-3.2l14.7-12.4C377.5,233.2,381.3,233.2,381.3,233.2z M385.9,233.2
		l-23.1,19.9v-1.2v-2.3l19.3-16.4h1.4H385.9z M391.4,233.2h3.7l-9.8,8.4h-3.7L391.4,233.2z M376.9,241.8l9.8-8.4h3.7l-9.8,8.4H376.9
		z M362.8,253.7l13-11.2v3.2l-13,11.2V253.7z M375.8,226l-13.3,11.2v-3.2l13.3-11.2V226z M362.8,241.8l13.3-11.2v2
		c0,0.6,0,0.6,0.3,0.6h0.3l-13.8,11.5L362.8,241.8L362.8,241.8z M375.8,229.7L362.5,241v-3.2l13.3-11.2V229.7z M375.8,218.8v3.2
		l-13.3,11.2V230L375.8,218.8L375.8,218.8 M376.4,218.5L376.4,218.5l7.2-6.1v3.2l-3.5,2.9H376.4z M376.7,210.1c1.4,0,2.9,0,3.7,0
		l-17.9,15.3v-3.5L376.7,210.1z M372,210.1h3.7l-13,11.2v-2.3c0-0.6,0-0.6-0.3-0.6L372,210.1z M361.7,218.5h-3.7l9.8-8.4
		c1.2,0,2.3,0,3.7,0L361.7,218.5z M376.4,257.7h3.7l-9.2,7.8h-3.7L376.4,257.7z M375.8,254.5v2.9v0.3l-9.2,7.8h-3.7L375.8,254.5z
		 M375.8,253.7L362,265.5h-3.7l17.6-15V253.7z M399.7,233.2L399.7,233.2l-9.8,8.4h-3.7l9.8-8.4H399.7z M394.8,218.5l9.8-8.4h3.7
		l-9.8,8.4H394.8z M392.2,217.9c0,0,0-0.6,0-1.2l7.8-6.6h3.7l-9.8,8.4h-1.4C392.2,218.5,392.2,218.2,392.2,217.9 M392.5,210.1h2
		l-2.3,2c0-0.9,0-1.4,0-1.7S392.2,210.1,392.5,210.1 M392.2,212.7l3.2-2.6h3.7l-6.9,5.8C392.2,215,392.2,213.9,392.2,212.7
		 M420.5,210.4v1.2L400,229.2V226l18.5-15.9h1.4C420.5,210.1,420.5,210.1,420.5,210.4 M413.3,218.5l7.2-6.1v3.2l-3.5,2.9H413.3z
		 M400,221.1v-2.3c0-0.3,0-0.3-0.3-0.3h-0.3l9.8-8.4h3.7L400,221.1z M400,221.9l13.8-11.8h3.7l-17.6,15V221.9z M400,233.2v-0.3V230
		l12.7-10.7v3.2L400,233.2z M412.7,226.3l-18.2,15.6h-3.7l21.9-18.7V226.3z M400,253.7l12.7-10.7v3.2L400,256.8V253.7z M412.7,230.9
		v3.2L400,244.7v-2.9c0-0.3,0-0.3,0-0.3L412.7,230.9z M412.7,230.3l-13.6,11.5h-3.7l17.3-14.7V230.3z M412.7,238.1L400,248.8v-3.2
		l12.7-10.7V238.1z M412.7,242.1L400,252.8v-3.2l12.7-10.7V242.1z M412.7,254l-13.6,11.5h-3.7l17.3-14.7V254z M412.7,257.7l-9.2,7.8
		h-3.7l12.7-10.7v2.6C412.7,257.4,412.7,257.7,412.7,257.7 M425.4,212.7c0-0.3-3.2-3.5-3.2-3.5s-0.6-0.6-1.2-0.6
		c-0.6,0-28.8,0-29.4,0c-0.9,0-0.9,0-0.9,0.9v8.9c0,0.3,0.3,0.3,0.9,0.9c0.6,0.6,2,2,2.3,2.3s0.6,0.6,0.9,0.6s2.9,0,3.2,0
		c0.6,0,0.6,0,0.6,0.3v8.7c0,0.3,0,0.3-0.9,0.3h-6.1H381c-0.3,0-0.3,0-0.3-0.3s0-8.4,0-8.7s0-0.3,0.3-0.3h6.9c0,0,0.6,0,0.6-0.6
		s0-2.6,0-4.9c0-1.7,0.3-4,0-4.6c0-0.3-0.6-0.6-0.6-0.6l-2.6-2.6c0,0-0.3-0.6-0.9-0.6H355c-0.6,0-0.9,0.3-0.9,1.2v8.9
		c0,0.3,0.3,0.6,0.6,0.9c0.3,0.3,2.6,2.6,2.9,2.6h3.2c0.3,0,0.3,0,0.3,0.6v32.9c0,0.6,0,0.6-0.3,0.6H355c-0.6,0-0.9,0.3-0.9,0.6v9.8
		c0,0.3,0.3,0.6,0.6,0.9s2.3,2.3,2.6,2.3c0.3,0,0.9,0,2,0c0.9,0,27.4,0,28,0s0.6-0.3,0.6-1.2v-9.2c0-0.3-3.2-3.2-3.5-3.2h-3.7
		c-0.3,0-0.3,0-0.3-0.3v-9.8c0-0.3,0-0.6,0.6-0.6h17.3c0.3,0,0.3,0,0.3,0.3V256c0,0.3,0,0.6-0.6,0.6h-6.3c-0.6,0-0.9,0-0.9,0.6v9.5
		c0,0.3,0.3,0.6,0.6,0.6c0.3,0.3,1.4,1.4,2,2s0.9,0.9,1.2,0.9c0.3,0,7.8,0,11,0s17.9,0,18.7,0s0.9-0.3,0.9-0.6c0-0.3,0-8.9,0-9.2
		c0-0.3-2.6-2.9-2.9-3.2c-0.3-0.3-0.6-0.6-0.9-0.6s-3.2,0-3.5,0c-0.3,0-0.6,0-0.6-0.3c0-0.3,0-32,0-32.9s0.3-0.9,0.6-0.9h6.6
		c0,0,0.6,0,0.6-0.6c0-0.6,0-2,0-3.7C425.1,215.9,425.4,213,425.4,212.7"/>
	<path fill="#705D50" d="M590.7,265.8h-2l2.3-2v1.4C591.2,265.8,591.2,265.8,590.7,265.8 M580,265.8l11.2-9.5v3.2l-7.5,6.3
		C583.7,265.8,580,265.8,580,265.8z M577.4,265.5c0,0-0.3-0.3-0.6-0.9l14.1-12.1v2.9l-12.1,10.4h-1.2L577.4,265.5 M556.3,257.7
		l-9.5,8.1h-3.7l9.5-8.1H556.3z M559.8,258v0.9l-8.4,7.2h-3.7l9.5-8.1h2C559.8,257.7,559.8,257.7,559.8,258 M559.2,265.8h-2.6
		l2.9-2.3v2C559.8,265.8,559.8,265.8,559.2,265.8 M552.3,265.8l7.5-6.3c0,0.9,0,2,0,3.2l-3.7,3.2H552.3z M535.9,265.5v-1.4l7.5-6.3
		c0.6,0,0.6-0.3,0.6-0.6l8.4-7.2v3.2l-14.7,12.4h-1.2C535.9,265.8,535.9,265.8,535.9,265.5 M535.9,260l2.6-2.3h3.7l-6.3,5.5V260z
		 M536.1,257.7h1.4l-1.7,1.4L536.1,257.7C535.9,257.7,535.9,257.7,536.1,257.7 M538.7,218.2l9.5-8.1h3.7l-9.5,8.1
		c-0.9,0-1.7,0-2.9,0C539,218.2,539,218.2,538.7,218.2 M535.9,216.8l7.8-6.6h3.7l-9.5,8.1c-0.9,0-1.7,0-1.7-0.3
		C535.9,217.9,535.9,217.3,535.9,216.8 M536.1,210.1h2l-2.3,2c0-0.9,0-1.4,0-1.7C535.9,210.1,535.9,210.1,536.1,210.1 M535.9,214.7
		c0-0.6,0-1.2,0-2l3.2-2.6h3.7l-6.9,6.1C535.9,215.6,535.9,215.3,535.9,214.7 M559.5,211.3l-15.6,13.3v-3.2l13.3-11.2h1.7
		C558.9,210.1,559.2,210.4,559.5,211.3 M580.6,217.9l8.9-7.8h3.7l-10.1,8.7v-0.3c0-0.6,0-0.6-0.6-0.6H580.6z M576.8,217.9
		c-0.3,0-0.6,0-0.6-0.3l8.9-7.5h3.7l-9.2,7.8C578.3,217.9,576.8,217.9,576.8,217.9 M576.5,210.1h2.9l-3.5,2.9v-2.3
		C576.2,210.1,576.2,210.1,576.5,210.1 M576.2,213.6l4.3-3.5h3.7l-8.1,6.9V213.6z M591.2,228l-7.8,6.6c0-1.2,0-2,0-3.2l7.8-6.6V228z
		 M591.2,248.5v3.2l-14.4,12.4c-0.3-0.6-0.9-1.2-1.2-2L591.2,248.5z M591.2,244.4v3.2l-15.9,13.6c-0.3-0.6-0.9-1.4-1.2-2
		L591.2,244.4z M582,248.2c0,0.3,0.3,0.3,0.3,0.3c0.6,0.9,0.9,0.3,0.9-0.6v-0.6l7.8-6.6v3.2l-17.6,15c-0.3-0.6-0.9-1.4-1.2-2
		L582,248.2z M580.6,245.6c0.6,0.9,0.9,1.7,1.2,2l-9.8,8.4c-0.3-0.6-0.9-1.4-1.2-2L580.6,245.6z M583.2,239.3l7.8-6.6v3.2l-7.8,6.6
		C583.2,241.6,583.2,240.4,583.2,239.3 M583.2,222.8v-3.2l11-9.5h3.7L583.2,222.8z M583.2,227.4l7.8-6.6v3.5l-7.8,6.6V227.4z
		 M591.2,232l-7.8,6.6v-3.2l7.8-6.6C591.2,229.7,591.2,230.9,591.2,232 M591.2,239.8l-7.8,6.6v-3.2l7.8-6.6V239.8z M598.7,217.6
		l-0.6,0.6h-4l4.6-4V217.6L598.7,217.6z M598.7,213.6l-5.5,4.6h-1.7c-0.3,0-0.3,0-0.3,0.6v1.2l-7.8,6.6v-3.2l15.6-13.3v0.3v3.2
		H598.7z M578.8,243c0.6,0.9,0.9,1.4,1.4,2l-9.5,8.1c-0.3-0.6-0.9-1.4-1.2-2L578.8,243z M577.4,240.4c0.6,0.9,0.9,1.4,1.2,2
		l-9.5,8.1c-0.3-0.6-0.9-1.4-1.2-2L577.4,240.4z M575.7,237.8c0.3,0.6,0.9,1.4,1.2,2l-9.5,8.1c-0.3-0.6-0.9-1.4-1.2-2L575.7,237.8z
		 M574.2,235.2c0.6,0.9,0.9,1.4,1.4,2.3l-9.5,8.1c-0.3-0.9-0.9-1.4-1.2-2.3L574.2,235.2z M572.5,232.6c0.6,0.6,0.9,1.4,1.2,2
		l-9.5,8.1c-0.3-0.6-0.9-1.4-1.2-2L572.5,232.6z M571,230c0.6,0.6,0.9,1.4,1.2,2l-9.5,8.1c-0.3-0.6-0.9-1.4-1.2-2L571,230z
		 M569.3,227.4c0.3,0.6,0.9,1.4,1.4,2l-9.2,8.1c-0.6-0.9-0.9-1.4-1.2-2.3L569.3,227.4z M567.9,224.8c0.3,0.6,0.9,1.4,1.2,2l-9.2,7.8
		c-0.6-0.9-0.9-1.4-1.2-2L567.9,224.8z M566.1,222.2c0.3,0.6,0.9,1.4,1.2,2l-9.2,7.8c-0.3-0.9-0.9-1.4-1.2-2L566.1,222.2z
		 M552,237.5l-8.4,7.2v-3.2l8.4-7.2V237.5z M552.3,257.4l-9.8,8.4h-4l13.8-11.8L552.3,257.4L552.3,257.4z M543.9,253.1l8.4-7.2v3.2
		l-8.4,7.2V253.1z M543.4,218.2L543.4,218.2l9.2-8.1h3.5l-12.4,10.7v-2C543.9,218.2,543.6,218.2,543.4,218.2 M543.9,228.6v-3.2
		l15.9-13.6c0.3,0.6,0.9,1.2,1.4,2L543.9,228.6z M553.7,224.3c-1.2-1.7-1.4-0.6-1.4,0.6v0.9l-8.4,7.2v-3.5l17.6-15
		c0.3,0.6,0.9,1.4,1.2,2L553.7,224.3z M555.2,226.8c-0.6-1.2-1.2-1.7-1.2-2.3l8.9-7.8c0.3,0.6,0.9,1.4,1.2,2L555.2,226.8z
		 M543.9,237.2l8.4-7.2v3.2l-8.4,7.2V237.2z M543.9,233.5l8.4-7.2c0,0.9,0,2,0,3.2l-8.4,7.2V233.5z M552,241.3l-8.4,7.2v-3.2
		l8.4-7.2V241.3z M552,245.3l-8.4,7.2v-3.2l8.4-7.2V245.3z M565.9,221.7l-9.2,7.8c-0.6-0.9-0.9-1.4-1.2-2.3l9.2-7.8
		C565,220.2,565.6,221.1,565.9,221.7 M591.2,263.2l-3.2,2.6h-3.5l6.6-5.5V263.2z M600.8,209.8c-0.3-0.3-0.6-0.6-0.9-0.9
		c-0.3-0.3-0.9-0.6-0.9-0.6s-23.4,0-23.6,0c-0.6,0-0.6,0-0.6,0.3v9.8c0,0.3,2.3,2,2.9,2.6c0.6,0.6,0.9,0.9,1.2,0.9
		c0.3,0,2.3,0,2.6,0s0.3,0,0.3,0.3v17.3c0,0.3,0,0-0.3,0l-5.2-8.4l-10.4-17.3l-5.8-4.6l-1.4-1.2h-23.9c-0.6,0-0.6,0-0.6,0.6
		s0,9.5,0,9.8s2.3,2,2.9,2.3c0.6,0.3,0.9,0.6,1.2,0.6c0.3,0,3.2,0,3.5,0c0.3,0,0.3,0.3,0.3,0.6v32.9c0,0.6,0,0.9-0.6,0.9
		c-0.6,0-0.9,0-2.9,0s-3.2,0-3.7,0c-0.6,0-0.6,0-0.6,0.9c0,0.9,0,2,0,3.5c0,0.9,0,2.3,0,3.7l0,0l0,0c0,1.2,0,2.3,0,2.6
		s2.6,3.2,3.2,3.2H563c0.9,0,0.9,0,0.9-0.6s0-9.2,0-9.2s-0.3-0.6-0.6-0.9c-0.3-0.3-2.9-3.2-2.9-3.2h-3.7c-0.3,0-0.3,0-0.3-0.6v-21.6
		c0-0.9,0.3-0.6,0.6,0c0.3,0.6,19.6,33.5,19.6,33.5l4,3.5h14.1c0.9,0,0.9,0,0.9-0.9v-46.1c0-0.6,0-0.9,0.6-0.9h6.6
		c0.3,0,0.3,0,0.3-0.6v-9.5C603.3,212.1,601.9,211,600.8,209.8"/>
	<g>
		<path fill="#FFFFFF" d="M37.2,410c7.5,0,11.5,0,11.5,24.8v16.2c0,18.7-3.5,18.7-8.4,18.7h-7.5V410H37.2z M36.3,324.6
			c6.6,0,9.8,0,9.8,19.6v19.9c0,16.2-5.5,16.2-8.4,16.2h-5.2v-55.7H36.3z M5.5,293.8H0.6V500h42.1c11.2,0,20.8-3.5,26.8-9.8
			c8.7-8.9,11.5-21.3,11.5-48.7c0-16.4-1.2-26-4.3-33.2c-2.3-6.3-5.5-10.4-11-14.1c1.2-0.9,2-1.7,2.9-2.9c6.6-7.8,9.2-19,9.2-41.5
			c0-41-11.8-56-43.5-56"/>
		<path fill="none" stroke="#FFFFFF" stroke-width="0.7652" stroke-miterlimit="10" d="M28,474.6h12.1c10.1,0,13.3-5.5,13.3-23.4
			v-16.2c0-23.6-3.2-29.7-16.2-29.7H28V474.6z M28,384.6h10.1c8.9,0,13-6.3,13-20.8v-19.9c0-19-2.9-24.2-14.4-24.2H28V384.6z
			 M34.3,298.4c29.1,0,38.9,13.3,38.9,51.3c0,21.3-2,31.7-8.1,38.4c-2,2.3-3.7,3.7-8.4,6.1c8.9,4.6,12.7,8.4,15.6,15.9
			c2.9,6.6,4,15.9,4,31.1c0,26.5-2.6,37.8-10.1,45.6c-5.5,5.5-13.8,8.4-23.6,8.4H5.2V298.4"/>
		<path fill="none" stroke="#FFFFFF" stroke-width="0.3877" d="M28,474.6h12.1c10.1,0,13.3-5.5,13.3-23.4v-16.2
			c0-23.6-3.2-29.7-16.2-29.7H28V474.6z M28,384.6h10.1c8.9,0,13-6.3,13-20.8v-19.9c0-19-2.9-24.2-14.4-24.2H28V384.6z M34.3,298.4
			c29.1,0,38.9,13.3,38.9,51.3c0,21.3-2,31.7-8.1,38.4c-2,2.3-3.7,3.7-8.4,6.1c8.9,4.6,12.7,8.4,15.6,15.9c2.9,6.6,4,15.9,4,31.1
			c0,26.5-2.6,37.8-10.1,45.6c-5.5,5.5-13.8,8.4-23.6,8.4H5.2V298.4H34.3z"/>
		<path fill="#FFFFFF" d="M143.6,360.4c2.9,28,5.5,52.5,6.1,58h-12.1C138.1,412.9,140.7,388.1,143.6,360.4 M158.6,293.8h-34
			L97.5,500h30.9c0,0,5.5-45.9,6.1-53.1h18.5c0.9,6.9,6.1,53.1,6.1,53.1h30.6l-27.1-206.2"/>
		<path fill="none" stroke="#FFFFFF" stroke-width="0.7652" stroke-miterlimit="10" d="M132.4,423h22.2l-10.4-105.6h-0.6L132.4,423z
			 M158.6,298.4l26,197h-21.1l-6.1-53.1h-26.8l-6.3,53.1H103l26-197"/>
		<path fill="none" stroke="#FFFFFF" stroke-width="0.3877" d="M132.4,423h22.2l-10.4-105.6h-0.6L132.4,423z M158.6,298.4l26,197
			h-21.1l-6.1-53.1h-26.8l-6.3,53.1H103l26-197L158.6,298.4L158.6,298.4z"/>
		<path fill="#FFFFFF" d="M289,293.8h-25.7c0,0-11.5,34.3-19.3,58v-58h-31.7V500H244v-72.1c8.7,28.6,21.3,72.1,21.3,72.1h32.3
			c0,0-33.7-110.7-34.6-113.6c0.9-2.9,32.6-92.9,32.6-92.9"/>
		<polyline fill="none" stroke="#FFFFFF" stroke-width="0.7652" stroke-miterlimit="10" points="239.4,298.4 239.4,378.8 
			239.7,378.8 266.8,298.4 289,298.4 258.1,386.3 291.3,495.4 268.8,495.4 239.7,397.6 239.4,397.6 239.4,495.4 216.9,495.4 
			216.9,298.4 		"/>
		<polygon fill="none" stroke="#FFFFFF" stroke-width="0.3877" points="239.4,298.4 239.4,378.8 239.7,378.8 266.8,298.4 289,298.4 
			258.1,386.3 291.3,495.4 268.8,495.4 239.7,397.6 239.4,397.6 239.4,495.4 216.9,495.4 216.9,298.4 		"/>
		<polyline fill="#FFFFFF" points="384.2,293.8 316.1,293.8 316.1,500 391.7,500 391.7,469.7 347.8,469.7 347.8,409.1 383.3,409.1 
			383.3,378.8 347.8,378.8 347.8,324 388.8,324 388.8,293.8 		"/>
		<polyline fill="none" stroke="#FFFFFF" stroke-width="0.7652" stroke-miterlimit="10" points="384.2,298.4 384.2,319.4 
			342.9,319.4 342.9,383.7 378.4,383.7 378.4,404.2 343.2,404.2 343.2,474.3 387,474.3 387,495.4 320.7,495.4 320.7,298.4 		"/>
		<polygon fill="none" stroke="#FFFFFF" stroke-width="0.3877" points="384.2,298.4 384.2,319.4 342.9,319.4 342.9,383.7 
			378.4,383.7 378.4,404.2 343.2,404.2 343.2,474.3 387,474.3 387,495.4 320.7,495.4 320.7,298.4 		"/>
		<path fill="#FFFFFF" d="M447,324.6c8.7,0,10.1,2,11,4.6v0.3v0.3c0.6,1.4,0.9,2,0.9,2.3v0.3v0.3c0.3,2.3,0.6,8.1,1.2,15.9l0.3,5.2
			v4.9c0,23.6-3.2,24.5-14.7,24.5h-1.4v-58.5H447z M417,293.8h-4.6V500h31.7v-86.5h2.6c1.7,6.6,21.6,86.5,21.6,86.5h31.7
			c0,0-22.2-89.4-23.6-95.2c11.5-8.7,16.4-20.2,16.4-40.4v-19.9c0-41.8-22.2-50.8-41-50.8"/>
		<path fill="none" stroke="#FFFFFF" stroke-width="0.7652" stroke-miterlimit="10" d="M439.5,387.8h6.3c15.9,0,19.3-5.2,19.3-29.4
			v-5.2c-0.6-11-0.9-18.2-1.4-21.6c0-1.4-0.6-2.6-1.4-4.3c-2-5.8-6.3-7.5-15.3-7.5h-7.5L439.5,387.8L439.5,387.8z M451.9,298.4
			c23.9,0,36.3,15.3,36.3,46.1v19.9c0,20.2-4.6,30.6-17,38.4l22.8,92.6h-22.2l-21.6-86.5h-11v86.5h-22.5v-197"/>
		<path fill="none" stroke="#FFFFFF" stroke-width="0.3877" d="M439.5,387.8h6.3c15.9,0,19.3-5.2,19.3-29.4v-5.2
			c-0.6-11-0.9-18.2-1.4-21.6c0-1.4-0.6-2.6-1.4-4.3c-2-5.8-6.3-7.5-15.3-7.5h-7.5L439.5,387.8L439.5,387.8z M451.9,298.4
			c23.9,0,36.3,15.3,36.3,46.1v19.9c0,20.2-4.6,30.6-17,38.4l22.8,92.6h-22.2l-21.6-86.5h-11v86.5h-22.5v-197H451.9z"/>
		<path fill="#FFFFFF" d="M591.8,293.8h-26.2c0,0-9.8,43.8-14.7,66.3c-5.2-22.2-15.3-66.3-15.3-66.3h-32.3c0,0,31.7,118,32,119.1
			V500h32v-87.7c0.3-1.2,30.6-118.5,30.6-118.5"/>
		<path fill="#705D50" d="M42.7,500.5H0V292.9h34.3c32.3,0,44.4,15.3,44.4,56.8c0,22.8-2.6,34.3-9.5,42.1c-0.9,0.9-1.4,1.7-2.3,2.3
			c4.9,3.7,8.1,7.8,10.7,13.8c3.2,7.2,4.3,16.7,4.3,33.5c0,27.7-2.9,40.1-11.8,49.3C63.7,497.1,53.9,500.5,42.7,500.5z M1.4,499.4
			h41.2c11,0,20.5-3.5,26.5-9.5c8.4-8.7,11.2-21.1,11.2-48.2c0-16.4-1.2-25.7-4.3-32.9c-2.3-6.3-5.5-10.4-10.7-13.8l-0.9-0.6
			l0.6-0.6c1.2-0.9,2-1.7,2.9-2.9c6.6-7.5,8.9-18.7,8.9-41.2c0-40.4-11.5-55.4-43-55.4H1.4V499.4z M40.1,470.6H32v-61.1h5.2
			c8.4,0,12.1,1.2,12.1,25.7v16.2C49.3,469.7,45.9,470.6,40.1,470.6z M33.5,469.1h6.6c4.9,0,7.8,0,7.8-18.2v-16.2
			c0-24.2-3.5-24.2-10.7-24.2h-3.7V469.1z M37.8,380.9h-6.1v-57.1h4.3c7.5,0,10.7,0.9,10.7,20.2v19.9
			C46.7,380.9,41,380.9,37.8,380.9z M33.5,379.4h4.6c2.6,0,7.5,0,7.5-15.3v-19.9c0-18.7-2.6-18.7-9.2-18.7h-2.9
			C33.5,325.5,33.5,379.4,33.5,379.4z M190.6,500.5h-32V500c0,0-5.2-43.5-6.1-52.5h-17.3c-1.2,8.7-6.1,52.5-6.1,52.5v0.6H96.9v-0.9
			L124,292.9h39.2v0.6L190.6,500.5z M160.1,499.4h29.1l-26.8-204.8h-37.2L98.3,499.4h29.4c0.6-5.5,5.5-45.9,6.1-52.5v-0.6h19.9v0.6
			C154.6,453.5,159.2,493.6,160.1,499.4z M150.5,418.9H137v-0.9c0.6-4.9,2.6-25.7,5.2-50.2l1.4-14.7l2.9,28
			c2,18.5,3.5,32.9,3.7,36.9L150.5,418.9z M138.4,417.5h10.4c-0.6-4.9-2-18.7-3.7-36.1l-1.4-14.4v1.2
			C141.3,391.5,139,411.4,138.4,417.5z M298.8,500.5h-34l-20.2-68.1v68.1h-32.9V292.9h33.2v54.5l18.2-54.5h33.7l-0.3,0.9
			c0,0-30.6,86.8-32.6,92.6c2,6.1,34.6,113.3,34.6,113.3L298.8,500.5z M265.9,499.4h30.9c-3.2-10.7-33.7-109.9-34.6-112.8v-0.3V386
			c0.9-2.6,28.8-82.2,32.3-91.7h-30.6l-20.5,61.7v-61.7h-30.6v204.8h30.3V423L265.9,499.4z M392.5,500.5h-77.3V292.9h74.1v31.7
			h-41.2v53.6h35.5v31.4h-35.2v59.1h43.8v31.7H392.5z M316.7,499.4h74.4v-28.8h-43.8v-62.3h35.2v-28.6H347v-56.5h41.2v-28.8h-71.5
			V499.4z M501,500.5h-33.2V500c0,0-19-76.7-21.3-86.2H445v86.5h-33.5V292.6h40.4c19,0,41.8,8.9,41.8,51.3v19.9
			c0,20.2-4.6,32-16.2,40.7L501,500.5z M469,499.4h30.3l-23.4-94.9l0.3-0.3c11.2-8.4,16.2-19.9,16.2-39.8v-19.9
			c0-41.2-21.9-49.9-40.4-49.9H413v204.8h30.6v-86.5h4v0.6C449,419.2,467.2,492.2,469,499.4z M445.6,383.7h-2.3v-60h3.5
			c8.9,0,10.7,2,11.5,4.9l0.3,0.3c0.6,1.2,0.9,2,0.9,2.6v0.6c0.3,2.6,0.6,8.1,1.2,15.6l0.3,5.8v4.9
			C461.2,381.4,458.3,383.7,445.6,383.7z M444.7,382.3h0.9c10.7,0,14.1,0,14.1-23.9v-4.9l-0.3-5.5c-0.3-7.5-0.6-13-0.9-15.3v-0.3
			v-0.6c0,0,0-0.3-0.9-2l-0.3-0.6c-0.9-2-1.4-4-10.4-4h-2.3L444.7,382.3L444.7,382.3z M567.9,500.5h-33.5v-87.7l-32.3-120h33.7v0.6
			c0,0,9.2,40.1,14.7,63.2c5.2-23.1,13.8-63.2,13.8-63.2v-0.6h33.7l-0.3,0.9c0,0-29.7,114.8-30.6,118.5v88.3H567.9z M535.9,499.4
			h30.6v-87.1c0.3-1.2,27.7-107,30.6-117.7h-30.9c-1.2,5.2-9.8,44.7-14.4,65.8l-0.6,3.2l-0.6-2.9c-4.9-20.8-14.1-60.6-15.3-65.8
			h-30.9l31.7,118.5v85.9H535.9z"/>
		<path fill="#BCD19E" d="M28,474.6h12.1c10.1,0,13.3-5.5,13.3-23.4v-16.2c0-23.6-3.2-29.7-16.2-29.7H28V474.6z M28,384.6h10.1
			c8.9,0,13-6.3,13-20.8v-19.9c0-19-2.9-24.2-14.4-24.2H28V384.6z M34.3,298.4c29.1,0,38.9,13.3,38.9,51.3c0,21.3-2,31.7-8.1,38.4
			c-2,2.3-3.7,3.7-8.4,6.1c8.9,4.6,12.7,8.4,15.6,15.9c2.9,6.6,4,15.9,4,31.1c0,26.5-2.6,37.8-10.1,45.6c-5.5,5.5-13.8,8.4-23.6,8.4
			H5.2V298.4 M132.4,423h22.2l-10.4-105.6h-0.6L132.4,423z M158.6,298.4l26,197h-21.1l-6.1-53.1h-26.8l-6.3,53.1H103l26-197
			 M239.4,298.4v80.5h0.6l26.8-80.5H289l-30.9,88l33.2,109h-22.5l-29.1-97.8h-0.3v97.8h-22.2v-197 M384.2,298.4v21.1h-41.2v64.3
			h35.5v20.8h-35.2v70.1H387v21.1h-66.3V298.4 M439.5,387.8h6.3c15.9,0,19.3-5.2,19.3-29.4v-5.2c-0.6-11-0.9-18.2-1.4-21.6
			c0-1.4-0.6-2.6-1.4-4.3c-2-5.8-6.3-7.5-15.3-7.5h-7.5L439.5,387.8L439.5,387.8z M451.9,298.4c23.9,0,36.3,15.3,36.3,46.1v19.9
			c0,20.2-4.6,30.6-17,38.4l22.8,92.6h-22.2l-21.6-86.5h-11v86.5h-22.5v-197 M531.8,298.4l18.7,81.6h0.6l17.9-81.6h22.5l-28.8,113.3
			v83.6h-22.5V412l-30.6-113.9"/>
		<polyline fill="none" stroke="#FFFFFF" stroke-width="0.7652" stroke-miterlimit="10" points="531.8,298.4 550.6,380 551.1,380 
			569.3,298.4 591.8,298.4 562.7,411.7 562.7,495.4 539.9,495.4 539.9,412 509.3,298.4 		"/>
		<polygon fill="none" stroke="#FFFFFF" stroke-width="0.3877" points="531.8,298.4 550.6,380 551.1,380 569.3,298.4 591.8,298.4 
			562.7,411.7 562.7,495.4 539.9,495.4 539.9,412 509.3,298.4 		"/>
	</g>
	<g>
		<path fill="#705D50" d="M608.8,208.7c1.7,0,3.2,1.4,3.2,3.2s-1.4,3.2-3.2,3.2s-3.2-1.4-3.2-3.2S606.8,208.7,608.8,208.7z
			 M605.9,211.9c0,1.4,1.2,2.6,2.6,2.6c1.4,0,2.6-1.2,2.6-2.6s-1.2-2.6-2.6-2.6C607.1,209.3,605.9,210.4,605.9,211.9z M610,213h-0.6
			l-0.9-0.9h-0.3v1.2h-0.6v-2.9h0.9c0.6,0,1.2,0.3,1.2,0.9c0,0.3-0.3,0.6-0.6,0.9L610,213z M608.5,211.9c0.3,0,0.6-0.3,0.6-0.6
			s-0.3-0.6-0.6-0.6h-0.3v0.9h0.3V211.9z"/>
	</g>
</g>
<path d="M158.9,560.2c-0.9,5.5-5.5,9.8-11.5,9.8h-13.8l0.3-1.2c3.7,0,4.3-1.2,5.5-6.6l3.5-18.7c1.2-5.8,0.6-6.6-3.2-6.6l0.3-1.2
	h12.4c5.2,0,8.1,3.7,7.2,8.7c-0.6,2.9-2.9,5.5-5.2,7.2C157.8,552.5,159.8,555.9,158.9,560.2z M154.9,560.2c0.6-4.3-1.4-7.8-5.2-7.8
	h-4.9l-1.4,8.7c-1.2,5.8-0.6,6.6,2.9,6.6h0.9C150.8,567.7,154.3,564.3,154.9,560.2z M145.4,550.4h3.5c3.2,0,6.1-2.9,6.9-6.3
	c0.6-3.5-1.4-6.6-4.6-6.6h-3.5L145.4,550.4z"/>
<path d="M172.5,568.6c1.4,0,3.7-1.2,5.2-2.6l0.6,1.2c-2,2-4.9,3.7-7.2,3.7c-4.9,0-7.2-4.9-6.1-10.7c1.2-6.1,5.8-10.7,9.8-10.7
	c3.2,0,4.9,2.3,4.3,4.9c-0.6,2.9-4,6.6-11,8.1C167.9,566.3,169.3,568.6,172.5,568.6z M175.9,554.8c0.3-1.4-0.3-2.6-1.7-2.6
	c-2.6,0-5.2,3.2-6.1,8.4c0,0.3,0,0.6-0.3,0.9C173,560,175.6,557.1,175.9,554.8z"/>
<path d="M192.7,549.6c-0.6,4-2.6,7.2-3.7,13.6c-0.6,3.7,0.9,5.5,2.6,5.5c2.6,0,5.8-3.2,6.6-8.4c1.2-7.2-1.7-7.5-1.4-9.5
	c0-0.9,0.9-1.2,1.4-1.2c1.4,0,3.2,2.6,1.7,10.7c-1.2,5.8-4.9,10.7-8.9,10.7c-5.2,0-6.1-3.5-5.2-7.2c0.6-3.7,3.7-8.4,4-10.7
	c-1.4-0.6-2-1.2-3.7-1.2c-0.6,0-2,0.9-2.3,1.4v-1.4c1.2-1.2,2.6-2,3.7-2c2,0,2.3,0.9,4-0.3H192.7L192.7,549.6z"/>
<path d="M213.1,568.6c1.4,0,3.7-1.2,5.2-2.6l0.6,1.2c-2,2-4.9,3.7-7.2,3.7c-4.9,0-7.2-4.9-6.1-10.7c1.2-6.1,5.8-10.7,9.8-10.7
	c3.2,0,4.9,2.3,4.3,4.9c-0.6,2.9-4,6.6-11,8.1C208.5,566.3,210,568.6,213.1,568.6z M216.6,554.8c0.3-1.4-0.3-2.6-1.7-2.6
	c-2.6,0-5.2,3.2-6.1,8.4c0,0.3,0,0.6-0.3,0.9C213.7,560,216.3,557.1,216.6,554.8z"/>
<path d="M237.1,549.6c2.6,0,3.2,2,2.9,3.7c0,0.9-0.9,2-2.3,2c-1.2,0-1.7-0.9-1.4-1.7c0-0.9,0-1.2-0.6-1.2c-1.7,0-4.3,3.7-5.8,12.1
	l-0.9,5.5h-3.2l2.6-15.6c0.3-1.4,0.3-2.3-0.6-2.3c-0.6,0-2,0.9-2.3,1.4v-1.4c1.2-1.2,2.6-2,3.7-2c2,0,2.6,1.7,2.3,4l-0.3,1.4
	C232.7,551.6,234.8,549.6,237.1,549.6z"/>
<path d="M245.1,536.9v-1.2l6.9-1.4l-5.8,32c-0.3,1.4,0,2.3,0.6,2.3c0.6,0,2-0.9,2.3-1.2v1.4c-1.2,1.2-2.6,2-3.7,2
	c-2,0-2.9-1.7-2.6-4l4-22.8C248.3,537.8,248,536.9,245.1,536.9z"/>
<path d="M244.6,582.7c4.3,0,9.8-3.7,14.4-8.9c2.3-15.6,0-21.9-2.6-21.9c-0.9,0-2.3,0.9-2.6,1.4v-1.4c1.2-1.2,2.6-2,4.3-2
	c4.3,0,6.3,7.8,4.6,19.3c2.6-3.7,4.3-7.5,5.2-11.2c1.2-6.3-2-6.3-1.7-7.8c0-0.6,0.9-1.2,1.4-1.2c1.4,0,3.5,2.3,2.6,8.1
	c-2.6,14.1-17.3,28-26.8,28"/>
<path d="M294.5,562c-1.2,5.8-0.6,6.6,2.9,6.6l-0.3,1.2h-12.1l0.3-1.2c3.7,0,4.3-1.2,5.5-6.6l3.5-18.7c1.2-5.8,0.6-6.6-3.2-6.6
	l0.3-1.2h12.1l-0.3,1.2c-3.5,0-4.3,0.9-5.2,6.6l-1.4,7.2h14.7l1.4-7.2c1.2-5.8,0.6-6.6-3.2-6.6l0.3-1.2h12.1l-0.3,1.2
	c-3.7,0-4.3,0.9-5.5,6.6l-3.5,18.7c-1.2,5.8-0.6,6.6,3.2,6.6l-0.3,1.2h-12.1l0.3-1.2c3.5,0,4.3-1.2,5.5-6.6l1.7-9.2h-14.7L294.5,562
	z"/>
<path d="M327.6,568.6c0.6,0,2-0.9,2.3-1.2v1.4c-1.2,1.2-2.6,2-3.7,2c-2,0-2.9-1.7-2.6-4l2-12.1c0.3-1.4,0.3-2.3-0.6-2.3
	c-0.6,0-2,0.9-2.3,1.4v-1.4c1.2-1.2,2.6-2,3.7-2c2,0,2.9,1.7,2.6,4l-2.3,12.4C326.8,567.5,327.1,568.6,327.6,568.6z M329.4,543.2
	c-1.2,0-2-0.9-1.7-2c0.3-1.2,1.2-2,2.3-2c1.2,0,2,0.9,1.7,2C331.7,542.7,330.5,543.2,329.4,543.2z"/>
<path d="M338,536.9l0.3-1.2l6.9-1.4l-5.8,32c-0.3,1.4,0,2.3,0.6,2.3c0.6,0,2-0.9,2.3-1.2v1.4c-1.2,1.2-2.6,2-3.7,2
	c-2,0-2.9-1.7-2.6-4l4-22.8C341.2,537.8,340.9,536.9,338,536.9z"/>
<path d="M351,536.9l0.3-1.2l6.9-1.4l-5.8,32c-0.3,1.4,0,2.3,0.6,2.3s2-0.9,2.3-1.2v1.4c-1.2,1.2-2.6,2-3.7,2c-2,0-2.9-1.7-2.6-4
	l4-22.8C354.5,537.8,353.9,536.9,351,536.9z"/>
<path d="M365.1,570.9c-3.5,0-5.2-2.3-4.9-4c0.3-0.9,0.9-1.4,1.4-1.4c2.3,0,0.3,3.5,4,3.5c1.7,0,2.9-1.4,3.2-2.9
	c0.3-1.4-0.9-3.2-1.7-4l-2-2c-1.4-1.4-2.3-3.5-2-5.2c0.6-2.6,2.6-5.2,6.3-5.2c3.2,0,4,2,3.7,3.5c0,0.6-0.6,1.2-1.2,1.2
	c-2,0-0.3-2.9-3.5-2.9c-1.2,0-2.6,0.9-2.9,2.6c-0.3,1.4,0.3,2.6,1.7,3.7l2,2c1.4,1.4,2.3,3.5,2,5.5
	C370.9,568.9,367.7,570.9,365.1,570.9z"/>
<path d="M379.8,570.3c-1.4,0-2.6-1.2-2.3-2.9c0.3-1.4,1.7-2.9,3.2-2.9s2.9,1.2,2.6,3.7c-0.6,2.6-2.9,6.3-6.9,8.7l-0.6-0.6
	c2.6-2.3,3.7-3.7,4.3-6.1C380.4,570.3,380.1,570.3,379.8,570.3z"/>
<path d="M426.8,569.2c0-1.4,0-2.9-0.6-3.2c-2.6,3.2-5.8,4.9-8.9,4.9c-7.2,0-11.8-8.4-10.1-18.2c1.7-10.1,9.2-18.2,16.4-18.2
	c3.2,0,5.5,1.7,7.2,4.9c0.6-0.6,1.2-1.7,1.7-3.2h1.2l-2.3,12.7h-1.2c0.3-7.5-2.3-12.1-6.9-12.1c-6.3,0-10.4,8.9-11.8,16.2
	c-1.2,7.2,0,15.9,6.1,15.9c4.6,0,8.9-4.6,11.2-12.1h1.2l-2.3,12.7h-0.9V569.2z"/>
<path d="M440.1,564.3c-1.7,3.2-0.9,4.3,2.6,4.3l-0.3,1.2h-10.7l0.3-1.2c3.2,0,4-0.9,6.1-4.9l14.7-29.4h1.2l4.3,29.4
	c0.6,4,0.9,4.9,4.3,4.9l-0.3,1.2h-12.4l0.3-1.2c3.7,0,4.6-1.2,4.3-4.3l-0.9-6.3h-10.1L440.1,564.3z M451.4,542.1l-6.9,13.6h8.7
	L451.4,542.1z"/>
</svg>
