<?xml version="1.0" encoding="utf-8"?>
<!-- Generator: Adobe Illustrator 18.0.0, SVG Export Plug-In . SVG Version: 6.00 Build 0)  -->
<!DOCTYPE svg PUBLIC "-//W3C//DTD SVG 1.1//EN" "http://www.w3.org/Graphics/SVG/1.1/DTD/svg11.dtd">
<svg version="1.1" id="Layer_1" xmlns="http://www.w3.org/2000/svg" xmlns:xlink="http://www.w3.org/1999/xlink" x="0px" y="0px"
	 viewBox="216.1 674.8 612 181.2" enable-background="new 216.1 674.8 612 181.2" xml:space="preserve">
<g>
	<path fill="#1E3363" d="M517.3,835.5c-4.1-2.7-8.5-2.7-11.6-0.3c-2.1,1.7-3.4,4.4-3.1,8.2c0.3-2.4,1.4-4.4,3.4-6.2
		c3.1-2.7,7.5-3.1,10.9-1.4C516.9,835.9,516.9,835.9,517.3,835.5 M509.7,843.4c3.1-2.7,6.2-4.1,8.2-4.4c0-0.3-0.3-0.3-0.3-0.7
		c-2.7-1.4-6.5-0.3-9.6,2.4c-3.1,2.7-4.1,6.2-3.4,8.5c0.3,0.7,0.7,1,1,1C506,848.2,507.7,845.1,509.7,843.4 M520.3,841.3
		c-0.3,0-0.3-0.3-0.7-0.7c-0.7,2.1-2.4,4.4-5.8,7.5c-2.4,2.1-5.5,3.1-7.9,3.1c0.3,0.3,1,1,1,1c2.7,1,6.2,1,9.2-1.7
		C519.3,847.8,521,844.1,520.3,841.3 M519.7,834.2c-1-1-2.7-1.4-3.8-1.7c1.4,0.7,2.7,2.1,3.1,2.7c0.3,0,0.7,0.3,1,0.7
		C520,835.2,520,834.8,519.7,834.2 M523.1,842c-0.3,0-0.7,0-1,0c1,3.8,0,8.2-3.1,10.6c-2.1,1.7-4.4,2.7-6.5,2.7c3.4,1,6.8,0,8.9-1.7
		C524.1,850.9,525.5,846.8,523.1,842 M521.4,837.9c-1.7-2.1-3.1-2.7-3.8-2.1c-0.7,0.7-0.3,2.4,1,4.1c1.7,2.1,3.1,2.4,3.8,1.7
		C523.4,841,523.1,839.6,521.4,837.9 M521.4,835.5c0,0.7,0,1,0,1l1,1c0.7,0,0.7,0,1,0.3C523.1,837.6,522.1,836.2,521.4,835.5
		 M524.5,840c-0.7-0.3-1-0.7-1-0.7c0,0.7,0.3,1,0.3,1c0.7,0.3,1.7,2.1,2.1,3.4C525.5,842.7,525.1,841.3,524.5,840 M505.6,851.2
		c-4.4-5.5-4.4-13,0.7-17.1c4.8-4.1,12.3-3.1,17.1,2.4c4.4,5.1,4.4,13-0.7,17.1C517.6,857.7,509.7,856.4,505.6,851.2 M405.1,802.7
		l-13.7,2.7l-3.1-17.8l3.1-0.7l2.7,14.7l10.9-2.1V802.7z M422.9,785.3l-2.7,7.5l7.9-1L422.9,785.3z M436.2,797.9l-3.4,0.7l-2.7-4.1
		l-10.9,1.4l-1.7,4.4L414,801l7.2-19.1l3.1-0.3L436.2,797.9z M461.5,782.2c-1.4-0.7-3.8-1.7-7.9-1.4c-3.4,0.3-4.8,1.4-4.8,2.7
		c0.3,1.7,1,2.4,6.2,1.7c8.2-0.7,9.2,1.7,9.6,4.4c0.7,5.1-4.4,6.5-8.2,6.8c-6.2,0.7-9.6-1.4-10.9-2.4l1-2.7c2.4,1,4.4,2.4,9.6,2.1
		c3.1-0.3,5.5-1,5.1-3.1c-0.3-2.4-1.4-2.4-8.2-2.1c-4.1,0.3-7.2-0.7-7.5-4.4c-0.3-3.1,1.7-6.2,7.9-6.5c4.4-0.3,7.9,1,9.2,1.7
		L461.5,782.2z M507,793.8h-3.1l-9.9-18.1h3.4l7.9,14.4l7.5-14.4h3.4L507,793.8z M545.3,794.5l-16.4-0.7l0.7-18.1l16.1,0.7v3.1
		l-13-0.3v4.1l7.2,0.3v3.1l-7.2-0.3v4.4l13.3,0.3L545.3,794.5z M577.8,793.8c-1.4,1-4.4,2.7-9.2,2.7c-6.5-0.7-10.6-5.1-9.9-10.3
		c0.3-4.8,4.4-9.2,11.6-8.9c4.8,0.3,7.5,2.7,8.2,3.4l-2.1,2.4c-2.1-1.4-4.4-2.7-6.5-2.7c-5.1-0.3-8.2,2.7-8.2,6.2
		c-0.3,3.4,2.4,6.5,7.5,7.2c2.1,0.3,4.4-0.3,6.2-1.4l0.3-2.7l-5.1-0.3l0.3-3.1l8.2,0.7L577.8,793.8z M600.4,783.9l-4.8,6.8l7.9,1
		L600.4,783.9z M609.9,800l-3.8-0.7l-1.7-4.4l-10.9-1.4l-2.7,4.1l-3.4-0.3l11.6-16.8l3.1,0.3L609.9,800z M638.3,790.7
		c-1.4-1-3.1-2.7-6.8-3.4c-3.4-0.7-5.1,0-5.5,1.4c-0.3,1.7,0.3,2.4,5.5,3.1c8.2,1.4,8.5,4.1,8.2,6.8c-1,5.1-5.8,5.1-9.9,4.4
		c-6.2-1-8.9-3.8-9.9-4.8l2.1-2.4c1.7,1.7,3.8,3.4,8.5,4.4c3.1,0.7,5.5,0.3,6.2-1.7c0.3-2.4-1-2.7-7.5-4.1c-4.1-1-6.5-2.4-6.2-6.2
		c0.7-2.7,3.1-5.5,9.2-4.4c4.4,1,7.2,3.1,8.2,4.1L638.3,790.7z"/>
	<g>
		<path fill="#1E3363" d="M263.6,732.3l10.6-8.9C272.5,727.1,268.4,730.6,263.6,732.3 M248.9,732.9l25-21.2c0.3,1,0.7,1.7,1,2.7
			l-22.2,19.1c-1.4,0-2.7,0-2.7,0L248.9,732.9L248.9,732.9z M218.1,732.9v-1.4l20.5-17.1c0,1,0,2.1,0,3.1l-18.5,15.7L218.1,732.9
			L218.1,732.9 M218.1,725.1h2.1l-2.4,1.7L218.1,725.1L218.1,725.1 M225.3,725.1l-6.8,6.2v-3.4l3.1-2.7H225.3L225.3,725.1z
			 M218.1,685.4v-1l7.5-6.5h3.8l-9.2,7.5C219.5,685.8,218.5,685.8,218.1,685.4C218.1,685.8,218.1,685.4,218.1,685.4 M218.1,677.6
			h1.7l-1.7,1.7V677.6C218.1,677.9,218.1,677.6,218.1,677.6 M218.1,680.3l2.7-2.4h3.8l-6.5,5.8C218.1,683.7,218.1,680.3,218.1,680.3
			z M247.9,677.6L226,696.4v-3.1l18.1-15.4C245.5,677.6,246.8,677.6,247.9,677.6 M257.1,677.9l-9.6,8.2c-0.3,0-0.7,0-1,0
			c-1,0-1.7,0-2.7,0l9.9-8.2h1C254.4,677.6,255.7,677.9,257.1,677.9 M261.2,678.6l-8.9,7.9c-1,0-2.7,0-3.8,0l9.6-8.2
			c1,0,1.4,0,2.1,0.3C260.2,678.2,260.8,678.2,261.2,678.6 M267.7,680.6l-9.2,8.2c-0.7-0.7-1-1-1.7-1.7l8.5-7.5
			c0.7,0.3,1,0.3,1.4,0.7C267,680.3,267.3,680.3,267.7,680.6 M270.1,682.3l-10.3,8.9l0,0c0-0.7-0.7-1.4-1-2.4l9.6-8.2
			C268.7,681.3,269.4,682,270.1,682.3 M264.9,701.5c-1,0.3-2.4,0.7-3.1,1l11.3-9.6C272.5,696,270.1,699.4,264.9,701.5 M269.4,707
			l-8.5,7.5c-0.3-1-0.7-1.7-1-2.7l7.2-6.5C267.7,705.9,268.7,706.3,269.4,707 M254.4,724.1c1-0.3,2.1-1,2.7-1.4
			c1-0.7,1.7-1.4,2.7-2.7l12.3-10.3c0.7,0.7,1,1,1.4,2.1l-25.6,21.9h-4.1L254.4,724.1z M249.2,724.7c1,0,1.4,0,2.1,0
			c1,0,1.4,0,2.1-0.3l-9.9,8.5h-3.8L249.2,724.7z M244.8,724.7c1,0,2.7,0,3.8,0l-9.9,8.2h-3.8L244.8,724.7z M240,724.7h3.8l-9.9,8.2
			h-3.8L240,724.7z M238.3,722v2.1c0,0.3,0,0.7,0.3,0.7h0.3l-9.9,8.2h-3.8L238.3,722z M238.3,721.7l-13.7,11.6h-3.8l17.4-15.4V721.7
			z M257.4,709.4c-0.7-0.3-1.4-1-2.4-1l5.8-4.8c1,0.3,1.7,0.3,2.7,1L257.4,709.4z M258.1,720.3c-1.7,2.4-3.8,3.1-6.2,3.4
			c-1.7,0-8.9,0-8.9,0c-0.3,0-0.3,0-0.3-0.3s0-9.9,0-10.6s0-1,0.7-1c0.3,0,10.3,0,12,0c1.7,0.3,2.7,0.7,3.1,1c0.3,0.3,1,0.7,1,2.7
			C259.8,716.5,259.1,718.6,258.1,720.3 M260.8,714.8l9.2-7.9c0.7,0.7,1,1,1.7,1.7l-11.3,9.9C260.8,717.6,260.8,716.2,260.8,714.8
			 M264.6,704.6c0.7,0.3,1.4,0.7,2.1,1l-7.2,6.2c-0.3-0.3-0.7-1-1-1c-0.3-0.3-0.3-0.3-0.7-0.7l6.2-5.1
			C263.9,704.2,264.3,704.2,264.6,704.6 M273.2,691.9l-12.3,10.6c-0.7,0-1,0.3-1,0.3v0.3c0,0,0,0,0.3,0l-5.5,4.8c-0.3,0-0.7,0-1-0.3
			c-1-0.3-1.4,0-2.7,0l0,0l22.6-19.1C273.2,689.5,273.2,690.9,273.2,691.9 M257.4,698.1c0.3-0.3,0.7-0.3,1-0.7l0,0l14-11.6
			c0.3,0.7,0.7,1.4,0.7,2.4v0.3l-22.9,19.8c-1,0-2.4,0-3.8,0L257.4,698.1z M241.7,707.6l9.6-8.2c1.4,0,2.4,0,2.7,0
			c0.7,0,1-0.3,1.4-0.3l-9.9,8.5C244.1,707.6,242.7,707.6,241.7,707.6 M226,720.6l12.3-10.6v3.1L226,723.7V720.6z M226,689.2
			l13.7-11.6h3.8l-17.1,14.7v-3.1H226z M238.3,693.6L226,704.2v-3.1l12.3-10.6V693.6z M226,712.8l15.7-13.7c1,0,2.7,0,3.8,0
			L226,715.9C226,716.2,226,712.8,226,712.8z M226,709l12.3-10.6v0.7c0,0.3,0,0.3,0.3,0.3c0,0,1,0,2.4,0l-14.7,12.7L226,709L226,709
			z M226,704.9l12.3-10.6v3.1L226,708C226,708,226,704.9,226,704.9z M239,707.6c-0.7,0-0.7,0.3-0.7,0.7v1.4L226,720.3v-3.1
			l20.5-17.4c1.4,0,2.7,0,3.8,0l-9.6,8.2C240,707.6,239,707.6,239,707.6 M259.8,691.9l10.6-9.2c1,1,1,1.4,1.7,2.4l-12.7,10.6
			C259.8,694.7,259.8,692.9,259.8,691.9 M254.4,686.1c-0.3,0-1,0-1.4,0l8.9-7.5c1,0.3,1.7,0.7,2.7,1l-8.5,7.5
			C255.7,686.1,255,686.1,254.4,686.1 M254,689.5c2.4,0,3.1,0.7,3.8,1c0.7,0.3,1,0.7,1,1c0.3,0.7,0.3,2.1,0,3.1
			c-0.3,1.4-1.4,3.1-4.1,3.4c-2.1,0.3-10.9,0.3-11.3,0.3s-0.3,0-0.3-0.3v-8.2c0-0.3,0-0.3,0.3-0.3
			C243.4,689.5,253.3,689.5,254,689.5 M239.3,685.8l9.9-8.2h3.8l-9.9,8.2C241.4,685.8,240,685.8,239.3,685.8 M238.3,689.5L226,700.1
			V697l12.3-10.6V689.5z M234.9,677.6h3.8L226,688.5v-2.4c0-0.3,0-0.7-0.3-0.7L234.9,677.6z M224.9,685.4c-1,0-2.4,0-3.8,0l9.2-7.9
			c1,0,2.7,0,3.8,0L224.9,685.4z M257.1,732.9c-1.4,0-2.7,0-4.1,0l21.2-18.1c0.3,1,0.3,2.1,0.3,3.1L257.1,732.9z M259.8,732.9
			c-0.7,0-1,0-1.4,0l16.8-14c0,1-0.3,2.1-0.7,3.1l-12,10.3C261.5,732.9,260.5,732.9,259.8,732.9 M276.6,711.8
			c-2.7-3.8-8.2-6.5-8.2-6.5c-0.3,0-0.3,0,0-0.3c0,0,4.4-2.1,6.5-4.4c2.4-2.7,3.8-5.5,2.7-10.9c-1-7.2-7.5-13-20.2-13.7
			c-4.4-0.3-7.9-0.3-9.9-0.3c-2.1,0-3.4,0-8.2,0.3c-4.4,0-20.9,0-21.5,0c-1,0.3-1.4,0.3-1.4,1v9.9c0,0,0.7,0.7,1,1
			c0.7,0.7,2.4,2.1,2.4,2.4c0,0,0,0,0.3,0h3.8v0.3c0,0,0,31.8,0,32.8c0,0.7,0,1-0.3,1s-7.2,0-7.5,0c0.3-0.3,0.3,0,0.3,0v9.9
			c0,0.3,0.3,0.7,0.7,1c0.3,0.3,2.7,2.4,3.1,2.7c0.3,0,0.7,0.3,1,0.3h17.4c0,0,21.5-0.3,25.3-0.7c6.5-0.7,12.3-4.4,14.7-11.3
			C280,720.6,279,715.5,276.6,711.8"/>
		<path fill="#1E3363" d="M343.6,733.3l15-12.7C355.9,726.1,350.8,730.9,343.6,733.3 M310.4,726.1l9.9-8.2c0.3,1,0.7,1.4,1,2.4
			l-9.2,7.9C311.4,727.5,310.8,726.8,310.4,726.1 M322.7,679.6l-15.4,13.3C310.4,686.1,316.6,681.7,322.7,679.6 M306.7,694.3
			l17.8-15c1.7-0.7,3.1-1,4.8-1L305,699.1C305,697,305.6,695.7,306.7,694.3 M333.7,678.2l-29.7,25.3c0-1,0.3-2.7,0.7-3.8l25.3-21.5
			c0.7,0,1,0,1.4,0C332.3,677.9,333,677.9,333.7,678.2 M339.5,725.4c1-0.7,2.4-1.7,3.1-2.7l19.1-16.1c0,0.7,0,1.4,0,2.1
			c0,0.3,0,0.7,0,1l-30.4,26c-1,0-2.4,0-3.1-0.3L339.5,725.4z M333,726.8c0.3,0,0.3,0,0.7,0c1.4,0,2.7-0.3,4.1-0.7l-10.3,8.9
			c-1-0.3-2.1-0.3-3.1-0.7L333,726.8z M328.9,726.1c1,0.3,2.1,0.7,3.1,0.7l-8.9,7.5c-1-0.3-1.7-0.7-2.7-1L328.9,726.1z M326.1,724.7
			c1,0.7,1.4,1,2.4,1l-8.2,7.2c-1-0.3-1.7-1-2.4-1L326.1,724.7z M323.4,722.7c0.7,0.7,1,1,2.1,1.7l-8.2,7.2c-1-0.3-1.4-1-2.4-1.4
			L323.4,722.7z M323.1,722.3l-8.5,7.5c-0.7-0.7-1.4-1-2.1-1.7l9.2-7.9C322,721.3,322.7,722,323.1,722.3 M319.3,714.8
			c0.3,1,0.7,1.7,1,2.7l-9.9,8.5c-0.7-0.7-1-1-1.4-2.1L319.3,714.8z M318.6,711.1c0,1,0.3,2.1,0.7,2.7l-10.9,9.2
			c-0.7-0.7-1-1.4-1-2.4L318.6,711.1z M318.3,707.6c0,1,0,2.1,0.3,2.7l-11.6,9.9c-0.3-1-0.7-1.4-1-2.4L318.3,707.6z M318.3,703.5
			c0,0.7,0,1,0,2.1c0,0.7,0,1,0,1.4l-12.7,10.9c-0.3-1-0.7-1.7-1-2.7L318.3,703.5z M318.6,699.1c-0.3,1-0.3,2.4-0.3,3.4l-13.7,11.6
			c-0.3-1-0.3-1.7-0.7-2.7L318.6,699.1z M303.6,708l16.4-13.7c-0.7,1-1,2.7-1,4.4l-15,12.7C303.9,710,303.6,709.4,303.6,708
			 M333.7,685.8L333.7,685.8c-1.7,0-2.7,0-4.1,0.3l9.2-7.9c1,0.3,2.1,0.3,3.1,0.7L333.7,685.8z M337.4,686.5c-1-0.3-2.1-0.7-3.1-0.7
			l7.9-6.5c1,0.3,1.7,0.7,2.7,1L337.4,686.5z M340.5,687.8c-1-0.7-1.4-1-2.4-1l7.5-6.5c1,0.3,1.7,1,2.4,1L340.5,687.8z M342.9,689.9
			c-0.7-0.7-1-1-1.7-1.7l7.5-6.5c1,0.3,1.4,1,2.1,1.4L342.9,689.9z M344.6,692.6c-0.3-1-1-1.4-1.4-2.1l7.9-6.8
			c0.7,0.7,1.4,1,2.1,1.7L344.6,692.6z M346.7,698.4c-0.3-1-0.3-1.7-0.7-2.7l9.6-8.2c0.7,0.7,1,1.4,1.4,2.1L346.7,698.4z
			 M346.7,702.2c0-1-0.3-2.1-0.3-2.7l10.3-8.9c0.7,1,1,1.4,1,2.4L346.7,702.2z M347,705.9c0-1,0-2.1,0-3.1l11.6-9.9
			c0.3,1,0.7,1.7,1,2.4L347,705.9z M346.7,710c0-1,0.3-2.4,0.3-3.4l12.7-10.6c0.3,1,0.7,1.7,1,2.7L346.7,710z M361,702.2l-15,12.7
			c0.3-1,0.7-2.4,0.7-3.8l13.7-11.6C360.7,700.1,361,701.2,361,702.2 M346,715.9l15.4-13c0,1,0.3,2.1,0.3,2.7l-17.4,15
			C345,719.3,345.3,717.6,346,715.9 M325.1,722c-1.4-2.4-2.7-8.2-1.7-17.1c1.4-12.7,6.2-14.7,9.6-15c3.4-0.3,6.8,0,8.9,1.4
			c1,1,3.8,4.8,3.8,15c0,10.3-3.8,19.1-11.6,19.1C328.2,725.4,326.1,723.7,325.1,722 M354.9,687.5l-9.2,8.2c-0.3-1-0.7-1.7-1-2.4
			l8.5-7.5C353.8,686.1,354.2,686.8,354.9,687.5 M303.6,707c0-1,0-1.7,0-2.7l30.8-26.3c1,0,2.4,0.3,3.1,0.3l-9.6,8.2
			c-3.1,1-5.8,3.1-7.5,6.5L303.6,707C303.6,707.3,303.6,707,303.6,707 M361,714.1L336.4,735c-1.4,0.3-2.7,0.3-4.1,0.3l29.4-25
			C361.4,711.4,361.4,712.8,361,714.1 M359.3,719.3l-17.1,14.4c-1.7,0.7-3.1,1-5.1,1l23.6-20.2C360.3,716.5,359.7,717.9,359.3,719.3
			 M332.3,676.9c-17.1,0-30.1,12.3-29.7,31.8c0.3,19.1,17.4,31.8,33.8,31.5c17.8-0.3,30.1-13.7,30.1-31.1
			C366.5,690.9,350.8,676.9,332.3,676.9"/>
		<path fill="#1E3363" d="M706.3,733.3l15-12.7C718.3,726.1,713.5,730.9,706.3,733.3 M673.2,726.1l9.9-8.2c0.3,1,0.7,1.4,1,2.4
			l-9.2,7.9C674.5,727.5,673.9,726.8,673.2,726.1 M685.5,679.6l-15.4,13.3C673.5,686.1,679.3,681.7,685.5,679.6 M669.1,694.3
			l17.8-15c1.7-0.7,3.1-1,4.8-1l-24.3,20.9C668,697,668.7,695.7,669.1,694.3 M696.4,678.2l-29.7,25.3c0-1,0.3-2.7,0.7-3.8l25.3-21.5
			c0.7,0,1,0,1.4,0C694.7,677.9,695.7,677.9,696.4,678.2 M701.9,725.4c1-0.7,2.4-1.7,3.1-2.7l19.1-16.1c0,0.7,0,1.4,0,2.1
			c0,0.3,0,0.7,0,1l-30.1,26c-1,0-2.4,0-3.1-0.3L701.9,725.4z M695.7,726.8c0.3,0,0.3,0,0.7,0c1.4,0,2.7-0.3,4.1-0.7l-10.3,8.9
			c-1-0.3-2.1-0.3-2.7-0.7L695.7,726.8z M692,726.1c1,0.3,2.1,0.7,3.1,0.7l-8.9,7.5c-1-0.3-1.7-0.7-2.7-1L692,726.1z M688.9,724.7
			c1,0.7,1.4,1,2.4,1l-8.2,7.2c-1-0.3-1.7-1-2.4-1L688.9,724.7z M686.5,722.7c0.7,0.7,1,1,2.1,1.7l-8.2,7.2c-1-0.3-1.4-1-2.4-1.4
			L686.5,722.7z M685.8,722.3l-8.5,7.5c-0.7-0.7-1.4-1-2.1-1.7l9.2-7.9C685.1,721.3,685.5,722,685.8,722.3 M682.1,714.8
			c0.3,1,0.7,1.7,1,2.7l-9.9,8.5c-0.7-0.7-1-1-1.4-2.1L682.1,714.8z M681.4,711.1c0,1,0.3,2.1,0.7,2.7l-10.9,9.2
			c-0.7-0.7-1-1.4-1-2.4L681.4,711.1z M681,707.6c0,1,0,2.1,0.3,2.7l-11.6,9.9c-0.3-1-0.7-1.4-1-2.4L681,707.6z M681,703.5
			c0,0.7,0,1,0,2.1c0,0.7,0,1,0,1.4l-12.7,10.9c-0.3-1-0.7-1.7-1-2.7L681,703.5z M681.7,699.1c-0.3,1-0.3,2.4-0.3,3.4l-13.7,11.6
			c-0.3-1-0.3-1.7-0.7-2.7L681.7,699.1z M666.7,708l16.4-13.7c-0.7,1-1,2.7-1,4.4l-15,12.7C666.7,710,666.7,709.4,666.7,708
			 M696.1,685.8L696.1,685.8c-1.7,0-2.7,0-4.1,0.3l9.2-7.9c1,0.3,2.1,0.3,3.1,0.7L696.1,685.8z M700.2,686.5c-1-0.3-2.1-0.7-3.1-0.7
			l7.9-6.5c1,0.3,1.7,0.7,2.7,1L700.2,686.5z M703.3,687.8c-1-0.7-1.4-1-2.4-1l7.5-6.5c1,0.3,1.7,1,2.4,1L703.3,687.8z M705.3,689.9
			c-0.7-0.7-1-1-1.7-1.7l7.5-6.5c1,0.3,1.4,1,2.1,1.4L705.3,689.9z M707,692.6c-0.3-1-1-1.4-1.4-2.1l7.9-6.5c0.7,0.7,1.4,1,2.1,1.7
			L707,692.6z M709.1,698.4c-0.3-1-0.3-1.7-0.7-2.7l9.6-8.2c0.7,0.7,1,1.4,1.4,2.1L709.1,698.4z M709.8,702.2c0-1-0.3-2.1-0.3-2.7
			l10.3-8.9c0.7,1,1,1.4,1,2.4L709.8,702.2z M709.8,705.9c0-1,0-2.1,0-3.1l11.6-9.9c0.3,1,0.7,1.7,1,2.4L709.8,705.9z M709.8,710
			c0-1,0.3-2.4,0.3-3.4l12.7-10.6c0.3,1,0.7,1.7,1,2.7L709.8,710z M723.8,702.2l-15,12.7c0.3-1,0.7-2.4,0.7-3.8l13.7-11.6
			C723.4,700.1,723.4,701.2,723.8,702.2 M708.7,715.9l15.4-13c0,1,0.3,2.1,0.3,2.7l-17.4,15C707.4,719.3,708.1,717.6,708.7,715.9
			 M687.9,722c-1-2.4-2.7-8.2-1.7-17.1c1.4-12.7,6.2-14.7,9.6-15s6.8,0,8.9,1.4c1,1,3.8,4.8,3.8,15c0,10.3-3.8,19.1-11.6,19.1
			C691,725.4,688.9,723.7,687.9,722 M718,687.5l-9.6,8.2c-0.3-1-0.7-1.7-1-2.4l8.5-7.5C716.6,686.1,717.3,686.8,718,687.5
			 M666.7,707c0-1,0-1.7,0-2.7l30.4-26.3c1,0,2.4,0.3,3.1,0.3l-9.6,8.2c-3.1,1-5.8,3.1-7.5,6.5L666.7,707
			C666.7,707.3,666.7,707,666.7,707 M723.4,714.1L698.8,735c-1.4,0.3-2.7,0.3-4.4,0.3l29.4-25C724.1,711.4,723.8,712.8,723.4,714.1
			 M721.7,719.3l-17.1,14.4c-1.7,0.7-3.1,1-5.1,1l23.6-20.2C723.1,716.5,722.8,717.9,721.7,719.3 M695.1,676.9
			c-17.1,0-30.1,12.3-29.7,31.8c0.3,19.1,17.4,31.8,33.8,31.5c17.8-0.3,30.1-13.7,30.1-31.1C729.2,690.9,713.9,676.9,695.1,676.9"/>
		<path fill="#1E3363" d="M455,685.8L455,685.8L455,685.8L455,685.8L455,685.8 M438.3,732.9c-1,1-2.7,1.4-4.4,2.1l12.3-10.6
			C444.8,727.1,442.4,729.9,438.3,732.9 M423.6,735.7l23.9-20.5v2.1c0,0.3,0,0.7,0,1l-20.2,17.1C426.3,735.7,425,736,423.6,735.7
			 M406.5,730.9l9.2-8.2c0.7,0.7,1,1,1.7,1.7l-8.9,7.9C407.9,731.9,407.2,731.6,406.5,730.9C406.8,730.9,406.5,730.9,406.5,730.9
			 M404.1,728.8l9.9-8.5c0.3,0.7,1,1.4,1.4,2.1l-9.6,8.2C405.1,729.9,404.8,729.2,404.1,728.8 M394.5,685.8l9.6-8.2h3.4l-9.6,8.2
			H394.5z M392.1,685.8v-1.7l7.2-6.2h3.8l-9.6,8.2L392.1,685.8L392.1,685.8 M392.5,677.9h1.7l-2.1,1.7L392.5,677.9
			C392.1,677.9,392.1,677.9,392.5,677.9 M392.1,680.3l2.7-2.4h3.4l-6.5,5.5v-3.1H392.1z M420.9,678.2L420.9,678.2l-20.2,17.4v-3.1
			l17.1-14.7L420.9,678.2C420.9,677.9,420.9,677.9,420.9,678.2 M420.5,685.8h-2.7l3.1-2.7v2.4C420.9,685.8,420.9,685.8,420.5,685.8
			 M412.7,692.9l-12.3,10.6v-3.4l12.3-10.6V692.9L412.7,692.9z M413,717.2c0.3,1,0.7,1.7,1,2.7l-9.9,8.5c-0.7-0.7-1-1.4-1.4-2.1
			L413,717.2z M412.7,713.5v1.7c0,0.3,0,1,0,1l-10.6,9.2c-0.3-1-0.7-1.4-1-2.4L412.7,713.5z M412.7,709.7v3.1l-11.6,9.9
			c-0.3-1-0.3-1.7-0.7-2.7L412.7,709.7z M400.3,717.9v-1.7l12.3-10.6v3.1l-12,10.9C400.3,718.9,400.3,718.2,400.3,717.9
			 M400.3,712.4l12.3-10.6v3.1l-12.3,10.6V712.4L400.3,712.4z M400.3,687.8v-2.1c0-0.3,0-0.3-0.3-0.3h-1.4l9.9-7.9h3.8L400.3,687.8z
			 M400.3,688.5l12.7-10.6h3.8l-16.4,13.7L400.3,688.5L400.3,688.5z M412.7,696.7l-12.3,10.6v-3.1l12.3-10.6V696.7z M400.3,708.3
			l12.3-10.6v3.1l-12.3,10.6V708.3L400.3,708.3z M412.7,686.1v2.7l-12.3,10.6v-3.1L412.7,686.1C413,685.8,412.7,685.8,412.7,686.1
			 M413.3,685.8C413,685.8,413,685.8,413.3,685.8l7.5-6.5v3.1l-4.1,3.4H413.3z M411.6,733.6c-1-0.3-1.7-0.7-2.7-1l8.9-7.5
			c0.7,0.7,1.4,1,2.4,1L411.6,733.6z M420.9,726.5c1,0.3,2.1,0.7,3.1,0.7l-9.2,7.9c-1-0.3-2.1-0.7-2.7-1L420.9,726.5z M428.7,727.1
			l-9.9,8.2c-1,0-2.1-0.3-3.1-0.7l9.2-7.9c0.3,0,0.7,0,1,0C426.7,727.1,428,727.1,428.7,727.1 M438,720l9.6-8.2v3.1l-24.6,20.9
			c-1,0-2.4,0-3.4-0.3l10.3-8.5C434.5,725.8,437.3,723.7,438,720 M435.9,685.8l9.6-8.2h3.8l-10.6,8.9v-0.7c0-0.3,0-0.3-0.3-0.3
			C438.3,685.8,435.9,685.8,435.9,685.8z M431.8,685.8L431.8,685.8l8.9-8.2h3.8l-9.6,8.2H431.8z M431.8,677.9h3.4l-3.8,3.1
			L431.8,677.9L431.8,677.9 M440,677.9l-8.2,7.2v-3.4l4.4-3.8H440z M453.7,677.9l-15.4,13v-3.1l11.6-9.9H453.7z M449.9,685.8
			l4.8-4.4v3.1l-1.4,1C453.7,685.8,449.9,685.8,449.9,685.8z M439,698.4v-3.1l8.5-7.5v3.1L439,698.4z M447.5,695l-8.5,7.5v-3.1
			l8.5-7.5V695z M439,715.2l8.9-7.5v3.1l-9.2,7.9C438.6,717.9,438.6,716.5,439,715.2 M447.5,698.8l-8.5,7.5v-2.7l8.5-7.5V698.8z
			 M439,710.7v-3.1l8.5-7.5v3.4L439,710.7z M447.5,707l-8.9,7.5c0-0.7,0-1,0-1.7v-1.4l8.5-7.5C447.5,704.9,447.5,705.9,447.5,707
			 M455,677.9C455.4,677.9,455.4,677.9,455,677.9l0.3,3.1l-5.8,4.8h-1c-0.3,0-0.7,0-0.7,0.7c0,0,0,0.3,0,1l-8.5,7.5v-3.4L455,677.9
			L455,677.9z M446.5,723l-14,12c-1.4,0.3-2.7,0.7-4.4,0.7l19.1-16.4C447.2,720.3,447.2,721.7,446.5,723 M456.1,676.9
			c-1-1-1-0.7-2.7-0.7h-22.9c-0.3,0-0.7,0-0.7,0.3v10.6c0,0,1,0.7,1.7,1.4c1,0.7,1.7,1,1.7,1h3.1c0.7,0,0.7,0,0.7,0.3
			c0,0.7,0,20.9,0,23.9s-0.7,11.6-9.9,11.6c-9.2,0-9.9-8.2-9.9-12.7v-22.6c0-0.7,0-1,0.7-1h6.5c0.7,0,0.7,0,0.7-0.7v-8.2
			c0-0.3-1-1-1.7-2.4c-1-1-1.7-2.1-1.7-2.1h-29.7c-0.7,0-0.7,0-0.7,0.7v10.3c0,0.3,0.7,0.7,1.7,1c1,0.7,2.1,1.4,2.4,1.4h3.8
			c0.3,0,0.3,0,0.3,0.3v26.3c0,5.8,1,11.6,5.5,15.4c7.2,6.8,14.7,7.5,23.9,7.5s23.9-5.1,23.9-22.2v-26.3c0-0.3,0-0.7,0.3-0.7h6.5
			c0.3,0,0.3,0,0.3-0.3V680C459.1,680.3,457.1,677.6,456.1,676.9"/>
		<path fill="#1E3363" d="M540.5,721.7c-3.1,4.4-7.5,9.2-14.4,11.6l14.4-12.3C540.5,721.3,540.5,721.3,540.5,721.7 M515.2,735
			l20.5-17.4c0.7,0.3,1,1,2.1,1.4L519,734.7C518,735,516.6,735,515.2,735 M493.3,726.5l9.9-8.5c0.7,0.7,1,1.4,1.4,2.1l-9.9,8.2
			C494.7,727.5,494,727.1,493.3,726.5 M494.4,684.1c1.7-1.7,3.4-2.7,5.1-4.1l-7.9,6.5C492.7,685.8,493.3,685.1,494.4,684.1
			 M518.3,676.5l-33.2,28c0-1,0.3-2.4,0.3-3.4l29.1-24.6c1,0,2.1,0,2.7,0C517.6,676.5,518,676.5,518.3,676.5 M522.1,685.8
			c-1-0.3-1.7-0.7-2.7-1l6.8-6.2c1,0.7,1.4,1,2.4,1L522.1,685.8z M530.6,677.6L530.6,677.6L530.6,677.6L530.6,677.6z M538.8,678.2v1
			l-11.6,9.9c-0.7-0.7-1-1-1.7-1.7l11.6-9.9L538.8,678.2C538.8,677.6,538.8,677.9,538.8,678.2 M538.1,696.7h-1l1.7-1.4v1
			C538.8,696.7,538.8,696.7,538.1,696.7 M532.7,696.7l6.2-5.1v3.1l-2.7,2.1C535.1,696.7,533.7,696.7,532.7,696.7 M530.3,696.7
			c0,0-0.3-0.7-0.7-1.7l8.9-7.5v3.1l-6.8,6.2C530.9,696.7,530.3,696.7,530.3,696.7 M528.9,692.3l9.9-8.2v3.1l-8.9,7.9l0,0
			C529.6,693.6,529.2,692.9,528.9,692.3 M527.2,689.5l11.6-9.9v3.1l-9.9,8.5C528.2,691.2,527.9,690.2,527.2,689.5 M529.9,681
			c0.7,0.7,1,0,1-0.7v-1.7l1-1h3.8l-10.9,9.6c-0.7-0.7-1.4-1-2.4-1.4l6.5-5.5C529.2,680.6,529.6,681,529.9,681 M514.9,684.1l8.2-6.8
			c1,0.3,2.1,0.7,2.7,1l-6.8,6.2C517.3,684.1,516.2,684.1,514.9,684.1 M502.2,714.8c0.3,1,1,1.4,1,2.4l-9.9,8.5
			c-0.7-0.7-1-1-1.4-1.7L502.2,714.8z M500.9,712.1c0.3,1,0.7,1.7,1,2.7l-10.6,9.2c-0.7-0.7-1-1.4-1.4-2.1L500.9,712.1z
			 M500.2,708.7c0,1,0.3,2.1,0.7,2.7l-11.3,9.6c-0.3-0.7-1-1.4-1-2.4L500.2,708.7z M499.8,704.9c0,1,0,2.1,0.3,2.7l-12,10.3
			c-0.3-1-0.7-1.4-1-2.4L499.8,704.9z M500.2,700.8c0,1-0.3,2.1-0.3,3.1v0.3l-13,10.9c-0.3-1-0.7-1.7-1-2.7L500.2,700.8z
			 M513.9,684.1c-4.1,0.7-9.2,4.1-12,10.3l-16.4,14c0-1-0.3-2.4-0.3-3.1l33.8-28.7c1,0,2.4,0.3,3.1,0.7L513.9,684.1z M486.8,695.7
			l22.6-19.1c1.4-0.3,2.7-0.3,4.4-0.3l-28,23.9C486.2,698.4,486.2,697,486.8,695.7 M490.3,688.8l11.6-9.9c2.1-1,4.1-1.7,6.2-2.1
			l-20.9,17.8C487.9,692.6,489.2,690.6,490.3,688.8 M486.2,711.8c-0.3-1-0.3-1.7-0.7-2.7l15.7-13.7c-0.7,1.4-1,2.7-1,4.4
			L486.2,711.8L486.2,711.8 M507.4,722l-9.6,8.2c-0.7-0.7-1.4-1-2.1-1.4l9.9-8.2C506,720.6,506.7,721.3,507.4,722 M509.7,723.7
			l-9.6,8.2c-1-0.3-1.4-1-2.4-1l9.6-8.2C508.4,722.7,509.1,723,509.7,723.7 M503.6,732.9c-1-0.3-1.7-0.7-2.7-1l9.6-8.2
			c1,0.3,1.7,0.7,2.7,1L503.6,732.9z M513.5,725.1c1,0.3,2.4,0.3,3.1,0.3l-9.9,8.5c-1-0.3-1.7-0.7-2.7-1L513.5,725.1z M521.7,724.7
			C522.1,724.7,522.1,724.7,521.7,724.7l-11.6,9.9c-1,0-1.7-0.3-2.7-0.7l9.9-8.5C519,725.4,520.7,725.1,521.7,724.7 M533.3,716.5
			c0.7-0.7,0.7-0.7,1-0.3c0.3,0,0.7,0.3,1,1L514.5,735c-1,0-2.1,0-3.1-0.3l12-10.3C529.6,722,533,716.9,533.3,716.5 M540.2,720.6
			L524.8,734c-1.4,0.3-2.7,1-4.4,1l18.1-15.4C538.8,720,539.8,720.3,540.2,720.6 M544.3,722c-0.3-0.3-2.7-2.1-2.7-2.1
			s-6.8-5.1-7.5-5.8c-1-0.7-1-0.7-1.4,0.7c-0.3,0.7-4.4,7.9-13,8.9c-8.9,1-15.4-5.5-15.4-18.1c0-11.3,7.9-18.1,12.3-18.5
			c6.8-0.3,10.3,2.1,12.3,10.3c0,0,0.7,0.7,1,1c0.3,0.3,2.4,2.7,2.7,2.7h9.6c0.7,0,0.7,0,0.7-0.7v-20.2l-0.3-0.7
			c0,0-3.1-3.4-3.4-3.4h-9.6c-0.3,0-0.3,0-0.3,0.3v2.1v0.3l-0.3,0.3c-2.1-1.7-6.5-4.1-14.4-4.4c-3.4,0-10.6,0-17.8,4.8
			c-7.2,5.1-14.7,15-13.7,28.7c1.7,17.1,16.1,30.8,34.5,30.4c14.4-0.3,22.9-10.9,26.3-15.7C545,722.3,545,722.3,544.3,722"/>
		<path fill="#1E3363" d="M636.6,686.5h-2.1l2.7-2.1v1.4C636.6,686.5,636.6,686.5,636.6,686.5 M636.6,726.1v1l-7.5,6.5h-3.8l8.9-7.9
			h1.7C636.6,725.8,636.6,725.8,636.6,726.1 M635.9,733.3h-1.4l2.1-1.7v1C636.6,733.3,636.6,733.3,635.9,733.3 M629.8,733.3l6.5-5.5
			c0,1,0,2.1,0,2.7l-2.7,2.7L629.8,733.3L629.8,733.3z M620.9,733.3l8.9-7.9h3.8l-8.9,7.9H620.9z M608.6,732.9v-0.7l7.5-6.5l0,0
			l12.7-10.9v3.4l-18.1,15.4h-2.1C608.6,733.3,608.6,733.3,608.6,732.9 M608.9,725.8h1.7l-2.1,1.7v-1
			C608.6,725.8,608.6,725.8,608.9,725.8 M615.1,725.8l-6.5,5.8v-3.4l2.7-2.4H615.1z M600,726.1v1l-7.9,6.5h-3.8l9.2-7.9L600,726.1
			C600,725.8,600,725.8,600,726.1 M599,733.6h-1.4l2.4-2.1v1C600,733.3,599.7,733.6,599,733.6 M592.8,733.6l6.8-5.8v3.1l-3.1,2.7
			L592.8,733.6L592.8,733.6z M572,732.9v-1.4l20.2-17.1v3.1l-18.5,15.7L572,732.9C572,733.6,572,733.3,572,732.9 M572.3,725.8h1
			l-1.4,1v-1C572,725.8,572,725.8,572.3,725.8 M578.1,725.8l-6.2,5.1v-3.1l2.4-2.1C574.4,725.8,578.1,725.8,578.1,725.8z M572,686.1
			v-1.7l7.5-6.5h3.8l-9.9,8.2H572C572,686.5,572,686.5,572,686.1 M572.7,678.2h1.4L572,680v-1.4C572,678.2,572,678.2,572.7,678.2
			 M572,680.6l2.7-2.7h3.4l-6.5,5.5v-2.7H572z M600,678.6v1L579.2,697V694l18.8-15.7h1.7C600,678.2,600,678.2,600,678.6
			 M599.7,686.5h-2.4l2.7-2.4v1.7C600,686.5,600,686.5,599.7,686.5 M597.6,701.2l-18.5,15.7v-3.1l14.7-12.3L597.6,701.2L597.6,701.2
			z M602.1,701.2L579.2,721v-1v-2.4l19.1-16.4h1.4H602.1z M607.5,701.2h3.8l-9.9,8.2H598L607.5,701.2z M593.2,709.7l9.9-8.2h3.8
			l-9.9,8.2H593.2z M578.8,722l13-11.3v3.1l-13,11.3V722z M592.1,694l-13.3,11.3v-3.1l13.3-11.3V694z M578.8,709.7l13.3-11.3v2.4
			c0,0.7,0,0.7,0.3,0.7h0.3l-13.7,11.6L578.8,709.7L578.8,709.7z M592.1,698.1l-13.3,11.3v-3.1l13.3-11.3V698.1z M592.1,686.8v3.1
			l-13.3,11.3v-3.1L592.1,686.8L592.1,686.8 M592.8,686.5L592.8,686.5l7.2-6.2v3.1l-3.4,2.7h-3.8V686.5z M592.8,678.2
			c1.4,0,2.7,0,3.8,0l-17.8,15.4v-3.4L592.8,678.2z M588.4,678.2h3.8l-13.3,11.3v-2.4c0-0.7,0-0.7,0-0.7L588.4,678.2z M577.8,686.5
			H574l9.9-8.2c1,0,2.7,0,3.8,0L577.8,686.5z M592.8,725.8h3.8l-9.2,7.9h-3.8L592.8,725.8z M592.1,722.3v2.7v0.3l-9.2,7.9h-3.8
			L592.1,722.3z M592.1,722l-13.7,11.6h-3.8l17.4-15V722z M616.1,701.2L616.1,701.2l-9.9,8.2h-3.8l9.9-8.2H616.1z M611,686.5
			l9.9-8.2h3.8l-9.9,8.2H611z M608.6,685.8c0,0,0-0.7,0-1l7.9-6.5h3.8l-9.9,8.2h-1.4C608.6,686.5,608.6,686.1,608.6,685.8
			 M608.9,678.2h2.1l-2.4,2.1C608.6,679.3,608.6,678.6,608.9,678.2C608.6,678.2,608.6,678.2,608.9,678.2 M608.6,680.6l3.1-2.7h3.8
			l-6.8,5.8C608.6,683,608.6,682,608.6,680.6 M636.6,678.6v1L616.1,697V694l18.5-15.7L636.6,678.6
			C636.6,678.2,636.6,678.2,636.6,678.6 M629.8,686.5l7.2-6.2v3.1l-3.4,2.7h-3.8V686.5z M616.4,689.2v-2.4c0-0.3,0-0.3-0.3-0.3h-0.3
			l9.9-8.2h3.8L616.4,689.2z M616.4,689.9l13.7-11.6h3.8l-17.4,15V689.9z M616.4,701.2L616.4,701.2v-3.1l12.7-10.6v3.1L616.4,701.2z
			 M629.1,694.3L611,709.7h-3.8l21.9-18.8V694.3z M616.4,721.7l12.7-10.6v3.1l-12.7,10.9V721.7z M629.1,699.1v3.1l-12.7,10.6V710
			c0-0.3,0-0.3,0-0.3L629.1,699.1z M629.1,698.4L615.4,710h-3.8l17.1-14.7v3.1H629.1z M629.1,705.9l-12.7,10.6v-3.1l12.7-10.6V705.9
			z M629.1,710l-12.7,10.6v-3.1l12.7-10.6V710z M629.1,722l-13.7,11.6h-3.8l17.1-14.7v3.1H629.1z M629.1,725.8l-9.2,7.9h-3.4
			l12.7-10.6V725.8L629.1,725.8 M641.7,680.6c0-0.3-3.1-3.4-3.1-3.4s-0.7-0.7-1-0.7c-0.7,0-28.7,0-29.4,0c-1,0-1,0-1,1v8.9
			c0,0.3,0.3,0.3,1,1s2.1,2.1,2.4,2.4s0.7,0.7,1,0.7c0.3,0,2.7,0,3.1,0c0.7,0,0.7,0,0.7,0.3v8.5c0,0.3,0,0.3-1,0.3h-6.2h-10.6
			c-0.3,0-0.3,0-0.3-0.3s0-8.2,0-8.5s0-0.3,0.3-0.3h6.8c0,0,0.7,0,0.7-0.7s0-2.7,0-4.8c0-1.7,0.3-4.1,0-4.4c0-0.3-0.7-0.7-0.7-0.7
			l-2.7-2.7c0,0-0.3-0.7-1-0.7h-29.4c-0.7,0-1,0.3-1,1v9.2c0,0.3,0.3,0.7,0.7,1c0.3,0.3,2.7,2.7,2.7,2.7h3.1c0.3,0,0.3,0,0.3,0.7
			v33.2c0,0.7,0,0.7-0.3,0.7h-6.2c-0.7,0-1,0.3-1,0.7v9.9c0,0.3,0.3,0.7,0.7,1c0.3,0.3,2.4,2.4,2.7,2.4s1,0,2.1,0c1,0,27.4,0,28,0
			s0.7-0.3,0.7-1v-9.2c0-0.3-3.1-3.1-3.4-3.1h-3.8c-0.3,0-0.3,0-0.3-0.3v-9.9c0-0.3,0-0.7,0.7-0.7H614c0.3,0,0.3,0,0.3,0.3v9.9
			c0,0.3,0,0.7-0.7,0.7h-6.5c-0.7,0-1,0-1,0.7v9.6c0,0.3,0.3,0.7,0.7,0.7c0.3,0.3,1.4,1.4,2.1,2.1s1,1,1,1c0.3,0,7.9,0,11.3,0
			c3.1,0,18.1,0,18.8,0c1,0,1-0.3,1-0.7s0-8.9,0-9.2s-2.7-2.7-2.7-3.1c-0.3-0.3-0.7-0.7-1-0.7c-0.3,0-3.1,0-3.4,0s-0.7,0-0.7-0.3
			s0-32.1,0-32.8c0-1,0.3-1,0.7-1h6.5c0,0,0.7,0,0.7-0.7s0-2.1,0-3.8C641.7,684.1,641.7,681,641.7,680.6"/>
		<path fill="#1E3363" d="M806.9,733.6h-2.1l2.4-2.1v1.4C807.2,733.6,807.2,733.6,806.9,733.6 M795.9,733.6l11.3-9.6v3.1l-7.5,6.5
			C799.7,733.6,795.9,733.6,795.9,733.6z M793.9,733.3c0,0-0.3-0.3-0.7-1l14-12v2.7l-12,10.3H793.9L793.9,733.3 M772.3,725.8
			l-9.6,8.2H759l9.6-8.2H772.3z M775.7,725.8v1l-8.2,7.2h-3.8l9.6-8.2h2.1C775.7,725.8,775.7,725.8,775.7,725.8 M775.7,733.6H773
			l2.7-2.4V733.6L775.7,733.6 M768.6,733.6l7.5-6.5c0,1,0,2.1,0,3.1l-3.8,3.1h-3.8V733.6z M752.2,733.3v-1.4l7.5-6.5
			c0.7,0,0.7-0.3,0.7-0.7l8.2-7.2v3.1l-14.7,12.7h-1C752.2,733.6,752.2,733.6,752.2,733.3 M752.2,727.8l2.7-2.4h3.8l-6.5,5.5V727.8
			L752.2,727.8z M752.2,725.8h1.4l-1.7,1.4L752.2,725.8L752.2,725.8 M754.9,686.1l9.6-8.2h3.8l-9.6,8.2c-1,0-2.1,0-2.7,0
			C755.6,686.1,755.2,686.1,754.9,686.1 M752.2,684.7l7.9-6.5h3.8l-9.6,8.2c-1,0-1.7,0-1.7-0.3C752.2,685.8,752.2,685.4,752.2,684.7
			 M752.2,678.2h2.1l-2.4,2.1C752.2,679.3,752.2,678.6,752.2,678.2L752.2,678.2 M752.2,683c0-0.7,0-1,0-2.1l3.1-2.7h3.8l-6.8,6.2
			C752.2,683.7,752.2,683.4,752.2,683 M775.7,679.3L760,692.9v-3.4l13.3-11.3h1.7C775.1,678.2,775.4,678.6,775.7,679.3 M796.9,685.8
			l9.2-7.9h3.8l-10.3,8.9v-0.3c0-0.7,0-0.7-0.7-0.7L796.9,685.8L796.9,685.8z M792.8,685.8c-0.3,0-0.7,0-0.7-0.3l8.9-7.5h3.8
			l-9.2,7.9C794.6,685.8,793.2,685.8,792.8,685.8 M792.8,678.2h2.7l-3.4,2.7v-2.4C792.5,678.2,792.5,678.2,792.8,678.2 M792.5,681.7
			l4.4-3.4h3.8l-8.2,6.8V681.7z M807.2,696l-7.9,6.5c0-1,0-2.1,0-3.1l7.9-6.5V696z M807.2,716.5v3.1l-14.4,12.3c-0.3-0.7-1-1-1-2.1
			L807.2,716.5z M807.2,712.8v3.1l-16.1,13.7c-0.3-0.7-1-1.4-1-2.1L807.2,712.8z M798.3,716.5C798.3,716.5,798.7,716.5,798.3,716.5
			c1,1,1,0.7,1-0.3v-1l7.9-6.5v3.1l-17.4,15c-0.3-0.7-1-1.4-1-2.1L798.3,716.5z M796.6,713.8c0.7,1,1,1.7,1,2.1l-9.9,8.2
			c-0.3-0.7-1-1.4-1-2.1L796.6,713.8z M799.3,707.6l7.9-6.5v3.1l-7.9,6.5C799.3,709.4,799.3,708.7,799.3,707.6 M799.3,690.9v-3.1
			l11.3-9.6h3.8L799.3,690.9z M799.3,695.3l7.9-6.5v3.4l-7.9,6.5V695.3z M807.2,700.1l-7.9,6.5v-3.1l7.9-6.5
			C807.2,697.7,807.2,698.8,807.2,700.1 M807.2,707.6l-7.9,6.5v-3.1l7.9-6.5V707.6z M815.1,685.8l-0.7,0.7h-4.1l4.4-4.1L815.1,685.8
			L815.1,685.8z M815.1,681.7l-5.5,4.4h-1.7c-0.3,0-0.3,0-0.3,0.7v1l-7.9,6.5v-2.7l15.4-13.3v0.3V681.7L815.1,681.7z M795.2,711.1
			c0.7,1,1,1.4,1.4,2.1l-9.9,8.2c-0.3-0.7-1-1.4-1-2.1L795.2,711.1z M793.5,708.7c0.7,1,1,1.4,1,2.1l-9.6,8.2c-0.3-0.7-1-1.4-1-2.1
			L793.5,708.7z M792.2,705.9c0.3,0.7,1,1.4,1,2.1l-9.6,8.2c-0.3-0.7-1-1.4-1-2.1L792.2,705.9z M790.4,703.2c0.7,1,1,1.4,1.4,2.4
			l-9.6,8.2c-0.3-1-1-1.4-1.4-2.4L790.4,703.2z M788.7,700.5c0.7,0.7,1,1.4,1,2.1l-9.6,8.2c-0.3-0.7-1-1.4-1-2.1L788.7,700.5z
			 M787,698.1c0.7,0.7,1,1.4,1,2.1l-9.6,8.2c-0.3-1-1-1.4-1-2.1L787,698.1z M785.7,695.3c0.7,0.7,1,1.4,1.4,2.1l-9.2,8.2
			c-0.7-1-1-1.4-1-2.4L785.7,695.3z M784,692.9c0.3,0.7,1,1.4,1,2.1l-9.2,8.2c-0.7-1-1-1.4-1-2.1L784,692.9z M782.6,690.2
			c0.3,0.7,1,1.4,1,2.1l-9.2,8.2c-0.3-1-1-1.4-1-2.1L782.6,690.2z M768.6,705.6l-8.2,6.8v-2.7l8.2-7.2V705.6z M768.6,725.4l-9.9,8.2
			h-4.1l13.7-11.6L768.6,725.4L768.6,725.4z M760,721.3l8.2-7.2v3.1l-8.2,7.2V721.3z M759.7,686.1L759.7,686.1l9.2-8.2h3.4
			L760,688.5v-1.7C760,686.1,760,686.1,759.7,686.1 M760,696.7v-3.1l16.1-13.7c0.3,0.7,1,1,1.4,2.1L760,696.7z M769.9,692.3
			c-1-1.7-1.4-0.7-1.4,0.7v1l-8.2,6.8v-3.1l17.4-15c0.3,0.7,1,1.4,1,2.1L769.9,692.3z M771.3,694.7c-0.7-1-1-1.7-1-2.4l9.2-7.9
			c0.3,0.7,1,1.4,1,2.1L771.3,694.7z M760,705.6l8.2-7.2v3.1l-8.2,7.2V705.6z M760,701.5l8.2-7.2c0,1,0,2.1,0,3.1l-8.2,7.2V701.5z
			 M768.6,709.4l-8.2,7.2v-3.1l8.2-7.2V709.4z M768.6,713.1l-8.2,7.2v-3.1l8.2-7.2V713.1z M782.2,689.5l-9.2,7.9c-0.7-1-1-1.4-1-2.4
			l9.2-7.9C781.2,688.2,781.6,689.2,782.2,689.5 M807.2,730.9l-3.1,2.7h-3.4l6.5-5.5V730.9z M817.1,677.9c-0.3-0.3-0.7-0.7-1-1
			c-0.3-0.3-1-0.7-1-0.7s-23.2,0-23.9,0s-0.7,0-0.7,0.3v9.9c0,0.3,2.4,2.1,2.7,2.7c0.7,0.7,1,1,1,1c0.3,0,2.4,0,2.7,0
			c0.3,0,0.3,0,0.3,0.3v17.1c0,0.3,0,0-0.3,0l-5.1-8.2l-10.3-17.1l-5.8-4.4l-1.4-1h-23.9c-0.7,0-0.7,0-0.7,0.7c0,0.7,0,9.6,0,9.9
			s2.4,2.1,2.7,2.4c0.7,0.3,1,0.7,1,1c0.3,0,3.1,0,3.4,0s0.3,0.3,0.3,0.7v32.8c0,0.7,0,1-0.7,1s-1,0-2.7,0c-1.7,0-3.1,0-3.8,0
			s-0.7,0-0.7,1s0,2.1,0,3.4c0,1,0,2.4,0,3.8l0,0l0,0c0,1,0,2.4,0,2.7c0,0.3,2.7,3.1,3.1,3.1h26c1,0,1,0,1-0.7s0-9.2,0-9.6
			s-0.3-0.7-0.7-1c-0.3-0.3-2.7-3.1-2.7-3.1H772c-0.3,0-0.3,0-0.3-0.7v-21.5c0-1,0.3-0.7,0.7,0c0.3,0.7,19.5,33.5,19.5,33.5l4.1,3.4
			h14c1,0,1,0,1-1v-46.5c0-1,0-1,0.7-1h6.5c0.3,0,0.3,0,0.3-0.7v-9.2C819.5,680.3,818.1,678.9,817.1,677.9"/>
	</g>
	<g>
		<path fill="#1E3363" d="M825,676.9c1.7,0,3.1,1.4,3.1,3.1c0,1.7-1.4,3.1-3.1,3.1s-3.1-1.4-3.1-3.1
			C821.9,678.2,822.9,676.9,825,676.9z M822.2,680c0,1.4,1,2.7,2.7,2.7c1.4,0,2.7-1,2.7-2.7c0-1.4-1-2.7-2.7-2.7
			S822.2,678.6,822.2,680z M826.3,681h-0.7l-1-1h-0.3v1h-0.7v-2.7h1c0.7,0,1,0.3,1,1c0,0.3-0.3,0.7-0.7,1L826.3,681z M824.6,680
			c0.3,0,0.7-0.3,0.7-0.7s-0.3-0.7-0.7-0.7h-0.3L824.6,680L824.6,680L824.6,680z"/>
	</g>
</g>
</svg>
