<?xml version="1.0" encoding="utf-8"?>
<!-- Generator: Adobe Illustrator 21.0.2, SVG Export Plug-In . SVG Version: 6.00 Build 0)  -->
<svg version="1.1" id="Layer_1" xmlns="http://www.w3.org/2000/svg" xmlns:xlink="http://www.w3.org/1999/xlink" x="0px" y="0px"
	 viewBox="0 0 612.3 370" style="enable-background:new 0 0 612.3 370;" xml:space="preserve">
<style type="text/css">
	.st0{fill:#705D50;}
	.st1{fill:#FFFFFF;}
	.st2{fill:none;stroke:#FFFFFF;stroke-width:0.7652;stroke-miterlimit:10;}
	.st3{fill:none;stroke:#FFFFFF;stroke-width:0.3877;}
	.st4{fill:#BCD19E;}
</style>
<g>
	<path class="st0" d="M47.3,97.1L58,88.2C56.5,92.2,51.9,95.6,47.3,97.1 M32.6,98.2l25.1-21.3c0.3,0.9,0.6,1.7,0.9,2.6L36.4,98.2
		c-1.4,0-2.6,0-2.6,0H32.6z M1.7,98v-1.4l20.5-17.3c0,1.2,0,2,0,3.2L3.8,98H1.7C1.7,98.2,1.7,98.2,1.7,98 M2,89.9h2l-2.3,2L2,89.9
		C1.7,89.9,1.7,89.9,2,89.9 M9,89.9L2.1,96v-3.2l3.2-2.6H9V89.9z M2,50.4v-1.2l7.5-6.3h3.8l-9.2,7.5C2.9,50.4,2.3,50.4,2,50.4
		L2,50.4 M2,42.6h1.7L2,44.3V42.6L2,42.6 M2,45.2l2.9-2.3h3.7L2,48.7C2,48.6,2,45.2,2,45.2z M31.7,42.6L9.8,61.3v-3.2L28,42.5
		C29.4,42.6,30.6,42.6,31.7,42.6 M41,42.9L31.5,51c-0.3,0-0.6,0-0.9,0c-0.9,0-1.7,0-2.6,0l9.8-8.4h0.9C38.1,42.6,39.2,42.6,41,42.9
		 M45,43.4l-8.9,7.8c-1.2,0-2.6,0-3.7,0l9.2-8.4c0.9,0,1.4,0,2,0.3C44.1,43.2,44.4,43.2,45,43.4 M51.6,45.5l-9.2,8.1
		c-0.6-0.6-1.2-1.2-1.7-1.7l8.7-7.5c0.6,0.3,1.2,0.3,1.4,0.6C51.1,45.2,51.3,45.5,51.6,45.5 M53.9,47.5l-10.4,8.9l0,0
		c0-0.6-0.6-1.4-0.9-2.3l9.5-8.1C52.8,46.3,53.4,46.9,53.9,47.5 M48.8,66.5c-1.2,0.3-2.3,0.6-3.2,0.9l11.2-9.5
		C56,61,53.9,64.2,48.8,66.5 M53.1,72l-8.7,7.5c-0.3-0.9-0.6-1.7-0.9-2.6l7.2-6.3C51.6,70.8,52.2,71.4,53.1,72 M38.4,89.3
		c1.2-0.3,2-0.9,2.9-1.4s1.7-1.4,2.6-2.9L56,74.6c0.6,0.6,0.9,1.2,1.4,2L31.7,98.5H28L38.4,89.3z M33.2,89.9c0.9,0,1.4,0,2,0
		c0.9,0,1.4,0,2-0.3l-10.1,8.7h-4L33.2,89.9z M28.6,89.9c1.2,0,2.6,0,3.7,0l-9.8,8.4h-3.7L28.6,89.9z M23.9,89.9h3.7l-10.1,8.4h-3.7
		L23.9,89.9z M22.2,87.3v2c0,0.3,0,0.6,0.3,0.6h0.3L13,98.3H9.2L22.2,87.3z M22.2,86.4L8.4,98.2H4.6l17.6-15
		C22.2,83.2,22.2,86.4,22.2,86.4z M41,74.3c-0.6-0.3-1.4-0.9-2.3-1.2l5.8-4.9c0.6,0.3,1.7,0.3,2.9,0.9L41,74.3z M41.8,85
		c-1.7,2.3-3.7,3.2-5.8,3.5c-1.7,0-8.7,0-8.9,0s-0.3,0-0.3-0.3s0-10.1,0-10.7s0-0.9,0.6-0.9c0.3,0,10.4,0,12.1,0
		c1.7,0.3,2.6,0.6,3.2,0.9c0.3,0.3,0.9,0.6,0.9,2.6C43.3,81.5,43,83.8,41.8,85 M44.4,80.1l9.2-7.8c0.6,0.6,1.2,0.9,1.7,1.7
		l-11.2,9.8C44.4,82.4,44.7,81.2,44.4,80.1 M48.2,69.4c0.6,0.3,1.4,0.6,2,0.9L43,76.4c-0.3-0.3-0.6-0.9-0.9-1.2
		c-0.3-0.3-0.3-0.3-0.6-0.6l6.1-5.2C47.9,69.4,48.2,69.4,48.2,69.4 M56.8,57L44.4,67.7c-0.6,0-1.2,0.3-1.2,0.3v0.3c0,0,0,0,0.3,0
		L38,73.2c-0.3,0-0.6,0-0.9-0.3c-0.9-0.3-1.4,0-2.6,0l0,0l22.2-19C56.8,54.7,57.1,55.8,56.8,57 M41.3,63.1c0.3-0.3,0.6-0.3,0.9-0.6
		l0,0l14.1-11.8c0.3,0.6,0.6,1.4,0.6,2V53L33.8,72.6c-0.9,0-2.3,0-3.7,0L41.3,63.1z M25.4,72.6l9.5-8.1c1.4,0,2.3,0,2.6,0
		c0.6,0,1.2-0.3,1.4-0.3l-10.1,8.7C27.7,72.6,26.5,72.6,25.4,72.6 M9.8,85.8l12.4-10.4v3.2L9.8,89V85.8z M9.8,54.1l13.6-11.5h3.7
		L9.8,57.3V54.1z M22.2,58.7L9.8,69.4v-3.5l12.4-10.4V58.7z M9.8,77.8l15.6-13.3c1.2,0,2.6,0,3.7,0L9.5,81.2v-3.5h0.3V77.8z M9.8,74
		l12.4-10.7v0.6c0,0.3,0,0.3,0.3,0.3c0,0,0.9,0,2.3,0L10.1,76.9V74H9.8z M9.8,70l12.4-10.7v3.2L9.8,72.9V70z M22.8,72.6
		c-0.6,0-0.6,0.3-0.6,0.6v1.4L9.8,85v-3.2l20.5-17.3c1.4,0,2.6,0,3.7,0l-9.5,8.1C23.4,72.6,22.8,72.6,22.8,72.6 M43.6,57l10.7-9.2
		c0.6,0.6,1.2,1.4,1.4,2L43,60.5C43.6,59.6,43.8,58.2,43.6,57 M38.1,51.2c-0.3,0-0.9,0-1.4,0l8.9-7.5c0.9,0.3,1.7,0.3,2.9,0.9
		l-8.7,7.2C39.2,51.2,38.7,51.2,38.1,51.2 M37.8,54.7c2.3,0,3.2,0.6,3.7,0.9c0.6,0.3,0.9,0.6,0.9,1.2c0.3,0.6,0.3,2,0,3.2
		c-0.3,1.4-1.4,3.2-4,3.5c-2,0.3-11,0.3-11.2,0.3c-0.3,0-0.3,0-0.3-0.3V55c0-0.3,0-0.3,0.3-0.3C27.1,54.7,37.2,54.7,37.8,54.7
		 M23.1,50.9l9.8-8.4h3.7l-10.1,8.4C25.1,50.9,23.7,50.9,23.1,50.9 M22.2,54.7L9.8,65.4v-3.2l12.4-10.7V54.7z M18.8,42.6h3.7
		l-12.7,11v-2.3c0-0.3,0-0.6-0.3-0.6L18.8,42.6z M8.7,50.4c-0.9,0-2.3,0-3.7,0l9.2-7.8c1.2,0,2.6,0,3.7,0L8.7,50.4z M41,98.2
		c-1.4,0-2.6,0-3.7,0L58.6,80c0.3,0.9,0.3,2,0.3,3.2L41,98.2z M43.3,98c-0.6,0-0.9,0-1.4,0l16.7-14.1c0,1.2-0.3,2-0.6,3.2L45.9,97.8
		C45,97.7,44.1,98,43.3,98 M60.3,76.9c-2.6-3.7-8.1-6.3-8.4-6.3c-0.3,0-0.3,0,0-0.3c0,0,4.3-2,6.3-4.3c2.3-2.6,3.7-5.5,2.9-11
		c-1.2-7.2-7.5-13-20.2-13.8c-4.3-0.3-7.8-0.3-9.5-0.3c-2,0-3.5,0-8.1,0.3c-4.6,0-20.5,0-21.6,0s-1.4,0-1.4,0.6v9.8
		c0,0,0.6,0.6,1.2,1.2s2.3,2,2.3,2s0,0,0.3,0h3.7v0.3c0,0,0,32,0,32.9c0,0.6,0,0.9-0.3,0.9s-7.2,0-7.5,0c0.3,0,0.3,0,0.3,0.3
		c0,0,0,9.8,0,10.1c0,0.3,0.3,0.3,0.6,0.9c0.3,0.3,2.6,2.3,3.2,2.6c0.3,0,0.6,0.3,0.9,0.3h17.6c0,0,21.6-0.3,25.1-0.6
		c6.3-0.6,12.4-4.6,14.7-11.2C64,85.6,62.9,80.7,60.3,76.9"/>
	<path class="st0" d="M127.5,98.5l15-12.7C139.6,91.3,134.7,95.9,127.5,98.5 M94.3,91l9.8-8.4c0.3,0.9,0.6,1.4,1.2,2.3l-9.2,7.8
		C95.5,92.2,94.9,91.6,94.3,91 M106.4,44.6L90.8,57.9C94.6,51.2,100.4,46.6,106.4,44.6 M90.3,59l17.6-15c1.7-0.6,3.2-0.9,4.9-0.9
		L88.6,63.9C89.1,62.2,89.7,60.5,90.3,59 M117.4,42.9L87.7,68.3c0-1.2,0.3-2.6,0.6-3.7L113.7,43c0.6,0,0.9,0,1.4,0
		C116,42.9,116.8,42.9,117.4,42.9 M123.2,90.2c1.2-0.6,2.3-1.7,3.2-2.6l19-16.2c0,0.6,0,1.4,0,2c0,0.3,0,0.6,0,0.9l-30.3,26
		c-1.2,0-2.3,0-3.2-0.3L123.2,90.2z M116.8,91.6c0.3,0,0.3,0,0.6,0c1.4,0,2.6-0.3,4-0.6L111,99.9c-1.2-0.3-2-0.3-2.9-0.6L116.8,91.6
		z M112.8,91c0.9,0.3,2,0.6,3.2,0.6l-8.7,7.5c-0.9-0.3-1.7-0.6-2.6-0.9L112.8,91z M109.9,89.9c0.9,0.6,1.4,0.9,2.3,1.2l-8.4,7.2
		c-0.9-0.3-1.7-0.9-2.3-1.2L109.9,89.9z M107.3,87.9c0.6,0.6,1.2,1.2,2,1.7l-8.4,7.2c-0.9-0.3-1.4-0.9-2.3-1.4L107.3,87.9z
		 M107,87.3l-8.7,7.5c-0.6-0.6-1.4-1.2-2-1.4l9.2-7.8C105.9,86.1,106.4,86.7,107,87.3 M103,79.5c0.3,0.9,0.6,1.7,0.9,2.6l-10.1,8.7
		c-0.6-0.6-0.9-1.2-1.4-2L103,79.5z M102.4,76c0,0.9,0.3,2,0.6,2.9l-11,9.2c-0.6-0.6-0.9-1.4-1.2-2L102.4,76z M102.1,72.6
		c0,1.2,0,2,0.3,2.9L90.6,85.6c-0.3-0.9-0.6-1.4-1.2-2.3L102.1,72.6z M102.1,68.5c0,0.6,0,1.2,0,2c0,0.6,0,0.9,0,1.4l-12.7,11
		c-0.3-0.9-0.6-1.7-0.9-2.6L102.1,68.5z M102.7,64.2c-0.3,1.2-0.3,2.3-0.3,3.5L88.6,79.5c-0.3-0.9-0.3-1.7-0.6-2.9L102.7,64.2z
		 M87.7,73.2l16.4-13.8c-0.6,1.2-0.9,2.6-1.2,4.3l-15,12.7C87.7,75.2,87.7,74,87.7,73.2 M117.4,50.9h-0.3c-1.4,0-2.6,0-3.7,0.3
		l9.2-7.8c1.2,0.3,2,0.3,3.2,0.6L117.4,50.9z M121.1,51.5c-0.9-0.3-2-0.6-3.2-0.6l7.8-6.6c0.9,0.3,1.7,0.6,2.6,0.9L121.1,51.5z
		 M124.3,53c-0.9-0.6-1.4-0.9-2.3-1.2l7.5-6.3c0.6,0.3,1.4,0.6,2.3,1.2L124.3,53z M126.6,55c-0.6-0.6-1.2-1.2-1.7-1.7l7.5-6.3
		c0.9,0.3,1.4,0.9,2,1.4L126.6,55z M128.4,57.3c-0.3-0.9-0.9-1.4-1.4-2l7.8-6.6c0.6,0.6,1.4,1.2,2,1.7L128.4,57.3z M130.4,63.6
		c-0.3-0.9-0.3-1.7-0.6-2.6l9.5-8.1c0.6,0.6,0.9,1.4,1.4,2L130.4,63.6z M130.7,67.1c0-1.2-0.3-2-0.3-2.9l10.4-8.9
		c0.6,0.9,0.9,1.4,1.2,2.3L130.7,67.1z M130.9,71.1c0-1.2,0-2,0-3.2l11.5-9.8c0.3,0.9,0.6,1.7,0.9,2.3L130.9,71.1z M130.7,75.2
		c0-1.2,0.3-2.3,0.3-3.5L143.7,61c0.3,0.9,0.6,1.7,0.9,2.6L130.7,75.2z M144.8,67.1l-14.7,12.7c0.3-1.2,0.6-2.3,0.6-3.7l13.8-11.8
		C144.5,65.1,144.8,66.2,144.8,67.1 M129.8,80.7l15.3-13c0,0.9,0.3,2,0.3,2.9l-17.6,15C128.6,84.1,129.2,82.7,129.8,80.7 M109,87.3
		c-1.2-2.3-2.6-8.4-1.7-17.3c1.4-12.7,6.1-14.7,9.5-15c3.5-0.3,6.9,0,8.9,1.4c1.2,0.9,3.7,4.9,3.7,14.7c0,10.4-3.7,19-11.8,19
		C112.2,90.5,109.9,88.7,109,87.3 M138.7,52.4l-9.2,8.1c-0.3-0.9-0.6-1.7-0.9-2.3l8.7-7.5C137.6,51.2,138.2,51.8,138.7,52.4
		 M87.7,71.7c0-0.9,0-1.7,0-2.6l30.6-26c1.2,0,2.3,0.3,3.2,0.3l-9.5,8.1c-3.2,0.9-5.8,3.2-7.5,6.3l-17,14.4
		C87.7,72.3,87.7,72,87.7,71.7 M144.8,78.9L120,100c-1.4,0.3-2.6,0.3-4,0.3l29.4-25.1C145.1,76.6,145.1,77.8,144.8,78.9 M143.1,84.4
		l-17,14.4c-1.7,0.6-3.2,0.9-5.2,1.2l23.6-20.2C144.2,81.5,143.6,83,143.1,84.4 M116.2,41.7c-17.3,0-30.3,12.4-30,31.4
		s17.6,31.7,34,31.4c17.9-0.3,30-13.6,30-31.1S134.7,41.7,116.2,41.7"/>
	<path class="st0" d="M490.3,98.5l15-12.7C502.4,91.3,497.5,95.9,490.3,98.5 M457.1,91l9.8-8.4c0.3,0.9,0.6,1.4,1.2,2.3l-9.2,7.8
		C458.3,92.2,457.7,91.6,457.1,91 M469.5,44.6l-15.6,13.3C457.4,51.2,463.5,46.6,469.5,44.6 M453.1,59l17.6-15
		c1.7-0.6,3.2-0.9,4.9-0.9l-24.2,20.8C451.9,62.2,452.5,60.5,453.1,59 M480.5,42.9l-29.7,25.4c0-1.2,0.3-2.6,0.6-3.7L476.8,43
		c0.6,0,0.9,0,1.4,0C479.1,42.9,479.6,42.9,480.5,42.9 M486.3,90.2c1.2-0.6,2.3-1.7,3.2-2.6l19-16.2c0,0.6,0,1.4,0,2
		c0,0.3,0,0.6,0,0.9l-30.3,26c-1.2,0-2.3,0-3.2-0.3L486.3,90.2z M479.6,91.6c0.3,0,0.3,0,0.6,0c1.4,0,2.6-0.3,4-0.6l-10.4,8.9
		c-1.2-0.3-2-0.3-2.9-0.6L479.6,91.6z M475.9,91c0.9,0.3,2,0.6,3.2,0.6l-8.9,7.5c-0.9-0.3-1.7-0.6-2.6-0.9L475.9,91z M472.7,89.9
		c0.9,0.6,1.4,0.9,2.3,1.2l-8.4,7.2c-0.9-0.3-1.7-0.9-2.3-1.2L472.7,89.9z M470.4,87.9c0.6,0.6,1.2,1.2,2,1.7l-8.4,7.2
		c-0.9-0.3-1.4-0.9-2.3-1.4L470.4,87.9z M470.1,87.3l-8.7,7.5c-0.6-0.6-1.4-1.2-2-1.4l9.2-7.8C469,86.1,469.5,86.7,470.1,87.3
		 M466.1,79.5c0.3,0.9,0.6,1.7,0.9,2.6l-10.1,8.7c-0.6-0.6-0.9-1.2-1.4-2L466.1,79.5z M465.5,76c0,0.9,0.3,2,0.6,2.9l-11,9.2
		c-0.6-0.6-0.9-1.4-1.2-2L465.5,76z M465.2,72.6c0,1.2,0,2,0.3,2.9l-11.8,10.1c-0.3-0.9-0.6-1.4-1.2-2.3L465.2,72.6z M465.2,68.5
		c0,0.6,0,1.2,0,2c0,0.6,0,0.9,0,1.4l-12.7,11c-0.3-0.9-0.6-1.7-0.9-2.6L465.2,68.5z M465.5,64.2c-0.3,1.2-0.3,2.3-0.3,3.5
		l-13.8,11.8c-0.3-0.9-0.3-1.7-0.6-2.9L465.5,64.2z M450.5,73.2l16.4-13.8c-0.6,1.2-0.9,2.6-1.2,4.3l-15,12.7
		C450.8,75.2,450.5,74,450.5,73.2 M480.2,50.9h-0.3c-1.4,0-2.6,0-3.7,0.3l9.2-7.8c1.2,0.3,2,0.3,3.2,0.6L480.2,50.9z M484.2,51.5
		c-0.9-0.3-2-0.6-3.2-0.6l7.8-6.6c0.9,0.3,1.7,0.6,2.6,0.9L484.2,51.5z M487.1,53c-0.9-0.6-1.4-0.9-2.3-1.2l7.5-6.3
		c0.9,0.3,1.7,0.9,2.3,1.2L487.1,53z M489.4,55c-0.6-0.6-1.2-1.2-1.7-1.7l7.5-6.3c0.9,0.3,1.4,0.9,2,1.4L489.4,55z M491.2,57.3
		c-0.3-0.9-0.9-1.4-1.4-2l7.8-6.6c0.6,0.6,1.4,1.2,2,1.7L491.2,57.3z M493.2,63.6c-0.3-0.9-0.3-1.7-0.6-2.6l9.5-8.1
		c0.6,0.6,0.9,1.4,1.4,2L493.2,63.6z M493.8,67.1c0-1.2-0.3-2-0.3-2.9l10.4-8.9c0.6,0.9,0.9,1.4,1.2,2.3L493.8,67.1z M493.8,71.1
		c0-1.2,0-2,0-3.2l11.5-9.8c0.3,0.9,0.6,1.7,0.9,2.3L493.8,71.1z M493.8,75.2c0-1.2,0.3-2.3,0.3-3.5L506.8,61
		c0.3,0.9,0.6,1.7,0.9,2.6L493.8,75.2z M507.9,67.1l-15,12.7c0.3-1.2,0.6-2.3,0.6-3.7l13.8-11.8C507.6,65.1,507.6,66.2,507.9,67.1
		 M492.6,80.7l15.3-13c0,0.9,0.3,2,0.3,2.9l-17.6,15C491.5,84.1,492,82.7,492.6,80.7 M472.1,87.3c-1.2-2.3-2.6-8.4-1.7-17.3
		c1.4-12.7,6.1-14.7,9.5-15s6.9,0,8.9,1.4c1.2,0.9,3.7,4.9,3.7,14.7c0,10.4-3.7,19-11.8,19C475,90.5,472.7,88.7,472.1,87.3
		 M501.8,52.4l-9.2,8.1c-0.3-0.9-0.6-1.7-0.9-2.3l8.7-7.5C500.7,51.2,501.3,51.8,501.8,52.4 M450.5,71.7c0-0.9,0-1.7,0-2.6l30.6-26
		c1.2,0,2.3,0.3,3.2,0.3l-9.5,8.1c-3.2,0.9-5.8,3.2-7.5,6.3l-17,14.4C450.5,72.3,450.5,72,450.5,71.7 M507.6,78.9L482.8,100
		c-1.4,0.3-2.6,0.3-4,0.3l29.4-25.1C508.2,76.6,507.9,77.8,507.6,78.9 M505.9,84.4l-17,14.4c-1.7,0.6-3.2,0.9-5.2,1.2l23.6-20.2
		C507,81.5,506.7,83,505.9,84.4 M479.1,41.7c-17.3,0-30.3,12.4-30,31.4s17.6,31.7,34,31.4c17.9-0.3,30.3-13.6,30.3-31.1
		C513.4,55.8,497.8,41.7,479.1,41.7"/>
	<path class="st0" d="M238.8,50.9L238.8,50.9l0.3-0.3L238.8,50.9L238.8,50.9 M222.1,97.7c-1.2,0.9-2.6,1.4-4.3,2L230.2,89
		C228.7,92.2,226.1,95.1,222.1,97.7 M207.7,100.8l23.9-20.5v2c0,0.3,0,0.6,0,0.9l-20.2,17.3C210,100.8,208.8,100.8,207.7,100.8
		 M190.4,95.9l9.2-8.1c0.6,0.6,1.2,1.2,1.7,1.7l-8.9,7.8c-0.6-0.3-1.2-0.6-1.7-1.2C190.6,96.2,190.6,95.9,190.4,95.9 M188.1,93.9
		l10.1-8.7c0.3,0.6,0.9,1.4,1.4,2l-9.5,8.1C189.2,95.1,188.6,94.5,188.1,93.9 M178.5,50.9l9.2-8.1h3.5l-9.2,8.1H178.5z M176.2,50.7
		V49l7.2-6.1h3.5l-9.5,8.1L176.2,50.7C176.2,50.9,176.2,50.9,176.2,50.7 M176.5,42.9h1.7l-2,1.4v-1.2
		C176.2,42.9,176.2,42.9,176.5,42.9 M176.2,45.2l2.9-2.3h3.5l-6.3,5.2L176.2,45.2L176.2,45.2z M204.5,43.2v0.3l-20.2,17.3v-3.5
		l17.3-14.7h2.9C204.5,42.9,204.5,42.9,204.5,43.2 M204.2,50.7h-2.9l3.2-2.6v2.3C204.5,50.9,204.5,50.7,204.2,50.7 M196.7,58.2
		l-12.4,10.6v-3.5l12.4-10.7V58.2z M197,82.4c0.3,0.9,0.3,1.7,0.9,2.6l-10.1,8.7c-0.6-0.6-0.9-1.4-1.4-2L197,82.4z M196.7,78.6v1.7
		c0,0.3,0,0.9,0,1.2L186,90.7c-0.3-0.9-0.6-1.4-0.9-2.3L196.7,78.6z M196.7,74.6v3.2l-11.8,10.1c-0.3-0.9-0.3-1.7-0.6-2.9
		L196.7,74.6z M184.3,83v-1.7l12.4-10.7v3.2l-12.4,10.6C184.3,83.8,184.3,83.5,184.3,83 M184.3,77.2l12.4-10.7v3.2l-12.4,10.7V77.2z
		 M184.3,52.7V51c0-0.3,0-0.3-0.3-0.3h-1.4l9.5-7.8h3.7L184.3,52.7z M184.3,53.5L197,42.8h3.7l-16.4,13.9V53.5z M196.7,61.9
		l-12.4,10.7v-3.2l12.4-10.7V61.9z M184.3,73.4l12.4-10.7v3.2l-12.4,10.7V73.4z M196.7,51.2v2.9l-12.4,10.7v-3.2L196.7,51.2
		C196.7,50.9,196.7,50.9,196.7,51.2 M197,50.7L197,50.7l7.5-6.6v3.2l-4,3.5L197,50.7L197,50.7z M195.6,98.5
		c-0.9-0.3-1.7-0.6-2.6-1.2l8.9-7.5c0.6,0.6,1.4,0.9,2.3,1.2L195.6,98.5z M204.8,91.3c0.9,0.3,2,0.6,2.9,0.6l-8.9,7.8
		c-0.9-0.3-2-0.6-2.9-0.9L204.8,91.3z M212.6,91.9l-9.8,8.7c-1.2,0-2-0.3-3.2-0.6l9.2-7.8c0.3,0,0.6,0,0.9,0
		C210.5,92.2,211.7,92.2,212.6,91.9 M221.8,84.7l9.5-8.1v3.2l-24.5,21.1c-1.2,0-2.3,0-3.5-0.3l10.4-8.7
		C218.6,91,220.9,88.7,221.8,84.7 M219.8,50.9l9.5-8.1h3.7l-10.7,8.9v-0.6c0-0.3,0-0.3-0.3-0.3C222.1,50.9,219.8,50.9,219.8,50.9z
		 M215.7,50.9C215.5,50.9,215.5,50.9,215.7,50.9l8.9-8.1h3.7l-9.5,8.1H215.7z M215.7,42.9h3.5l-3.7,3.2v-2.9
		C215.5,42.9,215.5,42.9,215.7,42.9 M223.8,42.9l-8.4,7.2v-3.5l4.6-3.7H223.8z M237.7,42.9l-15,13v-3.5l11.5-9.8h3.5V42.9z
		 M233.9,50.9l4.9-4.3v3.2l-1.4,1.2C237.4,50.9,233.9,50.9,233.9,50.9z M222.7,63.6v-3.2l8.7-7.5v3.2L222.7,63.6z M231.3,60.2
		l-8.7,7.5v-3.5l8.7-7.5V60.2z M222.7,80.4l8.9-7.5v3.2l-9.2,7.8C222.4,82.7,222.7,81.5,222.7,80.4 M231.3,63.9l-8.7,7.5v-3.2
		l8.7-7.5V63.9z M222.7,75.5v-3.2l8.7-7.5v3.5L222.7,75.5z M231.3,72l-8.7,7.5c0-0.6,0-1.2,0-1.7v-1.4l8.7-7.5
		C231.3,70,231.3,70.8,231.3,72 M238.8,42.9c0.3,0,0.3,0,0.3,0.3v2.9l-5.8,4.9h-1.2c-0.3,0-0.6,0-0.6,0.6c0,0,0,0.3,0,0.9l-8.7,7.5
		v-3.5L238.8,42.9L238.8,42.9z M230.4,87.9L216.3,100c-1.4,0.3-2.9,0.6-4.3,0.6l19.3-16.4C231.3,85.6,231,86.7,230.4,87.9 M240,42
		c-0.9-0.9-0.9-0.6-2.3-0.6h-23.1c-0.3,0-0.6,0-0.6,0.3v10.7c0,0,0.9,0.6,1.7,1.4c0.9,0.6,1.7,1.2,1.7,1.2h3.2c0.6,0,0.6,0,0.6,0.3
		c0,0.6,0,20.8,0,23.9c0,3.2-0.6,11.5-10.1,11.5S201,82.3,201,78V55.5c0-0.6,0-0.9,0.6-0.9h6.6c0.6,0,0.6,0,0.6-0.6v-8.4
		c0-0.3-0.9-1.2-1.7-2.3c-0.9-1.2-1.7-2-1.7-2h-30c-0.6,0-0.6,0-0.6,0.6v10.4c0,0.3,0.6,0.6,1.7,1.2c1.2,0.6,2,1.4,2.3,1.4h3.7
		c0.3,0,0.3,0,0.3,0.3v26.2c0,5.8,1.2,11.5,5.5,15.6c6.9,6.9,14.7,7.5,23.9,7.5s23.6-5.2,23.6-22.2V55.2c0-0.3,0-0.6,0.3-0.6h6.6
		c0.3,0,0.3,0,0.3-0.3v-9.2C243.1,45.2,240.8,42.6,240,42"/>
	<path class="st0" d="M324.5,86.7c-3.2,4.3-7.5,9.2-14.4,11.8l14.4-12.4C324.5,86.1,324.5,86.4,324.5,86.7 M299.1,100l20.5-17.6
		c0.6,0.3,1.2,0.9,2,1.4l-18.7,15.9C301.7,100,300.5,100,299.1,100 M277.5,91.3l10.1-8.7c0.6,0.6,0.9,1.4,1.4,2l-9.8,8.4
		C278.6,92.5,278,91.9,277.5,91.3 M278.3,49.2c1.7-1.7,3.5-2.9,5.2-4l-7.8,6.6C276.6,50.9,277.5,50.1,278.3,49.2 M302.3,41.4
		l-33.2,28.3c0-1.2,0.3-2.3,0.3-3.5l28.8-24.8c1.2,0,2,0,2.9,0C301.7,41.4,302,41.4,302.3,41.4 M305.7,50.4
		c-0.9-0.3-1.7-0.6-2.6-0.9l6.9-6.1c0.9,0.3,1.4,0.9,2.3,1.2L305.7,50.4z M314.7,42.6L314.7,42.6L314.7,42.6L314.7,42.6z
		 M322.7,43.2v1.2l-11.8,10.1c-0.6-0.6-1.2-1.2-1.7-1.7l11.5-9.8h1.7C322.5,42.6,322.7,42.9,322.7,43.2 M322.2,61.9H321l1.7-1.4v0.9
		C322.7,61.9,322.5,61.9,322.2,61.9 M316.4,61.9l6.1-5.2v3.2l-2.6,2C319,61.9,317.5,61.9,316.4,61.9 M314.1,61.9
		c0,0-0.3-0.6-0.6-1.7l8.9-7.5v3.2l-6.9,6.1C315,61.9,314.4,61.9,314.1,61.9 M312.6,57.3l9.8-8.4v3.2l-8.9,7.8l0,0
		C313.5,58.7,313.2,57.9,312.6,57.3 M311.2,54.7l11.5-9.8v3.2l-10.1,8.7C312.1,55.8,311.8,55.3,311.2,54.7 M313.8,46
		c0.6,0.6,0.9,0,0.9-0.6v-1.7l1.2-0.9h3.7l-11,9.2c-0.6-0.6-1.4-0.9-2.3-1.4l6.3-5.5C313.2,45.8,313.5,46,313.8,46 M298.8,49.2
		l8.1-6.9c0.9,0.3,2,0.6,2.6,1.2l-7.2,6.1C301.1,49.2,300,49.2,298.8,49.2 M285.8,80.1c0.3,0.9,0.9,1.4,1.2,2.3l-10.1,8.7
		c-0.6-0.6-1.2-1.2-1.4-1.7L285.8,80.1z M285,77.2c0.3,0.9,0.6,1.7,0.9,2.3l-10.7,9.2c-0.6-0.6-0.9-1.4-1.4-2L285,77.2z M284.1,73.7
		c0,0.9,0.3,2,0.6,2.9l-11.2,9.5c-0.3-0.6-0.9-1.4-1.2-2.3L284.1,73.7z M283.8,70c0,1.2,0,2,0.3,2.9L272,83.3
		c-0.3-0.9-0.6-1.4-0.9-2.3L283.8,70z M284.1,65.9c0,0.9-0.3,2-0.3,3.2v0.3l-13,11c-0.3-0.9-0.6-1.7-0.9-2.6L284.1,65.9z
		 M297.9,49.2c-4,0.6-9.2,4-12.1,10.4l-16.4,14.1c0-1.2-0.3-2.3-0.3-3.2l33.7-28.8c1.2,0,2.3,0.3,3.2,0.6L297.9,49.2z M270.8,60.8
		l22.2-19c1.4-0.3,2.9-0.3,4.3-0.3l-28,23.9C270,63.6,270.2,62.2,270.8,60.8 M274.3,53.8l11.5-9.8c2-0.9,4-1.7,6.1-2l-20.8,17.9
		C272,57.6,273.1,55.6,274.3,53.8 M270,76.9c-0.3-0.9-0.3-1.7-0.6-2.6l15.9-13.6c-0.6,1.4-0.9,2.9-1.2,4.3L270,77.1
		C270,76.9,270,76.9,270,76.9 M291,86.7l-9.5,8.1c-0.6-0.6-1.4-0.9-2-1.4l9.8-8.4C289.9,85.8,290.4,86.4,291,86.7 M293.9,88.4
		l-9.2,8.1c-0.9-0.3-1.4-0.9-2.3-1.2l9.5-8.1C292.2,87.6,293,88.2,293.9,88.4 M287.6,98c-0.9-0.3-1.7-0.6-2.6-1.2l9.2-8.1
		c0.9,0.3,1.7,0.6,2.6,0.9L287.6,98z M297.6,89.9c1.2,0.3,2.3,0.3,3.2,0.3l-10.1,8.7c-0.9-0.3-1.7-0.6-2.9-0.9L297.6,89.9z
		 M305.7,89.9L305.7,89.9l-11.5,9.8c-0.9,0-1.7-0.3-2.9-0.6l10.1-8.7C303.1,90.5,304.3,90.2,305.7,89.9 M317,81.8
		c0.3-0.6,0.6-0.6,1.2-0.3c0.3,0,0.6,0.3,1.2,0.9l-20.8,17.9c-0.9,0-2,0-3.2-0.3l12.1-10.4C313.5,87.3,317,82.1,317,81.8
		 M323.9,85.8l-15.3,13.3c-1.4,0.3-2.9,0.9-4.6,0.9l18.2-15.6C323,85,323.6,85.6,323.9,85.8 M328.5,87.3c-0.3-0.3-2.6-2-2.6-2
		s-6.9-5.2-7.5-5.8c-0.9-0.6-0.9-0.6-1.4,0.6c-0.3,0.6-4.6,7.8-13,8.9c-8.9,1.2-15.3-5.5-15-18.2c0-11.2,7.8-18.2,12.4-18.5
		c6.9-0.3,10.4,2,12.4,10.4c0,0,0.6,0.6,1.2,0.9c0.6,0.6,2.3,2.6,2.6,2.6h9.5c0.6,0,0.6,0,0.6-0.6V45.4l-0.3-0.6
		c0,0-3.2-3.5-3.5-3.5h-9.8c-0.3,0-0.3,0-0.3,0.3v2v0.3l-0.3,0.3c-2-1.7-6.3-4-14.4-4.3c-3.5,0-10.7,0-17.9,4.9
		c-7.2,5.2-14.7,15-13.6,28.8c1.7,17.3,16.2,30.9,34.6,30.6c14.4-0.3,22.8-11,26.2-15.9C328.8,87.6,328.8,87.6,328.5,87.3"/>
	<path class="st0" d="M420.2,51.5h-2l2.6-2v1.4C420.8,51.5,420.8,51.5,420.2,51.5 M420.5,91v1.2l-7.5,6.3h-3.7l8.9-7.8h1.7
		C420.5,90.7,420.5,90.7,420.5,91 M419.6,98.5h-1.4l2-1.7v0.9C420.5,98.2,420.2,98.5,419.6,98.5 M413.9,98.5l6.6-5.5
		c0,0.9,0,2,0,2.9l-2.9,2.6H413.9z M404.9,98.5l8.9-7.8h3.7l-8.9,7.8H404.9z M392.5,98v-0.6l7.5-6.6l0,0l12.7-11V83l-18.2,15.6h-2
		C392.5,98.5,392.5,98.5,392.5,98 M392.8,90.7h1.7l-2,1.7v-1.2C392.5,91,392.5,90.7,392.8,90.7 M399.2,90.7l-6.6,5.8V93l2.9-2.3
		H399.2z M383.9,91.3v0.6l-7.8,6.6h-3.8l9.2-7.8h2.3C383.9,90.7,383.9,91,383.9,91.3 M383,98.5h-1.4l2.3-2v1.2
		C383.9,98.2,383.6,98.5,383,98.5 M377,98.5l6.9-5.8v3.2l-3.2,2.6L377,98.5L377,98.5z M355.9,98v-1.4l20.2-17v3.2l-18.5,15.9h-1.4
		C355.9,98.5,355.9,98.5,355.9,98 M356.5,90.7h0.9l-1.4,1.2V91C355.9,90.7,355.9,90.7,356.5,90.7 M362,90.7l-6.1,5.2v-3.2l2.3-2H362
		z M355.9,51.2v-1.7l7.5-6.3h3.7l-9.8,8.4h-1.2C355.9,51.5,355.9,51.5,355.9,51.2 M356.5,43.2h1.4l-2,1.7v-1.4
		C355.9,43.2,355.9,43.2,356.5,43.2 M355.9,45.8l2.9-2.6h3.5l-6.3,5.5v-2.9H355.9z M383.9,43.4v1.2l-20.8,17.6V59l18.7-15.9h1.7
		C383.9,43.2,383.9,43.2,383.9,43.4 M383.3,51.5H381l2.6-2.3v1.7C383.9,51.5,383.6,51.5,383.3,51.5 M381.6,66.2l-18.5,15.6v-3.2
		l14.7-12.4C377.8,66.2,381.6,66.2,381.6,66.2z M386.2,66.2l-23.1,19.9V85v-2.3l19.3-16.4h1.4h2.4V66.2z M391.7,66.2h3.7l-9.8,8.4
		h-3.7L391.7,66.2z M377.2,74.9l9.8-8.4h3.7l-9.8,8.4H377.2z M363.1,86.7l13-11.2v3.2l-13,11.2V86.7z M376.1,59l-13.3,11.2V67
		l13.3-11.2V59z M363.1,74.9l13.3-11.2v2c0,0.6,0,0.6,0.3,0.6h0.3l-13.8,11.5L363.1,74.9L363.1,74.9z M376.1,62.8L362.8,74v-3.2
		l13.3-11.2V62.8z M376.1,51.8V55l-13.3,11.2V63L376.1,51.8L376.1,51.8 M376.7,51.5L376.7,51.5l7.2-6.1v3.2l-3.5,2.9L376.7,51.5
		L376.7,51.5z M377,43.2c1.4,0,2.9,0,3.7,0l-17.9,15.3V55L377,43.2z M372.3,43.2h3.7l-13,11.2v-2.3c0-0.6,0-0.6-0.3-0.6L372.3,43.2z
		 M362,51.5h-3.7l9.8-8.4c1.2,0,2.3,0,3.7,0L362,51.5z M376.7,90.7h3.7l-9.2,7.8h-3.7L376.7,90.7z M376.1,87.6v2.9v0.3l-9.2,7.8
		h-3.7L376.1,87.6z M376.1,86.7l-13.8,11.8h-3.7l17.6-15v3.2H376.1z M400,66.2L400,66.2l-9.8,8.4h-3.7l9.8-8.4H400z M395.1,51.5
		l9.8-8.4h3.7l-9.8,8.4H395.1z M392.5,50.9c0,0,0-0.6,0-1.2l7.8-6.6h3.7l-9.8,8.4h-1.4C392.5,51.5,392.5,51.2,392.5,50.9
		 M392.8,43.2h2l-2.3,2c0-0.9,0-1.4,0-1.7S392.5,43.2,392.8,43.2 M392.5,45.8l3.2-2.6h3.7l-6.9,5.8
		C392.5,48.1,392.5,46.9,392.5,45.8 M420.8,43.4v1.2l-20.5,17.6V59l18.5-15.9h1.4C420.8,43.2,420.8,43.2,420.8,43.4 M413.6,51.5
		l7.2-6.1v3.2l-3.5,2.9L413.6,51.5L413.6,51.5z M400.3,54.1v-2.3c0-0.3,0-0.3-0.3-0.3h-0.3l9.8-8.4h3.7L400.3,54.1z M400.3,55
		l13.8-11.8h3.7l-17.6,15V55H400.3z M400.3,66.2v-0.3V63L413,52.3v3.2L400.3,66.2z M413,59.3l-18.2,15.6h-3.7L413,56.2L413,59.3
		L413,59.3z M400.3,86.7L413,76v3.2l-12.7,10.7V86.7z M413,63.9v3.2l-12.7,10.7v-2.9c0-0.3,0-0.3,0-0.3L413,63.9z M413,63.3
		l-13.6,11.5h-3.7L413,60.1L413,63.3L413,63.3z M413,71.1l-12.7,10.7v-3.2L413,67.9V71.1z M413,75.2l-12.7,10.6v-3.2L413,71.9V75.2z
		 M413,87l-13.6,11.5h-3.7L413,83.8L413,87L413,87z M413,90.7l-9.2,7.8h-3.7l12.7-10.7v2.6C413,90.5,413,90.7,413,90.7 M425.7,45.8
		c0-0.3-3.2-3.5-3.2-3.5s-0.6-0.6-1.2-0.6s-28.8,0-29.4,0c-0.9,0-0.9,0-0.9,0.9v8.9c0,0.3,0.3,0.3,0.9,0.9c0.6,0.6,2,2,2.3,2.3
		s0.6,0.6,0.9,0.6s2.9,0,3.2,0c0.6,0,0.6,0,0.6,0.3v8.7c0,0.3,0,0.3-0.9,0.3h-6.1h-10.6c-0.3,0-0.3,0-0.3-0.3s0-8.4,0-8.7
		s0-0.3,0.3-0.3h6.9c0,0,0.6,0,0.6-0.6s0-2.6,0-4.9c0-1.7,0.3-4,0-4.6c0-0.3-0.6-0.6-0.6-0.6l-2.6-2.6c0,0-0.3-0.6-0.9-0.6h-29.4
		c-0.6,0-0.9,0.3-0.9,1.2v8.9c0,0.3,0.3,0.6,0.6,0.9c0.3,0.3,2.6,2.6,2.9,2.6h3.2c0.3,0,0.3,0,0.3,0.6v32.9c0,0.6,0,0.6-0.3,0.6
		h-5.8c-0.6,0-0.9,0.3-0.9,0.6v9.8c0,0.3,0.3,0.6,0.6,0.9c0.3,0.3,2.3,2.3,2.6,2.3c0.3,0,0.9,0,2,0c0.9,0,27.4,0,28,0
		s0.6-0.3,0.6-1.2v-9.2c0-0.3-3.2-3.2-3.5-3.2H381c-0.3,0-0.3,0-0.3-0.3V79c0-0.3,0-0.6,0.6-0.6h17.3c0.3,0,0.3,0,0.3,0.3V89
		c0,0.3,0,0.6-0.6,0.6H392c-0.6,0-0.9,0-0.9,0.6v9.5c0,0.3,0.3,0.6,0.6,0.6c0.3,0.3,1.4,1.4,2,2s0.9,0.9,1.2,0.9c0.3,0,7.8,0,11,0
		s17.9,0,18.7,0s0.9-0.3,0.9-0.6c0-0.3,0-8.9,0-9.2c0-0.3-2.6-2.9-2.9-3.2s-0.6-0.6-0.9-0.6s-3.2,0-3.5,0s-0.6,0-0.6-0.3
		s0-32,0-32.9s0.3-0.9,0.6-0.9h6.6c0,0,0.6,0,0.6-0.6s0-2,0-3.7C425.4,48.9,425.7,46,425.7,45.8"/>
	<path class="st0" d="M591,98.8h-2l2.3-2v1.4C591.5,98.8,591.5,98.8,591,98.8 M580.3,98.8l11.2-9.5v3.2l-7.5,6.3H580.3z M577.7,98.5
		c0,0-0.3-0.3-0.6-0.9l14.1-12.1v2.9l-12.1,10.4h-1.2L577.7,98.5 M556.6,90.7l-9.5,8.1h-3.7l9.5-8.1H556.6z M560.1,91v0.9l-8.4,7.2
		H548l9.5-8.1h2C560.1,90.7,560.1,90.7,560.1,91 M559.5,98.8h-2.6l2.9-2.3v2C560.1,98.8,560.1,98.8,559.5,98.8 M552.6,98.8l7.5-6.3
		c0,0.9,0,2,0,3.2l-3.7,3.2h-3.8V98.8z M536.2,98.5v-1.4l7.5-6.3c0.6,0,0.6-0.3,0.6-0.6l8.4-7.2v3.2L538,98.6h-1.2
		C536.2,98.8,536.2,98.8,536.2,98.5 M536.2,93.1l2.6-2.3h3.7l-6.3,5.5V93.1z M536.4,90.7h1.4l-1.7,1.4L536.4,90.7
		C536.2,90.7,536.2,90.7,536.4,90.7 M539,51.2l9.5-8.1h3.7l-9.5,8.1c-0.9,0-1.7,0-2.9,0C539.3,51.2,539.3,51.2,539,51.2 M536.2,49.8
		l7.8-6.6h3.7l-9.5,8.1c-0.9,0-1.7,0-1.7-0.3C536.2,50.9,536.2,50.4,536.2,49.8 M536.4,43.2h2l-2.3,2c0-0.9,0-1.4,0-1.7
		C536.2,43.2,536.2,43.2,536.4,43.2 M536.2,47.8c0-0.6,0-1.2,0-2l3.2-2.6h3.7l-6.9,6.1C536.2,48.6,536.2,48.4,536.2,47.8
		 M559.8,44.3l-15.6,13.3v-3.2l13.3-11.2h1.7C559.2,43.2,559.5,43.4,559.8,44.3 M580.9,50.9l8.9-7.8h3.7l-10.1,8.7v-0.3
		c0-0.6,0-0.6-0.6-0.6L580.9,50.9L580.9,50.9z M577.1,50.9c-0.3,0-0.6,0-0.6-0.3l8.9-7.5h3.7l-9.2,7.8
		C578.6,50.9,577.1,50.9,577.1,50.9 M576.8,43.2h2.9l-3.5,2.9v-2.3C576.5,43.2,576.5,43.2,576.8,43.2 M576.5,46.6l4.3-3.5h3.7
		l-8.1,6.9L576.5,46.6L576.5,46.6z M591.5,61l-7.8,6.6c0-1.2,0-2,0-3.2l7.8-6.6V61z M591.5,81.5v3.2l-14.4,12.4
		c-0.3-0.6-0.9-1.2-1.2-2L591.5,81.5z M591.5,77.5v3.2l-15.9,13.6c-0.3-0.6-0.9-1.4-1.2-2L591.5,77.5z M582.3,81.2
		c0,0.3,0.3,0.3,0.3,0.3c0.6,0.9,0.9,0.3,0.9-0.6v-0.6l7.8-6.6v3.2l-17.6,15c-0.3-0.6-0.9-1.4-1.2-2L582.3,81.2z M580.9,78.6
		c0.6,0.9,0.9,1.7,1.2,2l-9.8,8.4c-0.3-0.6-0.9-1.4-1.2-2L580.9,78.6z M583.5,72.3l7.8-6.6v3.2l-7.8,6.6
		C583.5,74.6,583.5,73.4,583.5,72.3 M583.5,55.8v-3.2l11-9.5h3.7L583.5,55.8z M583.5,60.5l7.8-6.6v3.5l-7.8,6.6V60.5z M591.5,65.1
		l-7.8,6.6v-3.2l7.8-6.6C591.5,62.8,591.5,63.9,591.5,65.1 M591.5,72.9l-7.8,6.6v-3.2l7.8-6.6V72.9z M599,50.7l-0.6,0.6h-4l4.6-4
		V50.7L599,50.7z M599,46.6l-5.5,4.6h-1.7c-0.3,0-0.3,0-0.3,0.6V53l-7.8,6.6v-3.2l15.6-13.3v0.3v3.2L599,46.6L599,46.6z M579.1,76
		c0.6,0.9,0.9,1.4,1.4,2l-9.5,8.1c-0.3-0.6-0.9-1.4-1.2-2L579.1,76z M577.7,73.4c0.6,0.9,0.9,1.4,1.2,2l-9.5,8.1
		c-0.3-0.6-0.9-1.4-1.2-2L577.7,73.4z M576,70.8c0.3,0.6,0.9,1.4,1.2,2l-9.5,8.1c-0.3-0.6-0.9-1.4-1.2-2L576,70.8z M574.5,68.3
		c0.6,0.9,0.9,1.4,1.4,2.3l-9.5,8.1c-0.3-0.9-0.9-1.4-1.2-2.3L574.5,68.3z M572.8,65.7c0.6,0.6,0.9,1.4,1.2,2l-9.5,8.1
		c-0.3-0.6-0.9-1.4-1.2-2L572.8,65.7z M571.3,63.1c0.6,0.6,0.9,1.4,1.2,2l-9.5,8.1c-0.3-0.6-0.9-1.4-1.2-2L571.3,63.1z M569.6,60.5
		c0.3,0.6,0.9,1.4,1.4,2l-9.2,8.1c-0.6-0.9-0.9-1.4-1.2-2.3L569.6,60.5z M568.2,57.9c0.3,0.6,0.9,1.4,1.2,2l-9.2,7.8
		c-0.6-0.9-0.9-1.4-1.2-2L568.2,57.9z M566.4,55.3c0.3,0.6,0.9,1.4,1.2,2l-9.2,7.8c-0.3-0.9-0.9-1.4-1.2-2L566.4,55.3z M552.3,70.6
		l-8.4,7.2v-3.2l8.4-7.2V70.6z M552.6,90.5l-9.8,8.4h-4l13.8-11.8V90.5L552.6,90.5z M544.2,86.1l8.4-7.2v3.2l-8.4,7.2V86.1z
		 M543.7,51.2L543.7,51.2l9.2-8.1h3.5L544,53.8v-2C544.2,51.2,543.9,51.2,543.7,51.2 M544.2,61.6v-3.2l15.9-13.6
		c0.3,0.6,0.9,1.2,1.4,2L544.2,61.6z M554,57.3c-1.2-1.7-1.4-0.6-1.4,0.6v0.9l-8.4,7.2v-3.5l17.6-15c0.3,0.6,0.9,1.4,1.2,2L554,57.3
		z M555.5,59.9c-0.6-1.2-1.2-1.7-1.2-2.3l8.9-7.8c0.3,0.6,0.9,1.4,1.2,2L555.5,59.9z M544.2,70.3l8.4-7.2v3.2l-8.4,7.2V70.3z
		 M544.2,66.5l8.4-7.2c0,0.9,0,2,0,3.2l-8.4,7.2V66.5z M552.3,74.3l-8.4,7.2v-3.2l8.4-7.2V74.3z M552.3,78.3l-8.4,7.2v-3.2l8.4-7.2
		V78.3z M566.2,54.7l-9.2,7.8c-0.6-0.9-0.9-1.4-1.2-2.3l9.2-7.8C565.3,53.3,565.9,54.1,566.2,54.7 M591.5,96.2l-3.2,2.6h-3.5
		l6.6-5.5v2.9H591.5z M601.1,42.9c-0.3-0.3-0.6-0.6-0.9-0.9c-0.3-0.3-0.9-0.6-0.9-0.6s-23.4,0-23.6,0c-0.6,0-0.6,0-0.6,0.3v9.8
		c0,0.3,2.3,2,2.9,2.6c0.6,0.6,0.9,0.9,1.2,0.9s2.3,0,2.6,0s0.3,0,0.3,0.3v17.3c0,0.3,0,0-0.3,0l-5.2-8.4l-10.4-17.3l-5.8-4.6
		l-1.4-1.2h-23.9c-0.6,0-0.6,0-0.6,0.6s0,9.5,0,9.8s2.3,2,2.9,2.3c0.6,0.3,0.9,0.6,1.2,0.6s3.2,0,3.5,0s0.3,0.3,0.3,0.6v32.9
		c0,0.6,0,0.9-0.6,0.9s-0.9,0-2.9,0s-3.2,0-3.7,0c-0.6,0-0.6,0-0.6,0.9s0,2,0,3.5c0,0.9,0,2.3,0,3.7l0,0l0,0c0,1.2,0,2.3,0,2.6
		c0,0.3,2.6,3.2,3.2,3.2h25.5c0.9,0,0.9,0,0.9-0.6s0-9.2,0-9.2c0-0.3-0.3-0.6-0.6-0.9s-2.9-3.2-2.9-3.2H557c-0.3,0-0.3,0-0.3-0.6
		V66.6c0-0.9,0.3-0.6,0.6,0s19.6,33.5,19.6,33.5l4,3.5H595c0.9,0,0.9,0,0.9-0.9V56.6c0-0.6,0-0.9,0.6-0.9h6.6c0.3,0,0.3,0,0.3-0.6
		v-9.5C603.6,45.2,602.2,44,601.1,42.9"/>
	<g>
		<path class="st1" d="M37.5,243c7.5,0,11.5,0,11.5,24.8V284c0,18.7-3.5,18.7-8.4,18.7h-7.5V243H37.5z M36.6,157.7
			c6.6,0,9.8,0,9.8,19.6v19.9c0,16.2-5.5,16.2-8.4,16.2h-5.2v-55.7H36.6z M5.8,126.8H0.9V333H43c11.2,0,20.8-3.5,26.8-9.8
			c8.7-8.9,11.5-21.3,11.5-48.7c0-16.4-1.2-26-4.3-33.2c-2.3-6.3-5.5-10.4-11-14.1c1.2-0.9,2-1.7,2.9-2.9c6.6-7.8,9.2-19,9.2-41.5
			c0-41-11.8-56-43.5-56"/>
		<path class="st2" d="M28.3,307.6h12.1c10.1,0,13.3-5.5,13.3-23.4V268c0-23.6-3.2-29.7-16.2-29.7h-9.2V307.6z M28.3,217.6h10.1
			c8.9,0,13-6.3,13-20.8V177c0-19-2.9-24.2-14.4-24.2h-8.7V217.6z M34.6,131.4c29.1,0,38.9,13.3,38.9,51.3c0,21.3-2,31.7-8.1,38.4
			c-2,2.3-3.7,3.7-8.4,6.1c8.9,4.6,12.7,8.4,15.6,15.9c2.9,6.6,4,15.9,4,31.1c0,26.5-2.6,37.8-10.1,45.6c-5.5,5.5-13.8,8.4-23.6,8.4
			H5.5V131.4"/>
		<path class="st3" d="M28.3,307.6h12.1c10.1,0,13.3-5.5,13.3-23.4V268c0-23.6-3.2-29.7-16.2-29.7h-9.2V307.6z M28.3,217.6h10.1
			c8.9,0,13-6.3,13-20.8V177c0-19-2.9-24.2-14.4-24.2h-8.7V217.6z M34.6,131.4c29.1,0,38.9,13.3,38.9,51.3c0,21.3-2,31.7-8.1,38.4
			c-2,2.3-3.7,3.7-8.4,6.1c8.9,4.6,12.7,8.4,15.6,15.9c2.9,6.6,4,15.9,4,31.1c0,26.5-2.6,37.8-10.1,45.6c-5.5,5.5-13.8,8.4-23.6,8.4
			H5.5V131.4H34.6z"/>
		<path class="st1" d="M143.9,193.4c2.9,28,5.5,52.5,6.1,58h-12.1C138.4,245.9,141,221.1,143.9,193.4 M158.9,126.8h-34L97.8,333
			h30.9c0,0,5.5-45.9,6.1-53.1h18.5c0.9,6.9,6.1,53.1,6.1,53.1H190l-27.1-206.2"/>
		<path class="st2" d="M132.7,256h22.2l-10.4-105.6h-0.6L132.7,256z M158.9,131.4l26,197h-21.1l-6.1-53.1h-26.8l-6.3,53.1h-21.3
			l26-197"/>
		<path class="st3" d="M132.7,256h22.2l-10.4-105.6h-0.6L132.7,256z M158.9,131.4l26,197h-21.1l-6.1-53.1h-26.8l-6.3,53.1h-21.3
			l26-197H158.9L158.9,131.4z"/>
		<path class="st1" d="M289.3,126.8h-25.7c0,0-11.5,34.3-19.3,58v-58h-31.7V333h31.7v-72.1c8.7,28.6,21.3,72.1,21.3,72.1h32.3
			c0,0-33.7-110.7-34.6-113.6c0.9-2.9,32.6-92.9,32.6-92.9"/>
		<polyline class="st2" points="239.7,131.4 239.7,211.9 240,211.9 267.1,131.4 289.3,131.4 258.4,219.4 291.6,328.4 269.1,328.4 
			240,230.6 239.7,230.6 239.7,328.4 217.2,328.4 217.2,131.4 		"/>
		<polygon class="st3" points="239.7,131.4 239.7,211.9 240,211.9 267.1,131.4 289.3,131.4 258.4,219.4 291.6,328.4 269.1,328.4 
			240,230.6 239.7,230.6 239.7,328.4 217.2,328.4 217.2,131.4 		"/>
		<polyline class="st1" points="384.5,126.8 316.4,126.8 316.4,333 392,333 392,302.7 348.1,302.7 348.1,242.2 383.6,242.2 
			383.6,211.9 348.1,211.9 348.1,157.1 389.1,157.1 389.1,126.8 		"/>
		<polyline class="st2" points="384.5,131.4 384.5,152.5 343.2,152.5 343.2,216.8 378.7,216.8 378.7,237.3 343.5,237.3 343.5,307.3 
			387.3,307.3 387.3,328.4 321,328.4 321,131.4 		"/>
		<polygon class="st3" points="384.5,131.4 384.5,152.5 343.2,152.5 343.2,216.8 378.7,216.8 378.7,237.3 343.5,237.3 343.5,307.3 
			387.3,307.3 387.3,328.4 321,328.4 321,131.4 		"/>
		<path class="st1" d="M447.3,157.7c8.7,0,10.1,2,11,4.6v0.3v0.3c0.6,1.4,0.9,2,0.9,2.3v0.3v0.3c0.3,2.3,0.6,8.1,1.2,15.9l0.3,5.2
			v4.9c0,23.6-3.2,24.5-14.7,24.5h-1.4v-58.5L447.3,157.7L447.3,157.7z M417.3,126.8h-4.6V333h31.7v-86.5h2.6
			c1.7,6.6,21.6,86.5,21.6,86.5h31.7c0,0-22.2-89.4-23.6-95.2c11.5-8.7,16.4-20.2,16.4-40.4v-19.9c0-41.8-22.2-50.8-41-50.8"/>
		<path class="st2" d="M439.8,220.8h6.3c15.9,0,19.3-5.2,19.3-29.4v-5.2c-0.6-11-0.9-18.2-1.4-21.6c0-1.4-0.6-2.6-1.4-4.3
			c-2-5.8-6.3-7.5-15.3-7.5h-7.5V220.8L439.8,220.8z M452.2,131.4c23.9,0,36.3,15.3,36.3,46.1v19.9c0,20.2-4.6,30.6-17,38.4
			l22.8,92.6h-22.2l-21.6-86.5h-11v86.5H417v-197"/>
		<path class="st3" d="M439.8,220.8h6.3c15.9,0,19.3-5.2,19.3-29.4v-5.2c-0.6-11-0.9-18.2-1.4-21.6c0-1.4-0.6-2.6-1.4-4.3
			c-2-5.8-6.3-7.5-15.3-7.5h-7.5V220.8L439.8,220.8z M452.2,131.4c23.9,0,36.3,15.3,36.3,46.1v19.9c0,20.2-4.6,30.6-17,38.4
			l22.8,92.6h-22.2l-21.6-86.5h-11v86.5H417v-197H452.2z"/>
		<path class="st1" d="M592.1,126.8h-26.2c0,0-9.8,43.8-14.7,66.3c-5.2-22.2-15.3-66.3-15.3-66.3h-32.3c0,0,31.7,118,32,119.1V333
			h32v-87.7c0.3-1.2,30.6-118.5,30.6-118.5"/>
		<path class="st0" d="M43,333.6H0.3V125.9h34.3c32.3,0,44.4,15.3,44.4,56.8c0,22.8-2.6,34.3-9.5,42.1c-0.9,0.9-1.4,1.7-2.3,2.3
			c4.9,3.7,8.1,7.8,10.7,13.8c3.2,7.2,4.3,16.7,4.3,33.5c0,27.7-2.9,40.1-11.8,49.3C64,330.1,54.2,333.6,43,333.6z M1.7,332.4h41.2
			c11,0,20.5-3.5,26.5-9.5c8.4-8.7,11.2-21.1,11.2-48.2c0-16.4-1.2-25.7-4.3-32.9c-2.3-6.3-5.5-10.4-10.7-13.8l-0.9-0.6l0.6-0.6
			c1.2-0.9,2-1.7,2.9-2.9c6.6-7.5,8.9-18.7,8.9-41.2c0-40.4-11.5-55.4-43-55.4H1.7V332.4z M40.4,303.6h-8.1v-61.1h5.2
			c8.4,0,12.1,1.2,12.1,25.7v16.2C49.6,302.7,46.2,303.6,40.4,303.6z M33.8,302.1h6.6c4.9,0,7.8,0,7.8-18.2v-16.2
			c0-24.2-3.5-24.2-10.7-24.2h-3.7C33.8,243.5,33.8,302.1,33.8,302.1z M38.1,213.9H32v-57.1h4.3c7.5,0,10.7,0.9,10.7,20.2v19.9
			C47,213.9,41.3,213.9,38.1,213.9z M33.8,212.5h4.6c2.6,0,7.5,0,7.5-15.3v-19.9c0-18.7-2.6-18.7-9.2-18.7h-2.9
			C33.8,158.5,33.8,212.5,33.8,212.5z M190.9,333.6h-32V333c0,0-5.2-43.5-6.1-52.5h-17.3c-1.2,8.7-6.1,52.5-6.1,52.5v0.6H97.2v-0.9
			l27.1-206.8h39.2v0.6L190.9,333.6z M160.4,332.4h29.1l-26.8-204.8h-37.2L98.6,332.4H128c0.6-5.5,5.5-45.9,6.1-52.5v-0.6H154v0.6
			C154.9,286.6,159.5,326.7,160.4,332.4z M150.8,252h-13.5v-0.9c0.6-4.9,2.6-25.7,5.2-50.2l1.4-14.7l2.9,28
			c2,18.5,3.5,32.9,3.7,36.9L150.8,252z M138.7,250.5h10.4c-0.6-4.9-2-18.7-3.7-36.1L144,200v1.2
			C141.6,224.6,139.3,244.5,138.7,250.5z M299.1,333.6h-34l-20.2-68.1v68.1H212V125.9h33.2v54.5l18.2-54.5h33.7l-0.3,0.9
			c0,0-30.6,86.8-32.6,92.6c2,6.1,34.6,113.3,34.6,113.3L299.1,333.6z M266.2,332.4h30.9c-3.2-10.7-33.7-109.9-34.6-112.8v-0.3V219
			c0.9-2.6,28.8-82.2,32.3-91.7h-30.6L243.7,189v-61.7h-30.6v204.8h30.3V256L266.2,332.4z M392.8,333.6h-77.3V125.9h74.1v31.7h-41.2
			v53.6h35.5v31.4h-35.2v59.1h43.8v31.7h0.3V333.6z M317,332.4h74.4v-28.8h-43.8v-62.3h35.2v-28.6h-35.5v-56.5h41.2v-28.8H317V332.4
			z M501.3,333.6h-33.2V333c0,0-19-76.7-21.3-86.2h-1.5v86.5h-33.5V125.6h40.4c19,0,41.8,8.9,41.8,51.3v19.9
			c0,20.2-4.6,32-16.2,40.7L501.3,333.6z M469.3,332.4h30.3l-23.4-94.9l0.3-0.3c11.2-8.4,16.2-19.9,16.2-39.8v-19.9
			c0-41.2-21.9-49.9-40.4-49.9h-39v204.8h30.6v-86.5h4v0.6C449.3,252.3,467.5,325.2,469.3,332.4z M445.9,216.8h-2.3v-60h3.5
			c8.9,0,10.7,2,11.5,4.9l0.3,0.3c0.6,1.2,0.9,2,0.9,2.6v0.6c0.3,2.6,0.6,8.1,1.2,15.6l0.3,5.8v4.9
			C461.5,214.5,458.6,216.8,445.9,216.8z M445,215.3h0.9c10.7,0,14.1,0,14.1-23.9v-4.9l-0.3-5.5c-0.3-7.5-0.6-13-0.9-15.3v-0.3v-0.6
			c0,0,0-0.3-0.9-2l-0.3-0.6c-0.9-2-1.4-4-10.4-4h-2.3L445,215.3L445,215.3z M568.2,333.6h-33.5v-87.7l-32.3-120h33.7v0.6
			c0,0,9.2,40.1,14.7,63.2c5.2-23.1,13.8-63.2,13.8-63.2v-0.6h33.7l-0.3,0.9c0,0-29.7,114.8-30.6,118.5v88.3L568.2,333.6
			L568.2,333.6z M536.2,332.4h30.6v-87.1c0.3-1.2,27.7-107,30.6-117.7h-30.9c-1.2,5.2-9.8,44.7-14.4,65.8l-0.6,3.2l-0.6-2.9
			c-4.9-20.8-14.1-60.6-15.3-65.8h-30.9l31.7,118.5v85.9h-0.2V332.4z"/>
		<path class="st4" d="M28.3,307.6h12.1c10.1,0,13.3-5.5,13.3-23.4V268c0-23.6-3.2-29.7-16.2-29.7h-9.2V307.6z M28.3,217.6h10.1
			c8.9,0,13-6.3,13-20.8V177c0-19-2.9-24.2-14.4-24.2h-8.7V217.6z M34.6,131.4c29.1,0,38.9,13.3,38.9,51.3c0,21.3-2,31.7-8.1,38.4
			c-2,2.3-3.7,3.7-8.4,6.1c8.9,4.6,12.7,8.4,15.6,15.9c2.9,6.6,4,15.9,4,31.1c0,26.5-2.6,37.8-10.1,45.6c-5.5,5.5-13.8,8.4-23.6,8.4
			H5.5V131.4 M132.7,256h22.2l-10.4-105.6h-0.6L132.7,256z M158.9,131.4l26,197h-21.1l-6.1-53.1h-26.8l-6.3,53.1h-21.3l26-197
			 M239.7,131.4v80.5h0.6l26.8-80.5h22.2l-30.9,88l33.2,109h-22.5L240,230.6h-0.3v97.8h-22.2v-197 M384.5,131.4v21.1h-41.2v64.3
			h35.5v20.8h-35.2v70.1h43.7v21.1H321V131.4 M439.8,220.8h6.3c15.9,0,19.3-5.2,19.3-29.4v-5.2c-0.6-11-0.9-18.2-1.4-21.6
			c0-1.4-0.6-2.6-1.4-4.3c-2-5.8-6.3-7.5-15.3-7.5h-7.5V220.8L439.8,220.8z M452.2,131.4c23.9,0,36.3,15.3,36.3,46.1v19.9
			c0,20.2-4.6,30.6-17,38.4l22.8,92.6h-22.2l-21.6-86.5h-11v86.5H417v-197 M532.1,131.4l18.7,81.6h0.6l17.9-81.6h22.5L563,244.7
			v83.6h-22.5V245l-30.6-113.9"/>
		<polyline class="st2" points="532.1,131.4 550.9,213 551.4,213 569.6,131.4 592.1,131.4 563,244.8 563,328.4 540.2,328.4 
			540.2,245 509.6,131.4 		"/>
		<polygon class="st3" points="532.1,131.4 550.9,213 551.4,213 569.6,131.4 592.1,131.4 563,244.8 563,328.4 540.2,328.4 
			540.2,245 509.6,131.4 		"/>
	</g>
	<g>
		<path class="st0" d="M609.1,41.7c1.7,0,3.2,1.4,3.2,3.2s-1.4,3.2-3.2,3.2s-3.2-1.4-3.2-3.2S607.1,41.7,609.1,41.7z M606.2,44.9
			c0,1.4,1.2,2.6,2.6,2.6c1.4,0,2.6-1.2,2.6-2.6s-1.2-2.6-2.6-2.6C607.4,42.3,606.2,43.4,606.2,44.9z M610.3,46h-0.6l-0.9-0.9h-0.3
			v1.2h-0.6v-2.9h0.9c0.6,0,1.2,0.3,1.2,0.9c0,0.3-0.3,0.6-0.6,0.9L610.3,46z M608.8,44.9c0.3,0,0.6-0.3,0.6-0.6s-0.3-0.6-0.6-0.6
			h-0.3v0.9h0.3V44.9z"/>
	</g>
</g>
</svg>
