<?xml version="1.0" encoding="utf-8"?>
<!-- Generator: Adobe Illustrator 18.0.0, SVG Export Plug-In . SVG Version: 6.00 Build 0)  -->
<!DOCTYPE svg PUBLIC "-//W3C//DTD SVG 1.1//EN" "http://www.w3.org/Graphics/SVG/1.1/DTD/svg11.dtd">
<svg version="1.1" id="Layer_1" xmlns="http://www.w3.org/2000/svg" xmlns:xlink="http://www.w3.org/1999/xlink" x="0px" y="0px"
	 viewBox="0 249.5 612 293" enable-background="new 0 249.5 612 293" xml:space="preserve">
<g>
	<path fill="#705D50" d="M106,293.8l8.2-7C113,289.9,109.5,292.6,106,293.8 M94.4,294.7l19.3-16.5c0.4,0.5,0.5,1.2,0.7,1.9
		l-17.2,14.5c-1.2,0-2.1,0-2.1,0H94.4z M70.6,294.5v-1.1L86.4,280c0,0.9,0,1.6,0,2.5l-14.2,12.1H70.6
		C70.8,294.7,70.6,294.5,70.6,294.5 M70.8,288.2h1.6l-1.8,1.6v-1.4C70.6,288.2,70.8,288.2,70.8,288.2 M76,288.2l-5.4,4.6v-2.5
		l2.5-2.1H76z M70.8,257.5v-1.1l5.8-4.9h2.8l-7,6c-0.7,0-1.4,0-1.4,0C70.8,257.5,70.8,257.5,70.8,257.5 M70.9,251.6h1.4l-1.6,1.2
		L70.9,251.6C70.8,251.6,70.8,251.6,70.9,251.6 M70.8,253.5l2.3-1.9h3l-5.1,4.4v-2.5H70.8z M93.9,251.6l-17,14.5v-2.6l14-11.9
		C92,251.6,93,251.6,93.9,251.6 M100.9,251.8l-7.4,6.3c-0.2,0-0.5,0-0.7,0c-0.7,0-1.4,0-2.1,0l7.4-6.5h0.7
		C98.8,251.6,99.7,251.6,100.9,251.8 M104,252.1l-7,6c-0.9,0-1.9,0-3,0l7.5-6.3c0.5,0,1.1,0.2,1.6,0.2
		C103.3,251.9,103.7,251.9,104,252.1 M109.1,253.9l-7.2,6.1c-0.4-0.5-0.9-1.1-1.4-1.4l6.7-5.6c0.4,0.2,0.9,0.4,1.2,0.5
		C108.8,253.5,108.9,253.7,109.1,253.9 M111,255.3l-8.1,6.8l0,0c-0.2-0.5-0.4-1.1-0.7-1.8l7.4-6.3C110,254.4,110.5,254.9,111,255.3
		 M106.8,270c-0.9,0.4-1.8,0.5-2.5,0.7l8.8-7.4C112.6,265.8,111,268.4,106.8,270 M110.3,274.2l-6.8,5.8c-0.2-0.7-0.4-1.4-0.7-1.9
		l5.6-4.9C109.3,273.5,109.8,273.8,110.3,274.2 M99,287.7c0.9-0.2,1.6-0.7,2.1-1.2c0.7-0.5,1.4-1.2,1.9-2.3l9.5-8.1
		c0.4,0.5,0.7,1.1,1.1,1.6l-19.8,17h-3L99,287.7z M94.9,288c0.5,0,1.1,0,1.4,0c0.7,0,1.2,0,1.6-0.2l-7.9,6.7h-3L94.9,288z M91.3,288
		c1.1,0,2.1,0,3,0l-7.7,6.5h-2.8L91.3,288z M87.8,288h3l-7.7,6.5h-3L87.8,288z M86.5,286.1v1.6c0,0.2,0,0.4,0.4,0.4h0.4l-7.7,6.5h-3
		L86.5,286.1z M86.5,285.6l-10.7,9.1h-3l13.7-11.6V285.6z M101.1,276.1c-0.5-0.4-1.1-0.7-1.9-0.9l4.4-3.7c0.5,0.2,1.4,0.4,2.3,0.5
		L101.1,276.1z M101.8,284.5c-1.4,1.9-2.8,2.5-4.6,2.6c-1.2,0-6.8,0-7,0s-0.2,0-0.2-0.4c0-0.2,0-7.7,0-8.2c0-0.5,0-0.5,0.4-0.5
		c0.4,0,8.1,0,9.3,0.2c1.2,0.2,2.1,0.4,2.5,0.7c0.4,0.2,0.7,0.5,0.7,2.1C102.8,281.7,102.5,283.5,101.8,284.5 M103.7,280.5l7-6
		c0.5,0.4,0.9,0.7,1.4,1.2l-8.8,7.5C103.7,282.4,103.9,281.4,103.7,280.5 M106.7,272.4c0.5,0.2,1.1,0.4,1.6,0.7l-5.4,4.7
		c-0.2-0.4-0.5-0.7-0.7-0.9c-0.2-0.2-0.4-0.4-0.5-0.5l4.7-4C106.3,272.3,106.5,272.3,106.7,272.4 M113.3,262.6l-9.6,8.2
		c-0.5,0-0.7,0.2-0.9,0.2v0.4h0.2l-4.4,3.7c-0.2,0-0.4,0-0.5-0.2c-0.7-0.2-1.1,0-2.1,0l0,0l17.3-14.7
		C113.3,260.9,113.3,261.7,113.3,262.6 M101.2,267.3c0.2-0.2,0.4-0.4,0.5-0.5l0,0l10.9-9.3c0.2,0.5,0.5,1.1,0.5,1.8
		c0,0.2,0,0.2,0,0.4l-17.9,15.2c-0.7,0-1.8,0-2.8,0L101.2,267.3z M89,274.7l7.4-6.3c1.1,0,1.8,0,2.1,0s0.9-0.2,1.2-0.2l-7.9,6.7
		C90.7,274.7,89.9,274.7,89,274.7 M76.9,285l9.6-8.1v2.5l-9.6,8.1V285z M76.9,260.5l10.5-8.9h3L76.9,263V260.5z M86.5,264l-9.6,8.2
		v-2.5l9.6-8.2V264z M76.9,278.9L89,268.6c0.9,0,1.9,0,3,0l-15.1,13V278.9z M76.9,275.8l9.6-8.2v0.5c0,0.2,0,0.2,0.2,0.2
		c0,0,0.7,0,1.8,0L76.9,278V275.8z M76.9,272.8l9.6-8.2v2.5l-9.6,8.2V272.8z M86.9,274.7c-0.4,0-0.4,0.2-0.4,0.4v1.1l-9.6,8.1v-2.5
		l15.8-13.5c1.1,0,2.1,0,3,0l-7.4,6.3C87.4,274.7,86.9,274.7,86.9,274.7 M103,262.6l8.2-7c0.5,0.5,0.9,1.1,1.1,1.6l-9.8,8.4
		C103,264.5,103.2,263.5,103,262.6 M98.8,258.1c-0.4,0-0.7,0-1.1,0l6.8-6c0.7,0.2,1.4,0.4,2.1,0.5l-6.7,5.8
		C99.7,258.2,99.3,258.1,98.8,258.1 M98.4,260.9c1.8,0,2.6,0.4,2.8,0.5c0.5,0.4,0.5,0.5,0.7,0.9c0.2,0.4,0.2,1.6,0,2.5
		c-0.4,1.1-1.1,2.5-3.2,2.8c-1.6,0.4-8.6,0.2-8.8,0.2s-0.2,0-0.2-0.2V261c0-0.2,0-0.2,0.2-0.2C90.4,260.9,98.1,260.9,98.4,260.9
		 M87.1,257.9l7.5-6.3h2.8l-7.5,6.5C88.8,257.9,87.6,257.9,87.1,257.9 M86.5,260.9l-9.6,8.2v-2.5l9.6-8.2V260.9z M83.7,251.6h3
		l-9.8,8.4v-1.8c0-0.4,0-0.4-0.2-0.5L83.7,251.6z M76,257.5c-0.7,0-1.9,0-3,0l7-6c1.1,0,1.9,0,3,0L76,257.5z M101.1,294.5
		c-1.1,0-2.1,0-3,0l16.5-14.2c0.2,0.7,0.2,1.6,0.2,2.5L101.1,294.5z M102.8,294.5c-0.4,0-0.7,0-1.1,0l13-11c0,0.9-0.2,1.8-0.4,2.6
		l-9.5,8.1C104.2,294.3,103.5,294.3,102.8,294.5 M116,278c-1.9-2.8-6.3-4.9-6.5-5.1c-0.2,0-0.2-0.2,0-0.2s3.3-1.6,4.7-3.3
		c1.8-1.9,2.8-4.2,2.3-8.4c-0.9-5.6-5.8-10-15.6-10.7c-3.3-0.2-6-0.4-7.5-0.2c-1.6,0-2.6,0-6.1,0.2c-3.5,0-15.9,0-16.8,0
		s-1.1,0-1.1,0.5v7.5c0,0.2,0.5,0.5,0.9,0.9c0.5,0.4,1.8,1.6,1.9,1.8c0,0,0.2,0.2,0.4,0.2h3l0.2,0.2c0,0,0,24.9,0,25.4
		c0,0.5,0,0.7-0.2,0.7s-5.6,0-5.8,0c-0.2,0-0.2,0-0.2,0.2c0,0.2,0,7.5,0,7.7c0,0.2,0.2,0.4,0.4,0.5c0.2,0.4,2.1,1.9,2.3,2.1
		c0.2,0.2,0.4,0.2,0.5,0.2h13.7c0,0,16.6-0.2,19.4-0.4c4.9-0.5,9.6-3.5,11.4-8.8C118.9,284.9,118.1,280.8,116,278"/>
	<path fill="#705D50" d="M168,294.8l11.6-10C177.4,289.2,173.6,292.7,168,294.8 M142.2,289.1l7.7-6.5c0.2,0.7,0.5,1.2,0.9,1.8
		l-7.2,6.1C143.1,289.9,142.8,289.6,142.2,289.1 M151.9,253l-12.1,10.3C142.4,258.2,147.1,254.7,151.9,253 M139.3,264.4l13.7-11.7
		c1.2-0.4,2.5-0.7,3.7-0.7l-18.7,15.9C138.2,266.6,138.7,265.4,139.3,264.4 M160.3,251.8l-23.1,19.6c0.2-1.1,0.2-1.9,0.5-2.8
		l19.6-16.8c0.4,0,0.7,0,1.2,0C159,251.8,159.7,251.8,160.3,251.8 M164.6,288.4c0.9-0.5,1.8-1.2,2.5-2.1l14.7-12.6
		c0,0.5,0,1.1,0,1.6c0,0.2,0,0.5,0,0.7l-23.5,20.3c-0.9,0-1.8,0-2.6-0.2L164.6,288.4z M159.7,289.6c0.2,0,0.4,0,0.4,0
		c1.1,0,2.1-0.2,3-0.5l-8.1,6.8c-0.7-0.2-1.6-0.4-2.3-0.5L159.7,289.6z M156.8,289.1c0.7,0.2,1.6,0.4,2.5,0.5l-6.8,5.8
		c-0.7-0.2-1.4-0.5-2.1-0.7L156.8,289.1z M154.3,288c0.5,0.4,1.2,0.7,1.9,0.9l-6.5,5.4c-0.7-0.2-1.2-0.5-1.9-0.9L154.3,288z
		 M152.4,286.6c0.5,0.5,0.9,0.9,1.4,1.2l-6.3,5.4c-0.5-0.4-1.1-0.7-1.8-1.1L152.4,286.6z M152.2,286.3l-6.8,5.8
		c-0.5-0.4-1.1-0.9-1.6-1.2l7.2-6.1C151.3,285.2,151.7,285.7,152.2,286.3 M149.1,280.1c0.2,0.7,0.4,1.4,0.7,1.9l-7.7,6.7
		c-0.4-0.5-0.7-1.1-1.1-1.6L149.1,280.1z M148.7,277.5c0.2,0.7,0.2,1.6,0.4,2.1l-8.4,7.2c-0.4-0.5-0.7-1.1-1.1-1.8L148.7,277.5z
		 M148.4,274.7c0,0.9,0.2,1.6,0.2,2.3l-9.1,7.9c-0.4-0.5-0.5-1.2-0.7-1.8L148.4,274.7z M148.4,271.6c0,0.5,0,1.1,0,1.6
		c0,0.4,0,0.7,0,1.1l-9.8,8.4c-0.2-0.7-0.4-1.2-0.5-1.9L148.4,271.6z M148.7,268.2c-0.2,0.9-0.2,1.8-0.4,2.8l-10.7,9.1
		c-0.2-0.7-0.4-1.4-0.4-2.1L148.7,268.2z M137.1,275.1l12.6-10.9c-0.4,1.1-0.7,2.3-0.9,3.5l-11.6,9.8
		C137.1,276.6,137.1,275.9,137.1,275.1 M160.1,257.9c-0.2,0-0.2,0-0.2,0c-1.1,0-2.1,0.2-3,0.4l7-6c0.9,0.2,1.6,0.4,2.3,0.5
		L160.1,257.9z M163.2,258.4c-0.7-0.2-1.6-0.4-2.5-0.4l6.1-5.3c0.7,0.2,1.4,0.4,2.1,0.7L163.2,258.4z M165.5,259.5
		c-0.5-0.4-1.2-0.7-1.9-0.9l5.8-4.9c0.7,0.4,1.2,0.5,1.9,0.9L165.5,259.5z M167.3,261c-0.4-0.5-0.9-0.9-1.4-1.2l5.8-5.1
		c0.5,0.4,1.1,0.7,1.6,1.1L167.3,261z M168.7,263c-0.4-0.5-0.7-1.1-1.1-1.6l6.1-5.3c0.5,0.4,1.1,0.9,1.4,1.2L168.7,263z
		 M170.3,267.9c-0.2-0.9-0.4-1.6-0.5-2.1l7.4-6.3c0.4,0.5,0.7,1.1,1.1,1.6L170.3,267.9z M170.6,270.5c0-0.9-0.2-1.6-0.4-2.3l8.1-7
		c0.4,0.5,0.7,1.2,0.9,1.8L170.6,270.5z M170.6,273.7c0-0.9,0-1.6,0-2.5l8.9-7.7c0.4,0.7,0.5,1.2,0.7,1.9L170.6,273.7z M170.6,276.8
		c0-0.9,0.2-1.8,0.2-2.6l9.8-8.4c0.2,0.7,0.4,1.4,0.5,1.9L170.6,276.8z M181.5,270.5l-11.6,9.8c0.2-0.9,0.4-1.9,0.5-3l10.7-9.1
		C181.3,269.1,181.5,269.8,181.5,270.5 M169.7,281l11.7-10c0.2,0.7,0.2,1.6,0.2,2.3l-13.5,11.6C168.9,283.8,169.4,282.4,169.7,281
		 M153.8,286.1c-1.1-1.9-2.1-6.5-1.2-13.3c1.2-9.8,4.7-11.4,7.4-11.7c2.6-0.2,5.3,0,6.8,1.1c0.9,0.5,3,3.9,3,11.6
		c0,8.1-3,14.9-9.1,14.9C156.1,288.5,154.3,287.3,153.8,286.1 M176.7,259.1l-7.2,6.1c-0.2-0.7-0.5-1.2-0.7-1.9l6.7-5.8
		C176,258.1,176.4,258.6,176.7,259.1 M137.1,274.2c0-0.7,0-1.4,0-2.1l23.6-20.1c0.9,0,1.8,0.2,2.5,0.2l-7.4,6.3
		c-2.6,0.7-4.6,2.3-5.8,4.9L137,274.5C137.1,274.4,137.1,274.2,137.1,274.2 M181.5,279.6l-19.3,16.3c-1.1,0.2-2.1,0.2-3.2,0.2
		l22.8-19.4C181.8,277.7,181.6,278.7,181.5,279.6 M180.1,283.8L166.9,295c-1.2,0.4-2.6,0.7-3.9,0.9l18.2-15.6
		C180.9,281.5,180.6,282.8,180.1,283.8 M159.2,250.7c-13.3,0-23.5,9.6-23.3,24.5c0.2,14.9,13.7,24.5,26.3,24.3
		c13.8-0.2,23.3-10.5,23.3-24C185.8,261.7,173.6,250.7,159.2,250.7"/>
	<path fill="#705D50" d="M449.3,294.8l11.6-10C458.6,289.2,454.9,292.7,449.3,294.8 M423.5,289.1l7.7-6.5c0.2,0.7,0.5,1.2,0.9,1.8
		l-7.2,6.1C424.4,289.9,423.9,289.6,423.5,289.1 M433,253l-12.1,10.3C423.7,258.2,428.3,254.7,433,253 M420.4,264.4l13.7-11.7
		c1.2-0.4,2.5-0.7,3.7-0.7L419,267.9C419.5,266.6,419.9,265.4,420.4,264.4 M441.4,251.8l-22.9,19.6c0.2-1.1,0.4-1.9,0.5-2.8
		l19.6-16.8c0.4,0,0.7,0,1.2,0S440.9,251.8,441.4,251.8 M446,288.4c0.9-0.5,1.8-1.2,2.5-2.1l14.7-12.6c0,0.5,0,1.1,0,1.6
		c0,0.2,0,0.5,0,0.7l-23.5,20.1c-0.9,0-1.8,0-2.6-0.2L446,288.4z M441,289.6c0.2,0,0.4,0,0.4,0c1.1,0,2.1-0.2,3-0.5l-8.1,6.8
		c-0.9-0.2-1.6-0.4-2.3-0.5L441,289.6z M437.9,289.1c0.7,0.2,1.6,0.4,2.5,0.5l-6.8,5.8c-0.7-0.2-1.4-0.5-2.1-0.7L437.9,289.1z
		 M435.6,288c0.5,0.4,1.2,0.7,1.9,0.9l-6.5,5.4c-0.7-0.2-1.2-0.5-1.8-0.9L435.6,288z M433.7,286.6c0.5,0.5,1.1,0.9,1.4,1.2l-6.5,5.6
		c-0.5-0.4-1.2-0.7-1.8-1.1L433.7,286.6z M433.3,286.3l-6.8,5.8c-0.5-0.4-1.1-0.9-1.6-1.2l7-6.1C432.6,285.2,433,285.7,433.3,286.3
		 M430.4,280.1c0.2,0.7,0.4,1.4,0.5,1.9l-7.7,6.7c-0.4-0.5-0.7-1.1-1.1-1.6L430.4,280.1z M429.8,277.5c0.2,0.7,0.2,1.6,0.4,2.1
		l-8.4,7.2c-0.4-0.5-0.7-1.1-1.1-1.8L429.8,277.5z M429.7,274.7c0,0.9,0.2,1.6,0.2,2.3l-9.1,7.9c-0.4-0.5-0.5-1.2-0.7-1.8
		L429.7,274.7z M429.7,271.6c0,0.5,0,1.1,0,1.6c0,0.4,0,0.7,0,1.1l-9.8,8.4c-0.2-0.7-0.4-1.2-0.5-1.9L429.7,271.6z M429.8,268.2
		c-0.2,0.9-0.2,1.8-0.4,2.8l-10.7,9.1c-0.2-0.7-0.4-1.4-0.4-2.1L429.8,268.2z M418.3,275.1l12.6-10.9c-0.4,1.1-0.7,2.1-0.9,3.3
		l-11.6,9.8C418.5,276.6,418.3,275.9,418.3,275.1 M441.4,257.9c0,0-0.2,0-0.4,0c-1.1,0-2.1,0.2-3,0.4l7-6c0.9,0.2,1.6,0.4,2.3,0.5
		L441.4,257.9z M444.4,258.4c-0.7-0.2-1.6-0.4-2.5-0.4l6.1-5.3c0.7,0.2,1.4,0.4,2.1,0.7L444.4,258.4z M446.8,259.5
		c-0.5-0.4-1.2-0.7-1.9-0.9l5.8-4.9c0.7,0.4,1.2,0.5,1.9,0.9L446.8,259.5z M448.6,261c-0.4-0.5-0.9-0.9-1.4-1.2l5.8-4.9
		c0.5,0.4,1.1,0.7,1.6,1.1L448.6,261z M449.8,263c-0.4-0.5-0.7-1.1-1.1-1.6l6.1-5.3c0.5,0.4,1.1,0.9,1.6,1.2L449.8,263z
		 M451.4,267.9c-0.2-0.7-0.4-1.4-0.5-2.1l7.4-6.3c0.4,0.5,0.7,1.1,1.1,1.6L451.4,267.9z M451.7,270.5c0-0.9-0.2-1.6-0.4-2.3l8.1-7
		c0.4,0.5,0.7,1.2,0.9,1.8L451.7,270.5z M451.9,273.7c0-0.9,0-1.6,0-2.5l8.8-7.7c0.4,0.7,0.5,1.2,0.7,1.9L451.9,273.7z M451.7,276.8
		c0-0.9,0.2-1.8,0.2-2.6l9.8-8.4c0.2,0.7,0.4,1.4,0.5,1.9L451.7,276.8z M462.8,270.5l-11.6,9.8c0.2-0.9,0.4-1.9,0.5-3l10.7-9.1
		C462.4,269.1,462.6,269.8,462.8,270.5 M451,281l11.7-10c0.2,0.7,0.2,1.6,0.2,2.3l-13.7,11.6C450,283.8,450.5,282.4,451,281
		 M434.9,286.1c-1.1-1.9-2.1-6.5-1.2-13.3c1.1-9.8,4.7-11.4,7.4-11.7c2.6-0.2,5.3,0,6.8,1.1c0.9,0.5,3,3.9,3,11.6
		c0,8.1-3,14.9-9.1,14.9C437.4,288.5,435.6,287.3,434.9,286.1 M458,259.1l-7.4,6.1c-0.2-0.7-0.5-1.2-0.7-1.9l6.7-5.8
		C457.2,258.1,457.5,258.6,458,259.1 M418.3,274.2c0-0.7,0-1.4,0-2.1l23.6-20.1c0.9,0,1.8,0.2,2.5,0.2l-7.5,6.3
		c-2.6,0.7-4.6,2.3-5.8,4.9l-13.1,11.2C418.3,274.4,418.3,274.2,418.3,274.2 M462.6,279.6l-19.3,16.3c-1.1,0.2-2.1,0.2-3.2,0.2
		l22.8-19.4C462.9,277.7,462.8,278.7,462.6,279.6 M461.4,283.8L448.2,295c-1.2,0.4-2.6,0.7-3.9,0.9l18.2-15.6
		C462.2,281.5,461.7,282.8,461.4,283.8 M440.5,250.7c-13.3,0-23.5,9.6-23.3,24.5c0.2,14.9,13.7,24.5,26.3,24.3
		c13.8-0.2,23.3-10.5,23.3-24C467,261.7,454.9,250.7,440.5,250.7"/>
	<path fill="#705D50" d="M254.2,257.9H254l0.4-0.4l0,0C254.3,257.9,254.3,257.9,254.2,257.9 M241.4,294.1c-0.9,0.5-2.1,1.1-3.3,1.4
		l9.6-8.2C246.4,289.8,244.5,292.2,241.4,294.1 M230.2,296.6l18.4-15.8v1.6c0,0.2,0,0.5,0,0.7L233,296.4
		C231.9,296.6,231,296.6,230.2,296.6 M216.7,292.7l7.2-6.1c0.4,0.5,0.9,0.9,1.4,1.2l-7,6c-0.5-0.2-0.9-0.5-1.2-0.9
		C217,292.9,216.8,292.9,216.7,292.7 M214.9,291.2l7.7-6.7c0.4,0.5,0.5,1.1,1.1,1.6l-7.4,6.3C215.8,292.2,215.3,291.7,214.9,291.2
		 M207.6,257.9l7.4-6.3h2.6l-7.4,6.3H207.6z M205.8,257.7v-1.4l5.6-4.7h2.8l-7.4,6.3H206C205.8,257.9,205.8,257.9,205.8,257.7
		 M206,251.6h1.2l-1.4,1.4v-1.1C205.8,251.6,205.8,251.6,206,251.6 M205.8,253.5l2.1-1.9h2.6l-4.9,4.2v-2.3H205.8z M227.7,251.9v0.4
		l-15.8,13.3V263l13.3-11.4h2.1C227.7,251.6,227.7,251.6,227.7,251.9 M227.5,257.9h-2.1l2.5-2.1v1.8
		C227.7,257.9,227.7,257.9,227.5,257.9 M221.6,263.5l-9.6,8.2v-2.5l9.6-8.2V263.5z M221.7,282.4c0.2,0.5,0.4,1.2,0.7,1.9l-7.9,6.7
		c-0.4-0.5-0.7-1.1-1.1-1.6L221.7,282.4z M221.6,279.4v1.4c0,0.4,0,0.5,0.2,1.1l-8.4,7.2c-0.4-0.5-0.5-1.2-0.7-1.9L221.6,279.4z
		 M221.6,276.3v2.5l-9.1,7.9c-0.2-0.7-0.4-1.4-0.4-2.1L221.6,276.3z M211.9,282.8v-1.4l9.6-8.2v2.6l-9.6,8.2
		C212.1,283.5,211.9,283.1,211.9,282.8 M211.9,278.4l9.6-8.2v2.5l-9.6,8.2V278.4z M211.9,259.5v-1.4c0-0.2,0-0.2-0.2-0.2h-1.1
		l7.2-6.3h3L211.9,259.5z M211.9,260l9.8-8.4h3l-12.8,10.9V260z M221.6,266.5l-9.6,8.2v-2.5l9.6-8.2V266.5z M211.9,275.2l9.6-8.2
		v2.5l-9.6,8.2V275.2z M221.6,258.1v2.3l-9.6,8.2v-2.5L221.6,258.1C221.6,257.9,221.6,258.1,221.6,258.1 M221.9,257.9h-0.2l6-5.1
		v2.5l-3.2,2.6H221.9z M220.7,295c-0.7-0.2-1.4-0.5-1.9-0.9l6.8-6c0.5,0.4,1.2,0.7,1.8,1.1L220.7,295z M228.1,289.4
		c0.7,0.2,1.4,0.4,2.3,0.5l-7,6c-0.7-0.2-1.4-0.4-2.1-0.7L228.1,289.4z M234,289.8l-7.7,6.7c-0.9-0.2-1.6-0.2-2.5-0.4l7-6
		c0.2,0,0.4,0,0.5,0C232.4,289.9,233.3,289.8,234,289.8 M241.2,284.2l7.4-6.3v2.3l-19.1,16.5c-0.9,0-1.8-0.2-2.6-0.2l7.9-6.8
		C238.6,289.1,240.3,287.1,241.2,284.2 M239.6,257.9l7.4-6.3h3l-8.2,7v-0.5c0-0.2,0-0.2-0.2-0.2H239.6z M236.5,257.9
		c-0.2,0-0.2,0-0.2-0.2l7.2-6.1h3l-7.4,6.3H236.5z M236.5,251.6h2.6l-2.8,2.5v-2.1C236.3,251.6,236.3,251.6,236.5,251.6
		 M242.6,251.6l-6.5,5.6v-2.5l3.5-3h3V251.6z M253.5,251.6l-11.7,10.2v-2.6l8.9-7.5C250.7,251.6,253.5,251.6,253.5,251.6z
		 M250.5,257.9l3.9-3.3v2.5l-1.1,0.9H250.5z M241.7,267.7v-2.3l6.8-5.8v2.5L241.7,267.7z M248.5,265.1l-6.8,5.8v-2.5l6.8-5.8V265.1z
		 M241.7,280.7l6.8-5.8v2.5l-7.2,6.1C241.5,282.6,241.7,281.7,241.7,280.7 M248.5,268l-6.8,5.8v-2.5l6.8-5.8V268z M241.7,277v-2.6
		l6.8-5.8v2.6L241.7,277z M248.5,274.2l-6.8,5.8c0-0.5,0-0.9,0-1.4v-1.1l6.8-5.8C248.5,272.6,248.5,273.5,248.5,274.2 M254.2,251.6
		c0.2,0,0.2,0,0.2,0.2v2.1l-4.6,3.9h-1.1c-0.4,0-0.4,0-0.4,0.5c0,0,0,0.4,0,0.7l-6.7,5.8v-2.5L254.2,251.6L254.2,251.6z
		 M247.8,286.6l-10.9,9.3c-1.1,0.2-2.1,0.4-3.3,0.5l14.9-12.6C248.4,284.7,248.2,285.7,247.8,286.6 M255.2,251.1
		c-0.7-0.5-0.7-0.5-1.9-0.5h-17.9c-0.4,0-0.4,0-0.4,0.4v8.2c0,0,0.7,0.5,1.4,1.1c0.7,0.5,1.4,1.1,1.4,1.1h2.5c0.4,0,0.4,0,0.4,0.4
		s0,16.1,0,18.6c0,2.5-0.4,8.9-7.7,8.9c-7.4,0-7.7-6.3-7.7-10v-17.5c0-0.5,0-0.5,0.5-0.5h5.1c0.4,0,0.4,0,0.4-0.5v-6.7
		c0-0.2-0.7-1.1-1.2-1.8c-0.7-0.9-1.2-1.6-1.4-1.6h-23.5c-0.4,0-0.4,0-0.4,0.4v8.1c0,0.2,0.5,0.4,1.2,0.9c0.7,0.5,1.6,1.2,1.8,1.2h3
		c0.2,0,0.2,0,0.2,0.2v20.3c0,4.4,0.9,8.9,4.2,11.9c5.4,5.4,11.2,5.8,18.6,5.8c7.2,0,18.4-3.9,18.4-17.2v-20.7c0-0.4,0-0.4,0.4-0.4
		h5.1c0.4,0,0.4,0,0.4-0.4v-7.2C257.7,253.3,255.7,251.6,255.2,251.1"/>
	<path fill="#705D50" d="M320.5,285.6c-2.5,3.3-5.8,7.2-11,9.1l11.2-9.5C320.7,285.4,320.7,285.4,320.5,285.6 M301.1,296.1
		l15.9-13.5c0.5,0.4,1.1,0.7,1.6,1.1l-14.5,12.3C303,296.1,302.1,296.1,301.1,296.1 M284.1,289.2l7.9-6.7c0.4,0.5,0.7,1.1,1.2,1.6
		l-7.5,6.5C285,290.1,284.6,289.8,284.1,289.2 M284.8,256.7c1.4-1.2,2.8-2.3,4-3.2l-6,5.1C283.6,257.9,284.3,257.2,284.8,256.7
		 M303.4,250.7l-25.6,21.7c0-0.9,0.2-1.9,0.2-2.8l22.4-19.1c0.9,0,1.6,0,2.3,0C303,250.7,303.2,250.7,303.4,250.7 M306.2,257.7
		c-0.7-0.4-1.4-0.5-2.1-0.7l5.4-4.6c0.7,0.4,1.2,0.7,1.8,1.1L306.2,257.7z M313,251.6h0.2l-0.2,0.2V251.6z M319.1,251.9v0.9
		l-9.1,7.7c-0.4-0.5-0.9-0.9-1.4-1.4l8.8-7.5h1.4C319.1,251.6,319.1,251.6,319.1,251.9 M318.8,266.5h-0.9l1.2-1.1v0.7
		C319.1,266.5,319.1,266.5,318.8,266.5 M314.4,266.5l4.7-4v2.5l-1.9,1.6C316.5,266.5,315.3,266.5,314.4,266.5 M312.7,266.5
		c0,0-0.2-0.5-0.4-1.4l6.8-5.8v2.5l-5.4,4.6C313.2,266.5,312.7,266.5,312.7,266.5 M311.6,262.8l7.7-6.5v2.5l-7,6l0,0
		C312.1,264,311.8,263.5,311.6,262.8 M310.4,260.9l8.9-7.5v2.5l-7.9,6.7C311.1,261.9,310.7,261.4,310.4,260.9 M312.5,254.2
		c0.4,0.4,0.7,0,0.7-0.5v-1.4l0.9-0.7h3l-8.8,7.2c-0.5-0.4-1.1-0.7-1.8-1.1l4.9-4.2C312,253.9,312.1,254,312.5,254.2 M300.7,256.7
		l6.3-5.3c0.7,0.2,1.4,0.5,2.1,0.7l-5.6,4.7C302.7,256.7,301.8,256.7,300.7,256.7 M290.8,280.5c0.4,0.5,0.5,1.2,0.9,1.8l-7.9,6.7
		c-0.4-0.5-0.9-0.9-1.2-1.4L290.8,280.5z M289.9,278.2c0.2,0.7,0.4,1.2,0.7,1.9l-8.2,7c-0.4-0.5-0.7-1.1-1.1-1.6L289.9,278.2z
		 M289.4,275.6c0.2,0.7,0.2,1.4,0.5,2.1l-8.8,7.5c-0.4-0.5-0.7-1.1-0.9-1.8L289.4,275.6z M289.2,272.8c0,0.9,0,1.6,0.2,2.3l-9.3,7.9
		c-0.4-0.5-0.5-1.2-0.7-1.8L289.2,272.8z M289.4,269.6c-0.2,0.7-0.2,1.6-0.2,2.3v0.4l-10,8.6c-0.2-0.7-0.4-1.4-0.5-2.1L289.4,269.6z
		 M300,256.7c-3.2,0.5-7.2,3.2-9.3,7.9L278,275.4c-0.2-0.9-0.2-1.8-0.2-2.5l26.3-22.4c0.9,0.2,1.8,0.4,2.5,0.5L300,256.7z
		 M279,265.6l17.3-14.7c1.2-0.2,2.3-0.2,3.3-0.2l-21.5,18.4C278.3,267.9,278.7,266.6,279,265.6 M281.8,260.2l8.9-7.7
		c1.6-0.7,3.2-1.2,4.7-1.6l-16.1,13.8C280.1,263.1,280.8,261.6,281.8,260.2 M278.3,278c-0.2-0.7-0.4-1.2-0.4-1.9l12.3-10.5
		c-0.4,1.1-0.7,2.1-0.9,3.3l-11,9.5C278.3,278.2,278.3,278,278.3,278 M294.8,285.7l-7.4,6.3c-0.5-0.4-1.1-0.7-1.6-1.2l7.5-6.5
		C293.9,284.9,294.3,285.4,294.8,285.7 M296.9,287.1l-7.2,6.3c-0.5-0.4-1.2-0.7-1.8-1.1l7.4-6.3
		C295.7,286.4,296.2,286.8,296.9,287.1 M292,294.3c-0.7-0.2-1.2-0.5-1.9-0.9l7.2-6.1c0.7,0.4,1.2,0.5,1.9,0.7L292,294.3z
		 M299.9,288.2c0.9,0.2,1.8,0.4,2.6,0.4l-7.7,6.7c-0.7-0.2-1.4-0.4-2.1-0.7L299.9,288.2z M306.2,288L306.2,288l-8.8,7.5
		c-0.7-0.2-1.4-0.2-2.1-0.4l7.9-6.8C304.1,288.5,305.1,288.4,306.2,288 M314.9,281.7c0.4-0.5,0.4-0.5,0.9-0.2c0.2,0,0.4,0.4,0.9,0.7
		l-16.1,13.8c-0.7,0-1.6,0-2.6-0.2l9.5-8.1C312.1,286.1,314.8,282.1,314.9,281.7 M320.4,284.9L308.5,295c-1.1,0.4-2.3,0.5-3.7,0.7
		l14-11.9C319.5,284.3,320,284.7,320.4,284.9 M323.7,286.1c-0.4-0.2-2.1-1.6-2.1-1.6s-5.4-4-5.8-4.6c-0.7-0.5-0.7-0.4-1.2,0.4
		c-0.4,0.4-3.5,6.1-10.2,6.8c-7,0.9-11.7-4.2-11.7-14.2c0-8.8,6-14.2,9.5-14.4c5.4-0.2,8.1,1.4,9.6,8.1c0,0.2,0.5,0.4,0.9,0.7
		c0.5,0.4,1.9,1.9,2.1,1.9h7.5c0.4,0,0.4,0,0.4-0.5v-15.1l-0.4-0.5c0,0-2.5-2.6-2.6-2.6h-7.5c-0.2,0-0.2,0-0.2,0.4v1.6v0.2l-0.2,0.2
		c-1.6-1.4-4.9-3.2-11-3.3c-2.8,0-8.2-0.2-13.8,3.9c-5.6,4-11.4,11.6-10.3,22.2c1.2,13.3,12.4,24,26.8,23.6
		c11.2-0.2,17.7-8.4,20.3-12.3C324,286.3,324,286.4,323.7,286.1"/>
	<path fill="#705D50" d="M395,258.4h-1.6l1.9-1.6v1.2C395.3,258.4,395.2,258.4,395,258.4 M395,289.1v0.9l-5.8,4.9h-2.8l7-6h1.4
		C395,288.9,395,288.9,395,289.1 M394.5,294.8h-1.1l1.6-1.4v0.7C395,294.7,395,294.8,394.5,294.8 M389.9,294.8l5.1-4.4
		c0,0.7,0,1.6,0,2.3l-2.3,1.9h-2.8V294.8z M382.9,294.8l7-6h2.8l-7,6H382.9z M373.3,294.3v-0.5l6-5.1c0,0,0,0,0.2,0l9.8-8.4v2.5
		l-14,11.9h-1.6C373.4,294.8,373.3,294.8,373.3,294.3 M373.6,288.9h1.2l-1.4,1.2v-1.1C373.3,288.9,373.4,288.9,373.6,288.9
		 M378.5,288.9l-5.3,4.4v-2.6l2.1-1.9h3.2V288.9z M366.6,289.2v0.5l-6,5.1h-3l7-6h1.8C366.6,288.9,366.6,288.9,366.6,289.2
		 M366.1,294.8h-1.2l1.8-1.4v0.9C366.6,294.7,366.4,294.8,366.1,294.8 M361.3,294.8l5.3-4.6v2.5l-2.5,2.1H361.3z M345.1,294.5v-1.1
		l15.6-13.3v2.5l-14.4,12.3h-1.1C345.1,294.8,345.1,294.8,345.1,294.5 M345.4,288.9h0.7l-1.1,0.9v-0.7
		C345.1,288.9,345.1,288.9,345.4,288.9 M349.8,288.9l-4.7,4v-2.5l1.8-1.6H349.8z M345.1,258.1v-1.2l5.8-4.9h2.8l-7.5,6.5h-0.9
		C345.1,258.4,345.1,258.4,345.1,258.1 M345.4,251.9h1.2l-1.6,1.4v-1.1C345.1,251.9,345.1,251.9,345.4,251.9 M345.1,253.9l2.3-1.9
		h2.8l-5.1,4.4V253.9z M366.6,252.1v0.9l-16.1,13.7v-2.5l14.4-12.3h1.4C366.6,251.9,366.6,251.9,366.6,252.1 M366.3,258.4h-1.8
		l1.9-1.8v1.4C366.6,258.2,366.6,258.4,366.3,258.4 M364.9,269.8l-14.4,12.1v-2.5l11.4-9.6H364.9z M368.4,269.8L350.5,285v-0.9v-1.8
		l14.9-12.8h1.1h1.9V269.8z M372.7,269.8h3l-7.7,6.5h-3L372.7,269.8z M361.3,276.5l7.7-6.5h3l-7.7,6.5H361.3z M350.5,285.7l10.2-8.6
		v2.5l-10.2,8.6V285.7z M360.6,264.2l-10.2,8.8v-2.5l10.2-8.8V264.2z M350.5,276.5l10.2-8.8v1.8c0,0.4,0,0.4,0.2,0.4h0.2l-10.7,9.1
		v-2.5H350.5z M360.6,267.2l-10.2,8.8v-2.5l10.2-8.8V267.2z M360.6,258.6v2.5l-10.2,8.8v-2.5L360.6,258.6L360.6,258.6 M361,258.4
		L361,258.4l5.4-4.7v2.5l-2.6,2.3C363.8,258.4,361,258.4,361,258.4z M361.3,251.9c1.1,0,2.1,0,3,0l-13.8,11.7v-2.5L361.3,251.9z
		 M357.8,251.9h2.8l-10.2,8.8v-1.8c0-0.4,0-0.4-0.2-0.4L357.8,251.9z M349.6,258.4h-2.8l7.5-6.5c0.9,0,1.9,0,2.8,0L349.6,258.4z
		 M361.2,288.9h2.8l-7,6h-2.8L361.2,288.9z M360.6,286.3v2.3c0,0.2,0,0.2,0,0.2l-7.2,6.1h-3L360.6,286.3z M360.6,285.7l-10.7,9.1h-3
		l13.7-11.6V285.7z M379,269.8C379.2,269.8,379.2,269.8,379,269.8l-7.5,6.5h-3l7.7-6.5H379z M375.4,258.4l7.5-6.5h3l-7.5,6.5H375.4z
		 M373.3,257.9c0,0,0-0.4,0-0.7l6.1-5.1h2.8l-7.5,6.5h-1.2C373.4,258.4,373.3,258.2,373.3,257.9 M373.6,251.9h1.6l-1.8,1.6
		c0-0.7,0-1.2,0-1.2C373.3,251.9,373.4,251.9,373.6,251.9 M373.3,254l2.5-2.1h3l-5.4,4.6C373.3,255.8,373.3,254.9,373.3,254
		 M395.3,252.1v1.1l-15.9,13.5v-2.5l14.4-12.3h1.2C395.2,251.9,395.3,251.9,395.3,252.1 M389.7,258.4l5.4-4.7v2.5l-2.6,2.3
		C392.5,258.4,389.7,258.4,389.7,258.4z M379.4,260.5v-1.8c0-0.4,0-0.4-0.2-0.4H379l7.5-6.5h3L379.4,260.5z M379.4,261l10.7-9.1h3
		l-13.7,11.6V261z M379.4,269.8v-0.2v-2.3l9.8-8.4v2.5L379.4,269.8z M389.2,264.4l-14,12.1h-2.8l17-14.5v2.5H389.2z M379.4,285.6
		l9.8-8.2v2.5l-9.8,8.4V285.6z M389.2,268v2.5l-9.8,8.4v-2.1c0-0.2,0-0.2,0-0.4L389.2,268z M389.2,267.5l-10.5,8.9h-3l13.5-11.4
		V267.5z M389.2,273.7l-9.8,8.4v-2.5l9.8-8.4V273.7z M389.2,276.6l-9.8,8.2v-2.5l9.8-8.4V276.6z M389.2,285.9l-10.5,8.9h-2.8
		l13.3-11.4V285.9z M389.2,288.7l-7,6h-2.8l9.8-8.4v1.9C389.2,288.5,389.2,288.7,389.2,288.7 M399,254c0-0.2-2.3-2.8-2.3-2.8
		s-0.5-0.5-0.9-0.5c-0.5,0-22.2,0-22.8,0c-0.7,0-0.7,0-0.7,0.5v7.2c0,0.2,0.2,0.4,0.7,0.7c0.4,0.4,1.6,1.6,1.8,1.8
		c0.4,0.2,0.5,0.4,0.7,0.4c0.2,0,2.3,0,2.6,0s0.4,0,0.4,0.2v6.8c0,0.4,0,0.4-0.5,0.4h-4.7H365c-0.4,0-0.4,0-0.4-0.4
		c0-0.2,0-6.5,0-6.8c0-0.2,0-0.4,0.4-0.4h5.3c0,0,0.4,0,0.4-0.4c0-0.4,0-2.1,0-3.7c0-1.4,0.2-3.2,0.2-3.5s-0.4-0.5-0.4-0.5l-2.5-1.8
		c0,0-0.2-0.5-0.7-0.5h-22.8c-0.4,0-0.5,0.2-0.5,0.9v7c0,0.2,0.2,0.5,0.5,0.7c0.2,0.2,1.9,1.9,2.3,1.9h2.6c0.2,0,0.2,0.2,0.2,0.5
		v25.4c0,0.4,0,0.5-0.4,0.5h-4.6c-0.4,0-0.5,0.2-0.5,0.4v7.5c0,0.4,0.2,0.4,0.4,0.7c0.2,0.4,1.8,1.9,2.1,1.9s0.7,0.2,1.4,0.2
		c0.7,0,21.2-0.2,21.7-0.2c0.5,0,0.5-0.2,0.5-0.9v-7.2c0-0.4-2.5-2.5-2.6-2.5h-2.8c-0.2,0-0.4,0-0.4-0.2V280c0-0.4,0-0.4,0.4-0.4
		h13.3c0.2,0,0.2,0,0.2,0.4v7.5c0,0.4,0,0.4-0.5,0.4h-4.9c-0.5,0-0.7,0.2-0.7,0.4v7.4c0,0.2,0.4,0.4,0.5,0.5
		c0.2,0.2,1.1,1.1,1.4,1.6c0.5,0.5,0.5,0.7,0.9,0.7s6.1-0.2,8.6-0.2c2.5,0,14,0,14.5,0s0.7-0.2,0.7-0.5s0-6.8,0-7.2
		s-1.9-2.3-2.3-2.5c-0.4-0.2-0.5-0.4-0.7-0.4s-2.5,0-2.6,0c-0.4,0-0.4,0-0.4-0.4s0-24.9,0-25.4s0.2-0.7,0.5-0.7h5.1
		c0,0,0.5,0,0.5-0.4s0-1.4,0-3C398.8,256.5,399,254.2,399,254"/>
	<path fill="#705D50" d="M527.2,295h-1.4l1.8-1.6v1.1C527.6,295,527.6,295,527.2,295 M518.8,295l8.8-7.4v2.5l-5.8,4.9
		C521.8,295,518.8,295,518.8,295z M516.9,294.7c0,0-0.2-0.2-0.4-0.7l11-9.3v2.3l-9.5,8.1h-0.9C517.1,295,516.9,294.7,516.9,294.7
		 M500.6,288.7l-7.4,6.3h-2.8l7.4-6.3H500.6z M503.1,288.9v0.5l-6.5,5.4h-2.8l7.4-6.3h1.6C503.1,288.7,503.1,288.7,503.1,288.9
		 M502.9,295H501l2.1-1.9v1.6C503.1,295,503.1,295,502.9,295 M497.3,295l5.8-4.9c0,0.7,0,1.6,0,2.5l-2.8,2.5H497.3z M484.7,294.7
		v-1.2l5.8-4.9c0.4,0,0.4-0.2,0.4-0.4l6.5-5.4v2.5l-11.4,9.6H485C484.7,295,484.7,295,484.7,294.7 M484.7,290.5l2.1-1.8h3l-5.1,4.2
		L484.7,290.5L484.7,290.5z M484.8,288.7h1.2l-1.4,1.2v-1.1C484.7,288.7,484.7,288.7,484.8,288.7 M486.8,258.2l7.4-6.3h2.8l-7.4,6.3
		c-0.5,0-1.4,0-2.3,0C487.3,258.2,486.9,258.2,486.8,258.2 M484.7,257l6-5.1h2.8l-7.4,6.3c-0.7,0-1.4,0-1.4-0.2
		C484.7,258.1,484.7,257.5,484.7,257 M484.8,251.9h1.6l-1.8,1.6c0-0.7,0-1.2,0-1.2C484.7,251.9,484.8,251.9,484.8,251.9
		 M484.7,255.6c0-0.4,0-1.1,0-1.6l2.5-2.1h2.8l-5.3,4.6C484.7,256.1,484.7,256,484.7,255.6 M503.1,252.8L491,263.1v-2.5l10.2-8.8
		h1.4C502.5,251.9,502.7,252.3,503.1,252.8 M519.3,257.9l7-6h3l-7.9,6.7v-0.2c0-0.4,0-0.4-0.4-0.4h-1.8V257.9z M516.2,257.9
		c-0.4,0-0.4,0-0.4-0.2l6.8-5.8h2.8l-7,6C517.6,257.9,516.5,257.9,516.2,257.9 M516.2,251.9h2.3l-2.6,2.3v-1.8
		C516,251.9,516,251.9,516.2,251.9 M516,254.7l3.3-2.8h3l-6.1,5.3v-2.5H516z M527.6,265.8l-6.1,5.3c0-0.9,0-1.6,0-2.5l6.1-5.3V265.8
		z M527.6,281.7v2.5l-11.2,9.5c-0.2-0.4-0.5-1.1-0.9-1.6L527.6,281.7z M527.6,278.6v2.5l-12.4,10.5c-0.4-0.5-0.7-1.1-1.1-1.8
		L527.6,278.6z M520.4,281.5c0,0.2,0.2,0.2,0.2,0.2c0.4,0.7,0.7,0.2,0.7-0.4v-0.7l6.1-5.3v2.5l-13.7,11.6c-0.4-0.5-0.7-1.1-0.9-1.8
		L520.4,281.5z M519.2,279.4c0.4,0.7,0.7,1.2,1.1,1.6l-7.5,6.5c-0.4-0.5-0.7-1.1-1.1-1.8L519.2,279.4z M521.4,274.5l6.1-5.3v2.5
		l-6.1,5.3C521.4,276.3,521.4,275.4,521.4,274.5 M521.4,261.7v-2.5l8.6-7.4h3L521.4,261.7z M521.4,265.4l6.1-5.3v2.6l-6.1,5.3V265.4
		z M527.6,268.7l-6.1,5.3v-2.5l6.1-5.3C527.6,267.2,527.6,267.9,527.6,268.7 M527.6,274.9l-6.1,5.3v-2.5l6.1-5.3V274.9z
		 M533.4,257.7l-0.5,0.5h-3l3.5-3V257.7L533.4,257.7z M533.4,254.6l-4.2,3.7h-1.4c-0.2,0-0.4,0-0.4,0.5v0.9l-6.1,5.3v-2.6l11.9-10.2
		c0,0,0,0.2,0,0.4v2.1H533.4z M517.9,277.5c0.4,0.5,0.7,1.2,1.1,1.6l-7.5,6.3c-0.4-0.5-0.7-1.1-1.1-1.8L517.9,277.5z M516.7,275.4
		c0.4,0.5,0.7,1.1,1.1,1.6l-7.4,6.3c-0.4-0.5-0.7-1.1-0.9-1.6L516.7,275.4z M515.7,273.5c0.4,0.5,0.7,1.1,0.9,1.6l-7.4,6.3
		c-0.4-0.5-0.7-1.1-0.9-1.6L515.7,273.5z M514.3,271.4c0.4,0.5,0.7,1.2,1.1,1.8l-7.4,6.3c-0.4-0.5-0.7-1.2-1.1-1.8L514.3,271.4z
		 M513,269.4c0.4,0.5,0.7,1.1,1.1,1.6l-7.4,6.3c-0.4-0.5-0.7-1.1-0.9-1.8L513,269.4z M511.8,267.3c0.4,0.5,0.7,1.1,1.1,1.6l-7.4,6.1
		c-0.4-0.5-0.7-1.1-0.9-1.8L511.8,267.3z M510.6,265.2c0.4,0.5,0.7,1.1,1.1,1.6l-7.2,6.1c-0.4-0.5-0.7-1.2-1.1-1.8L510.6,265.2z
		 M509.4,263.3c0.4,0.5,0.7,1.1,1.1,1.6l-7.2,6.1c-0.4-0.5-0.7-1.1-0.9-1.8L509.4,263.3z M508.1,261.4c0.4,0.5,0.7,1.1,1.1,1.6
		l-7.2,6.1c-0.4-0.5-0.7-1.1-0.9-1.6L508.1,261.4z M497.3,273.1l-6.5,5.4v-2.5l6.5-5.4V273.1z M497.3,288.5l-7.7,6.5h-3l10.7-9.1
		V288.5L497.3,288.5z M490.8,285.4l6.5-5.4v2.5l-6.5,5.4V285.4z M490.6,258.1L490.6,258.1l7.2-6.3h2.8L491,260v-1.4
		C490.8,258.2,490.8,258.1,490.6,258.1 M490.8,266.3v-2.5l12.4-10.5c0.4,0.5,0.7,1.1,1.1,1.6L490.8,266.3z M498.5,262.8
		c-0.7-1.2-1.2-0.5-1.2,0.4v0.5l-6.5,5.4v-2.3l13.7-11.6c0.4,0.5,0.7,1.1,1.1,1.6L498.5,262.8z M499.7,264.9
		c-0.5-0.9-0.9-1.4-1.1-1.8l7-6c0.4,0.5,0.7,1.1,1.1,1.6L499.7,264.9z M490.8,273l6.5-5.4v2.5l-6.5,5.4V273z M490.8,270l6.5-5.4
		c0,0.7,0,1.4,0,2.5l-6.5,5.4V270z M497.3,276.1l-6.5,5.4v-2.5l6.5-5.4V276.1z M497.3,279.3l-6.5,5.4v-2.5l6.5-5.6V279.3z
		 M508,260.9l-7.2,6.1c-0.4-0.7-0.7-1.2-1.1-1.8l7-6C507.3,259.8,507.6,260.3,508,260.9 M527.6,292.9l-2.5,2.1h-2.6l5.1-4.4V292.9z
		 M535.1,251.8c-0.4-0.4-0.5-0.5-0.7-0.7c-0.2-0.2-0.7-0.4-0.7-0.4s-18,0-18.4,0c-0.4,0-0.5,0-0.5,0.4v7.5c0,0.2,1.9,1.6,2.3,1.9
		c0.5,0.4,0.7,0.5,0.9,0.5s1.8,0,1.9,0s0.2,0,0.2,0.4v13.5c0,0.2,0,0-0.2,0c0-0.2-4-6.5-4-6.5l-7.9-13.3l-4.6-3.7l-1.2-0.9h-18.4
		c-0.4,0-0.5,0-0.5,0.4c0,0.4,0,7.4,0,7.5c0,0.2,1.9,1.6,2.3,1.9c0.4,0.4,0.7,0.5,0.9,0.5s2.5,0,2.6,0s0.2,0.2,0.2,0.4v25.4
		c0,0.5,0,0.7-0.5,0.7s-0.7,0-2.3,0c-1.6,0-2.5,0-2.8,0c-0.5,0-0.5,0.2-0.5,0.7c0,0.5,0.2,1.6,0.2,2.6c0,0.7,0,1.9,0,3l0,0l0,0
		c0,1.1,0,1.8,0,1.9c0,0.2,2.1,2.5,2.6,2.5h20c0.5,0,0.5,0,0.5-0.5c0-0.4,0-7,0-7.2c0-0.2-0.2-0.5-0.4-0.7c-0.2-0.2-2.1-2.5-2.3-2.5
		h-3.2c-0.2,0-0.2,0-0.2-0.5v-17.2c0-0.7,0.2-0.5,0.5,0c0.4,0.4,15.1,25.9,15.1,25.9l3.2,2.6h11c0.7,0,0.7,0,0.7-0.7v-35.4
		c0-0.5,0-0.5,0.5-0.5h5.3c0.4,0,0.4,0,0.4-0.4v-7.4C536.9,253.5,535.8,252.5,535.1,251.8"/>
	<g>
		<path fill="#FFFFFF" d="M98.3,406.9c6,0,8.9,0,8.9,19.3v12.4c0,14.5-2.6,14.5-6.7,14.5h-5.8v-46.2H98.3z M97.6,340.6
			c5.3,0,7.7,0,7.7,15.1V371c0,12.4-4.2,12.4-6.3,12.4h-4v-42.9H97.6z M73.6,316.7h-3.5v159.7h32.6c8.6,0,16.1-2.6,20.8-7.5
			c6.7-7,8.9-16.5,8.9-37.8c0-12.8-0.9-20-3.5-25.6c-1.9-4.7-4.4-8.1-8.6-11c0.9-0.7,1.6-1.4,2.3-2.3c5.3-6,7.2-14.7,7.2-32.2
			c0-31.7-9.1-43.4-33.8-43.4"/>
		<path fill="none" stroke="#FFFFFF" stroke-width="0.7652" stroke-miterlimit="10" d="M91.1,456.9h9.5c7.9,0,10.2-4.2,10.2-18.2
			v-12.4c0-18.4-2.5-22.9-12.4-22.9h-7v53.6H91.1z M91.1,387.2h7.7c6.8,0,10-5.1,10-16.1v-15.4c0-14.7-2.3-18.7-11.2-18.7h-6.5
			V387.2z M96.2,320.2c22.4,0,30.3,10.2,30.3,39.8c0,16.5-1.6,24.5-6.3,29.8c-1.8,1.9-3,3-6.5,4.7c6.8,3.5,9.8,6.5,12.1,12.3
			c2.3,5.3,3.2,12.3,3.2,24.2c0,20.5-2.1,29.3-7.9,35.2c-4.2,4.2-10.7,6.5-18.4,6.5H73.6V320.2"/>
		<path fill="none" stroke="#FFFFFF" stroke-width="0.3877" d="M91.1,456.9h9.5c7.9,0,10.2-4.2,10.2-18.2v-12.4
			c0-18.4-2.5-22.9-12.4-22.9h-7v53.6H91.1z M91.1,387.2h7.7c6.8,0,10-5.1,10-16.1v-15.4c0-14.7-2.3-18.7-11.2-18.7h-6.5V387.2z
			 M96.2,320.2c22.4,0,30.3,10.2,30.3,39.8c0,16.5-1.6,24.5-6.3,29.8c-1.8,1.9-3,3-6.5,4.7c6.8,3.5,9.8,6.5,12.1,12.3
			c2.3,5.3,3.2,12.3,3.2,24.2c0,20.5-2.1,29.3-7.9,35.2c-4.2,4.2-10.7,6.5-18.4,6.5H73.6V320.2H96.2z"/>
		<path fill="#FFFFFF" d="M180.9,368.2c2.3,21.5,4.2,40.8,4.6,45h-9.3C176.6,409,178.7,389.8,180.9,368.2 M192.3,316.7H166
			l-21,159.7h23.8c0,0,4.2-35.6,4.7-41h14.4c0.7,5.4,4.7,41,4.7,41h23.6l-21-159.7"/>
		<path fill="none" stroke="#FFFFFF" stroke-width="0.7652" stroke-miterlimit="10" d="M172.2,416.8h17.3l-8.4-81.8h-0.4
			L172.2,416.8z M192.3,320.2l20,152.6h-16.1l-4.7-41h-21l-4.7,41h-16.5l20-152.6"/>
		<path fill="none" stroke="#FFFFFF" stroke-width="0.3877" d="M172.2,416.8h17.3l-8.4-81.8h-0.4L172.2,416.8z M192.3,320.2
			l20,152.6h-16.1l-4.7-41h-21l-4.7,41h-16.5l20-152.6H192.3z"/>
		<path fill="#FFFFFF" d="M293.4,316.7h-20c0,0-8.9,26.6-15.1,45v-45h-24.5v159.7h24.5v-55.9c6.7,22.2,16.6,55.9,16.6,55.9h25
			c0,0-26.3-85.8-27-87.9c0.7-2.1,25.2-71.8,25.2-71.8"/>
		<polyline fill="none" stroke="#FFFFFF" stroke-width="0.7652" stroke-miterlimit="10" points="254.9,320.2 254.9,382.6 
			255.2,382.6 276,320.2 293.4,320.2 269.4,388.4 295.3,472.8 277.8,472.8 255.2,397.1 254.9,397.1 254.9,472.8 237.5,472.8 
			237.5,320.2 		"/>
		<polygon fill="none" stroke="#FFFFFF" stroke-width="0.3877" points="254.9,320.2 254.9,382.6 255.2,382.6 276,320.2 293.4,320.2 
			269.4,388.4 295.3,472.8 277.8,472.8 255.2,397.1 254.9,397.1 254.9,472.8 237.5,472.8 237.5,320.2 		"/>
		<polyline fill="#FFFFFF" points="367.1,316.7 314.4,316.7 314.4,476.5 373.1,476.5 373.1,453 339.1,453 339.1,406.1 366.4,406.1 
			366.4,382.8 338.9,382.8 338.9,340.2 370.8,340.2 370.8,316.7 		"/>
		<polyline fill="none" stroke="#FFFFFF" stroke-width="0.7652" stroke-miterlimit="10" points="367.1,320.2 367.1,336.5 
			335.3,336.5 335.3,386.5 362.8,386.5 362.8,402.4 335.4,402.4 335.4,456.7 369.4,456.7 369.4,472.8 317.9,472.8 317.9,320.2 		"/>
		<polygon fill="none" stroke="#FFFFFF" stroke-width="0.3877" points="367.1,320.2 367.1,336.5 335.3,336.5 335.3,386.5 
			362.8,386.5 362.8,402.4 335.4,402.4 335.4,456.7 369.4,456.7 369.4,472.8 317.9,472.8 317.9,320.2 		"/>
		<path fill="#FFFFFF" d="M415.8,340.6c6.7,0,7.7,1.4,8.6,3.5v0.2v0.2c0.5,1.1,0.7,1.6,0.7,1.8v0.4v0.4c0.4,1.9,0.5,6.3,0.9,12.3
			l0.2,4v3.7c0,18.4-2.3,19.1-11.4,19.1h-1.2v-45.4H415.8z M392.5,316.7h-3.7v159.7h24.7v-67.1h2.1c1.2,5.1,16.6,67.1,16.6,67.1
			h24.5c0,0-17.2-69.4-18.2-73.7c8.9-6.7,12.6-15.6,12.6-31.4V356c0-32.4-17.3-39.2-31.7-39.2"/>
		<path fill="none" stroke="#FFFFFF" stroke-width="0.7652" stroke-miterlimit="10" d="M410,389.4h4.7c12.3,0,15.1-4,15.1-22.8v-4
			c-0.4-8.6-0.7-14.2-1.1-16.6c0-1.1-0.4-2.1-1.1-3.3c-1.6-4.4-5.1-5.8-11.9-5.8H410L410,389.4L410,389.4z M419.5,320.2
			c18.6,0,28.2,11.9,28.2,35.6v15.4c0,15.6-3.5,23.8-13.1,29.8l17.7,71.6h-17.2l-16.5-66.9H410v67.1h-17.5V320.2"/>
		<path fill="none" stroke="#FFFFFF" stroke-width="0.3877" d="M410,389.4h4.7c12.3,0,15.1-4,15.1-22.8v-4
			c-0.4-8.6-0.7-14.2-1.1-16.6c0-1.1-0.4-2.1-1.1-3.3c-1.6-4.4-5.1-5.8-11.9-5.8H410L410,389.4L410,389.4z M419.5,320.2
			c18.6,0,28.2,11.9,28.2,35.6v15.4c0,15.6-3.5,23.8-13.1,29.8l17.7,71.6h-17.2l-16.5-66.9H410v67.1h-17.5V320.2H419.5z"/>
		<path fill="#FFFFFF" d="M528.1,316.7h-20.5c0,0-7.5,34-11.4,51.3c-4-17.3-11.9-51.3-11.9-51.3h-25c0,0,24.7,91.4,24.9,92.3v67.6
			h24.7v-68.1c0.2-0.9,23.8-91.8,23.8-91.8"/>
		<path fill="#705D50" d="M102.6,477H69.5V316h26.6c25,0,34.3,11.9,34.3,44c0,17.7-1.9,26.4-7.4,32.6c-0.5,0.7-1.2,1.2-1.9,1.9
			c3.9,2.8,6.3,6,8.2,10.9c2.5,5.6,3.5,13,3.5,25.7c0,21.5-2.3,31.2-9.1,38.2C118.9,474.4,111.4,477,102.6,477z M70.6,476h32.1
			c8.4,0,15.8-2.6,20.5-7.4c6.7-6.8,8.8-16.3,8.8-37.3c0-12.8-0.9-20-3.3-25.4c-1.9-4.9-4.4-7.9-8.4-10.7l-0.5-0.4l0.5-0.5
			c0.9-0.7,1.6-1.4,2.3-2.3c5.1-5.8,7-14.4,7-31.9c0-31.2-9.1-42.9-33.3-42.9H70.6V476z M100.5,453.7h-6.3v-47.5h4
			c6.5,0,9.5,0.9,9.5,19.8v12.4C107.7,453,105.1,453.7,100.5,453.7z M95.3,452.7h5.3c3.9,0,6.1,0,6.1-14v-12.4
			c0-18.7-2.6-18.7-8.4-18.7h-3V452.7z M98.8,384.2h-4.6V340h3.3c5.8,0,8.2,0.5,8.2,15.8v15.4C105.8,384.2,101.2,384.2,98.8,384.2z
			 M95.3,383.1h3.5c2.1,0,5.8,0,5.8-11.9v-15.4c0-14.5-2.1-14.5-7-14.5h-2.3V383.1z M217.2,477h-24.7v-0.5c0,0-4-33.8-4.7-40.6
			h-13.5c-0.9,6.8-4.7,40.6-4.7,40.6v0.5h-25v-0.7l21-160.3H196v0.5L217.2,477z M193.4,476h22.4L195,317.3h-28.4L145.7,476h22.8
			c0.5-4.2,4.2-35.6,4.7-40.6v-0.5h15.4v0.5C189.2,440.4,192.8,471.8,193.4,476z M186,413.8h-10.5v-0.5c0.4-3.9,2.1-19.8,4-38.9
			l1.2-11.4l2.3,21.5c1.4,14.4,2.6,25.6,3,28.6V413.8z M176.7,412.7h8.1c-0.4-3.7-1.4-14.5-2.8-28l-1.1-11.2l-0.2,0.9
			C178.8,392.6,177.3,408,176.7,412.7z M300.9,477h-26.3l-15.6-52.7V477h-25.6V316h25.6v42.2l14.2-42.2h26.1l-0.2,0.7
			c0,0-23.6,67.3-25.2,71.6c1.4,4.7,26.8,87.8,26.8,87.8L300.9,477z M275.5,476h24c-2.5-8.2-26.1-85.1-26.6-87.2v-0.2v-0.2
			c0.7-2.1,22.4-63.8,25-71.1h-23.8l-15.9,47.8v-47.8h-23.5V476h23.5v-59L275.5,476z M373.6,477h-59.7V316h57.5v24.5h-31.9v41.5H367
			v24.3h-27.3v45.9h34L373.6,477L373.6,477z M314.9,476h57.6v-22.4h-34v-48h27.3v-22.2h-27.5v-43.6h31.9v-22.4h-55.3L314.9,476
			L314.9,476z M457.7,477h-25.6l-0.2-0.4c0,0-14.7-59.4-16.6-66.7h-1.2V477h-25.7V316h31.2c14.9,0,32.4,7,32.4,39.9v15.4
			c0,15.8-3.7,24.9-12.6,31.5L457.7,477z M432.8,476h23.5l-18.2-73.6l0.4-0.2c8.8-6.5,12.4-15.4,12.4-30.8V356
			c0-32.1-17-38.7-31.2-38.7h-30.1V476h23.6v-67.1h3.2l0.2,0.4C417.4,414.1,431.4,470.5,432.8,476z M414.8,386.5H413V340h2.8
			c7,0,8.2,1.8,8.9,3.9l0.2,0.4c0.5,0.9,0.7,1.6,0.7,1.9v0.5c0.4,1.9,0.5,6.1,0.9,12.1l0.2,4.4v3.7
			C426.7,384.7,424.6,386.5,414.8,386.5z M414.1,385.4h0.7c8.4,0,10.9,0,10.9-18.6V363l-0.2-4.4c-0.4-5.8-0.5-10-0.7-11.9v-0.2v-0.4
			c0,0,0-0.4-0.5-1.4l-0.2-0.4c-0.7-1.6-1.2-3.2-8.1-3.2h-1.8v44.1H414.1z M509.5,477h-25.7v-68l-25-92.8H485l0.2,0.4
			c0,0,7.2,31.2,11.4,49c3.9-17.9,10.9-48.9,10.9-48.9l0.2-0.4h26.3l-0.2,0.7c0,0-22.9,88.8-23.8,91.8V477H509.5z M484.8,476h23.6
			v-67.6c0.2-0.9,21.4-82.8,23.6-91.1h-24c-0.9,4-7.7,34.7-11.2,51l-0.5,2.3l-0.5-2.3c-3.7-16.1-10.9-46.9-11.7-51h-24l24.7,91.6
			V476z"/>
		<path fill="#BCD19E" d="M91.1,456.9h9.5c7.9,0,10.2-4.2,10.2-18.2v-12.4c0-18.4-2.5-22.9-12.4-22.9h-7v53.6H91.1z M91.1,387.2h7.7
			c6.8,0,10-5.1,10-16.1v-15.4c0-14.7-2.3-18.7-11.2-18.7h-6.5V387.2z M96.2,320.2c22.4,0,30.3,10.2,30.3,39.8
			c0,16.5-1.6,24.5-6.3,29.8c-1.8,1.9-3,3-6.5,4.7c6.8,3.5,9.8,6.5,12.1,12.3c2.3,5.3,3.2,12.3,3.2,24.2c0,20.5-2.1,29.3-7.9,35.2
			c-4.2,4.2-10.7,6.5-18.4,6.5H73.6V320.2 M172.2,416.8h17.3l-8.4-81.8h-0.4L172.2,416.8z M192.3,320.2l20,152.6h-16.1l-4.7-41h-21
			l-4.7,41h-16.5l20-152.6 M254.9,320.2v62.4h0.4l20.8-62.4h17.3l-24,68.1l25.9,84.4h-17.5l-22.6-75.7h-0.4v75.7h-17.3V320.2
			 M367.1,320.2v16.3h-31.9v49.7h27.5v16.1h-27.3v54.1h34v16.3h-51.5V320.2 M410,389.4h4.7c12.3,0,15.1-4,15.1-22.8v-4
			c-0.4-8.6-0.7-14.2-1.1-16.6c0-1.1-0.4-2.1-1.1-3.3c-1.6-4.4-5.1-5.8-11.9-5.8H410L410,389.4L410,389.4z M419.5,320.2
			c18.6,0,28.2,11.9,28.2,35.6v15.4c0,15.6-3.5,23.8-13.1,29.8l17.7,71.6h-17.2l-16.5-66.9H410v67.1h-17.5V320.2 M481.5,320.2
			l14.5,63.2h0.4l14-63.2h17.5L505.2,408v64.8h-17.5v-64.3l-23.8-88.1"/>
		<polyline fill="none" stroke="#FFFFFF" stroke-width="0.7652" stroke-miterlimit="10" points="481.5,320.2 496.2,383.5 
			496.6,383.5 510.6,320.2 528.1,320.2 505.3,408 505.3,472.8 487.8,472.8 487.8,408.5 464,320.2 		"/>
		<polygon fill="none" stroke="#FFFFFF" stroke-width="0.3877" points="481.5,320.2 496.2,383.5 496.6,383.5 510.6,320.2 
			528.1,320.2 505.3,408 505.3,472.8 487.8,472.8 487.8,408.5 464,320.2 		"/>
	</g>
	<g>
		<path fill="#705D50" d="M541.1,250.9c1.4,0,2.5,1.1,2.5,2.5s-1.1,2.5-2.5,2.5c-1.4,0-2.5-1.1-2.5-2.5
			C538.8,251.9,539.7,250.9,541.1,250.9z M539.1,253.3c0,1.2,0.9,2.1,2.1,2.1c1.2,0,2.1-0.9,2.1-2.1s-1.1-2.1-2.3-2.1
			C539.8,251.2,539.1,252.1,539.1,253.3z M541.9,254.2h-0.4l-0.5-0.9h-0.4v0.9h-0.4v-2.1h0.7c0.5,0,0.9,0.2,0.9,0.7
			c0,0.4-0.2,0.5-0.5,0.5L541.9,254.2z M541.1,253.2c0.4,0,0.4-0.2,0.4-0.4s-0.2-0.4-0.5-0.4h-0.4v0.7H541.1z"/>
	</g>
</g>
<g>
	<path d="M15.8,519.7c0.7-1.6,2.1-2.8,3.9-2.8c2.6,0,3.3,1.9,3.2,3c-0.2,0.7-0.5,1.4-1.4,1.4c-1.9,0-0.5-3-2.3-3
		c-1.1,0-1.8,0.9-3,3.5c-0.5,1.4-1.1,2.8-1.9,4.2c0.2,0.4,0.4,0.5,0.5,0.9c1.1,1.8,2.3,2.8,3.5,2.8c0.7,0,1.6-0.5,2.8-1.6l0.5,0.7
		c-1.2,1.6-2.8,2.6-4.4,2.6c-1.9,0-3.3-1.4-4.6-3c-1.6,1.8-3.7,3-6.1,3c-3.9,0-7.2-2.5-6.3-7.9c0.5-3.3,3.2-5.4,5.8-7.2
		c-0.9-2.5-1.2-4.7-0.9-6.8c0.7-4,4.4-6.5,7.5-6.5c3.7,0,5.3,2.6,4.7,5.4c-0.4,1.6-1.2,3-2.6,4.2l-0.9-1.4c0.7-0.9,1.2-1.8,1.2-2.6
		c0.4-2.1-0.9-3.7-2.8-3.7c-2.5,0-4,1.9-4.4,3.9c-0.9,4.9,1.2,8.9,5.4,16.1C14,523.6,15.1,521.5,15.8,519.7z M6.7,518
		c-1.8,1.6-3.2,3.5-3.7,6.3c-0.4,2.5,0.9,5.4,4.6,5.4c1.8,0,3.3-0.9,4.6-2.5C9.8,524,8.1,520.8,6.7,518z"/>
	<path d="M51.7,530.1c0-1.1-0.2-2.1-0.5-2.6c-2.1,2.5-4.6,3.9-7,3.9c-5.6,0-9.1-6.5-7.7-14.2c1.4-7.7,7.2-14.2,12.8-14.2
		c2.5,0,4.2,1.4,5.6,3.9c0.5-0.5,0.9-1.4,1.4-2.6h0.9l-1.8,9.8h-0.9c0.2-5.8-1.8-9.3-5.4-9.3c-4.9,0-8.1,6.8-9.1,12.4
		c-1.1,5.6-0.2,12.4,4.7,12.4c3.7,0,6.8-3.5,8.8-9.3h0.9l-1.8,9.8H51.7z"/>
	<path d="M63.9,531.3c-3.7,0-5.4-3.7-4.7-8.2c0.9-4.6,4.6-8.2,8.2-8.2c1.2,0,1.9,0.2,2.8,0.7h2.5l-2.1,12.1
		c-0.2,1.1-0.2,1.8,0.5,1.8c0.5,0,1.4-0.7,1.8-1.1v1.1c-0.9,0.9-2.1,1.6-3,1.6c-1.2,0-1.9-0.9-1.9-2.1
		C67.1,530.4,65.3,531.3,63.9,531.3z M70.1,517.5c-0.5-0.5-1.4-1.1-2.8-1.1c-2.6,0-4.6,3.2-5.3,6.8c-0.7,3.5,0,6.5,2.6,6.5
		c1.6,0,3.5-1.8,3.9-4.2L70.1,517.5z"/>
	<path d="M77.6,517.3l0.4-1.6h3l0.7-4.4c0.9-5.3,4.4-8.2,7.2-8.2c2.8,0,4,1.9,3.9,3.3c-0.2,0.7-0.7,1.1-1.4,1.1
		c-1.9,0-0.2-3.2-2.8-3.2c-1.4,0-3.3,1.9-4.2,7l-0.7,4.4h3.5l-0.4,1.6h-3.5l-3.2,18c-0.9,5.3-3.2,7.2-5.8,7.2
		c-2.6,0-3.7-1.9-3.5-3.2c0.2-0.7,0.7-1.2,1.4-1.2c1.9,0,0.2,3.2,2.5,3.2c1.4,0,2.3-1.6,3-5.8l3.2-18h-3.2V517.3z"/>
	<path d="M94.4,529.6c1.1,0,3-0.9,4-2.1l0.5,0.9c-1.4,1.6-3.7,3-5.6,3c-3.7,0-5.6-3.7-4.7-8.2c0.9-4.7,4.6-8.2,7.7-8.2
		c2.5,0,3.7,1.8,3.3,3.9c-0.5,2.3-3.2,5.1-8.6,6.3C90.9,527.8,92,529.6,94.4,529.6z M97.2,518.9c0.2-1.1-0.2-2.1-1.2-2.1
		c-2.1,0-4,2.5-4.7,6.5c0,0.4-0.2,0.5-0.2,0.7C94.9,522.9,96.9,520.6,97.2,518.9z M100.2,509.8l-6.7,2.6l-0.2-0.4l4.9-3.9
		c0.9-0.7,1.4-1.1,2.1-1.1c0.9,0,1.2,0.7,1.1,1.2C101.4,509.1,100.5,509.6,100.2,509.8z"/>
	<path d="M124.9,500h1.9v35h-1.9V500z"/>
	<path d="M162.5,524.5c-0.9,4.4-0.5,5.3,2.3,5.3l-0.2,0.9h-9.5l0.2-0.9c2.8,0,3.3-0.9,4.2-5.3l3.3-18.9h-2.6c-4,0-4.7,1.1-5.8,3.3
		h-1.1l1.8-5.1h18.6v5.1h-0.9c-0.2-2.5-0.5-3.3-4.6-3.3h-2.6L162.5,524.5z"/>
	<path d="M177.4,529.6c0.5,0,1.4-0.7,1.8-1.1v1.1c-0.9,0.9-2.1,1.6-3,1.6c-1.6,0-2.3-1.4-1.9-3.2l1.6-9.5c0.2-1.1,0.2-1.9-0.5-1.9
		c-0.5,0-1.4,0.7-1.8,1.1v-1.1c0.9-0.9,2.1-1.6,3-1.6c1.6,0,2.3,1.2,1.9,3.2l-1.8,9.5C176.7,528.9,176.7,529.6,177.4,529.6z
		 M178.8,510.1c-0.9,0-1.4-0.7-1.2-1.6c0.2-0.9,0.9-1.6,1.8-1.6c0.9,0,1.4,0.7,1.2,1.6C180.4,509.4,179.5,510.1,178.8,510.1z"/>
	<path d="M202.3,515c3.2,0,3.5,2.8,2.8,6.7l-1.1,6.1c-0.2,1.1-0.2,1.8,0.5,1.8c0.5,0,1.4-0.7,1.8-1.1v1.1c-0.9,0.9-2.1,1.6-3,1.6
		c-1.6,0-2.3-1.4-1.9-3.2l1.1-6.1c0.5-3.3,0.4-4.7-1.6-4.7c-1.4,0-3.9,1.9-4.7,6.8l-1.2,6.7h-2.3l1.6-8.8c0.5-3.3,0.4-4.7-1.6-4.7
		c-1.4,0-3.9,1.9-4.7,6.8l-1.2,6.7h-2.5l2.1-12.1c0.2-1.1,0.2-1.9-0.5-1.9c-0.5,0-1.4,0.7-1.8,1.1v-1.1c0.9-0.9,2.1-1.6,3-1.6
		c1.6,0,2.3,1.2,1.9,3.2l-0.2,0.4c1.1-2.1,3.2-3.7,5.1-3.7c2.3,0,3.2,1.6,3,4C198.1,516.6,200.4,515,202.3,515z"/>
	<path d="M216.5,529.6c1.1,0,3-0.9,4-2.1l0.5,0.9c-1.4,1.6-3.7,3-5.6,3c-3.7,0-5.6-3.7-4.7-8.2c0.9-4.7,4.6-8.2,7.7-8.2
		c2.5,0,3.7,1.8,3.3,3.9c-0.5,2.3-3.2,5.1-8.6,6.3C213,527.8,214,529.6,216.5,529.6z M219.3,518.9c0.2-1.1-0.2-2.1-1.2-2.1
		c-2.1,0-4,2.5-4.7,6.5c0,0.4-0.2,0.5-0.2,0.7C217,522.9,218.9,520.6,219.3,518.9z"/>
	<path d="M255.4,524.5l7.4-16.3c1.2-2.6,0.7-3.3-1.9-3.3l0.2-0.9h8.2l-0.2,0.9c-2.5,0-3.2,0.7-4.7,3.9L254,531.5h-0.9l-1.9-20.5
		l-9.3,20.5H241l-2.3-22.8c-0.4-3.2-0.9-3.9-3.3-3.9l0.2-0.9h9.6l-0.2,0.9c-2.8,0-3.5,1.1-3.3,3.3l1.6,16.3l9.3-20.5h0.7
		L255.4,524.5z"/>
	<path d="M268.9,531.3c-3.7,0-5.4-3.7-4.7-8.2c0.9-4.6,4.6-8.2,8.2-8.2c1.2,0,1.9,0.2,2.8,0.7h2.5l-2.1,12.1
		c-0.2,1.1-0.2,1.8,0.5,1.8c0.5,0,1.4-0.7,1.8-1.1v1.1c-0.9,0.9-2.1,1.6-3,1.6c-1.2,0-1.9-0.9-1.9-2.1
		C272,530.4,270.3,531.3,268.9,531.3z M275,517.5c-0.5-0.5-1.4-1.1-2.8-1.1c-2.6,0-4.6,3.2-5.3,6.8c-0.7,3.5,0,6.5,2.6,6.5
		c1.6,0,3.5-1.8,3.9-4.2L275,517.5z"/>
	<path d="M291.6,515c2.1,0,2.5,1.6,2.3,2.8c-0.2,0.5-0.7,1.6-1.8,1.6c-0.9,0-1.4-0.7-1.2-1.4c0.2-0.7,0-0.9-0.4-0.9
		c-1.2,0-3.5,3-4.6,9.3l-0.7,4.4h-2.5l2.1-12.1c0.2-1.1,0.2-1.9-0.5-1.9c-0.5,0-1.4,0.7-1.8,1.1v-1.1c0.9-0.9,2.1-1.6,3-1.6
		c1.6,0,2.1,1.2,1.8,3.2l-0.2,1.1C288.3,516.6,290.1,515,291.6,515z"/>
	<path d="M296.7,530.6l2.1-12.1c0.2-1.1,0.2-1.9-0.5-1.9c-0.5,0-1.4,0.7-1.8,1.1v-1.1c0.9-0.9,2.1-1.6,3-1.6c1.6,0,2.3,1.2,1.9,3.2
		l-0.2,0.4c1.4-2.3,3.3-3.7,5.3-3.7c3,0,3.9,2.8,3.2,6.7l-1.1,6.1c-0.2,1.1-0.2,1.8,0.5,1.8c0.5,0,1.4-0.7,1.8-1.1v1.1
		c-0.9,0.9-2.1,1.6-3,1.6c-1.6,0-2.3-1.4-1.9-3.2l1.1-6.1c0.5-3,0.2-4.7-1.9-4.7c-1.4,0-4,2.3-4.9,6.8l-1.2,6.7h-2.3V530.6z"/>
	<path d="M321.1,529.6c1.1,0,3-0.9,4-2.1l0.5,0.9c-1.4,1.6-3.7,3-5.6,3c-3.7,0-5.6-3.7-4.7-8.2c0.9-4.7,4.6-8.2,7.7-8.2
		c2.5,0,3.7,1.8,3.3,3.9c-0.5,2.3-3.2,5.1-8.6,6.3C317.6,527.8,318.6,529.6,321.1,529.6z M323.9,518.9c0.2-1.1-0.2-2.1-1.2-2.1
		c-2.1,0-4,2.5-4.7,6.5c0,0.4-0.2,0.5-0.2,0.7C321.6,522.9,323.5,520.6,323.9,518.9z"/>
	<path d="M339.6,515c2.1,0,2.5,1.6,2.3,2.8c0,0.5-0.7,1.6-1.8,1.6c-0.9,0-1.4-0.7-1.2-1.4c0-0.7,0-0.9-0.4-0.9c-1.2,0-3.5,3-4.6,9.3
		l-0.7,4.4h-2.5l2.1-12.1c0.2-1.1,0.2-1.9-0.5-1.9c-0.5,0-1.4,0.7-1.8,1.1v-1.1c0.9-0.9,2.1-1.6,3-1.6c1.6,0,2.1,1.2,1.8,3.2
		l-0.2,1.1C336.3,516.6,338.1,515,339.6,515z"/>
	<path d="M370.3,530.1c0-1.1,0-2.1-0.5-2.6c-2.1,2.5-4.6,3.9-7,3.9c-5.6,0-9.1-6.5-7.7-14.2c1.4-7.7,7.2-14.2,12.8-14.2
		c2.5,0,4.4,1.4,5.6,3.9c0.5-0.5,0.9-1.4,1.4-2.6h0.9L374,514h-0.9c0.2-5.8-1.8-9.3-5.4-9.3c-4.9,0-8.1,6.8-9.1,12.4
		c-1.1,5.6-0.2,12.4,4.7,12.4c3.7,0,6.8-3.5,8.8-9.3h0.9l-1.8,9.8H370.3z"/>
	<path d="M383.9,529.6c1.1,0,3-0.9,4-2.1l0.5,0.9c-1.4,1.6-3.7,3-5.6,3c-3.7,0-5.6-3.7-4.7-8.2c0.9-4.7,4.6-8.2,7.7-8.2
		c2.5,0,3.7,1.8,3.3,3.9c-0.5,2.3-3.2,5.1-8.6,6.3C380.4,527.8,381.5,529.6,383.9,529.6z M386.6,518.9c0.2-1.1-0.2-2.1-1.2-2.1
		c-2.1,0-4,2.5-4.7,6.5c0,0.4-0.2,0.5-0.2,0.7C384.5,522.9,386.4,520.6,386.6,518.9z"/>
	<path d="M393.6,530.6l2.1-12.1c0.2-1.1,0.2-1.9-0.5-1.9c-0.5,0-1.4,0.7-1.8,1.1v-1.1c0.9-0.9,2.1-1.6,3-1.6c1.6,0,2.3,1.2,1.9,3.2
		l-0.2,0.4c1.4-2.3,3.3-3.7,5.3-3.7c3,0,3.9,2.8,3.2,6.7l-1.1,6.1c-0.2,1.1-0.2,1.8,0.5,1.8c0.5,0,1.4-0.7,1.8-1.1v1.1
		c-0.9,0.9-2.1,1.6-3,1.6c-1.6,0-2.3-1.4-1.9-3.2l1.1-6.1c0.5-3,0.2-4.7-1.9-4.7c-1.4,0-4,2.3-4.9,6.8l-1.2,6.7h-2.3V530.6z"/>
	<path d="M415.5,526.2c-0.4,2.1,0,3.2,1.1,3.2c0.5,0,1.4-0.5,2.8-1.9v1.2c-1.4,1.8-3,2.6-4,2.6c-1.9,0-3-1.6-2.5-5.1l1.6-8.9h-3
		l0.4-1.6h3l1.2-7.2h2.5l-1.2,7.2h3.5l-0.4,1.6h-3.5L415.5,526.2z"/>
	<path d="M429.3,529.6c1.1,0,3-0.9,4-2.1l0.5,0.9c-1.4,1.6-3.7,3-5.6,3c-3.7,0-5.6-3.7-4.7-8.2c0.9-4.7,4.6-8.2,7.7-8.2
		c2.5,0,3.7,1.8,3.3,3.9c-0.5,2.3-3.2,5.1-8.6,6.3C425.8,527.8,426.9,529.6,429.3,529.6z M432.1,518.9c0.2-1.1-0.2-2.1-1.2-2.1
		c-2.1,0-4,2.5-4.7,6.5c0,0.4-0.2,0.5-0.2,0.7C429.8,522.9,431.8,520.6,432.1,518.9z"/>
	<path d="M447.9,515c2.1,0,2.5,1.6,2.3,2.8c-0.2,0.5-0.7,1.6-1.8,1.6c-0.9,0-1.4-0.7-1.2-1.4c0.2-0.7,0-0.9-0.4-0.9
		c-1.2,0-3.5,3-4.6,9.3l-0.7,4.4h-2.5l2.1-12.1c0.2-1.1,0.2-1.9-0.5-1.9c-0.5,0-1.4,0.7-1.8,1.1v-1.1c0.9-0.9,2.1-1.6,3-1.6
		c1.6,0,2.1,1.2,1.8,3.2l-0.2,1.1C444.5,516.6,446.3,515,447.9,515z"/>
	<path d="M452.1,531c-1.1,0-1.9-1.1-1.8-2.1c0.2-1.2,1.4-2.1,2.5-2.1c1.2,0,2.3,0.9,1.9,2.8s-2.3,5.1-5.3,6.8l-0.5-0.5
		c1.9-1.8,2.8-3,3.5-4.7C452.4,531,452.3,531,452.1,531z"/>
	<path d="M497.4,503.1c1.9,0,2.8,1.6,2.5,2.6c-0.2,0.7-0.5,1.2-1.4,1.2c-1.6,0-0.4-2.3-1.9-2.3c-1.8,0-2.6,3.5-3.2,6.7l-3.5,20h-0.7
		l-9.6-22.6l-2.5,14.2c-1.2,7-3,8.6-5.6,8.6c-1.9,0-2.8-1.6-2.6-2.6c0.2-0.7,0.5-1.2,1.4-1.2c1.6,0,0.4,2.3,1.9,2.3
		c1.8,0,2.5-3.5,3-6.7l2.3-13c0.9-4.4,0.4-5.3-2.5-5.3l0.2-0.9h5.3l8.8,20.5l2.3-12.8C493.1,504.5,495,503.1,497.4,503.1z"/>
	<path d="M505.9,529.6c1.1,0,3-0.9,4-2.1l0.5,0.9c-1.4,1.6-3.7,3-5.6,3c-3.7,0-5.6-3.7-4.7-8.2c0.9-4.7,4.6-8.2,7.7-8.2
		c2.5,0,3.7,1.8,3.3,3.9c-0.5,2.3-3.2,5.1-8.6,6.3C502.2,527.8,503.4,529.6,505.9,529.6z M508.5,518.9c0.2-1.1-0.2-2.1-1.2-2.1
		c-2.1,0-4,2.5-4.7,6.5c0,0.4,0,0.5-0.2,0.7C506.2,522.9,508.1,520.6,508.5,518.9z"/>
	<path d="M528.8,529.7c1.8,0,3.7-2.1,4.4-6.7c1.1-5.6-1.4-5.6-1.1-7.4c0.2-0.7,0.7-0.9,1.1-0.9c1.1,0,2.5,2.3,1.4,8.2
		c-0.9,5.1-3.7,8.2-6.1,8.2c-1.6,0-3.2-0.9-4-2.5c-1.4,1.6-3,2.5-4.6,2.5c-2.8,0-4.4-2.1-3.7-5.6c0.5-3,3-6.5,3.2-8.2
		c-0.9-0.4-1.6-0.9-2.8-0.9c-0.5,0-1.4,0.7-1.8,1.1v-1.1c0.9-0.9,2.1-1.6,3-1.6c1.6,0,1.9,0.7,3.2-0.2h0.7
		c-0.5,2.5-2.1,6.1-2.8,10.5c-0.5,3,0.7,4.2,1.9,4.2c1.1,0,2.3-0.7,3.2-1.8c-0.5-1.8-0.9-4-0.4-7.2c0.7-3.5,2.5-5.6,3.7-5.6
		c1.2,0,1.9,1.9,1.2,5.3c-0.4,2.3-1.4,4.7-2.6,6.7C526.3,528.7,527.4,529.7,528.8,529.7z M527.2,520.3c0.4-2.3,0.2-3.3-0.2-3.3
		s-0.9,1.1-1.2,3.2s-0.5,3.9-0.2,5.4C526.2,523.8,526.9,522,527.2,520.3z"/>
	<path d="M557.5,524.5c-0.9,4.4-0.5,5.3,2.3,5.3l-0.2,0.9h-9.5l0.2-0.9c2.8,0,3.3-0.9,4.2-5.3l0.4-2.3c2.3-12.6-0.4-17.3-2.8-17.3
		c-0.7,0-1.8,0.7-2.1,1.1v-1.1c1.1-1.1,2.5-1.6,3.5-1.6c3.3,0,5.1,3.3,4.7,13.1c2.8-7.7,5.6-13.1,9.3-13.1c1.9,0,2.8,1.6,2.6,2.6
		c-0.2,0.7-0.5,1.2-1.4,1.2c-1.6,0-0.5-2.1-2.3-2.1c-2.8,0-7.4,10.7-8.6,16.8L557.5,524.5z"/>
	<path d="M571.7,531.3c-3.7,0-6.1-3.7-5.4-8.2c0.9-4.6,4.6-8.2,8.2-8.2c3.7,0,6.1,3.7,5.3,8.2C579.1,527.6,575.4,531.3,571.7,531.3z
		 M574.3,516.4c-2.6,0-4.4,3-5.1,6.8c-0.7,3.7,0,6.8,2.6,6.8c2.6,0,4.6-3.2,5.1-6.8C577.7,519.4,577,516.4,574.3,516.4z"/>
	<path d="M593.8,515c2.1,0,2.5,1.6,2.3,2.8c-0.2,0.5-0.7,1.6-1.8,1.6c-0.9,0-1.4-0.7-1.2-1.4c0.2-0.7,0-0.9-0.4-0.9
		c-1.2,0-3.5,3-4.6,9.3l-0.7,4.4H585l2.1-12.1c0.2-1.1,0.2-1.9-0.5-1.9c-0.5,0-1.4,0.7-1.8,1.1v-1.1c0.9-0.9,2.1-1.6,3-1.6
		c1.6,0,2.1,1.2,1.8,3.2l-0.2,1.1C590.3,516.6,592,515,593.8,515z"/>
	<path d="M600.6,530.6h-2.5l3.5-20.3c0.9-4.6,0.5-5.3-1.8-5.3l0.2-0.9l5.4-1.1l-3.2,18c2.6-3.5,4.6-5.8,7-5.8c1.9,0,2.8,1.6,2.6,2.8
		c-0.2,0.7-0.7,1.2-1.4,1.2c-1.6,0-0.5-2.1-2.3-2.1c-1.1,0-2.3,0.9-4.9,4c0.4-0.2,0.7-0.2,1.1-0.2c1.9,0,2.5,0.5,2.8,2.6l0.7,4.4
		c0.2,1.4,0.5,1.8,1.1,1.8c0.5,0,1.4-0.7,1.8-1.1v1.1c-0.9,0.9-2.1,1.6-3,1.6c-1.6,0-2.5-1.2-2.5-3.2l-0.2-4.2
		c0-1.2-0.2-1.9-1.2-1.9c-0.5,0-1.2,0.4-1.9,0.9L600.6,530.6z"/>
</g>
</svg>
