<?xml version="1.0" encoding="utf-8"?>
<!-- Generator: Adobe Illustrator 18.0.0, SVG Export Plug-In . SVG Version: 6.00 Build 0)  -->
<!DOCTYPE svg PUBLIC "-//W3C//DTD SVG 1.1//EN" "http://www.w3.org/Graphics/SVG/1.1/DTD/svg11.dtd">
<svg version="1.1" id="Layer_1" xmlns="http://www.w3.org/2000/svg" xmlns:xlink="http://www.w3.org/1999/xlink" x="0px" y="0px"
	 viewBox="-0.3 206.8 612.3 378.4" enable-background="new -0.3 206.8 612.3 378.4" xml:space="preserve">
<g>
	<path fill="#705D50" d="M47,263.9l10.7-8.9C56.2,259,51.6,262.5,47,263.9 M32.3,265.1l25.1-21.3c0.3,0.9,0.6,1.7,0.9,2.6
		l-22.2,18.7c-1.4,0-2.6,0-2.6,0H32.3z M1.4,264.8v-1.4L21.9,246c0,1.2,0,2,0,3.2L3.5,264.8H1.4C1.4,265.1,1.4,265.1,1.4,264.8
		 M1.7,256.7h2l-2.3,2L1.7,256.7C1.4,256.7,1.4,256.7,1.7,256.7 M8.7,256.7l-6.9,6.1v-3.2l3.2-2.6h3.7V256.7z M1.7,217.2V216
		l7.5-6.3H13l-9.2,7.5C2.6,217.2,2,217.2,1.7,217.2L1.7,217.2 M1.7,209.4h1.7l-1.7,1.7V209.4L1.7,209.4 M1.7,212l2.9-2.3h3.7
		l-6.6,5.8C1.7,215.5,1.7,212,1.7,212z M31.4,209.4L9.5,228.1V225l18.2-15.6C29.1,209.4,30.3,209.4,31.4,209.4 M40.7,209.7l-9.5,8.1
		c-0.3,0-0.6,0-0.9,0c-0.9,0-1.7,0-2.6,0l9.8-8.4h0.9C37.8,209.4,38.9,209.4,40.7,209.7 M44.7,210.3l-8.9,7.8c-1.2,0-2.6,0-3.7,0
		l9.2-8.4c0.9,0,1.4,0,2,0.3C43.8,210,44.1,210,44.7,210.3 M51.3,212.3l-9.2,8.1c-0.6-0.6-1.2-1.2-1.7-1.7l8.7-7.5
		c0.6,0.3,1.2,0.3,1.4,0.6C50.8,212,51,212.3,51.3,212.3 M53.6,214.3l-10.4,8.9l0,0c0-0.6-0.6-1.4-0.9-2.3l9.5-8.1
		C52.5,213.1,53.1,213.7,53.6,214.3 M48.5,233.3c-1.2,0.3-2.3,0.6-3.2,0.9l11.2-9.5C55.7,227.9,53.6,231,48.5,233.3 M52.8,238.8
		l-8.7,7.5c-0.3-0.9-0.6-1.7-0.9-2.6l7.2-6.3C51.3,237.7,51.9,238.2,52.8,238.8 M38.1,256.1c1.2-0.3,2-0.9,2.9-1.4
		c0.9-0.6,1.7-1.4,2.6-2.9l12.1-10.4c0.6,0.6,0.9,1.2,1.4,2l-25.7,21.9h-3.7L38.1,256.1z M32.9,256.7c0.9,0,1.4,0,2,0
		c0.9,0,1.4,0,2-0.3l-10.1,8.7h-4L32.9,256.7z M28.3,256.7c1.2,0,2.6,0,3.7,0l-9.8,8.4h-3.7L28.3,256.7z M23.6,256.7h3.7l-10.1,8.4
		h-3.7L23.6,256.7z M21.9,254.1v2c0,0.3,0,0.6,0.3,0.6h0.3l-9.8,8.4H8.9L21.9,254.1z M21.9,253.2L8.1,265.1H4.3l17.6-15V253.2z
		 M40.7,241.1c-0.6-0.3-1.4-0.9-2.3-1.2l5.8-4.9c0.6,0.3,1.7,0.3,2.9,0.9L40.7,241.1z M41.5,251.8c-1.7,2.3-3.7,3.2-5.8,3.5
		c-1.7,0-8.7,0-8.9,0s-0.3,0-0.3-0.3s0-10.1,0-10.7s0-0.9,0.6-0.9c0.3,0,10.4,0,12.1,0c1.7,0.3,2.6,0.6,3.2,0.9
		c0.3,0.3,0.9,0.6,0.9,2.6C43,248.3,42.7,250.6,41.5,251.8 M44.1,246.9l9.2-7.8c0.6,0.6,1.2,0.9,1.7,1.7l-11.2,9.8
		C44.1,249.2,44.4,248,44.1,246.9 M47.9,236.2c0.6,0.3,1.4,0.6,2,0.9l-7.2,6.1c-0.3-0.3-0.6-0.9-0.9-1.2c-0.3-0.3-0.3-0.3-0.6-0.6
		l6.1-5.2C47.6,236.2,47.9,236.2,47.9,236.2 M56.5,223.8l-12.4,10.7c-0.6,0-1.2,0.3-1.2,0.3v0.3c0,0,0,0,0.3,0l-5.5,4.9
		c-0.3,0-0.6,0-0.9-0.3c-0.9-0.3-1.4,0-2.6,0l0,0l22.2-19C56.5,221.5,56.8,222.7,56.5,223.8 M41,229.9c0.3-0.3,0.6-0.3,0.9-0.6l0,0
		L56,217.5c0.3,0.6,0.6,1.4,0.6,2v0.3l-23.1,19.6c-0.9,0-2.3,0-3.7,0L41,229.9z M25.1,239.4l9.5-8.1c1.4,0,2.3,0,2.6,0
		c0.6,0,1.2-0.3,1.4-0.3l-10.1,8.7C27.4,239.4,26.2,239.4,25.1,239.4 M9.5,252.7l12.4-10.4v3.2L9.5,255.8V252.7z M9.5,220.9
		l13.6-11.5h3.7L9.5,224.1V220.9z M21.9,225.6L9.5,236.2v-3.5l12.4-10.4V225.6z M9.5,244.6l15.6-13.3c1.2,0,2.6,0,3.7,0L9.2,248
		v-3.5H9.5z M9.5,240.8l12.4-10.7v0.6c0,0.3,0,0.3,0.3,0.3c0,0,0.9,0,2.3,0L9.8,243.7v-2.9H9.5z M9.5,236.8l12.4-10.7v3.2L9.5,239.7
		C9.5,239.7,9.5,236.8,9.5,236.8z M22.5,239.4c-0.6,0-0.6,0.3-0.6,0.6v1.4L9.5,251.8v-3.2L30,231.3c1.4,0,2.6,0,3.7,0l-9.5,8.1
		C23.1,239.4,22.5,239.4,22.5,239.4 M43.3,223.8l10.7-9.2c0.6,0.6,1.2,1.4,1.4,2l-12.7,10.7C43.3,226.4,43.5,225,43.3,223.8
		 M37.8,218.1c-0.3,0-0.9,0-1.4,0l8.9-7.5c0.9,0.3,1.7,0.3,2.9,0.9l-8.7,7.2C38.9,218.1,38.4,218.1,37.8,218.1 M37.5,221.5
		c2.3,0,3.2,0.6,3.7,0.9c0.6,0.3,0.9,0.6,0.9,1.2c0.3,0.6,0.3,2,0,3.2c-0.3,1.4-1.4,3.2-4,3.5c-2,0.3-11,0.3-11.2,0.3
		c-0.3,0-0.3,0-0.3-0.3v-8.4c0-0.3,0-0.3,0.3-0.3C26.8,221.5,36.9,221.5,37.5,221.5 M22.8,217.8l9.8-8.4h3.7l-10.1,8.4
		C24.8,217.8,23.4,217.8,22.8,217.8 M21.9,221.5L9.5,232.2V229l12.4-10.7V221.5z M18.5,209.4h3.7l-12.7,11v-2.3c0-0.3,0-0.6-0.3-0.6
		L18.5,209.4z M8.4,217.2c-0.9,0-2.3,0-3.7,0l9.2-7.8c1.2,0,2.6,0,3.7,0L8.4,217.2z M40.7,265.1c-1.4,0-2.6,0-3.7,0l21.3-18.2
		c0.3,0.9,0.3,2,0.3,3.2L40.7,265.1z M43,264.8c-0.6,0-0.9,0-1.4,0l16.7-14.1c0,1.2-0.3,2-0.6,3.2l-12.1,10.7
		C44.7,264.5,43.8,264.8,43,264.8 M60,243.7c-2.6-3.7-8.1-6.3-8.4-6.3c-0.3,0-0.3,0,0-0.3c0,0,4.3-2,6.3-4.3c2.3-2.6,3.7-5.5,2.9-11
		c-1.2-7.2-7.5-13-20.2-13.8c-4.3-0.3-7.8-0.3-9.5-0.3c-2,0-3.5,0-8.1,0.3c-4.6,0-20.5,0-21.6,0S0,208,0,208.5v9.8
		c0,0,0.6,0.6,1.2,1.2s2.3,2,2.3,2s0,0,0.3,0h3.7v0.3c0,0,0,32,0,32.9c0,0.6,0,0.9-0.3,0.9s-7.2,0-7.5,0c0.3,0,0.3,0,0.3,0.3
		c0,0,0,9.8,0,10.1c0,0.3,0.3,0.3,0.6,0.9c0.3,0.3,2.6,2.3,3.2,2.6c0.3,0,0.6,0.3,0.9,0.3h17.6c0,0,21.6-0.3,25.1-0.6
		c6.3-0.6,12.4-4.6,14.7-11.2C63.7,252.4,62.6,247.5,60,243.7"/>
	<path fill="#705D50" d="M127.2,265.4l15-12.7C139.3,258.1,134.4,262.8,127.2,265.4 M94,257.9l9.8-8.4c0.3,0.9,0.6,1.4,1.2,2.3
		l-9.2,7.8C95.2,259,94.6,258.4,94,257.9 M106.1,211.4l-15.6,13.3C94.3,218.1,100.1,213.4,106.1,211.4 M90,225.8l17.6-15
		c1.7-0.6,3.2-0.9,4.9-0.9l-24.2,20.8C88.8,229,89.4,227.3,90,225.8 M117.1,209.7l-29.7,25.4c0-1.2,0.3-2.6,0.6-3.7l25.4-21.6
		c0.6,0,0.9,0,1.4,0C115.7,209.7,116.5,209.7,117.1,209.7 M122.9,257c1.2-0.6,2.3-1.7,3.2-2.6l19-16.2c0,0.6,0,1.4,0,2
		c0,0.3,0,0.6,0,0.9l-30.3,26c-1.2,0-2.3,0-3.2-0.3L122.9,257z M116.5,258.4c0.3,0,0.3,0,0.6,0c1.4,0,2.6-0.3,4-0.6l-10.4,8.9
		c-1.2-0.3-2-0.3-2.9-0.6L116.5,258.4z M112.5,257.9c0.9,0.3,2,0.6,3.2,0.6l-8.7,7.5c-0.9-0.3-1.7-0.6-2.6-0.9L112.5,257.9z
		 M109.6,256.7c0.9,0.6,1.4,0.9,2.3,1.2l-8.4,7.2c-0.9-0.3-1.7-0.9-2.3-1.2L109.6,256.7z M107,254.7c0.6,0.6,1.2,1.2,2,1.7l-8.4,7.2
		c-0.9-0.3-1.4-0.9-2.3-1.4L107,254.7z M106.7,254.1l-8.7,7.5c-0.6-0.6-1.4-1.2-2-1.4l9.2-7.8C105.6,253,106.1,253.5,106.7,254.1
		 M102.7,246.3c0.3,0.9,0.6,1.7,0.9,2.6l-10.1,8.7c-0.6-0.6-0.9-1.2-1.4-2L102.7,246.3z M102.1,242.9c0,0.9,0.3,2,0.6,2.9l-11,9.2
		c-0.6-0.6-0.9-1.4-1.2-2.3L102.1,242.9z M101.8,239.4c0,1.2,0,2,0.3,2.9l-11.8,10.1c-0.3-0.9-0.6-1.4-1.2-2.3L101.8,239.4z
		 M101.8,235.4c0,0.6,0,1.2,0,2c0,0.6,0,0.9,0,1.4l-12.7,11c-0.3-0.9-0.6-1.7-0.9-2.6L101.8,235.4z M102.4,231
		c-0.3,1.2-0.3,2.3-0.3,3.5l-13.8,11.8c-0.3-0.9-0.3-1.7-0.6-2.9L102.4,231z M87.4,240l16.4-13.8c-0.6,1.2-0.9,2.6-1.2,4.3l-15,12.7
		C87.4,242,87.4,240.8,87.4,240 M117.1,217.8h-0.3c-1.4,0-2.6,0-3.7,0.3l9.2-7.8c1.2,0.3,2,0.3,3.2,0.6L117.1,217.8z M120.8,218.3
		c-0.9-0.3-2-0.6-3.2-0.6l7.8-6.6c0.9,0.3,1.7,0.6,2.6,0.9L120.8,218.3z M124,219.8c-0.9-0.6-1.4-0.9-2.3-1.2l7.5-6.3
		c0.6,0.3,1.4,0.6,2.3,1.2L124,219.8z M126.3,221.8c-0.6-0.6-1.2-1.2-1.7-1.7l7.5-6.3c0.9,0.3,1.4,0.9,2,1.4L126.3,221.8z
		 M128.1,224.1c-0.3-0.9-0.9-1.4-1.4-2l7.8-6.6c0.6,0.6,1.4,1.2,2,1.7L128.1,224.1z M130.1,230.5c-0.3-0.9-0.3-1.7-0.6-2.6l9.5-8.1
		c0.6,0.6,0.9,1.4,1.4,2L130.1,230.5z M130.4,233.9c0-1.2-0.3-2-0.3-2.9l10.4-8.9c0.6,0.9,0.9,1.4,1.2,2.3L130.4,233.9z M130.6,238
		c0-1.2,0-2,0-3.2l11.5-9.8c0.3,0.9,0.6,1.7,0.9,2.3L130.6,238z M130.4,242c0-1.2,0.3-2.3,0.3-3.5l12.7-10.7
		c0.3,0.9,0.6,1.7,0.9,2.6L130.4,242z M144.5,233.9l-14.7,12.7c0.3-1.2,0.6-2.3,0.6-3.7l13.8-11.8
		C144.2,231.9,144.5,233,144.5,233.9 M129.5,247.5l15.3-13c0,0.9,0.3,2,0.3,2.9l-17.6,15C128.3,250.9,128.9,249.5,129.5,247.5
		 M108.7,254.1c-1.2-2.3-2.6-8.4-1.7-17.3c1.4-12.7,6.1-14.7,9.5-15c3.5-0.3,6.9,0,8.9,1.4c1.2,0.9,3.7,4.9,3.7,14.7
		c0,10.4-3.7,19-11.8,19C111.9,257.3,109.6,255.5,108.7,254.1 M138.4,219.2l-9.2,8.1c-0.3-0.9-0.6-1.7-0.9-2.3l8.7-7.5
		C137.3,218.1,137.9,218.6,138.4,219.2 M87.4,238.5c0-0.9,0-1.7,0-2.6l30.6-26c1.2,0,2.3,0.3,3.2,0.3l-9.5,8.1
		c-3.2,0.9-5.8,3.2-7.5,6.3l-17,14.4C87.4,239.1,87.4,238.8,87.4,238.5 M144.5,245.7l-24.8,21.1c-1.4,0.3-2.6,0.3-4,0.3l29.4-25.1
		C144.8,243.4,144.8,244.6,144.5,245.7 M142.8,251.2l-17,14.4c-1.7,0.6-3.2,0.9-5.2,1.2l23.6-20.2
		C143.9,248.3,143.3,249.8,142.8,251.2 M115.9,208.5c-17.3,0-30.3,12.4-30,31.4s17.6,31.7,34,31.4c17.9-0.3,30-13.6,30-31.1
		S134.4,208.5,115.9,208.5"/>
	<path fill="#705D50" d="M490,265.4l15-12.7C502.1,258.1,497.2,262.8,490,265.4 M456.8,257.9l9.8-8.4c0.3,0.9,0.6,1.4,1.2,2.3
		l-9.2,7.8C458,259,457.4,258.4,456.8,257.9 M469.2,211.4l-15.6,13.3C457.1,218.1,463.2,213.4,469.2,211.4 M452.8,225.8l17.6-15
		c1.7-0.6,3.2-0.9,4.9-0.9l-24.2,20.8C451.6,229,452.2,227.3,452.8,225.8 M480.2,209.7l-29.7,25.4c0-1.2,0.3-2.6,0.6-3.7l25.4-21.6
		c0.6,0,0.9,0,1.4,0C478.8,209.7,479.3,209.7,480.2,209.7 M486,257c1.2-0.6,2.3-1.7,3.2-2.6l19-16.2c0,0.6,0,1.4,0,2
		c0,0.3,0,0.6,0,0.9l-30.3,26c-1.2,0-2.3,0-3.2-0.3L486,257z M479.3,258.4c0.3,0,0.3,0,0.6,0c1.4,0,2.6-0.3,4-0.6l-10.4,8.9
		c-1.2-0.3-2-0.3-2.9-0.6L479.3,258.4z M475.6,257.9c0.9,0.3,2,0.6,3.2,0.6l-8.9,7.5c-0.9-0.3-1.7-0.6-2.6-0.9L475.6,257.9z
		 M472.4,256.7c0.9,0.6,1.4,0.9,2.3,1.2l-8.4,7.2c-0.9-0.3-1.7-0.9-2.3-1.2L472.4,256.7z M470.1,254.7c0.6,0.6,1.2,1.2,2,1.7
		l-8.4,7.2c-0.9-0.3-1.4-0.9-2.3-1.4L470.1,254.7z M469.8,254.1l-8.7,7.5c-0.6-0.6-1.4-1.2-2-1.4l9.2-7.8
		C468.7,253,469.2,253.5,469.8,254.1 M465.8,246.3c0.3,0.9,0.6,1.7,0.9,2.6l-10.1,8.7c-0.6-0.6-0.9-1.2-1.4-2L465.8,246.3z
		 M465.2,242.9c0,0.9,0.3,2,0.6,2.9l-11,9.2c-0.6-0.6-0.9-1.4-1.2-2.3L465.2,242.9z M464.9,239.4c0,1.2,0,2,0.3,2.9l-11.8,10.1
		c-0.3-0.9-0.6-1.4-1.2-2.3L464.9,239.4z M464.9,235.4c0,0.6,0,1.2,0,2c0,0.6,0,0.9,0,1.4l-12.7,11c-0.3-0.9-0.6-1.7-0.9-2.6
		L464.9,235.4z M465.2,231c-0.3,1.2-0.3,2.3-0.3,3.5l-13.8,11.8c-0.3-0.9-0.3-1.7-0.6-2.9L465.2,231z M450.2,240l16.4-13.8
		c-0.6,1.2-0.9,2.6-1.2,4.3l-15,12.7C450.5,242,450.2,240.8,450.2,240 M479.9,217.8h-0.3c-1.4,0-2.6,0-3.7,0.3l9.2-7.8
		c1.2,0.3,2,0.3,3.2,0.6L479.9,217.8z M483.9,218.3c-0.9-0.3-2-0.6-3.2-0.6l7.8-6.6c0.9,0.3,1.7,0.6,2.6,0.9L483.9,218.3z
		 M486.8,219.8c-0.9-0.6-1.4-0.9-2.3-1.2l7.5-6.3c0.9,0.3,1.7,0.9,2.3,1.2L486.8,219.8z M489.1,221.8c-0.6-0.6-1.2-1.2-1.7-1.7
		l7.5-6.3c0.9,0.3,1.4,0.9,2,1.4L489.1,221.8z M490.9,224.1c-0.3-0.9-0.9-1.4-1.4-2l7.8-6.6c0.6,0.6,1.4,1.2,2,1.7L490.9,224.1z
		 M492.9,230.5c-0.3-0.9-0.3-1.7-0.6-2.6l9.5-8.1c0.6,0.6,0.9,1.4,1.4,2L492.9,230.5z M493.5,233.9c0-1.2-0.3-2-0.3-2.9l10.4-8.9
		c0.6,0.9,0.9,1.4,1.2,2.3L493.5,233.9z M493.5,238c0-1.2,0-2,0-3.2L505,225c0.3,0.9,0.6,1.7,0.9,2.3L493.5,238z M493.5,242
		c0-1.2,0.3-2.3,0.3-3.5l12.7-10.7c0.3,0.9,0.6,1.7,0.9,2.6L493.5,242z M507.6,233.9l-15,12.7c0.3-1.2,0.6-2.3,0.6-3.7L507,231
		C507.3,231.9,507.3,233,507.6,233.9 M492.3,247.5l15.3-13c0,0.9,0.3,2,0.3,2.9l-17.6,15C491.2,250.9,491.7,249.5,492.3,247.5
		 M471.8,254.1c-1.2-2.3-2.6-8.4-1.7-17.3c1.4-12.7,6.1-14.7,9.5-15s6.9,0,8.9,1.4c1.2,0.9,3.7,4.9,3.7,14.7c0,10.4-3.7,19-11.8,19
		C474.7,257.3,472.4,255.5,471.8,254.1 M501.5,219.2l-9.2,8.1c-0.3-0.9-0.6-1.7-0.9-2.3l8.7-7.5C500.4,218.1,501,218.6,501.5,219.2
		 M450.2,238.5c0-0.9,0-1.7,0-2.6l30.6-26c1.2,0,2.3,0.3,3.2,0.3l-9.5,8.1c-3.2,0.9-5.8,3.2-7.5,6.3l-17,14.4
		C450.2,239.1,450.2,238.8,450.2,238.5 M507.3,245.7l-24.8,21.1c-1.4,0.3-2.6,0.3-4,0.3l29.4-25.1
		C507.9,243.4,507.6,244.6,507.3,245.7 M505.6,251.2l-17,14.4c-1.7,0.6-3.2,0.9-5.2,1.2l23.6-20.2
		C506.7,248.3,506.4,249.8,505.6,251.2 M478.8,208.5c-17.3,0-30.3,12.4-30,31.4s17.6,31.7,34,31.4c17.9-0.3,30.3-13.6,30.3-31.1
		C513.1,222.7,497.5,208.5,478.8,208.5"/>
	<path fill="#705D50" d="M238.5,217.8L238.5,217.8l0.3-0.3L238.5,217.8L238.5,217.8 M221.8,264.5c-1.2,0.9-2.6,1.4-4.3,2l12.4-10.7
		C228.4,259,225.8,261.9,221.8,264.5 M207.4,267.7l23.9-20.5v2c0,0.3,0,0.6,0,0.9l-20.2,17.3C209.7,267.7,208.5,267.7,207.4,267.7
		 M190.1,262.8l9.2-8.1c0.6,0.6,1.2,1.2,1.7,1.7l-8.9,7.8c-0.6-0.3-1.2-0.6-1.7-1.2C190.3,263,190.3,262.8,190.1,262.8 M187.8,260.7
		l10.1-8.7c0.3,0.6,0.9,1.4,1.4,2l-9.5,8.1C188.9,261.9,188.3,261.3,187.8,260.7 M178.2,217.8l9.2-8.1h3.5l-9.2,8.1H178.2z
		 M175.9,217.5v-1.7l7.2-6.1h3.5l-9.5,8.1L175.9,217.5C175.9,217.8,175.9,217.8,175.9,217.5 M176.2,209.7h1.7l-2,1.4V210
		C175.9,209.7,175.9,209.7,176.2,209.7 M175.9,212l2.9-2.3h3.5l-6.3,5.2V212z M204.2,210v0.3L184,227.6v-3.5l17.3-14.7h2.9
		C204.2,209.7,204.2,209.7,204.2,210 M203.9,217.5H201l3.2-2.6v2.3C204.2,217.8,204.2,217.5,203.9,217.5 M196.4,225L184,235.6v-3.5
		l12.4-10.7V225z M196.7,249.2c0.3,0.9,0.3,1.7,0.9,2.6l-10.1,8.7c-0.6-0.6-0.9-1.4-1.4-2L196.7,249.2z M196.4,245.5v1.7
		c0,0.3,0,0.9,0,1.2l-10.7,9.2c-0.3-0.9-0.6-1.4-0.9-2.3L196.4,245.5z M196.4,241.4v3.2l-11.8,10.1c-0.3-0.9-0.3-1.7-0.6-2.9
		L196.4,241.4z M184,249.8V248l12.4-10.7v3.2L184,251.2C184,250.6,184,250.4,184,249.8 M184,244l12.4-10.7v3.2L184,247.2V244z
		 M184,219.5v-1.7c0-0.3,0-0.3-0.3-0.3h-1.4l9.5-7.8h3.7L184,219.5z M184,220.4l12.7-10.7h3.7L184,223.5V220.4z M196.4,228.7
		L184,239.4v-3.2l12.4-10.7V228.7z M184,240.3l12.4-10.7v3.2L184,243.4V240.3z M196.4,218.1v2.9L184,231.6v-3.2L196.4,218.1
		C196.4,217.8,196.4,217.8,196.4,218.1 M196.7,217.5L196.7,217.5l7.5-6.6v3.2l-4,3.5H196.7z M195.3,265.4c-0.9-0.3-1.7-0.6-2.6-1.2
		l8.9-7.5c0.6,0.6,1.4,0.9,2.3,1.2L195.3,265.4z M204.5,258.1c0.9,0.3,2,0.6,2.9,0.6l-8.9,7.8c-0.9-0.3-2-0.6-2.9-0.9L204.5,258.1z
		 M212.3,258.7l-9.8,8.7c-1.2,0-2-0.3-3.2-0.6l9.2-7.8c0.3,0,0.6,0,0.9,0C210.2,259,211.4,259,212.3,258.7 M221.5,251.5l9.5-8.1v3.2
		l-24.5,21.1c-1.2,0-2.3,0-3.5-0.3l10.4-8.7C218.3,257.9,220.6,255.5,221.5,251.5 M219.5,217.8l9.5-8.1h3.7l-10.7,8.9v-0.6
		c0-0.3,0-0.3-0.3-0.3C221.8,217.8,219.5,217.8,219.5,217.8z M215.4,217.8C215.2,217.8,215.2,217.8,215.4,217.8l8.9-8.1h3.7
		l-9.5,8.1H215.4z M215.4,209.7h3.5l-3.7,3.2V210C215.2,209.7,215.2,209.7,215.4,209.7 M223.5,209.7l-8.4,7.2v-3.5l4.6-3.7H223.5z
		 M237.4,209.7l-15,13v-3.5l11.5-9.8h3.5V209.7z M233.6,217.8l4.9-4.3v3.2l-1.4,1.2C237.1,217.8,233.6,217.8,233.6,217.8z
		 M222.4,230.5v-3.2l8.7-7.5v3.2L222.4,230.5z M231,227l-8.7,7.5V231l8.7-7.5V227z M222.4,247.2l8.9-7.5v3.2l-9.2,7.8
		C222.1,249.5,222.4,248.3,222.4,247.2 M231,230.7l-8.7,7.5v-3.2l8.7-7.5V230.7z M222.4,242.3v-3.2l8.7-7.5v3.5L222.4,242.3z
		 M231,238.8l-8.7,7.5c0-0.6,0-1.2,0-1.7v-1.4l8.7-7.5C231,236.8,231,237.7,231,238.8 M238.5,209.7c0.3,0,0.3,0,0.3,0.3v2.9
		l-5.8,4.9h-1.2c-0.3,0-0.6,0-0.6,0.6c0,0,0,0.3,0,0.9l-8.7,7.5v-3.5L238.5,209.7L238.5,209.7z M230.1,254.7L216,266.8
		c-1.4,0.3-2.9,0.6-4.3,0.6l19.3-16.4C231,252.4,230.7,253.5,230.1,254.7 M239.7,208.8c-0.9-0.9-0.9-0.6-2.3-0.6h-23.1
		c-0.3,0-0.6,0-0.6,0.3v10.7c0,0,0.9,0.6,1.7,1.4c0.9,0.6,1.7,1.2,1.7,1.2h3.2c0.6,0,0.6,0,0.6,0.3c0,0.6,0,20.8,0,23.9
		c0,3.2-0.6,11.5-10.1,11.5s-10.1-8.4-10.1-12.7v-22.5c0-0.6,0-0.9,0.6-0.9h6.6c0.6,0,0.6,0,0.6-0.6v-8.4c0-0.3-0.9-1.2-1.7-2.3
		c-0.9-1.2-1.7-2-1.7-2h-30c-0.6,0-0.6,0-0.6,0.6v10.4c0,0.3,0.6,0.6,1.7,1.2c1.2,0.6,2,1.4,2.3,1.4h3.7c0.3,0,0.3,0,0.3,0.3v26.2
		c0,5.8,1.2,11.5,5.5,15.6c6.9,6.9,14.7,7.5,23.9,7.5c9.2,0,23.6-5.2,23.6-22.2v-27.1c0-0.3,0-0.6,0.3-0.6h6.6c0.3,0,0.3,0,0.3-0.3
		V212C242.8,212,240.5,209.4,239.7,208.8"/>
	<path fill="#705D50" d="M324.2,253.5c-3.2,4.3-7.5,9.2-14.4,11.8l14.4-12.4C324.2,253,324.2,253.2,324.2,253.5 M298.8,266.8
		l20.5-17.6c0.6,0.3,1.2,0.9,2,1.4l-18.7,15.9C301.4,266.8,300.2,266.8,298.8,266.8 M277.2,258.1l10.1-8.7c0.6,0.6,0.9,1.4,1.4,2
		l-9.8,8.4C278.3,259.3,277.7,258.7,277.2,258.1 M278,216c1.7-1.7,3.5-2.9,5.2-4l-7.8,6.6C276.3,217.8,277.2,216.9,278,216
		 M302,208.2l-33.2,28.3c0-1.2,0.3-2.3,0.3-3.5l28.8-24.8c1.2,0,2,0,2.9,0C301.4,208.2,301.7,208.2,302,208.2 M305.4,217.2
		c-0.9-0.3-1.7-0.6-2.6-0.9l6.9-6.1c0.9,0.3,1.4,0.9,2.3,1.2L305.4,217.2z M314.4,209.4L314.4,209.4L314.4,209.4L314.4,209.4z
		 M322.4,210v1.2l-11.8,10.1c-0.6-0.6-1.2-1.2-1.7-1.7l11.5-9.8h1.7C322.2,209.4,322.4,209.7,322.4,210 M321.9,228.7h-1.2l1.7-1.4
		v0.9C322.4,228.7,322.2,228.7,321.9,228.7 M316.1,228.7l6.1-5.2v3.2l-2.6,2C318.7,228.7,317.2,228.7,316.1,228.7 M313.8,228.7
		c0,0-0.3-0.6-0.6-1.7l8.9-7.5v3.2l-6.9,6.1C314.7,228.7,314.1,228.7,313.8,228.7 M312.3,224.1l9.8-8.4v3.2l-8.9,7.8l0,0
		C313.2,225.6,312.9,224.7,312.3,224.1 M310.9,221.5l11.5-9.8v3.2l-10.1,8.7C311.8,222.7,311.5,222.1,310.9,221.5 M313.5,212.9
		c0.6,0.6,0.9,0,0.9-0.6v-1.7l1.2-0.9h3.7l-11,9.2c-0.6-0.6-1.4-0.9-2.3-1.4l6.3-5.5C312.9,212.6,313.2,212.9,313.5,212.9
		 M298.5,216l8.1-6.9c0.9,0.3,2,0.6,2.6,1.2l-7.2,6.1C300.8,216,299.7,216,298.5,216 M285.5,246.9c0.3,0.9,0.9,1.4,1.2,2.3
		l-10.1,8.7c-0.6-0.6-1.2-1.2-1.4-1.7L285.5,246.9z M284.7,244c0.3,0.9,0.6,1.7,0.9,2.3l-10.7,9.2c-0.6-0.6-0.9-1.4-1.4-2L284.7,244
		z M283.8,240.5c0,0.9,0.3,2,0.6,2.9l-11.2,9.5c-0.3-0.6-0.9-1.4-1.2-2.3L283.8,240.5z M283.5,236.8c0,1.2,0,2,0.3,2.9l-12.1,10.4
		c-0.3-0.9-0.6-1.4-0.9-2.3L283.5,236.8z M283.8,232.8c0,0.9-0.3,2-0.3,3.2v0.3l-13,11c-0.3-0.9-0.6-1.7-0.9-2.6L283.8,232.8z
		 M297.6,216c-4,0.6-9.2,4-12.1,10.4l-16.4,14.1c0-1.2-0.3-2.3-0.3-3.2l33.7-28.8c1.2,0,2.3,0.3,3.2,0.6L297.6,216z M270.5,227.6
		l22.2-19c1.4-0.3,2.9-0.3,4.3-0.3l-28,23.9C269.7,230.5,269.9,229,270.5,227.6 M274,220.6l11.5-9.8c2-0.9,4-1.7,6.1-2l-20.8,17.9
		C271.7,224.4,272.8,222.4,274,220.6 M269.7,243.7c-0.3-0.9-0.3-1.7-0.6-2.6l15.9-13.6c-0.6,1.4-0.9,2.9-1.2,4.3L269.7,244
		C269.7,243.7,269.7,243.7,269.7,243.7 M290.7,253.5l-9.5,8.1c-0.6-0.6-1.4-0.9-2-1.4l9.8-8.4C289.6,252.7,290.1,253.2,290.7,253.5
		 M293.6,255.3l-9.2,8.1c-0.9-0.3-1.4-0.9-2.3-1.2l9.5-8.1C291.9,254.4,292.7,255,293.6,255.3 M287.3,264.8
		c-0.9-0.3-1.7-0.6-2.6-1.2l9.2-8.1c0.9,0.3,1.7,0.6,2.6,0.9L287.3,264.8z M297.3,256.7c1.2,0.3,2.3,0.3,3.2,0.3l-10.1,8.7
		c-0.9-0.3-1.7-0.6-2.9-0.9L297.3,256.7z M305.4,256.7L305.4,256.7l-11.5,9.8c-0.9,0-1.7-0.3-2.9-0.6l10.1-8.7
		C302.8,257.3,304,257,305.4,256.7 M316.7,248.6c0.3-0.6,0.6-0.6,1.2-0.3c0.3,0,0.6,0.3,1.2,0.9l-20.8,17.9c-0.9,0-2,0-3.2-0.3
		l12.1-10.4C313.2,254.1,316.7,248.9,316.7,248.6 M323.6,252.7l-15.3,13.3c-1.4,0.3-2.9,0.9-4.6,0.9l18.2-15.6
		C322.7,251.8,323.3,252.4,323.6,252.7 M328.2,254.1c-0.3-0.3-2.6-2-2.6-2s-6.9-5.2-7.5-5.8c-0.9-0.6-0.9-0.6-1.4,0.6
		c-0.3,0.6-4.6,7.8-13,8.9c-8.9,1.2-15.3-5.5-15-18.2c0-11.2,7.8-18.2,12.4-18.5c6.9-0.3,10.4,2,12.4,10.4c0,0,0.6,0.6,1.2,0.9
		c0.6,0.6,2.3,2.6,2.6,2.6h9.5c0.6,0,0.6,0,0.6-0.6v-20.2l-0.3-0.6c0,0-3.2-3.5-3.5-3.5h-9.8c-0.3,0-0.3,0-0.3,0.3v2v0.3l-0.3,0.3
		c-2-1.7-6.3-4-14.4-4.3c-3.5,0-10.7,0-17.9,4.9c-7.2,5.2-14.7,15-13.6,28.8c1.7,17.3,16.2,30.9,34.6,30.6
		c14.4-0.3,22.8-11,26.2-15.9C328.5,254.4,328.5,254.4,328.2,254.1"/>
	<path fill="#705D50" d="M419.9,218.3h-2l2.6-2v1.4C420.5,218.3,420.5,218.3,419.9,218.3 M420.2,257.9v1.2l-7.5,6.3H409l8.9-7.8h1.7
		C420.2,257.6,420.2,257.6,420.2,257.9 M419.3,265.4h-1.4l2-1.7v0.9C420.2,265.1,419.9,265.4,419.3,265.4 M413.6,265.4l6.6-5.5
		c0,0.9,0,2,0,2.9l-2.9,2.6H413.6z M404.6,265.4l8.9-7.8h3.7l-8.9,7.8H404.6z M392.2,264.8v-0.6l7.5-6.6l0,0l12.7-11v3.2l-18.2,15.6
		h-2C392.2,265.4,392.2,265.4,392.2,264.8 M392.5,257.6h1.7l-2,1.7v-1.2C392.2,257.9,392.2,257.6,392.5,257.6 M398.9,257.6l-6.6,5.8
		v-3.5l2.9-2.3H398.9z M383.6,258.1v0.6l-7.8,6.6H372l9.2-7.8h2.3C383.6,257.6,383.6,257.9,383.6,258.1 M382.7,265.4h-1.4l2.3-2v1.2
		C383.6,265.1,383.3,265.4,382.7,265.4 M376.7,265.4l6.9-5.8v3.2l-3.2,2.6H376.7z M355.6,264.8v-1.4l20.2-17v3.2l-18.5,15.9h-1.4
		C355.6,265.4,355.6,265.4,355.6,264.8 M356.2,257.6h0.9l-1.4,1.2v-0.9C355.6,257.6,355.6,257.6,356.2,257.6 M361.7,257.6l-6.1,5.2
		v-3.2l2.3-2C357.9,257.6,361.7,257.6,361.7,257.6z M355.6,218.1v-1.7l7.5-6.3h3.7l-9.8,8.4h-1.2
		C355.6,218.3,355.6,218.3,355.6,218.1 M356.2,210h1.4l-2,1.7v-1.4C355.6,210,355.6,210,356.2,210 M355.6,212.6l2.9-2.6h3.5
		l-6.3,5.5V212.6z M383.6,210.3v1.2L362.8,229v-3.2l18.7-15.9h1.7C383.6,210,383.6,210,383.6,210.3 M383,218.3h-2.3l2.6-2.3v1.7
		C383.6,218.3,383.3,218.3,383,218.3 M381.3,233l-18.5,15.6v-3.2l14.7-12.4C377.5,233,381.3,233,381.3,233z M385.9,233L362.8,253
		v-1.2v-2.3l19.3-16.4h1.4H385.9z M391.4,233h3.7l-9.8,8.4h-3.7L391.4,233z M376.9,241.7l9.8-8.4h3.7l-9.8,8.4H376.9z M362.8,253.5
		l13-11.2v3.2l-13,11.2V253.5z M375.8,225.8l-13.3,11.2v-3.2l13.3-11.2V225.8z M362.8,241.7l13.3-11.2v2c0,0.6,0,0.6,0.3,0.6h0.3
		l-13.8,11.5L362.8,241.7L362.8,241.7z M375.8,229.6l-13.3,11.2v-3.2l13.3-11.2V229.6z M375.8,218.6v3.2L362.5,233v-3.2L375.8,218.6
		L375.8,218.6 M376.4,218.3L376.4,218.3l7.2-6.1v3.2l-3.5,2.9H376.4z M376.7,210c1.4,0,2.9,0,3.7,0l-17.9,15.3v-3.5L376.7,210z
		 M372,210h3.7l-13,11.2v-2.3c0-0.6,0-0.6-0.3-0.6L372,210z M361.7,218.3h-3.7l9.8-8.4c1.2,0,2.3,0,3.7,0L361.7,218.3z M376.4,257.6
		h3.7l-9.2,7.8h-3.7L376.4,257.6z M375.8,254.4v2.9v0.3l-9.2,7.8h-3.7L375.8,254.4z M375.8,253.5L362,265.4h-3.7l17.6-15V253.5z
		 M399.7,233L399.7,233l-9.8,8.4h-3.7l9.8-8.4H399.7z M394.8,218.3l9.8-8.4h3.7l-9.8,8.4H394.8z M392.2,217.8c0,0,0-0.6,0-1.2
		l7.8-6.6h3.7l-9.8,8.4h-1.4C392.2,218.3,392.2,218.1,392.2,217.8 M392.5,210h2l-2.3,2c0-0.9,0-1.4,0-1.7S392.2,210,392.5,210
		 M392.2,212.6l3.2-2.6h3.7l-6.9,5.8C392.2,214.9,392.2,213.7,392.2,212.6 M420.5,210.3v1.2L400,229v-3.2l18.5-15.9h1.4
		C420.5,210,420.5,210,420.5,210.3 M413.3,218.3l7.2-6.1v3.2l-3.5,2.9H413.3z M400,220.9v-2.3c0-0.3,0-0.3-0.3-0.3h-0.3l9.8-8.4h3.7
		L400,220.9z M400,221.8l13.8-11.8h3.7L400,225V221.8z M400,233v-0.3v-2.9l12.7-10.7v3.2L400,233z M412.7,226.1l-18.2,15.6h-3.7
		l21.9-18.7V226.1z M400,253.5l12.7-10.7v3.2L400,256.7V253.5z M412.7,230.7v3.2L400,244.6v-2.9c0-0.3,0-0.3,0-0.3L412.7,230.7z
		 M412.7,230.2l-13.6,11.5h-3.7l17.3-14.7V230.2z M412.7,238L400,248.6v-3.2l12.7-10.7V238z M412.7,242L400,252.7v-3.2l12.7-10.7
		V242z M412.7,253.8l-13.6,11.5h-3.7l17.3-14.7V253.8z M412.7,257.6l-9.2,7.8h-3.7l12.7-10.7v2.6
		C412.7,257.3,412.7,257.6,412.7,257.6 M425.4,212.6c0-0.3-3.2-3.5-3.2-3.5s-0.6-0.6-1.2-0.6c-0.6,0-28.8,0-29.4,0
		c-0.9,0-0.9,0-0.9,0.9v8.9c0,0.3,0.3,0.3,0.9,0.9c0.6,0.6,2,2,2.3,2.3s0.6,0.6,0.9,0.6s2.9,0,3.2,0c0.6,0,0.6,0,0.6,0.3v8.7
		c0,0.3,0,0.3-0.9,0.3h-6.1H381c-0.3,0-0.3,0-0.3-0.3s0-8.4,0-8.7s0-0.3,0.3-0.3h6.9c0,0,0.6,0,0.6-0.6s0-2.6,0-4.9
		c0-1.7,0.3-4,0-4.6c0-0.3-0.6-0.6-0.6-0.6l-2.6-2.6c0,0-0.3-0.6-0.9-0.6H355c-0.6,0-0.9,0.3-0.9,1.2v8.9c0,0.3,0.3,0.6,0.6,0.9
		c0.3,0.3,2.6,2.6,2.9,2.6h3.2c0.3,0,0.3,0,0.3,0.6v32.9c0,0.6,0,0.6-0.3,0.6H355c-0.6,0-0.9,0.3-0.9,0.6v9.8c0,0.3,0.3,0.6,0.6,0.9
		s2.3,2.3,2.6,2.3c0.3,0,0.9,0,2,0c0.9,0,27.4,0,28,0s0.6-0.3,0.6-1.2V259c0-0.3-3.2-3.2-3.5-3.2h-3.7c-0.3,0-0.3,0-0.3-0.3v-9.8
		c0-0.3,0-0.6,0.6-0.6h17.3c0.3,0,0.3,0,0.3,0.3v10.4c0,0.3,0,0.6-0.6,0.6h-6.3c-0.6,0-0.9,0-0.9,0.6v9.5c0,0.3,0.3,0.6,0.6,0.6
		c0.3,0.3,1.4,1.4,2,2s0.9,0.9,1.2,0.9c0.3,0,7.8,0,11,0s17.9,0,18.7,0s0.9-0.3,0.9-0.6c0-0.3,0-8.9,0-9.2c0-0.3-2.6-2.9-2.9-3.2
		c-0.3-0.3-0.6-0.6-0.9-0.6s-3.2,0-3.5,0c-0.3,0-0.6,0-0.6-0.3c0-0.3,0-32,0-32.9s0.3-0.9,0.6-0.9h6.6c0,0,0.6,0,0.6-0.6
		c0-0.6,0-2,0-3.7C425.1,215.7,425.4,212.9,425.4,212.6"/>
	<path fill="#705D50" d="M590.7,265.6h-2l2.3-2v1.4C591.2,265.6,591.2,265.6,590.7,265.6 M580,265.6l11.2-9.5v3.2l-7.5,6.3
		C583.7,265.6,580,265.6,580,265.6z M577.4,265.4c0,0-0.3-0.3-0.6-0.9l14.1-12.1v2.9l-12.1,10.4h-1.2L577.4,265.4 M556.3,257.6
		l-9.5,8.1h-3.7l9.5-8.1H556.3z M559.8,257.9v0.9l-8.4,7.2h-3.7l9.5-8.1h2C559.8,257.6,559.8,257.6,559.8,257.9 M559.2,265.6h-2.6
		l2.9-2.3v2C559.8,265.6,559.8,265.6,559.2,265.6 M552.3,265.6l7.5-6.3c0,0.9,0,2,0,3.2l-3.7,3.2H552.3z M535.9,265.4v-1.4l7.5-6.3
		c0.6,0,0.6-0.3,0.6-0.6l8.4-7.2v3.2l-14.7,12.4h-1.2C535.9,265.6,535.9,265.6,535.9,265.4 M535.9,259.9l2.6-2.3h3.7l-6.3,5.5V259.9
		z M536.1,257.6h1.4l-1.7,1.4L536.1,257.6C535.9,257.6,535.9,257.6,536.1,257.6 M538.7,218.1l9.5-8.1h3.7l-9.5,8.1
		c-0.9,0-1.7,0-2.9,0C539,218.1,539,218.1,538.7,218.1 M535.9,216.6l7.8-6.6h3.7l-9.5,8.1c-0.9,0-1.7,0-1.7-0.3
		C535.9,217.8,535.9,217.2,535.9,216.6 M536.1,210h2l-2.3,2c0-0.9,0-1.4,0-1.7C535.9,210,535.9,210,536.1,210 M535.9,214.6
		c0-0.6,0-1.2,0-2l3.2-2.6h3.7l-6.9,6.1C535.9,215.5,535.9,215.2,535.9,214.6 M559.5,211.1l-15.6,13.3v-3.2l13.3-11.2h1.7
		C558.9,210,559.2,210.3,559.5,211.1 M580.6,217.8l8.9-7.8h3.7l-10.1,8.7v-0.3c0-0.6,0-0.6-0.6-0.6H580.6z M576.8,217.8
		c-0.3,0-0.6,0-0.6-0.3l8.9-7.5h3.7l-9.2,7.8C578.3,217.8,576.8,217.8,576.8,217.8 M576.5,210h2.9l-3.5,2.9v-2.3
		C576.2,210,576.2,210,576.5,210 M576.2,213.4l4.3-3.5h3.7l-8.1,6.9V213.4z M591.2,227.9l-7.8,6.6c0-1.2,0-2,0-3.2l7.8-6.6V227.9z
		 M591.2,248.3v3.2l-14.4,12.4c-0.3-0.6-0.9-1.2-1.2-2L591.2,248.3z M591.2,244.3v3.2L575.4,261c-0.3-0.6-0.9-1.4-1.2-2L591.2,244.3
		z M582,248c0,0.3,0.3,0.3,0.3,0.3c0.6,0.9,0.9,0.3,0.9-0.6v-0.6l7.8-6.6v3.2l-17.6,15c-0.3-0.6-0.9-1.4-1.2-2L582,248z
		 M580.6,245.5c0.6,0.9,0.9,1.7,1.2,2l-9.8,8.4c-0.3-0.6-0.9-1.4-1.2-2L580.6,245.5z M583.2,239.1l7.8-6.6v3.2l-7.8,6.6
		C583.2,241.4,583.2,240.3,583.2,239.1 M583.2,222.7v-3.2l11-9.5h3.7L583.2,222.7z M583.2,227.3l7.8-6.6v3.5l-7.8,6.6V227.3z
		 M591.2,231.9l-7.8,6.6v-3.2l7.8-6.6C591.2,229.6,591.2,230.7,591.2,231.9 M591.2,239.7l-7.8,6.6v-3.2l7.8-6.6V239.7z M598.7,217.5
		l-0.6,0.6h-4l4.6-4V217.5L598.7,217.5z M598.7,213.4l-5.5,4.6h-1.7c-0.3,0-0.3,0-0.3,0.6v1.2l-7.8,6.6v-3.2L599,210v0.3v3.2H598.7z
		 M578.8,242.9c0.6,0.9,0.9,1.4,1.4,2l-9.5,8.1c-0.3-0.6-0.9-1.4-1.2-2L578.8,242.9z M577.4,240.3c0.6,0.9,0.9,1.4,1.2,2l-9.5,8.1
		c-0.3-0.6-0.9-1.4-1.2-2L577.4,240.3z M575.7,237.7c0.3,0.6,0.9,1.4,1.2,2l-9.5,8.1c-0.3-0.6-0.9-1.4-1.2-2L575.7,237.7z
		 M574.2,235.1c0.6,0.9,0.9,1.4,1.4,2.3l-9.5,8.1c-0.3-0.9-0.9-1.4-1.2-2.3L574.2,235.1z M572.5,232.5c0.6,0.6,0.9,1.4,1.2,2
		l-9.5,8.1c-0.3-0.6-0.9-1.4-1.2-2L572.5,232.5z M571,229.9c0.6,0.6,0.9,1.4,1.2,2l-9.5,8.1c-0.3-0.6-0.9-1.4-1.2-2L571,229.9z
		 M569.3,227.3c0.3,0.6,0.9,1.4,1.4,2l-9.2,8.1c-0.6-0.9-0.9-1.4-1.2-2.3L569.3,227.3z M567.9,224.7c0.3,0.6,0.9,1.4,1.2,2l-9.2,7.8
		c-0.6-0.9-0.9-1.4-1.2-2L567.9,224.7z M566.1,222.1c0.3,0.6,0.9,1.4,1.2,2l-9.2,7.8c-0.3-0.9-0.9-1.4-1.2-2L566.1,222.1z
		 M552,237.4l-8.4,7.2v-3.2l8.4-7.2V237.4z M552.3,257.3l-9.8,8.4h-4l13.8-11.8L552.3,257.3L552.3,257.3z M543.9,253l8.4-7.2v3.2
		l-8.4,7.2V253z M543.4,218.1L543.4,218.1l9.2-8.1h3.5l-12.4,10.7v-2C543.9,218.1,543.6,218.1,543.4,218.1 M543.9,228.4v-3.2
		l15.9-13.6c0.3,0.6,0.9,1.2,1.4,2L543.9,228.4z M553.7,224.1c-1.2-1.7-1.4-0.6-1.4,0.6v0.9l-8.4,7.2v-3.5l17.6-15
		c0.3,0.6,0.9,1.4,1.2,2L553.7,224.1z M555.2,226.7c-0.6-1.2-1.2-1.7-1.2-2.3l8.9-7.8c0.3,0.6,0.9,1.4,1.2,2L555.2,226.7z
		 M543.9,237.1l8.4-7.2v3.2l-8.4,7.2V237.1z M543.9,233.3l8.4-7.2c0,0.9,0,2,0,3.2l-8.4,7.2V233.3z M552,241.1l-8.4,7.2v-3.2
		l8.4-7.2V241.1z M552,245.2l-8.4,7.2v-3.2l8.4-7.2V245.2z M565.9,221.5l-9.2,7.8c-0.6-0.9-0.9-1.4-1.2-2.3l9.2-7.8
		C565,220.1,565.6,220.9,565.9,221.5 M591.2,263l-3.2,2.6h-3.5l6.6-5.5V263z M600.8,209.7c-0.3-0.3-0.6-0.6-0.9-0.9
		c-0.3-0.3-0.9-0.6-0.9-0.6s-23.4,0-23.6,0c-0.6,0-0.6,0-0.6,0.3v9.8c0,0.3,2.3,2,2.9,2.6c0.6,0.6,0.9,0.9,1.2,0.9
		c0.3,0,2.3,0,2.6,0s0.3,0,0.3,0.3v17.3c0,0.3,0,0-0.3,0l-5.2-8.4l-10.4-17.3l-5.8-4.6l-1.4-1.2h-23.9c-0.6,0-0.6,0-0.6,0.6
		s0,9.5,0,9.8s2.3,2,2.9,2.3c0.6,0.3,0.9,0.6,1.2,0.6c0.3,0,3.2,0,3.5,0c0.3,0,0.3,0.3,0.3,0.6v32.9c0,0.6,0,0.9-0.6,0.9
		c-0.6,0-0.9,0-2.9,0s-3.2,0-3.7,0c-0.6,0-0.6,0-0.6,0.9c0,0.9,0,2,0,3.5c0,0.9,0,2.3,0,3.7l0,0l0,0c0,1.2,0,2.3,0,2.6
		s2.6,3.2,3.2,3.2H563c0.9,0,0.9,0,0.9-0.6s0-9.2,0-9.2s-0.3-0.6-0.6-0.9c-0.3-0.3-2.9-3.2-2.9-3.2h-3.7c-0.3,0-0.3,0-0.3-0.6v-21.6
		c0-0.9,0.3-0.6,0.6,0c0.3,0.6,19.6,33.5,19.6,33.5l4,3.5h14.1c0.9,0,0.9,0,0.9-0.9v-46.1c0-0.6,0-0.9,0.6-0.9h6.6
		c0.3,0,0.3,0,0.3-0.6v-9.5C603.3,212,601.9,210.8,600.8,209.7"/>
	<g>
		<path fill="#FFFFFF" d="M37.2,409.8c7.5,0,11.5,0,11.5,24.8v16.2c0,18.7-3.5,18.7-8.4,18.7h-7.5v-59.7H37.2z M36.3,324.5
			c6.6,0,9.8,0,9.8,19.6V364c0,16.2-5.5,16.2-8.4,16.2h-5.2v-55.7H36.3z M5.5,293.6H0.6v206.2h42.1c11.2,0,20.8-3.5,26.8-9.8
			c8.7-8.9,11.5-21.3,11.5-48.7c0-16.4-1.2-26-4.3-33.2c-2.3-6.3-5.5-10.4-11-14.1c1.2-0.9,2-1.7,2.9-2.9c6.6-7.8,9.2-19,9.2-41.5
			c0-41-11.8-56-43.5-56"/>
		<path fill="none" stroke="#FFFFFF" stroke-width="0.7652" stroke-miterlimit="10" d="M28,474.4h12.1c10.1,0,13.3-5.5,13.3-23.4
			v-16.2c0-23.6-3.2-29.7-16.2-29.7H28V474.4z M28,384.5h10.1c8.9,0,13-6.3,13-20.8v-19.9c0-19-2.9-24.2-14.4-24.2H28V384.5z
			 M34.3,298.2c29.1,0,38.9,13.3,38.9,51.3c0,21.3-2,31.7-8.1,38.4c-2,2.3-3.7,3.7-8.4,6.1c8.9,4.6,12.7,8.4,15.6,15.9
			c2.9,6.6,4,15.9,4,31.1c0,26.5-2.6,37.8-10.1,45.6c-5.5,5.5-13.8,8.4-23.6,8.4H5.2V298.2"/>
		<path fill="none" stroke="#FFFFFF" stroke-width="0.3877" d="M28,474.4h12.1c10.1,0,13.3-5.5,13.3-23.4v-16.2
			c0-23.6-3.2-29.7-16.2-29.7H28V474.4z M28,384.5h10.1c8.9,0,13-6.3,13-20.8v-19.9c0-19-2.9-24.2-14.4-24.2H28V384.5z M34.3,298.2
			c29.1,0,38.9,13.3,38.9,51.3c0,21.3-2,31.7-8.1,38.4c-2,2.3-3.7,3.7-8.4,6.1c8.9,4.6,12.7,8.4,15.6,15.9c2.9,6.6,4,15.9,4,31.1
			c0,26.5-2.6,37.8-10.1,45.6c-5.5,5.5-13.8,8.4-23.6,8.4H5.2V298.2H34.3z"/>
		<path fill="#FFFFFF" d="M143.6,360.2c2.9,28,5.5,52.5,6.1,58h-12.1C138.1,412.7,140.7,387.9,143.6,360.2 M158.6,293.6h-34
			L97.5,499.8h30.9c0,0,5.5-45.9,6.1-53.1h18.5c0.9,6.9,6.1,53.1,6.1,53.1h30.6l-27.1-206.2"/>
		<path fill="none" stroke="#FFFFFF" stroke-width="0.7652" stroke-miterlimit="10" d="M132.4,422.8h22.2l-10.4-105.6h-0.6
			L132.4,422.8z M158.6,298.2l26,197h-21.1l-6.1-53.1h-26.8l-6.3,53.1H103l26-197"/>
		<path fill="none" stroke="#FFFFFF" stroke-width="0.3877" d="M132.4,422.8h22.2l-10.4-105.6h-0.6L132.4,422.8z M158.6,298.2
			l26,197h-21.1l-6.1-53.1h-26.8l-6.3,53.1H103l26-197L158.6,298.2L158.6,298.2z"/>
		<path fill="#FFFFFF" d="M289,293.6h-25.7c0,0-11.5,34.3-19.3,58v-58h-31.7v206.2H244v-72.1c8.7,28.6,21.3,72.1,21.3,72.1h32.3
			c0,0-33.7-110.7-34.6-113.6c0.9-2.9,32.6-92.9,32.6-92.9"/>
		<polyline fill="none" stroke="#FFFFFF" stroke-width="0.7652" stroke-miterlimit="10" points="239.4,298.2 239.4,378.7 
			239.7,378.7 266.8,298.2 289,298.2 258.1,386.2 291.3,495.2 268.8,495.2 239.7,397.4 239.4,397.4 239.4,495.2 216.9,495.2 
			216.9,298.2 		"/>
		<polygon fill="none" stroke="#FFFFFF" stroke-width="0.3877" points="239.4,298.2 239.4,378.7 239.7,378.7 266.8,298.2 289,298.2 
			258.1,386.2 291.3,495.2 268.8,495.2 239.7,397.4 239.4,397.4 239.4,495.2 216.9,495.2 216.9,298.2 		"/>
		<polyline fill="#FFFFFF" points="384.2,293.6 316.1,293.6 316.1,499.8 391.7,499.8 391.7,469.5 347.8,469.5 347.8,409 383.3,409 
			383.3,378.7 347.8,378.7 347.8,323.9 388.8,323.9 388.8,293.6 		"/>
		<polyline fill="none" stroke="#FFFFFF" stroke-width="0.7652" stroke-miterlimit="10" points="384.2,298.2 384.2,319.3 
			342.9,319.3 342.9,383.6 378.4,383.6 378.4,404.1 343.2,404.1 343.2,474.2 387,474.2 387,495.2 320.7,495.2 320.7,298.2 		"/>
		<polygon fill="none" stroke="#FFFFFF" stroke-width="0.3877" points="384.2,298.2 384.2,319.3 342.9,319.3 342.9,383.6 
			378.4,383.6 378.4,404.1 343.2,404.1 343.2,474.2 387,474.2 387,495.2 320.7,495.2 320.7,298.2 		"/>
		<path fill="#FFFFFF" d="M447,324.5c8.7,0,10.1,2,11,4.6v0.3v0.3c0.6,1.4,0.9,2,0.9,2.3v0.3v0.3c0.3,2.3,0.6,8.1,1.2,15.9l0.3,5.2
			v4.9c0,23.6-3.2,24.5-14.7,24.5h-1.4v-58.5H447z M417,293.6h-4.6v206.2h31.7v-86.5h2.6c1.7,6.6,21.6,86.5,21.6,86.5h31.7
			c0,0-22.2-89.4-23.6-95.2c11.5-8.7,16.4-20.2,16.4-40.4v-19.9c0-41.8-22.2-50.8-41-50.8"/>
		<path fill="none" stroke="#FFFFFF" stroke-width="0.7652" stroke-miterlimit="10" d="M439.5,387.6h6.3c15.9,0,19.3-5.2,19.3-29.4
			V353c-0.6-11-0.9-18.2-1.4-21.6c0-1.4-0.6-2.6-1.4-4.3c-2-5.8-6.3-7.5-15.3-7.5h-7.5L439.5,387.6L439.5,387.6z M451.9,298.2
			c23.9,0,36.3,15.3,36.3,46.1v19.9c0,20.2-4.6,30.6-17,38.4l22.8,92.6h-22.2l-21.6-86.5h-11v86.5h-22.5v-197"/>
		<path fill="none" stroke="#FFFFFF" stroke-width="0.3877" d="M439.5,387.6h6.3c15.9,0,19.3-5.2,19.3-29.4V353
			c-0.6-11-0.9-18.2-1.4-21.6c0-1.4-0.6-2.6-1.4-4.3c-2-5.8-6.3-7.5-15.3-7.5h-7.5L439.5,387.6L439.5,387.6z M451.9,298.2
			c23.9,0,36.3,15.3,36.3,46.1v19.9c0,20.2-4.6,30.6-17,38.4l22.8,92.6h-22.2l-21.6-86.5h-11v86.5h-22.5v-197H451.9z"/>
		<path fill="#FFFFFF" d="M591.8,293.6h-26.2c0,0-9.8,43.8-14.7,66.3c-5.2-22.2-15.3-66.3-15.3-66.3h-32.3c0,0,31.7,118,32,119.1
			v87.1h32v-87.7c0.3-1.2,30.6-118.5,30.6-118.5"/>
		<path fill="#705D50" d="M42.7,500.4H0V292.8h34.3c32.3,0,44.4,15.3,44.4,56.8c0,22.8-2.6,34.3-9.5,42.1c-0.9,0.9-1.4,1.7-2.3,2.3
			c4.9,3.7,8.1,7.8,10.7,13.8c3.2,7.2,4.3,16.7,4.3,33.5c0,27.7-2.9,40.1-11.8,49.3C63.7,496.9,53.9,500.4,42.7,500.4z M1.4,499.2
			h41.2c11,0,20.5-3.5,26.5-9.5c8.4-8.7,11.2-21.1,11.2-48.2c0-16.4-1.2-25.7-4.3-32.9c-2.3-6.3-5.5-10.4-10.7-13.8l-0.9-0.6
			l0.6-0.6c1.2-0.9,2-1.7,2.9-2.9c6.6-7.5,8.9-18.7,8.9-41.2c0-40.4-11.5-55.4-43-55.4H1.4V499.2z M40.1,470.4H32v-61.1h5.2
			c8.4,0,12.1,1.2,12.1,25.7v16.2C49.3,469.5,45.9,470.4,40.1,470.4z M33.5,469h6.6c4.9,0,7.8,0,7.8-18.2v-16.2
			c0-24.2-3.5-24.2-10.7-24.2h-3.7V469z M37.8,380.7h-6.1v-57.1h4.3c7.5,0,10.7,0.9,10.7,20.2v19.9C46.7,380.7,41,380.7,37.8,380.7z
			 M33.5,379.3h4.6c2.6,0,7.5,0,7.5-15.3v-19.9c0-18.7-2.6-18.7-9.2-18.7h-2.9C33.5,325.3,33.5,379.3,33.5,379.3z M190.6,500.4h-32
			v-0.6c0,0-5.2-43.5-6.1-52.5h-17.3c-1.2,8.7-6.1,52.5-6.1,52.5v0.6H96.9v-0.9L124,292.8h39.2v0.6L190.6,500.4z M160.1,499.2h29.1
			l-26.8-204.8h-37.2L98.3,499.2h29.4c0.6-5.5,5.5-45.9,6.1-52.5v-0.6h19.9v0.6C154.6,453.4,159.2,493.5,160.1,499.2z M150.5,418.8
			H137v-0.9c0.6-4.9,2.6-25.7,5.2-50.2l1.4-14.7l2.9,28c2,18.5,3.5,32.9,3.7,36.9L150.5,418.8z M138.4,417.3h10.4
			c-0.6-4.9-2-18.7-3.7-36.1l-1.4-14.4v1.2C141.3,391.4,139,411.3,138.4,417.3z M298.8,500.4h-34l-20.2-68.1v68.1h-32.9V292.8h33.2
			v54.5l18.2-54.5h33.7l-0.3,0.9c0,0-30.6,86.8-32.6,92.6c2,6.1,34.6,113.3,34.6,113.3L298.8,500.4z M265.9,499.2h30.9
			c-3.2-10.7-33.7-109.9-34.6-112.8v-0.3v-0.3c0.9-2.6,28.8-82.2,32.3-91.7h-30.6l-20.5,61.7v-61.7h-30.6V499h30.3v-76.1
			L265.9,499.2z M392.5,500.4h-77.3V292.8h74.1v31.7h-41.2v53.6h35.5v31.4h-35.2v59.1h43.8v31.7H392.5z M316.7,499.2h74.4v-28.8
			h-43.8v-62.3h35.2v-28.6H347V323h41.2v-28.8h-71.5V499.2z M501,500.4h-33.2v-0.6c0,0-19-76.7-21.3-86.2H445v86.5h-33.5V292.5h40.4
			c19,0,41.8,8.9,41.8,51.3v19.9c0,20.2-4.6,32-16.2,40.7L501,500.4z M469,499.2h30.3l-23.4-94.9l0.3-0.3
			c11.2-8.4,16.2-19.9,16.2-39.8v-19.9c0-41.2-21.9-49.9-40.4-49.9H413v204.8h30.6v-86.5h4v0.6C449,419.1,467.2,492,469,499.2z
			 M445.6,383.6h-2.3v-60h3.5c8.9,0,10.7,2,11.5,4.9l0.3,0.3c0.6,1.2,0.9,2,0.9,2.6v0.6c0.3,2.6,0.6,8.1,1.2,15.6l0.3,5.8v4.9
			C461.2,381.3,458.3,383.6,445.6,383.6z M444.7,382.2h0.9c10.7,0,14.1,0,14.1-23.9v-4.9l-0.3-5.5c-0.3-7.5-0.6-13-0.9-15.3v-0.3
			v-0.6c0,0,0-0.3-0.9-2l-0.3-0.6c-0.9-2-1.4-4-10.4-4h-2.3L444.7,382.2L444.7,382.2z M567.9,500.4h-33.5v-87.7l-32.3-120h33.7v0.6
			c0,0,9.2,40.1,14.7,63.2c5.2-23.1,13.8-63.2,13.8-63.2v-0.6h33.7l-0.3,0.9c0,0-29.7,114.8-30.6,118.5v88.3H567.9z M535.9,499.2
			h30.6v-87.1c0.3-1.2,27.7-107,30.6-117.7h-30.9c-1.2,5.2-9.8,44.7-14.4,65.8l-0.6,3.2l-0.6-2.9c-4.9-20.8-14.1-60.6-15.3-65.8
			h-30.9l31.7,118.5v85.9H535.9z"/>
		<path fill="#BCD19E" d="M28,474.4h12.1c10.1,0,13.3-5.5,13.3-23.4v-16.2c0-23.6-3.2-29.7-16.2-29.7H28V474.4z M28,384.5h10.1
			c8.9,0,13-6.3,13-20.8v-19.9c0-19-2.9-24.2-14.4-24.2H28V384.5z M34.3,298.2c29.1,0,38.9,13.3,38.9,51.3c0,21.3-2,31.7-8.1,38.4
			c-2,2.3-3.7,3.7-8.4,6.1c8.9,4.6,12.7,8.4,15.6,15.9c2.9,6.6,4,15.9,4,31.1c0,26.5-2.6,37.8-10.1,45.6c-5.5,5.5-13.8,8.4-23.6,8.4
			H5.2V298.2 M132.4,422.8h22.2l-10.4-105.6h-0.6L132.4,422.8z M158.6,298.2l26,197h-21.1l-6.1-53.1h-26.8l-6.3,53.1H103l26-197
			 M239.4,298.2v80.5h0.6l26.8-80.5H289l-30.9,88l33.2,109h-22.5l-29.1-97.8h-0.3v97.8h-22.2v-197 M384.2,298.2v21.1h-41.2v64.3
			h35.5v20.8h-35.2v70.1H387v21.1h-66.3V298.2 M439.5,387.6h6.3c15.9,0,19.3-5.2,19.3-29.4V353c-0.6-11-0.9-18.2-1.4-21.6
			c0-1.4-0.6-2.6-1.4-4.3c-2-5.8-6.3-7.5-15.3-7.5h-7.5L439.5,387.6L439.5,387.6z M451.9,298.2c23.9,0,36.3,15.3,36.3,46.1v19.9
			c0,20.2-4.6,30.6-17,38.4l22.8,92.6h-22.2l-21.6-86.5h-11v86.5h-22.5v-197 M531.8,298.2l18.7,81.6h0.6l17.9-81.6h22.5l-28.8,113.3
			v83.6h-22.5v-83.3l-30.6-113.9"/>
		<polyline fill="none" stroke="#FFFFFF" stroke-width="0.7652" stroke-miterlimit="10" points="531.8,298.2 550.6,379.8 
			551.1,379.8 569.3,298.2 591.8,298.2 562.7,411.6 562.7,495.2 539.9,495.2 539.9,411.9 509.3,298.2 		"/>
		<polygon fill="none" stroke="#FFFFFF" stroke-width="0.3877" points="531.8,298.2 550.6,379.8 551.1,379.8 569.3,298.2 
			591.8,298.2 562.7,411.6 562.7,495.2 539.9,495.2 539.9,411.9 509.3,298.2 		"/>
	</g>
	<g>
		<path fill="#705D50" d="M608.8,208.5c1.7,0,3.2,1.4,3.2,3.2s-1.4,3.2-3.2,3.2s-3.2-1.4-3.2-3.2S606.8,208.5,608.8,208.5z
			 M605.9,211.7c0,1.4,1.2,2.6,2.6,2.6c1.4,0,2.6-1.2,2.6-2.6s-1.2-2.6-2.6-2.6C607.1,209.1,605.9,210.3,605.9,211.7z M610,212.9
			h-0.6l-0.9-0.9h-0.3v1.2h-0.6v-2.9h0.9c0.6,0,1.2,0.3,1.2,0.9c0,0.3-0.3,0.6-0.6,0.9L610,212.9z M608.5,211.7
			c0.3,0,0.6-0.3,0.6-0.6s-0.3-0.6-0.6-0.6h-0.3v0.9h0.3V211.7z"/>
	</g>
</g>
<g>
	<path d="M19,554.6l-1.2,7.2c-0.9,5.8-0.6,6.6,2.9,6.6l-0.3,1.2H8.4l0.3-1.2c3.7,0,4.3-1.2,5.5-6.6l3.5-18.7
		c1.2-5.8,0.6-6.6-3.2-6.6l0.3-1.2H26c6.1,0,8.9,4.3,8.1,9.8c-0.9,4.6-4.3,8.4-8.7,9.5c2,1.4,2.9,3.5,3.2,6.1l0.9,5.8
		c0.3,1.7,0.6,2.3,1.4,2.3c0.6,0,2-0.9,2.3-1.2v1.4c-0.9,1.2-2.9,2-4.3,2c-2,0-3.5-1.2-3.7-4l-0.3-5.8c-0.3-3.2-1.4-6.1-3.7-6.1h-2
		V554.6z M29.7,544.8c0.9-4-1.4-7.5-5.2-7.5h-2.6l-2.6,15.3h2.6C25.7,552.3,28.8,549.1,29.7,544.8z"/>
	<path d="M45.6,570.8c-4.9,0-8.1-4.9-6.9-10.7c1.2-5.8,5.8-10.7,10.7-10.7s7.8,4.6,6.9,10.7C55.1,565.9,50.5,570.8,45.6,570.8z
		 M49,551.2c-3.5,0-5.8,4-6.6,8.7c-0.9,4.9,0,8.9,3.5,8.9s5.8-4,6.6-8.9C53.4,555.2,52.5,551.2,49,551.2z"/>
	<path d="M67.8,570.8c-4.9,0-6.9-4.3-6.1-10.1c1.2-6.9,6.3-11,9.8-11c3.7,0,4.6,2.3,4.6,3.7c-0.3,0.9-0.6,2-2,2
		c-2.3,0-0.6-3.7-2.9-3.7c-2,0-4.9,3.2-6.1,9.2c-0.9,4.6,0.6,7.8,4,7.8c1.4,0,3.5-0.9,5.2-2.6l0.6,1.2
		C73,569.3,70.4,570.8,67.8,570.8z"/>
	<path d="M83.3,569.6h-3.2l4.6-26.2c1.2-5.8,0.6-6.6-2.3-6.6l0.3-1.2l6.9-1.4l-4,23.1c3.5-4.6,5.8-7.5,9.2-7.5c2.6,0,3.5,2,3.2,3.5
		c-0.3,0.9-0.9,1.4-1.7,1.4c-2,0-0.6-2.9-2.9-2.9c-1.4,0-2.9,1.2-6.3,5.2c0.6,0,0.9-0.3,1.4-0.3c2.3,0,3.2,0.9,3.7,3.5l0.9,5.5
		c0.3,1.7,0.6,2.3,1.4,2.3c0.6,0,2-0.9,2.3-1.2v1.4c-1.2,1.2-2.9,2-3.7,2c-2,0-3.2-1.4-3.2-4l-0.3-5.5c0-1.4-0.3-2.3-1.4-2.3
		c-0.6,0-1.7,0.3-2.6,1.2L83.3,569.6z"/>
	<path d="M109.6,568.5c1.4,0,3.7-1.2,5.2-2.6l0.6,1.2c-2,2-4.9,3.7-7.2,3.7c-4.9,0-7.2-4.9-6.1-10.7c1.2-6.1,5.8-10.7,9.8-10.7
		c3.2,0,4.9,2.3,4.3,4.9c-0.6,2.9-4,6.6-11,8.1C105,566.2,106.4,568.5,109.6,568.5z M113.3,554.6c0.3-1.4-0.3-2.6-1.7-2.6
		c-2.6,0-5.2,3.2-6.1,8.4c0,0.3,0,0.6-0.3,0.9C110.5,559.8,112.8,556.9,113.3,554.6z"/>
	<path d="M122,552.6l0.3-2h3.7l0.9-5.8c1.2-6.9,5.8-10.7,9.2-10.7c3.7,0,5.2,2.6,4.9,4.3c-0.3,0.9-0.9,1.4-1.7,1.4
		c-2.6,0-0.3-4-3.5-4c-1.7,0-4.3,2.6-5.5,8.9l-0.9,5.8h4.6l-0.3,2h-4.6l-4,23.4c-1.2,6.9-4,9.2-7.5,9.2c-3.5,0-4.9-2.3-4.6-4
		c0.3-0.9,0.9-1.7,2-1.7c2.6,0,0,4,3.2,4c1.7,0,2.9-2,3.7-7.5l4-23.4L122,552.6L122,552.6z"/>
	<path d="M143.6,568.5c1.4,0,3.7-1.2,5.2-2.6l0.6,1.2c-2,2-4.9,3.7-7.2,3.7c-4.9,0-7.2-4.9-6.1-10.7c1.2-6.1,5.8-10.7,9.8-10.7
		c3.2,0,4.9,2.3,4.3,4.9c-0.6,2.9-4,6.6-11,8.1C139,566.2,140.5,568.5,143.6,568.5z M147.1,554.6c0.3-1.4-0.3-2.6-1.7-2.6
		c-2.6,0-5.2,3.2-6.1,8.4c0,0.3,0,0.6-0.3,0.9C144.2,559.8,146.8,556.9,147.1,554.6z"/>
	<path d="M157.5,536.7l0.3-1.2l6.9-1.4l-5.8,32c-0.3,1.4,0,2.3,0.6,2.3c0.6,0,2-0.9,2.3-1.2v1.4c-1.2,1.2-2.6,2-3.7,2
		c-2,0-2.9-1.7-2.6-4l4-22.8C160.9,537.6,160.4,536.7,157.5,536.7z"/>
	<path d="M170.7,536.7l0.3-1.2l6.9-1.4l-5.8,32c-0.3,1.4,0,2.3,0.6,2.3s2-0.9,2.3-1.2v1.4c-1.2,1.2-2.6,2-3.7,2c-2,0-2.9-1.7-2.6-4
		l4-22.8C173.9,537.6,173.6,536.7,170.7,536.7z"/>
	<path d="M189.2,568.5c1.4,0,3.7-1.2,5.2-2.6l0.6,1.2c-2,2-4.9,3.7-7.2,3.7c-4.9,0-7.2-4.9-6.1-10.7c1.2-6.1,5.8-10.7,9.8-10.7
		c3.2,0,4.9,2.3,4.3,4.9c-0.6,2.9-4,6.6-11,8.1C184.6,566.2,186,568.5,189.2,568.5z M192.7,554.6c0.3-1.4-0.3-2.6-1.7-2.6
		c-2.6,0-5.2,3.2-6.1,8.4c0,0.3,0,0.6-0.3,0.9C189.8,559.8,192.4,556.9,192.7,554.6z"/>
	<path d="M213.1,549.4c2.6,0,3.2,2,2.9,3.7c0,0.9-0.9,2-2.3,2c-1.2,0-1.7-0.9-1.4-1.7c0-0.9,0-1.2-0.6-1.2c-1.7,0-4.3,3.7-5.8,12.1
		l-0.9,5.5h-3.2l2.6-15.6c0.3-1.4,0.3-2.3-0.6-2.3c-0.6,0-2,0.9-2.3,1.4V552c1.2-1.2,2.6-2,3.7-2c2,0,2.6,1.7,2.3,4l-0.3,1.4
		C208.8,551.5,211.1,549.4,213.1,549.4z"/>
	<path d="M252.6,569c0-1.4,0-2.9-0.6-3.2c-2.6,3.2-5.8,4.9-8.9,4.9c-7.2,0-11.8-8.4-10.1-18.2c1.7-10.1,9.2-18.2,16.4-18.2
		c3.2,0,5.5,1.7,7.2,4.9c0.6-0.6,1.2-1.7,1.7-3.2h1.2l-2.3,12.7h-1.2c0.3-7.5-2.3-12.1-6.9-12.1c-6.3,0-10.4,8.9-11.8,16.2
		c-1.2,7.2,0,15.9,6.1,15.9c4.6,0,8.9-4.6,11.2-12.1h1.2l-2.3,12.7h-0.9V569z"/>
	<path d="M270.2,568.5c1.4,0,3.7-1.2,5.2-2.6l0.6,1.2c-2,2-4.9,3.7-7.2,3.7c-4.9,0-7.2-4.9-6.1-10.7c1.2-6.1,5.8-10.7,9.8-10.7
		c3.2,0,4.9,2.3,4.3,4.9c-0.6,2.9-4,6.6-11,8.1C265.6,566.2,267.1,568.5,270.2,568.5z M273.7,554.6c0.3-1.4-0.3-2.6-1.7-2.6
		c-2.6,0-5.2,3.2-6.1,8.4c0,0.3,0,0.6-0.3,0.9C270.8,559.8,273.4,556.9,273.7,554.6z"/>
	<path d="M282.9,569.6l2.6-15.6c0.3-1.4,0.3-2.3-0.6-2.3c-0.6,0-2,0.9-2.3,1.4v-1.4c1.2-1.2,2.6-2,3.7-2c2,0,2.9,1.7,2.6,4v0.6
		c1.7-2.9,4.3-4.6,6.6-4.6c3.7,0,4.9,3.7,4,8.7l-1.4,7.8c-0.3,1.4,0,2.3,0.6,2.3c0.6,0,2-0.9,2.3-1.2v1.4c-1.2,1.2-2.6,2-3.7,2
		c-2,0-2.9-1.7-2.6-4l1.4-8.1c0.6-3.7,0.3-6.1-2.6-6.1c-2,0-5.2,2.9-6.3,8.9l-1.4,8.7h-2.9V569.6z"/>
	<path d="M311.2,564.1c-0.6,2.6,0,4,1.4,4c0.9,0,2-0.6,3.7-2.6v1.7c-1.7,2.3-4,3.2-5.2,3.2c-2.6,0-3.7-2-3.2-6.3l2-11.5h-3.7l0.3-2
		h3.7l1.7-9.2h3.2l-1.7,9.2h4.6l-0.3,2h-4.6L311.2,564.1z"/>
	<path d="M329.1,568.5c1.4,0,3.7-1.2,5.2-2.6l0.6,1.2c-2,2-4.9,3.7-7.2,3.7c-4.9,0-7.2-4.9-6.1-10.7c1.2-6.1,5.8-10.7,9.8-10.7
		c3.2,0,4.9,2.3,4.3,4.9c-0.6,2.9-4,6.6-11,8.1C324.5,566.2,325.9,568.5,329.1,568.5z M332.5,554.6c0.3-1.4-0.3-2.6-1.7-2.6
		c-2.6,0-5.2,3.2-6.1,8.4c0,0.3,0,0.6-0.3,0.9C329.6,559.8,332,556.9,332.5,554.6z"/>
	<path d="M353,549.4c2.6,0,3.2,2,2.9,3.7c0,0.9-0.9,2-2.3,2c-1.2,0-1.7-0.9-1.4-1.7c0-0.9,0-1.2-0.6-1.2c-1.7,0-4.3,3.7-5.8,12.1
		l-0.9,5.5h-3.2l2.6-15.6c0.3-1.4,0.3-2.3-0.6-2.3c-0.6,0-2,0.9-2.3,1.4V552c1.2-1.2,2.6-2,3.7-2c2,0,2.6,1.7,2.3,4l-0.3,1.4
		C348.4,551.5,350.7,549.4,353,549.4z"/>
	<path d="M358.2,570.2c-1.4,0-2.6-1.2-2.3-2.9c0.3-1.4,1.7-2.9,3.2-2.9s2.9,1.2,2.6,3.7c-0.6,2.6-2.9,6.3-6.9,8.7l-0.6-0.6
		c2.6-2.3,3.7-3.7,4.3-6.1C358.5,570.2,358.5,570.2,358.2,570.2z"/>
	<path d="M416.7,534.1c2.6,0,3.5,2,3.2,3.5c-0.3,0.9-0.6,1.7-1.7,1.7c-2,0-0.6-2.9-2.6-2.9c-2.3,0-3.2,4.6-4,8.7l-4.6,25.7h-0.9
		l-12.4-29.1l-3.2,18.2c-1.4,8.9-4,11-7.2,11c-2.6,0-3.5-2-3.2-3.5c0.3-0.9,0.9-1.7,1.7-1.7c2,0,0.6,2.9,2.6,2.9
		c2.3,0,3.2-4.6,4-8.7l2.9-16.7c1.2-5.8,0.6-6.6-3.2-6.6l0.3-1.2h6.9l11.2,26.5l2.9-16.4C411.3,535.9,413.6,534.1,416.7,534.1z"/>
	<path d="M427.4,568.5c1.4,0,3.7-1.2,5.2-2.6l0.6,1.2c-2,2-4.9,3.7-7.2,3.7c-4.9,0-7.2-4.9-6.1-10.7c1.2-6.1,5.8-10.7,9.8-10.7
		c3.2,0,4.9,2.3,4.3,4.9c-0.6,2.9-4,6.6-11,8.1C422.8,566.2,424.2,568.5,427.4,568.5z M431.2,554.6c0.3-1.4-0.3-2.6-1.7-2.6
		c-2.6,0-5.2,3.2-6.1,8.4c0,0.3,0,0.6-0.3,0.9C428.3,559.8,430.6,556.9,431.2,554.6z"/>
	<path d="M457.1,568.5c2.3,0,4.6-2.9,5.8-8.4c1.4-7.2-2-7.2-1.4-9.5c0.3-0.9,0.9-1.2,1.4-1.2c1.4,0,3.2,2.9,1.7,10.7
		c-1.2,6.6-4.6,10.7-8.1,10.7c-2,0-4-1.2-5.2-3.2c-1.7,2-3.7,3.2-5.8,3.2c-3.7,0-5.5-2.6-4.9-7.2c0.6-3.7,3.7-8.4,4-10.7
		c-1.2-0.6-2-1.2-3.7-1.2c-0.6,0-2,0.9-2.3,1.4v-1.4c1.2-1.2,2.6-2,3.7-2c2,0,2.3,0.9,4-0.3h0.9c-0.6,3.2-2.6,8.1-3.7,13.6
		c-0.6,3.7,0.9,5.5,2.6,5.5c1.4,0,2.9-0.9,4-2.3c-0.9-2.3-1.2-5.2-0.3-9.2c0.9-4.6,3.2-7.2,4.6-7.2c1.4,0,2.3,2.3,1.7,6.6
		c-0.6,2.9-1.7,6.1-3.5,8.7C454,567.3,455.4,568.5,457.1,568.5z M455.1,556.4c0.6-2.9,0.3-4.3-0.3-4.3c-0.6,0-1.2,1.4-1.7,4
		c-0.6,2.9-0.6,5.2-0.3,6.9C454,561,454.8,558.7,455.1,556.4z"/>
	<path d="M494.3,561.8c-1.2,5.8-0.6,6.6,2.9,6.6l-0.3,1.2h-12.1l0.3-1.2c3.7,0,4.3-1.2,5.5-6.6l0.6-2.9c2.9-16.4-0.3-22.2-3.7-22.2
		c-0.9,0-2.3,0.9-2.9,1.4v-1.4c1.4-1.4,3.2-2,4.6-2c4.3,0,6.3,4.3,6.1,17c3.5-9.8,7.2-17,12.1-17c2.6,0,3.5,2,3.5,3.5
		c0,0.9-0.9,1.7-1.7,1.7c-2,0-0.9-2.9-2.9-2.9c-3.5,0-9.5,13.8-11,21.6L494.3,561.8z"/>
	<path d="M512.5,570.8c-4.9,0-8.1-4.9-6.9-10.7c1.2-5.8,5.8-10.7,10.7-10.7c4.9,0,7.8,4.6,6.9,10.7
		C522.3,565.9,517.4,570.8,512.5,570.8z M516,551.2c-3.5,0-5.8,4-6.6,8.7c-0.9,4.9,0,8.9,3.5,8.9s5.8-4,6.6-8.9
		C520.3,555.2,519.4,551.2,516,551.2z"/>
	<path d="M541.1,549.4c2.6,0,3.2,2,2.9,3.7c0,0.9-0.9,2-2.3,2c-1.2,0-1.7-0.9-1.4-1.7c0-0.9,0-1.2-0.6-1.2c-1.7,0-4.3,3.7-5.8,12.1
		l-0.9,5.5h-3.2l2.6-15.6c0.3-1.4,0.3-2.3-0.6-2.3c-0.6,0-2,0.9-2.3,1.4V552c1.2-1.2,2.6-2,3.7-2c2,0,2.6,1.7,2.3,4l-0.3,1.4
		C536.7,551.5,539,549.4,541.1,549.4z"/>
	<path d="M550,569.6h-3.2l4.6-26.2c1.2-5.8,0.6-6.6-2.3-6.6l0.3-1.2l6.9-1.4l-4,23.1c3.5-4.6,5.8-7.5,9.2-7.5c2.6,0,3.5,2,3.2,3.5
		c-0.3,0.9-0.9,1.4-1.7,1.4c-2,0-0.6-2.9-2.9-2.9c-1.4,0-2.9,1.2-6.3,5.2c0.6,0,0.9-0.3,1.4-0.3c2.3,0,3.2,0.9,3.7,3.5l0.9,5.5
		c0.3,1.7,0.6,2.3,1.4,2.3c0.6,0,2-0.9,2.3-1.2v1.4c-1.2,1.2-2.9,2-3.7,2c-2,0-3.2-1.4-3.2-4l-0.3-5.5c0-1.4-0.3-2.3-1.4-2.3
		c-0.6,0-1.7,0.3-2.6,1.2L550,569.6z"/>
</g>
</svg>
