<?xml version="1.0" encoding="utf-8"?>
<!-- Generator: Adobe Illustrator 21.0.2, SVG Export Plug-In . SVG Version: 6.00 Build 0)  -->
<svg version="1.1" id="Layer_1" xmlns="http://www.w3.org/2000/svg" xmlns:xlink="http://www.w3.org/1999/xlink" x="0px" y="0px"
	 viewBox="0 0 612 182.2" style="enable-background:new 0 0 612 182.2;" xml:space="preserve">
<style type="text/css">
	.st0{fill:#933F22;}
	.st1{fill:#F2D383;}
</style>
<g>
	<g>
		<path class="st0" d="M33.8,90.8c-1,0-11.6-0.3-11.6-0.3c-0.7,0-0.7,0.3-0.7,0.7s0,15.7,0,16.1s0,0.7,0.3,0.7s9.9,0,12.3,0
			c3.1,0,4.4-0.7,6.2-2.1c1-1,2.1-1.7,2.7-3.8c1.4-3.1,0.7-6.8-1.4-8.9c-1-1-2.7-2.1-5.1-2.4C35.5,90.8,34.9,90.8,33.8,90.8
			 M37.3,69.3c-2.1-0.3-5.1,0-7.9,0c-2.7,0-7.5,0-7.9,0s-0.3,0-0.3,0.3v13c0,0.3,0,0.3,0.3,0.3s13.7,0,15.4-0.3s3.1-1,4.4-1.7
			c1.7-1.7,2.1-4.4,1.4-6.5C42.4,72.7,40.7,69.6,37.3,69.3 M42.7,61.1c2.1,0.3,4.4,1,6.8,2.1c3.1,1.7,5.8,4.4,6.2,7.5
			c1,4.4,0,10.6-8.2,13.7c-2.4,1-5.1,1-5.5,1.4v0.3c0,0,2.7,0.7,4.8,1.4c2.4,1,4.4,1.7,7.2,4.4s4.1,7.5,2.7,13.3
			c-1,5.8-8.5,10.3-15,10.9c-4.1,0.3-9.9,0.3-9.9,0.3H0c0,0-0.3,0-0.3-0.3v-7.9c0-0.3,0-0.3,0.3-0.3h7.2c0.3,0,0.7-0.3,0.7-1V68.6
			c0-0.7,0-0.7-0.7-0.7s-6.8,0-6.8,0c-0.3,0-0.3,0-0.3-0.3v-7.5c0-0.3,0-0.3,0.3-0.3h35.9C36.9,60.7,41,61.1,42.7,61.1"/>
		<path class="st1" d="M33.8,90.8c-1,0-11.6-0.3-11.6-0.3c-0.7,0-0.7,0.3-0.7,0.7s0,15.7,0,16.1s0,0.7,0.3,0.7s9.9,0,12.3,0
			c3.1,0,4.4-0.7,6.2-2.1c1-1,2.1-1.7,2.7-3.8c1.4-3.1,0.7-6.8-1.4-8.9c-1-1-2.7-2.1-5.1-2.4C35.5,90.8,34.9,90.8,33.8,90.8
			 M37.3,69.3c-2.1-0.3-5.1,0-7.9,0c-2.7,0-7.5,0-7.9,0s-0.3,0-0.3,0.3v13c0,0.3,0,0.3,0.3,0.3s13.7,0,15.4-0.3s3.1-1,4.4-1.7
			c1.7-1.7,2.1-4.4,1.4-6.5C42.4,72.7,40.7,69.6,37.3,69.3 M42.7,61.1c2.1,0.3,4.4,1,6.8,2.1c3.1,1.7,5.8,4.4,6.2,7.5
			c1,4.4,0,10.6-8.2,13.7c-2.4,1-5.1,1-5.5,1.4v0.3c0,0,2.7,0.7,4.8,1.4c2.4,1,4.4,1.7,7.2,4.4s4.1,7.5,2.7,13.3
			c-1,5.8-8.5,10.3-15,10.9c-4.1,0.3-9.9,0.3-9.9,0.3H0c0,0-0.3,0-0.3-0.3v-7.9c0-0.3,0-0.3,0.3-0.3h7.2c0.3,0,0.7-0.3,0.7-1V68.6
			c0-0.7,0-0.7-0.7-0.7s-6.8,0-6.8,0c-0.3,0-0.3,0-0.3-0.3v-7.5c0-0.3,0-0.3,0.3-0.3h35.9C36.9,60.7,41,61.1,42.7,61.1"/>
		<path class="st0" d="M46.5,115.5l10.6-8.9C55.4,110,51.3,113.7,46.5,115.5 M31.8,116.1l25-21.2c0.3,1,0.7,1.7,1,2.7l-22.2,19.1
			c-1.4,0-2.7,0-2.7,0L31.8,116.1L31.8,116.1z M1,116.1v-1.4l20.5-17.1c0,1,0,2.1,0,3.1L3,116.4L1,116.1L1,116.1 M1,108.3h2.1
			L0.7,110L1,108.3L1,108.3 M8.2,108.3l-6.8,6.2v-3.4l3.1-2.7L8.2,108.3L8.2,108.3z M1,68.3v-1l7.5-6.5h3.8l-9.2,7.5
			C2.4,68.6,1.4,68.6,1,68.3C1,68.6,1,68.3,1,68.3 M1,60.7h1.7L1,62.4V60.7C1,61.1,1,60.7,1,60.7 M1,63.1l2.7-2.4h3.8L1,66.5
			C1,66.6,1,63.1,1,63.1z M30.8,60.7L8.9,79.6v-3.1L27,61.1C28.4,60.7,29.7,60.7,30.8,60.7 M40,61.1l-9.6,8.2c-0.3,0-0.7,0-1,0
			c-1,0-1.7,0-2.7,0l9.9-8.2h1C37.3,60.7,38.6,61.1,40,61.1 M44.1,61.4l-8.9,7.9c-1,0-2.7,0-3.8,0l9.6-8.2c1,0,1.4,0,2.1,0.3
			C43.1,61.1,43.7,61.1,44.1,61.4 M50.6,63.8L41.4,72c-0.7-0.7-1-1-1.7-1.7l8.5-7.5c0.7,0.3,1,0.3,1.4,0.7
			C49.9,63.1,50.2,63.5,50.6,63.8 M53,65.5l-10.3,8.9l0,0c0-0.7-0.7-1.4-1-2.4l9.6-8.2C51.6,64.5,52.3,64.9,53,65.5 M47.8,84.7
			c-1,0.3-2.4,0.7-3.1,1L56,76.1C55.4,79.2,53,82.6,47.8,84.7 M52.3,90.2l-8.5,7.5c-0.3-1-0.7-1.7-1-2.7l7.2-6.5
			C50.6,89.1,51.6,89.5,52.3,90.2 M37.3,107.2c1-0.3,2.1-1,2.7-1.4c1-0.7,1.7-1.4,2.7-2.7L55,92.8c0.7,0.7,1,1,1.4,2.1l-25.6,21.9
			h-4.1L37.3,107.2z M32.1,107.9c1,0,1.4,0,2.1,0c1,0,1.4,0,2.1-0.3l-9.9,8.5h-3.8L32.1,107.9z M27.7,107.9c1,0,2.7,0,3.8,0
			l-9.9,8.2h-3.8L27.7,107.9z M22.9,107.9h3.8l-9.9,8.2H13L22.9,107.9z M21.2,105.2v2.1c0,0.3,0,0.7,0.3,0.7h0.3l-9.9,8.2H8.1
			L21.2,105.2z M21.2,104.5L7.5,116.1H3.7l17.4-15.4v3.8H21.2z M40.3,92.2c-0.7-0.3-1.4-1-2.4-1l5.8-4.8c1,0.3,1.7,0.3,2.7,1
			L40.3,92.2z M41,103.1c-1.7,2.4-3.8,3.1-6.2,3.4c-1.7,0-8.9,0-8.9,0c-0.3,0-0.3,0-0.3-0.3s0-9.9,0-10.6s0-1,0.7-1
			c0.3,0,10.3,0,12,0c1.7,0.3,2.7,0.7,3.1,1c0.3,0.3,1,0.7,1,2.7C42.7,99.7,42,101.8,41,103.1 M43.7,98l9.2-7.9c0.7,0.7,1,1,1.7,1.7
			l-11.3,9.9C43.7,100.8,43.7,99.4,43.7,98 M47.5,87.8c0.7,0.3,1.4,0.7,2.1,1L42.4,95c-0.3-0.3-0.7-1-1-1c-0.3-0.3-0.3-0.3-0.7-0.7
			l6.2-5.1C46.8,87.4,47.2,87.4,47.5,87.8 M56.1,75.1L43.7,85.7c-0.7,0-1,0.3-1,0.3v0.3c0,0,0,0,0.3,0l-5.5,4.8c-0.3,0-0.7,0-1-0.3
			c-1-0.3-1.4,0-2.7,0l0,0l22.6-19.1C56.1,72.7,56.1,73.7,56.1,75.1 M40.3,81.3c0.3-0.3,0.7-0.3,1-0.7l0,0l14-11.6
			c0.3,0.7,0.7,1.4,0.7,2.4v0.3L33.1,91.5c-1,0-2.4,0-3.8,0L40.3,81.3z M24.6,90.5l9.6-8.2c1.4,0,2.4,0,2.7,0c0.7,0,1-0.3,1.4-0.3
			l-9.9,8.5C27,90.5,25.6,90.5,24.6,90.5 M8.9,103.8l12.3-10.6v3.1L8.9,106.9V103.8z M8.9,72l13.7-11.6h3.8L9.3,75.1V72L8.9,72
			L8.9,72z M21.2,76.8L8.9,87.4v-3.1l12.3-10.6V76.8z M8.9,96l15.7-13.7c1,0,2.7,0,3.8,0L8.9,99C8.9,99.4,8.9,96,8.9,96z M8.9,91.9
			l12.3-10.6V82c0,0.3,0,0.3,0.3,0.3c0,0,1,0,2.4,0L9.2,95L8.9,91.9L8.9,91.9z M8.9,88.1l12.3-10.6v3.1L8.9,91.2V88.1z M21.9,90.5
			c-0.7,0-0.7,0.3-0.7,0.7v1.4L8.9,103.1V100l20.5-17.4c1.4,0,2.7,0,3.8,0l-9.6,8.2C22.9,90.5,21.9,90.5,21.9,90.5 M42.7,75.1
			l10.6-9.2c1,1,1,1.4,1.7,2.4L42.3,78.9C42.7,77.5,42.7,76.1,42.7,75.1 M37.3,69.3c-0.3,0-1,0-1.4,0l8.9-7.5c1,0.3,1.7,0.7,2.7,1
			L39,70.3C38.6,69.3,37.9,69.3,37.3,69.3 M36.9,72.7c2.4,0,3.1,0.7,3.8,1c0.7,0.3,1,0.7,1,1c0.3,0.7,0.3,2.1,0,3.1
			c-0.3,1.4-1.4,3.1-4.1,3.4c-2.1,0.3-10.9,0.3-11.3,0.3s-0.3,0-0.3-0.3V73c0-0.3,0-0.3,0.3-0.3C26.3,72.7,36.2,72.7,36.9,72.7
			 M22.2,69l9.9-8.2h3.8L26,69C24.3,69,22.9,69,22.2,69 M21.2,72.7L8.9,83.3v-3.1l12.3-10.6V72.7z M17.8,60.7h3.8l-12.7,11v-2.4
			c0-0.3,0-0.7-0.3-0.7L17.8,60.7z M7.8,68.3c-1,0-2.4,0-3.8,0l9.2-7.9c1,0,2.7,0,3.8,0L7.8,68.3z M40,116.1c-1.4,0-2.7,0-4.1,0
			L57.1,98c0.3,1,0.3,2.1,0.3,3.1L40,116.1z M42.7,116.1c-0.7,0-1,0-1.4,0l16.8-14c0,1-0.3,2.4-0.7,3.1l-12,10.3
			C44.4,115.8,43.4,115.8,42.7,116.1 M59.5,94.9c-2.7-3.8-8.2-6.5-8.2-6.5c-0.3,0-0.3,0,0-0.3c0,0,4.4-2.1,6.5-4.4
			c2.4-2.7,3.8-5.5,2.7-10.9c-1-7.2-7.5-13-20.2-13.7c-4.4-0.3-7.9-0.3-9.9-0.3c-2.1,0-3.4,0-8.2,0.3c-4.4,0-20.9,0-21.5,0
			c-1,0.3-1.4,0.3-1.4,1V70c0,0,0.7,0.7,1,1c0.7,0.7,2.4,2.1,2.4,2.4c0,0,0,0,0.3,0h3.8v0.3c0,0,0,31.8,0,32.8c0,0.7,0,1-0.3,1
			s-7.2,0-7.5,0c0.3-0.3,0.3,0,0.3,0v9.9c0,0.3,0.3,0.7,0.7,1c0.3,0.3,2.7,2.4,3.1,2.7c0.3,0,0.7,0.3,1,0.3h17.4
			c0,0,21.5-0.3,25.3-0.7c6.5-0.7,12.3-4.4,14.7-11.3C62.9,103.8,61.9,98.7,59.5,94.9"/>
		<path class="st1" d="M115.9,69c-9.6,0-15,5.8-15,19.5c0,15.4,6.5,21.2,15.4,21.2c8.2,0,13.7-7.2,13.7-20.5
			C129.9,76.1,125.8,69,115.9,69 M144.3,91.5c0,13.3-9.6,26.7-29.7,26.7c-13.7,0-28-9.6-28-28.4c0-18.8,15.7-28.7,27.7-28.7
			C137.8,61.1,144.3,77.2,144.3,91.5"/>
		<path class="st0" d="M126.5,116.5l15-12.7C138.8,109.3,133.7,113.7,126.5,116.5 M93.3,109.3l9.9-8.2c0.3,1,0.7,1.4,1,2.4l-9.2,7.9
			C94.3,110.3,93.7,110,93.3,109.3 M105.6,62.8L90.2,76.1C93.3,69.3,99.5,64.9,105.6,62.8 M89.6,77.5l17.8-15c1.7-0.7,3.1-1,4.8-1
			L87.9,82.3C87.9,80.2,88.5,78.9,89.6,77.5 M116.6,61.1L86.9,86.4c0-1,0.3-2.7,0.7-3.8l25.3-21.5c0.7,0,1,0,1.4,0
			C115.2,61.1,115.9,61.1,116.6,61.1 M122.4,108.3c1-0.7,2.4-1.7,3.1-2.7l19.1-16.1c0,0.7,0,1.4,0,2.1c0,0.3,0,0.7,0,1l-30.4,26
			c-1,0-2.4,0-3.1-0.3L122.4,108.3z M115.9,110c0.3,0,0.3,0,0.7,0c1.4,0,2.7-0.3,4.1-0.7l-10.3,8.9c-1-0.3-2.1-0.3-3.1-0.7
			L115.9,110z M111.8,109.3c1,0.3,2.1,0.7,3.1,0.7l-8.9,7.5c-1-0.3-1.7-0.7-2.7-1L111.8,109.3z M109,107.9c1,0.7,1.4,1,2.4,1
			l-8.2,7.2c-1-0.3-1.7-1-2.4-1L109,107.9z M106.3,105.9c0.7,0.7,1,1,2.1,1.7l-8.2,7.2c-1-0.3-1.4-1-2.4-1.4L106.3,105.9z
			 M106,105.5l-8.5,7.5c-0.7-0.7-1.4-1-2.1-1.7l9.2-7.9C104.9,104.5,105.6,104.9,106,105.5 M102.2,97.7c0.3,1,0.7,1.7,1,2.7
			l-9.9,8.5c-0.7-0.7-1-1-1.4-2.1L102.2,97.7z M101.5,94.3c0,1,0.3,2.1,0.7,2.7l-10.9,9.2c-0.7-0.7-1-1.4-1-2.4L101.5,94.3z
			 M101.2,90.5c0,1,0,2.1,0.3,2.7l-11.6,9.9c-0.3-1-0.7-1.4-1-2.4L101.2,90.5z M101.2,86.4c0,0.7,0,1,0,2.1c0,0.7,0,1,0,1.4
			l-12.7,10.9c-0.3-1-0.7-1.7-1-2.7L101.2,86.4z M101.5,82.3c-0.3,1-0.3,2.4-0.3,3.4L87.5,97.3c-0.3-1-0.3-1.7-0.7-2.7L101.5,82.3z
			 M86.5,91.2l16.4-13.7c-0.7,1-1,2.7-1,4.4l-15,12.7C86.8,93.2,86.5,92.2,86.5,91.2 M116.6,69L116.6,69c-1.7,0-2.7,0-4.1,0.3
			l9.2-7.9c1,0.3,2.1,0.3,3.1,0.7L116.6,69z M120.3,69.6c-1-0.3-2.1-0.7-3.1-0.7l7.9-6.5c1,0.3,1.7,0.7,2.7,1L120.3,69.6z M123.4,71
			c-1-0.7-1.4-1-2.4-1l7.5-6.5c1,0.3,1.7,1,2.4,1L123.4,71z M125.8,73.1c-0.7-0.7-1-1-1.7-1.7l7.5-6.5c1,0.3,1.4,1,2.1,1.4
			L125.8,73.1z M127.5,75.8c-0.3-1-1-1.4-1.4-2.1l7.9-6.8c0.7,0.7,1.4,1,2.1,1.7L127.5,75.8z M129.6,81.6c-0.3-1-0.3-1.7-0.7-2.7
			l9.6-8.2c0.7,0.7,1,1.4,1.4,2.1L129.6,81.6z M129.6,85.4c0-1-0.3-2.1-0.3-2.7l10.3-8.9c0.7,1,1,1.4,1,2.4L129.6,85.4z M129.9,89.1
			c0-1,0-2.1,0-3.1l11.6-9.9c0.3,1,0.7,1.7,1,2.4L129.9,89.1z M129.6,93.2c0-1,0.3-2.4,0.3-3.4l12.7-10.6c0.3,1,0.7,1.7,1,2.7
			L129.6,93.2z M143.9,85l-15,12.7c0.3-1,0.7-2.4,0.7-3.8l13.7-11.6C143.6,83.3,143.9,84.3,143.9,85 M128.9,99l15.4-13
			c0,1,0.3,2.1,0.3,2.7l-17.4,15C127.9,102.5,128.2,100.8,128.9,99 M108,105.2c-1.4-2.4-2.7-8.2-1.7-17.1c1.4-12.7,6.2-14.7,9.6-15
			s6.8,0,8.9,1.4c1,1,3.8,4.8,3.8,15c0,10.3-3.8,19.1-11.6,19.1C111.1,108.3,109,106.9,108,105.2 M137.8,70.3l-9.2,8.2
			c-0.3-1-0.7-1.7-1-2.4l8.5-7.5C136.7,69.3,137.1,70,137.8,70.3 M86.5,90.2c0-1,0-1.7,0-2.7l30.8-26.3c1,0,2.4,0.3,3.1,0.3
			l-9.6,8.2c-3.1,1-5.8,3.1-7.5,6.5L86.5,90.2L86.5,90.2 M143.9,97.3l-24.6,20.9c-1.4,0.3-2.7,0.3-4.1,0.3l29.4-25
			C144.3,94.6,144.3,95.6,143.9,97.3 M142.2,102.5l-17.1,14.4c-1.7,0.7-3.1,1-5.1,1l23.6-20.2C143.2,99.4,142.6,101.1,142.2,102.5
			 M115.2,59.7c-17.1,0-30.1,12.3-29.7,31.8c0.3,19.1,17.4,31.8,33.8,31.5c17.8-0.3,30.1-13.7,30.1-31.1
			C149.4,73.7,133.7,59.7,115.2,59.7"/>
		<path class="st1" d="M479,69c-9.6,0-15,5.8-15,19.5c0,15.4,6.5,21.2,15.4,21.2c8.2,0,13.7-7.2,13.7-20.5S488.2,69,479,69
			 M507,91.5c0,13.3-9.6,26.7-29.7,26.7c-13.7,0-28-9.6-28-28.4c0-18.8,15.7-28.7,27.7-28.7C500.9,61.1,507,77.2,507,91.5"/>
		<path class="st0" d="M489.2,116.5l15-12.7C501.2,109.3,496.4,113.7,489.2,116.5 M456.1,109.3l9.9-8.2c0.3,1,0.7,1.4,1,2.4
			l-9.2,7.9C457.4,110.3,456.8,110,456.1,109.3 M468.4,62.8L453,76.1C456.4,69.3,462.2,64.9,468.4,62.8 M452,77.5l17.8-15
			c1.7-0.7,3.1-1,4.8-1l-24.3,20.9C450.9,80.2,451.6,78.9,452,77.5 M479.3,61.1l-29.7,25.3c0-1,0.3-2.7,0.7-3.8l25.3-21.5
			c0.7,0,1,0,1.4,0C477.6,61.1,478.6,61.1,479.3,61.1 M484.8,108.3c1-0.7,2.4-1.7,3.1-2.7L507,89.5c0,0.7,0,1.4,0,2.1
			c0,0.3,0,0.7,0,1l-30.1,26c-1,0-2.4,0-3.1-0.3L484.8,108.3z M478.6,110c0.3,0,0.3,0,0.7,0c1.4,0,2.7-0.3,4.1-0.7l-10.3,8.9
			c-1-0.3-2.1-0.3-2.7-0.7L478.6,110z M474.9,109.3c1,0.3,2.1,0.7,3.1,0.7l-8.9,7.5c-1-0.3-1.7-0.7-2.7-1L474.9,109.3z M471.8,107.9
			c1,0.7,1.4,1,2.4,1l-8.2,7.2c-1-0.3-1.7-1-2.4-1L471.8,107.9z M469.4,105.9c0.7,0.7,1,1,2.1,1.7l-8.2,7.2c-1-0.3-1.4-1-2.4-1.4
			L469.4,105.9z M468.7,105.5l-8.5,7.5c-0.7-0.7-1.4-1-2.1-1.7l9.2-7.9C468,104.5,468.4,104.9,468.7,105.5 M465,97.7
			c0.3,1,0.7,1.7,1,2.7l-9.9,8.5c-0.7-0.7-1-1-1.4-2.1L465,97.7z M464.3,94.3c0,1,0.3,2.1,0.7,2.7l-10.9,9.2c-0.7-0.7-1-1.4-1-2.4
			L464.3,94.3z M463.9,90.5c0,1,0,2.1,0.3,2.7l-11.6,9.9c-0.3-1-0.7-1.4-1-2.4L463.9,90.5z M463.9,86.4c0,0.7,0,1,0,2.1
			c0,0.7,0,1,0,1.4l-12.7,10.9c-0.3-1-0.7-1.7-1-2.7L463.9,86.4z M464.6,82.3c-0.3,1-0.3,2.4-0.3,3.4l-13.7,11.6
			c-0.3-1-0.3-1.7-0.7-2.7L464.6,82.3z M449.6,91.2L466,77.5c-0.7,1-1,2.7-1,4.4l-15,12.7C449.6,93.2,449.6,92.2,449.6,91.2 M479,69
			L479,69c-1.7,0-2.7,0-4.1,0.3l9.2-7.9c1,0.3,2.1,0.3,3.1,0.7L479,69z M483.1,69.6c-1-0.3-2.1-0.7-3.1-0.7l7.9-6.5
			c1,0.3,1.7,0.7,2.7,1L483.1,69.6z M486.2,71c-1-0.7-1.4-1-2.4-1l7.5-6.5c1,0.3,1.7,1,2.4,1L486.2,71z M488.2,73.1
			c-0.7-0.7-1-1-1.7-1.7l7.5-6.5c1,0.3,1.4,1,2.1,1.4L488.2,73.1z M489.9,75.8c-0.3-1-1-1.4-1.4-2.1l7.9-6.5c0.7,0.7,1.4,1,2.1,1.7
			L489.9,75.8z M492,81.6c-0.3-1-0.3-1.7-0.7-2.7l9.6-8.2c0.7,0.7,1,1.4,1.4,2.1L492,81.6z M492.7,85.4c0-1-0.3-2.1-0.3-2.7
			l10.3-8.9c0.7,1,1,1.4,1,2.4L492.7,85.4z M492.7,89.1c0-1,0-2.1,0-3.1l11.6-9.9c0.3,1,0.7,1.7,1,2.4L492.7,89.1z M492.7,93.2
			c0-1,0.3-2.4,0.3-3.4l12.7-10.6c0.3,1,0.7,1.7,1,2.7L492.7,93.2z M506.7,85l-15,12.7c0.3-1,0.7-2.4,0.7-3.8l13.7-11.6
			C506.3,83.3,506.3,84.3,506.7,85 M491.6,99L507,86c0,1,0.3,2.1,0.3,2.7l-17.4,15C490.3,102.5,491,100.8,491.6,99 M470.8,105.2
			c-1-2.4-2.7-8.2-1.7-17.1c1.4-12.7,6.2-14.7,9.6-15s6.8,0,8.9,1.4c1,1,3.8,4.8,3.8,15c0,10.3-3.8,19.1-11.6,19.1
			C473.9,108.3,471.8,106.9,470.8,105.2 M500.9,70.3l-9.6,8.2c-0.3-1-0.7-1.7-1-2.4l8.5-7.5C499.5,69.3,500.2,70,500.9,70.3
			 M449.6,90.2c0-1,0-1.7,0-2.7L480,61.2c1,0,2.4,0.3,3.1,0.3l-9.6,8.2c-3.1,1-5.8,3.1-7.5,6.5L449.6,90.2L449.6,90.2 M506.3,97.3
			l-24.6,20.9c-1.4,0.3-2.7,0.3-4.4,0.3l29.4-25C507,94.6,506.7,95.6,506.3,97.3 M504.6,102.5l-17.1,14.4c-1.7,0.7-3.1,1-5.1,1
			L506,97.7C506,99.4,505.7,101.1,504.6,102.5 M478,59.7c-17.1,0-30.1,12.3-29.7,31.8c0.3,19.1,17.4,31.8,33.8,31.5
			c17.8-0.3,30.1-13.7,30.1-31.1C512.1,73.7,496.8,59.7,478,59.7"/>
		<path class="st1" d="M203.8,61.1v7.2c0,0.7,0,0.7-0.3,0.7h-7.2c-0.3,0-0.3,0-0.3,0.3v29.4c0,2.7,2.7,11.6,12.7,11.6
			c10.9,0,13.3-4.8,13.3-14.4V69.6c0-0.3,0-0.3-0.3-0.3h-6.5c-0.3,0-0.3,0-0.3-0.3v-7.5c0-0.3,0-0.3,0.3-0.3h22.7
			c0.3,0,0.3,0,0.3,0.3V69c0,0.3,0,0.3-0.3,0.3h-6.8c-0.3,0-0.7,0-0.7,0.7s0,26.3,0,31.1s-2.4,10.6-9.6,15.4
			c-7.2,4.4-23.6,4.1-31.1-1.4c-4.8-2.7-6.5-8.2-6.5-13.3V69.7c0-0.3,0-0.3-0.3-0.3H175c-0.3,0-0.3,0-0.3-0.3v-7.2
			c0-0.3,0-0.3,0.3-0.3h27.7C203.8,61.1,203.8,61.1,203.8,61.1"/>
		<path class="st0" d="M237.9,69L237.9,69L237.9,69L237.9,69L237.9,69 M221.2,115.8c-1,1-2.7,1.4-4.4,2.1l12.3-10.6
			C227.7,110,225.3,113.1,221.2,115.8 M206.5,118.9l23.9-20.5v2.1c0,0.3,0,0.7,0,1l-20.2,17.1C209.2,118.9,207.9,119.2,206.5,118.9
			 M189.4,113.7l9.2-8.2c0.7,0.7,1,1,1.7,1.7l-8.9,7.9C190.8,115.1,190.1,114.8,189.4,113.7C189.7,114.1,189.4,114.1,189.4,113.7
			 M187,112l9.9-8.5c0.3,0.7,1,1.4,1.4,2.1l-9.6,8.2C188,113.1,187.7,112.4,187,112 M177.4,69l9.6-8.2h3.4l-9.6,8.2H177.4z
			 M175,68.6v-1.7l7.2-6.2h3.8l-9.6,8.2L175,68.6C175,69,175,69,175,68.6 M175.4,61.1h1.7l-2.1,1.7L175.4,61.1
			C175,61.1,175,61.1,175.4,61.1 M175,63.1l2.7-2.4h3.4l-6.5,5.5v-3.1H175z M203.8,61.1L203.8,61.1l-20.2,17.4v-3.1l17.1-14.7
			L203.8,61.1L203.8,61.1 M203.4,69h-2.7l3.1-2.7v2.4C203.8,69,203.8,69,203.4,69 M195.6,76.1l-12.4,10.6v-3.4l12.3-10.6v3.4H195.6z
			 M195.9,100.4c0.3,1,0.7,1.7,1,2.7l-9.9,8.5c-0.7-0.7-1-1.4-1.4-2.1L195.9,100.4z M195.6,96.6v1.7c0,0.3,0,1,0,1l-10.6,9.2
			c-0.3-1-0.7-1.4-1-2.4L195.6,96.6z M195.6,92.9V96l-11.6,9.9c-0.3-1-0.3-1.7-0.7-2.7L195.6,92.9z M183.2,101.1v-1.7l12.3-10.6v3.1
			l-12,10.9C183.2,102.1,183.2,101.4,183.2,101.1 M183.2,95.6L195.5,85v3.1l-12.3,10.6V95.6L183.2,95.6z M183.2,71v-2.1
			c0-0.3,0-0.3-0.3-0.3h-1.4l9.9-7.9h3.8L183.2,71z M183.2,71.7l12.7-10.6h3.8l-16.4,13.7L183.2,71.7L183.2,71.7z M195.6,79.9
			l-12.3,10.6v-3.1l12.3-10.6V79.9z M183.2,91.5l12.3-10.6V84l-12.3,10.6V91.5L183.2,91.5z M195.6,69.3V72l-12.3,10.6v-3.1
			L195.6,69.3C195.9,69,195.6,69,195.6,69.3 M196.2,69C195.9,69,195.9,69,196.2,69l7.5-6.5v3.1l-4.1,3.4H196.2z M194.5,116.8
			c-1-0.3-1.7-0.7-2.7-1l8.9-7.5c0.7,0.7,1.4,1,2.4,1L194.5,116.8z M203.8,109.6c1,0.3,2.1,0.7,3.1,0.7l-9.2,7.9
			c-1-0.3-2.1-0.7-2.7-1L203.8,109.6z M211.6,110l-9.9,8.2c-1,0-2.1-0.3-3.1-0.7l9.2-7.9c0.3,0,0.7,0,1,0
			C209.6,110,210.9,110,211.6,110 M220.9,102.8l9.6-8.2v3.1l-24.6,20.9c-1,0-2.4,0-3.4-0.3l10.3-8.5
			C217.4,109,220.2,106.6,220.9,102.8 M218.8,69l9.6-8.2h3.8l-10.6,8.9V69c0-0.3,0-0.3-0.3-0.3C221.2,69,218.8,69,218.8,69z
			 M214.7,69L214.7,69l8.9-8.2h3.8l-9.6,8.2H214.7z M214.7,61.1h3.4l-3.8,3.1L214.7,61.1L214.7,61.1 M222.9,61.1l-8.2,7.2v-3.4
			l4.4-3.8H222.9z M236.6,61.1l-15.4,13V71l11.6-9.9H236.6z M232.8,69l4.8-4.4v3.1l-1.4,1C236.6,69,232.8,69,232.8,69z M221.9,81.6
			v-3.1l8.5-7.5v3.1L221.9,81.6z M230.4,78.2l-8.5,7.5v-3.1l8.5-7.5V78.2z M221.9,98.4l8.9-7.5V94l-9.2,7.9
			C221.5,101.1,221.5,99.4,221.9,98.4 M230.4,81.9l-8.5,7.5v-2.7l8.5-7.5V81.9z M221.9,93.9v-3.4l8.5-7.5v3.4L221.9,93.9z
			 M230.4,90.2l-8.9,7.5c0-0.7,0-1,0-1.7v-1.4l8.5-7.5C230.4,88.1,230.4,89.1,230.4,90.2 M237.9,61.1
			C238.3,61.1,238.3,61.1,237.9,61.1l0.3,3.1l-5.8,4.8h-1c-0.3,0-0.7,0-0.7,0.7c0,0,0,0.3,0,1l-8.5,7.5v-3.4L237.9,61.1L237.9,61.1z
			 M229.4,106.2l-14,12c-1.4,0.3-2.7,0.7-4.4,0.7l19.1-16.4C230.1,103.5,230.1,104.5,229.4,106.2 M239,60.1c-1-1-1-0.7-2.7-0.7
			h-22.9c-0.3,0-0.7,0-0.7,0.3v10.6c0,0,1,0.7,1.7,1.4c1,0.7,1.7,1,1.7,1h3.1c0.7,0,0.7,0,0.7,0.3c0,0.7,0,20.9,0,23.9
			s-0.7,11.6-9.9,11.6c-9.2,0-9.9-8.2-9.9-12.7V73.2c0-0.7,0-1,0.7-1h6.5c0.7,0,0.7,0,0.7-0.7v-8.2c0-0.3-1-1-1.7-2.4
			c-1-1-1.7-2.1-1.7-2.1h-29.7c-0.7,0-0.7,0-0.7,0.7v10.3c0,0.3,0.7,0.7,1.7,1c1,0.7,2.1,1.4,2.4,1.4h3.8c0.3,0,0.3,0,0.3,0.3v26.3
			c0,5.8,1,11.6,5.5,15.4c7.2,6.8,14.7,7.5,23.9,7.5s23.9-5.1,23.9-22.2V73.2c0-0.3,0-0.7,0.3-0.7h6.5c0.3,0,0.3,0,0.3-0.3V63
			C242,63.1,240,60.7,239,60.1"/>
		<path class="st1" d="M312.8,64.2c0.7,0.7,1,0,1-0.7v-2.8h7.5c0.7,0,0.7,0,0.7,0.3v18.5c0,0.3,0,0.3-0.7,0.3s-7.9,0-7.9,0
			s-0.3-1-0.7-2.4c-1.7-6.2-6.8-10.6-15-10.3c-5.8,0.3-15,7.2-15,19.5c-0.3,15.7,10.9,23.6,21.9,20.9c7.2-1.7,11.3-7.9,11.3-8.2
			c0.7-0.7,0.7-0.7,1-0.3c0.7,0.7,5.8,4.4,6.2,4.4c0.3,0.3,0.3,0.3,0,0.7c-4.4,6.5-11.3,13.7-25.3,13.7c-5.5,0-24.3-1.7-29.4-23.2
			c-2.4-9.9,1-20.9,8.2-27.7c8.9-8.2,17.1-8.2,22.9-7.9C307,59.7,311.1,63.1,312.8,64.2"/>
		<path class="st0" d="M323.4,104.5c-3.1,4.4-7.5,9.2-14.4,11.6l14.4-12.3C323.4,104.5,323.4,104.5,323.4,104.5 M298.1,118.2
			l20.5-17.4c0.7,0.3,1,1,2.1,1.4l-18.8,15.6C300.9,118.2,299.5,118.2,298.1,118.2 M276.2,109.6l9.9-8.5c0.7,0.7,1,1.4,1.4,2.1
			l-9.9,8.2C277.6,110.7,276.9,110,276.2,109.6 M277.3,67.2c1.7-1.7,3.4-2.7,5.1-4.1l-7.9,6.5C275.6,69,276.2,68.3,277.3,67.2
			 M301.2,59.4l-33.2,28c0-1,0.3-2.4,0.3-3.4l29.1-24.6c1,0,2.1,0,2.7,0C300.5,59.4,300.9,59.4,301.2,59.4 M305,68.6
			c-1-0.3-1.7-0.7-2.7-1l6.8-6.2c1,0.7,1.4,1,2.4,1L305,68.6z M313.5,60.7L313.5,60.7L313.5,60.7L313.5,60.7z M321.7,61.1v1
			L310.1,72c-0.7-0.7-1-1-1.7-1.7l11.6-9.9L321.7,61.1C321.7,60.7,321.7,61.1,321.7,61.1 M321,79.9h-1l1.7-1.4v1
			C321.7,79.9,321.7,79.9,321,79.9 M315.6,79.9l6.2-5.1v3.1l-2.7,2.1C318,79.9,316.6,79.9,315.6,79.9 M313.2,79.9
			c0,0-0.3-0.7-0.7-1.7l8.9-7.5v3.1l-6.8,6.2C313.8,79.9,313.2,79.9,313.2,79.9 M311.8,75.4l9.9-8.2v3.1l-8.9,7.9l0,0
			C312.5,76.8,312.1,76.1,311.8,75.4 M310.1,72.7l11.6-9.9v3.1l-9.9,8.5C311.1,74.1,310.8,73.4,310.1,72.7 M312.8,64.2
			c0.7,0.7,1,0,1-0.7v-1.7l1-1h3.8l-10.9,9.6c-0.7-0.7-1.4-1-2.4-1.4l6.5-5.5C312.1,63.8,312.5,64.2,312.8,64.2 M297.8,67.2l8.2-6.8
			c1,0.3,2.1,0.7,2.7,1l-6.8,6.2C300.2,67.2,299.1,67.2,297.8,67.2 M285.1,98c0.3,1,1,1.4,1,2.4l-9.9,8.5c-0.7-0.7-1-1-1.4-1.7
			L285.1,98z M283.8,95.3c0.3,1,0.7,1.7,1,2.7l-10.6,9.2c-0.7-0.7-1-1.4-1.4-2.1L283.8,95.3z M283.1,91.9c0,1,0.3,2.1,0.7,2.7
			l-11.3,9.6c-0.3-0.7-1-1.4-1-2.4L283.1,91.9z M282.7,88.1c0,1,0,2.1,0.3,2.7l-12,10.3c-0.3-1-0.7-1.4-1-2.4L282.7,88.1z M283.1,84
			c0,1-0.3,2.1-0.3,3.1v0.3l-13,10.9c-0.3-1-0.7-1.7-1-2.7L283.1,84z M296.8,67.2c-4.1,0.7-9.2,4.1-12,10.3l-16.4,14
			c0-1-0.3-2.4-0.3-3.1l33.8-28.7c1,0,2.4,0.3,3.1,0.7L296.8,67.2z M269.7,78.9l22.6-19.1c1.4-0.3,2.7-0.3,4.4-0.3l-28,23.9
			C269.1,81.6,269.1,80.2,269.7,78.9 M273.2,72l11.6-9.9c2.1-1,4.1-1.7,6.2-2.1l-20.9,17.8C270.8,75.8,272.1,73.7,273.2,72
			 M269.1,94.9c-0.3-1-0.3-1.7-0.7-2.7l15.7-13.7c-0.7,1.4-1,2.7-1,4.4L269.1,94.9L269.1,94.9 M290.3,104.9l-9.6,8.2
			c-0.7-0.7-1.4-1-2.1-1.4l9.9-8.2C288.9,103.8,289.6,104.5,290.3,104.9 M292.6,106.6l-9.6,8.2c-1-0.3-1.4-1-2.4-1l9.6-8.2
			C291.3,105.9,292,106.2,292.6,106.6 M286.5,115.8c-1-0.3-1.7-0.7-2.7-1l9.6-8.2c1,0.3,1.7,0.7,2.7,1L286.5,115.8z M296.4,108.3
			c1,0.3,2.4,0.3,3.1,0.3l-9.9,8.5c-1-0.3-1.7-0.7-2.7-1L296.4,108.3z M304.6,107.9C305,107.9,305,107.9,304.6,107.9l-11.6,9.9
			c-1,0-1.7-0.3-2.7-0.7l9.9-8.5C301.9,108.3,303.6,108.3,304.6,107.9 M316.2,99.7c0.7-0.7,0.7-0.7,1-0.3c0.3,0,0.7,0.3,1,1
			l-20.9,17.8c-1,0-2.1,0-3.1-0.3l12-10.3C312.5,105.2,315.9,100.1,316.2,99.7 M323.1,103.8l-15.4,13.3c-1.4,0.3-2.7,1-4.4,1
			l18.1-15.4C321.7,102.8,322.7,103.5,323.1,103.8 M327.2,105.2c-0.3-0.3-2.7-2.1-2.7-2.1s-6.8-5.1-7.5-5.8c-1-0.7-1-0.7-1.4,0.7
			c-0.3,0.7-4.4,7.9-13,8.9c-8.9,1-15.4-5.5-15.4-18.1c0-11.3,7.9-18.1,12.3-18.5c6.8-0.3,10.3,2.1,12.3,10.3c0,0,0.7,0.7,1,1
			s2.4,2.7,2.7,2.7h9.6c0.7,0,0.7,0,0.7-0.7V63.4l-0.3-0.7c0,0-3.1-3.4-3.4-3.4h-9.6c-0.3,0-0.3,0-0.3,0.3v2.1V62l-0.3,0.3
			c-2.1-1.7-6.5-4.1-14.4-4.4c-3.4,0-10.6,0-17.8,4.8c-7.2,5.1-14.7,15-13.7,28.7c1.7,17.1,16.1,30.8,34.5,30.4
			c14.4-0.3,22.9-10.9,26.3-15.7C327.9,105.5,327.9,105.5,327.2,105.2"/>
		<path class="st1" d="M382.9,69.3C382.9,69.6,382.9,69.6,382.9,69.3l-7.2,0.3c-0.3,0-0.7,0-0.7,0.3v14c0,0.7,0,0.7,0.3,0.7h7.2
			h16.4c0.3,0,0.3,0,0.3-0.7v-14c0-0.7,0-0.7-0.3-0.7h-7.2c-0.3,0-0.3-0.3-0.3-0.7c0-0.7,0-6.8,0-7.2s0-0.3,0.3-0.3h27.7
			c0.3,0,0.3,0,0.3,0.3v7.5c0,0.7,0,0.7-0.7,0.7h-6.8c-0.3,0-0.7,0-0.7,0.7v38.3c0,0.7,0,0.7,0.3,0.7h6.8c0.3,0,0.3,0,0.3,0.3
			s0,5.8,0,6.5s0,1-0.7,1h-26.7c-0.3,0-0.3,0-0.3-0.7v-6.5c0-0.3,0-0.3,0.3-0.3h6.8c0.7,0,0.7,0,0.7-1v-15c0-0.7,0-0.7-0.7-0.7
			h-23.2c-0.3,0-0.3,0-0.3,1v14.7c0,0.7,0.3,0.7,0.7,0.7h6.8c0.3,0,0.3,0,0.3,0.3v6.5c0,0.3-0.3,0.7-1,0.7h-26.7
			c-0.3,0-0.3,0-0.3-0.7v-6.8c0-0.3,0-0.3,0.3-0.3h6.2c0.7,0,0.7,0,0.7-0.7v-5.5v-32c0-0.7,0-0.7-0.3-0.7H355c-0.3,0-0.3,0-0.3-0.3
			v-7.9c0-0.3,0-0.3,0.7-0.3c0.3,0,26.7,0,27,0s0.3,0,0.3,0.3L382.9,69.3L382.9,69.3z"/>
		<path class="st1" d="M598,61.8v6.8c0,0.7,0,0.7-0.3,0.7h-6.8c-0.3,0-0.3,0-0.3,0.7s0,45.8,0,46.2c0,0.7,0,0.7-0.3,0.7h-12.7
			c-0.3,0-0.7-0.7-0.7-0.7s-22.9-40-23.6-40.7c-1-2.1-1.7-1-1.7,0.3c0,1.4,0,32.1,0,32.5s0,0.3,0.3,0.3h6.8c0.3,0,0.3,0,0.3,0.3
			s0,7.2,0,7.5s0,0.7-0.3,0.7h-22.9c-0.3,0-0.3,0-0.3-0.3v-7.5c0-0.3,0-0.3,0.3-0.3h6.8c0.7,0,0.7-0.3,0.7-1V70c0-0.7,0-0.7-0.3-0.7
			c-0.3,0-2.4,0-4.1,0s-3.4,0-3.4,0c0-0.3,0-2.1,0-3.1s0-4.4,0-4.4c0-0.3,0-0.3,0.3-0.3h22.6c0,0,22.9,37.6,23.2,38.6
			c0.7,1,1,0.3,1-0.7s0-29.1,0-29.7s0-0.7-0.7-0.7c-0.7,0-5.8,0-6.2,0c-0.7,0-0.7,0-0.7-0.3v-7.2c0-0.7,0-0.7,0.3-0.7h21.6
			C598,61.1,598,61.1,598,61.8"/>
		<path class="st0" d="M419.5,69.6h-2.1l2.7-2.1v1.4C419.5,69.6,419.5,69.6,419.5,69.6 M419.5,109.3v1l-7.5,6.5h-3.8l8.9-7.9h1.7
			C419.5,109,419.5,109,419.5,109.3 M418.8,116.5h-1.4l2.1-1.7v1C419.5,116.5,419.5,116.5,418.8,116.5 M412.7,116.5l6.5-5.5
			c0,1,0,2.1,0,2.7l-2.7,2.7L412.7,116.5L412.7,116.5z M403.8,116.5l8.9-7.9h3.8l-8.9,7.9H403.8z M391.5,115.8v-0.7l7.5-6.5l0,0
			l12.7-10.9v3.4l-18.1,15.4h-2.1C391.5,116.5,391.5,116.5,391.5,115.8 M391.8,109h1.7l-2.1,1.7v-1C391.5,109,391.5,109,391.8,109
			 M398,109l-6.5,5.8v-3.4l2.7-2.4L398,109L398,109z M382.9,109.3v1l-7.9,6.5h-3.8l9.2-7.9L382.9,109.3
			C382.9,109,382.9,109,382.9,109.3 M381.9,116.8h-1.4l2.4-2.1v1C382.9,116.5,382.6,116.8,381.9,116.8 M375.7,116.8l6.8-5.8v3.1
			l-3.1,2.7H375.7L375.7,116.8z M354.9,116.1v-1.4l20.2-17.1v3.1l-18.5,15.7L354.9,116.1C354.9,116.8,354.9,116.5,354.9,116.1
			 M355.2,109h1l-1.4,1v-1C354.9,109,354.9,109,355.2,109 M361,109l-6.2,5.1V111l2.4-2.1C357.3,109,361,109,361,109z M354.9,69.3
			v-1.7l7.5-6.5h3.8l-9.9,8.2H354.9C354.9,69.6,354.9,69.6,354.9,69.3 M355.6,61.1h1.4l-2.1,1.7v-1.4
			C354.9,61.1,354.9,61.1,355.6,61.1 M354.9,63.8l2.7-2.7h3.4l-6.5,5.5v-2.7L354.9,63.8L354.9,63.8z M382.9,61.4v1L362,79.8v-3.1
			L380.8,61h1.7C382.9,61.1,382.9,61.1,382.9,61.4 M382.6,69.6h-2.4l2.7-2.4v1.7C382.9,69.6,382.9,69.6,382.6,69.6 M380.5,84.3
			L362,100v-3.1l14.7-12.3L380.5,84.3L380.5,84.3z M385,84.3l-22.9,19.8v-1v-2.4l19.1-16.4h1.4L385,84.3L385,84.3z M390.4,84.3h3.8
			l-9.9,8.2h-3.8L390.4,84.3z M376.1,92.9l9.9-8.2h3.8l-9.9,8.2H376.1z M361.7,104.9l13-11.3v3.1l-13,11.3V104.9z M375,77.2
			l-13.3,11.3v-3.1L375,74.1V77.2z M361.7,92.9L375,81.6V84c0,0.7,0,0.7,0.3,0.7h0.3l-13.7,11.6L361.7,92.9L361.7,92.9z M375,81.3
			l-13.3,11.3v-3.1L375,78.2V81.3z M375,70v3.1l-13.3,11.3v-3.1L375,70L375,70 M375.7,69.6L375.7,69.6l7.2-6.2v3.1l-3.4,2.7h-3.8
			V69.6z M375.7,61.1c1.4,0,2.7,0,3.8,0l-17.8,15.4v-3.1L375.7,61.1z M371.3,61.1h3.8l-13.3,11.3V70c0-0.7,0-0.7,0-0.7L371.3,61.1z
			 M360.7,69.6h-3.8l9.9-8.2c1,0,2.7,0,3.8,0L360.7,69.6z M375.7,109h3.8l-9.2,7.9h-3.8L375.7,109z M375,105.5v2.7v0.3l-9.2,7.9H362
			L375,105.5z M375,104.9l-13.7,11.6h-3.8l17.4-15L375,104.9L375,104.9z M399,84.3L399,84.3l-9.9,8.2h-3.8l9.9-8.2H399z M393.9,69.6
			l9.9-8.2h3.8l-9.9,8.2H393.9z M391.5,69c0,0,0-0.7,0-1l7.9-6.5h3.8l-9.9,8.2h-1.4C391.5,69.6,391.5,69.3,391.5,69 M391.8,61.1h2.1
			l-2.4,2.1C391.5,62.5,391.5,61.8,391.8,61.1C391.5,61.1,391.5,61.1,391.8,61.1 M391.5,63.8l3.1-2.7h3.8l-6.8,5.8
			C391.5,66.2,391.5,64.9,391.5,63.8 M419.5,61.4v1L399,79.8v-3.1L417.5,61h1.4C419.5,61.1,419.5,61.1,419.5,61.4 M412.7,69.6
			l7.2-6.2v3.1l-3.4,2.7h-3.8V69.6z M399.3,72v-2.1c0-0.3,0-0.3-0.3-0.3h-0.3l9.9-8.2h3.8L399.3,72z M399.3,73.1L413,61.5h3.8
			l-17.4,15L399.3,73.1L399.3,73.1z M399.3,84.3L399.3,84.3v-3.1L412,70.6v3.1L399.3,84.3z M412,77.5l-18.1,15.4h-3.8L412,74.1
			L412,77.5L412,77.5z M399.3,104.5L412,93.9V97l-12.7,10.9V104.5z M412,82.3v3.1L399.3,96v-2.7c0-0.3,0-0.3,0-0.3L412,82.3z
			 M412,81.3l-13.7,11.6h-3.8l17.1-14.7v3.1L412,81.3L412,81.3z M412,89.1l-12.7,10.6v-3.1L412,86L412,89.1L412,89.1z M412,93.2
			l-12.7,10.6v-3.1L412,90.1V93.2z M412,104.9l-13.7,11.6h-3.8l17.1-14.7v3.1L412,104.9L412,104.9z M412,108.6l-9.2,7.9h-3.4
			l12.7-10.6L412,108.6L412,108.6 M424.6,63.8c0-0.3-3.1-3.4-3.1-3.4s-0.7-0.7-1-0.7c-0.7,0-28.7,0-29.4,0c-1,0-1,0-1,1v8.9
			c0,0.3,0.3,0.3,1,1s2.1,2.1,2.4,2.4s0.7,0.7,1,0.7s2.7,0,3.1,0c0.7,0,0.7,0,0.7,0.3v8.5c0,0.3,0,0.3-1,0.3h-6.2h-10.6
			c-0.3,0-0.3,0-0.3-0.3s0-8.2,0-8.5s0-0.3,0.3-0.3h6.8c0,0,0.7,0,0.7-0.7s0-2.7,0-4.8c0-1.7,0.3-4.1,0-4.4c0-0.3-0.7-0.7-0.7-0.7
			l-2.7-2.7c0,0-0.3-0.7-1-0.7h-29.4c-0.7,0-1,0.3-1,1v9.2c0,0.3,0.3,0.7,0.7,1c0.3,0.3,2.7,2.7,2.7,2.7h3.1c0.3,0,0.3,0,0.3,0.7
			v33.2c0,0.7,0,0.7-0.3,0.7h-5.8c-0.7,0-1,0.3-1,0.7v9.9c0,0.3,0.3,0.7,0.7,1c0.3,0.3,2.4,2.4,2.7,2.4s1,0,2.1,0c1,0,27.4,0,28,0
			s0.7-0.3,0.7-1V112c0-0.3-3.1-3.1-3.4-3.1h-3.8c-0.3,0-0.3,0-0.3-0.3V97.3c0-0.3,0-0.7,0.7-0.7h17.1c0.3,0,0.3,0,0.3,0.3v9.9
			c0,0.3,0,0.7-0.7,0.7h-5.8c-0.7,0-1,0-1,0.7v9.6c0,0.3,0.3,0.7,0.7,0.7c0.3,0.3,1.4,1.4,2.1,2.1s1,1,1,1c0.3,0,7.9,0,11.3,0
			c3.1,0,18.1,0,18.8,0c1,0,1-0.3,1-0.7s0-8.9,0-9.2s-2.7-2.7-2.7-3.1c-0.3-0.3-0.7-0.7-1-0.7s-3.1,0-3.4,0s-0.7,0-0.7-0.3
			s0-32.1,0-32.8c0-1,0.3-1,0.7-1h6.5c0,0,0.7,0,0.7-0.7s0-2.1,0-3.8C424.6,66.9,424.6,64.2,424.6,63.8"/>
		<path class="st0" d="M589.8,116.8h-2.1l2.4-2.1v1.4C590.1,116.8,590.1,116.8,589.8,116.8 M578.8,116.8l11.3-9.6v3.1l-7.5,6.5
			H578.8z M576.8,116.5c0,0-0.3-0.3-0.7-1l14-12v2.7l-12,10.3H576.8L576.8,116.5 M555.2,108.6l-9.6,8.2h-3.7l9.6-8.2H555.2z
			 M558.6,109v1l-8.2,7.2h-3.8l9.6-8.2h2.1C558.6,108.6,558.6,108.6,558.6,109 M558.6,116.8h-2.7l2.7-2.4V116.8L558.6,116.8
			 M551.5,116.8l7.5-6.5c0,1,0,2.1,0,3.1l-3.8,3.1h-3.8L551.5,116.8L551.5,116.8z M535.1,116.5v-1.4l7.5-6.5c0.7,0,0.7-0.3,0.7-0.7
			l8.2-7.2v3.1l-14.7,12.7h-1C535.1,116.8,535.1,116.8,535.1,116.5 M535.1,111l2.7-2.4h3.8l-6.5,5.5V111L535.1,111z M535.1,108.6
			h1.4l-1.7,1.4L535.1,108.6L535.1,108.6 M537.8,69.3l9.6-8.2h3.8l-9.6,8.2c-1,0-2.1,0-2.7,0C538.5,69.3,538.1,69.3,537.8,69.3
			 M535.1,67.9l7.9-6.5h3.8l-9.6,8.2c-1,0-1.7,0-1.7-0.3C535.1,69,535.1,68.3,535.1,67.9 M535.1,61.1h2.1l-2.4,2.1
			C535.1,62.5,535.1,61.8,535.1,61.1L535.1,61.1 M535.1,66.2c0-0.7,0-1,0-2.1l3.1-2.7h3.8l-6.8,6.2
			C535.1,66.6,535.1,66.6,535.1,66.2 M558.6,62.5l-15.7,13.6v-3.4l13.3-11.3h1.7C558,61.1,558.3,61.4,558.6,62.5 M579.8,69l9.2-7.9
			h3.8L582.5,70v-0.3c0-0.7,0-0.7-0.7-0.7H579.8L579.8,69z M575.7,69c-0.3,0-0.7,0-0.7-0.3l8.9-7.5h3.8l-9.2,7.9
			C577.5,69,576.1,69,575.7,69 M575.7,61.1h2.7l-3.4,2.7v-2.4C575.4,61.1,575.4,61.1,575.7,61.1 M575.4,64.9l4.4-3.4h3.8l-8.2,6.8
			V64.9z M590.1,79.2l-7.9,6.5c0-1,0-2.1,0-3.1l7.9-6.5V79.2z M590.1,99.4v3.1l-14.4,12.3c-0.3-0.7-1-1-1-2.1L590.1,99.4z
			 M590.1,95.6v3.1L574,112.4c-0.3-0.7-1-1.4-1-2.1L590.1,95.6z M581.2,99.4C581.2,99.7,581.6,99.7,581.2,99.4c1,1,1,0.7,1-0.3v-1
			l7.9-6.5v3.1l-17.4,15c-0.3-0.7-1-1.4-1-2.1L581.2,99.4z M579.5,97c0.7,1,1,1.7,1,2.1l-9.9,8.2c-0.3-0.7-1-1.4-1-2.1L579.5,97z
			 M582.2,90.5l7.9-6.5v3.1l-7.9,6.5C582.2,92.5,582.2,91.9,582.2,90.5 M582.2,73.7v-3l11.3-9.6h3.8L582.2,73.7z M582.2,78.5
			l7.9-6.5v3.4l-7.9,6.5V78.5z M590.1,83l-7.9,6.5v-3.1l7.9-6.5C590.1,80.9,590.1,81.9,590.1,83 M590.1,90.8l-7.9,6.5v-3.1l7.9-6.5
			V90.8z M598,68.6l-0.7,0.7h-4.1l4.4-4.1L598,68.6L598,68.6z M598,64.9l-5.5,4.4h-1.7c-0.3,0-0.3,0-0.3,0.7v1l-7.9,6.5v-2.7
			L598,61.5v0.3V64.9L598,64.9z M578.1,94.3c0.7,1,1,1.4,1.4,2.1l-9.9,8.2c-0.3-0.7-1-1.4-1-2.1L578.1,94.3z M576.4,91.9
			c0.7,1,1,1.4,1,2.1l-9.6,8.2c-0.3-0.7-1-1.4-1-2.1L576.4,91.9z M575.1,89.1c0.3,0.7,1,1.4,1,2.1l-9.6,8.2c-0.3-0.7-1-1.4-1-2.1
			L575.1,89.1z M573.3,86.4c0.7,1,1,1.4,1.4,2.4l-9.6,8.2c-0.3-1-1-1.4-1.4-2.4L573.3,86.4z M571.6,83.7c0.7,0.7,1,1.4,1,2.1L563,94
			c-0.3-0.7-1-1.4-1-2.1L571.6,83.7z M569.9,81.3c0.7,0.7,1,1.4,1.4,2.1l-9.6,8.2c-0.3-1-1-1.4-1-2.1L569.9,81.3z M568.6,78.5
			c0.3,0.7,1,1.4,1.4,2.1l-9.2,8.2c-0.7-1-1-1.4-1-2.4L568.6,78.5z M566.9,75.8c0.3,0.7,1,1.4,1,2.1l-9.2,8.2c-0.7-1-1-1.4-1-2.1
			L566.9,75.8z M565.5,73.4c0.3,0.7,1,1.4,1,2.1l-9.2,8.2c-0.3-1-1-1.4-1-2.1L565.5,73.4z M551.5,88.4l-8.2,6.8v-2.7l8.2-7.2V88.4z
			 M551.5,108.3l-9.9,8.2h-4.1l13.7-11.6L551.5,108.3L551.5,108.3z M542.9,104.5l8.2-7.2v3.1l-8.2,7.2V104.5z M542.6,69.3
			L542.6,69.3l9.2-8.2h3.4l-12.3,10.6V70C542.9,69.3,542.9,69.3,542.6,69.3 M542.9,79.6v-3.1L559,62.8c0.3,0.7,1,1,1.4,2.1
			L542.9,79.6z M552.8,75.4c-1-1.7-1.4-0.7-1.4,0.7v1l-8.2,6.8v-3.1l17.4-15c0.3,0.7,1,1.4,1,2.1L552.8,75.4z M554.2,77.8
			c-0.7-1-1-1.7-1-2.4l9.2-7.9c0.3,0.7,1,1.4,1,2.1L554.2,77.8z M542.9,88.4l8.2-7.2v3.1l-8.2,7.2V88.4z M542.9,84.7l8.2-7.2
			c0,1,0,2.1,0,3.1l-8.2,7.2V84.7z M551.5,92.5l-8.2,7.2v-3.1l8.2-7.2V92.5z M551.5,96.3l-8.2,7.2v-3.1l8.2-7.2V96.3z M565.1,72.7
			l-9.2,7.9c-0.7-1-1-1.4-1-2.4l9.2-7.9C564.1,71.3,564.5,72,565.1,72.7 M590.1,114.1l-3.1,2.7h-3.4l6.5-5.5V114.1z M600,61.1
			c-0.3-0.3-0.7-0.7-1-1c-0.3-0.3-1-0.7-1-0.7s-23.2,0-23.9,0c-0.7,0-0.7,0-0.7,0.3v9.9c0,0.3,2.4,2.1,2.7,2.7c0.7,0.7,1,1,1,1
			c0.3,0,2.4,0,2.7,0c0.3,0,0.3,0,0.3,0.3v17.1c0,0.3,0,0-0.3,0l-5.1-8.2l-10.3-17.1l-5.8-4.4l-1.4-1h-23.9c-0.7,0-0.7,0-0.7,0.7
			s0,9.6,0,9.9s2.4,2.1,2.7,2.4c0.7,0.3,1,0.7,1,1c0.3,0,3.1,0,3.4,0s0.3,0.3,0.3,0.7v32.8c0,0.7,0,1-0.7,1c-0.7,0-1,0-2.7,0
			c-1.7,0-3.1,0-3.8,0c-0.7,0-0.7,0-0.7,1s0,2.1,0,3.4c0,1,0,2.4,0,3.8l0,0l0,0c0,1,0,2.4,0,2.7s2.7,3.1,3.1,3.1h26c1,0,1,0,1-0.7
			s0-9.2,0-9.6s-0.3-0.7-0.7-1c-0.3-0.3-2.7-3.1-2.7-3.1h-3.9c-0.3,0-0.3,0-0.3-0.7V85.9c0-1,0.3-0.7,0.7,0
			c0.3,0.7,19.5,33.5,19.5,33.5l4.1,3.4h14c1,0,1,0,1-1V75.3c0-1,0-1,0.7-1h6.5c0.3,0,0.3,0,0.3-0.7v-9.2
			C602.4,63.1,601,62.1,600,61.1"/>
	</g>
	<g>
		<path class="st0" d="M607.9,59.7c1.7,0,3.1,1.4,3.1,3.1c0,1.7-1.4,3.1-3.1,3.1s-3.1-1.4-3.1-3.1S605.8,59.7,607.9,59.7z
			 M605.5,63.1c0,1.4,1,2.7,2.7,2.7c1.4,0,2.7-1,2.7-2.7c0-1.4-1-2.7-2.7-2.7C606.2,60.1,605.5,61.1,605.5,63.1z M609.2,64.2h-0.7
			l-1-1h-0.3v1h-0.7v-2.7h1c0.7,0,1,0.3,1,1c0,0.3-0.3,0.7-0.7,1L609.2,64.2z M607.5,62.8c0.3,0,0.7-0.3,0.7-0.7s-0.3-0.7-0.7-0.7
			h-0.3L607.5,62.8L607.5,62.8L607.5,62.8z"/>
	</g>
</g>
</svg>
