<?xml version="1.0" encoding="utf-8"?>
<!-- Generator: Adobe Illustrator 18.0.0, SVG Export Plug-In . SVG Version: 6.00 Build 0)  -->
<!DOCTYPE svg PUBLIC "-//W3C//DTD SVG 1.1//EN" "http://www.w3.org/Graphics/SVG/1.1/DTD/svg11.dtd">
<svg version="1.1" id="Layer_1" xmlns="http://www.w3.org/2000/svg" xmlns:xlink="http://www.w3.org/1999/xlink" x="0px" y="0px"
	 viewBox="234.6 709.3 612.4 133.6" enable-background="new 234.6 709.3 612.4 133.6" xml:space="preserve">
<path fill="#53301A" d="M560,712.3c0,1.3,0,3.9,0,5.6v3h-1.7c-18.1,0-36.2,12.9-36.2,42.2v37.1h-9.9V798c0-2.2,0-81.9,0-84v-1.7h9.5
	v1.7c0,1.3,0,10.3,0,16.8c8.2-12.1,22-19.8,35.8-19.8h2.2L560,712.3z M310,723.1c8.2,8.6,12.5,19.8,12.5,31.9s-4.3,23.7-12.5,31.9
	c-8.2,8.6-19,13.4-30.6,13.4l0,0c-13.8,0-26.7-6.9-34.9-18.5v42.7c0,8.2,0,15.9,0,16.8v1.7H235v-70.7c-0.4-29.7-0.4-57.8-0.4-59
	v-1.7h1.7c1.3,0,4.7,0,6,0h1.7v2.6c0,2.2,0,6.9,0,13.8c8.2-11.2,20.7-18.1,34.5-18.1C291,709.7,301.8,714.4,310,723.1z M279.8,718.7
	c-19,0-34,16.4-34,36.2c0,9.9,3.4,19,9.9,25.9c6.5,6.9,15.1,10.3,24.1,10.3c19,0,34-16.4,34-36.2S298.4,718.7,279.8,718.7z
	 M454.4,755.8c0,1.3,0,2.6,0,3.4v1.3h-77.1c2.6,17.2,16.8,31,33.6,31c8.2,0,23.3-2.2,30.6-17.2l0.9-1.3l8.6,3.9l-0.9,1.3
	c-6.9,14.7-21.1,22.4-39.2,22.4l0,0c-22.4,0-41.8-18.5-43.5-42.2c0-1.3,0-2.6,0-3.4c0-25.4,19.8-45.7,43.5-45.7
	C435,709.7,454.4,730.4,454.4,755.8z M444,751.5c-2.2-18.1-16.4-31.9-33.6-31.9l0,0c-17.2,0-31.5,13.8-33.6,31.9H444z M847,755.8
	c0,1.3,0,2.6,0,3.4v1.3h-77.1c2.6,17.2,16.8,31,33.6,31c8.2,0,23.3-2.2,30.6-17.2l0.9-1.3l8.6,3.9l-0.9,1.3
	c-6.9,14.7-21.1,22.4-39.2,22.4l0,0c-22.4,0-41.8-18.5-43.5-42.2c0-1.3,0-2.6,0-3.4c0-25.4,19.8-45.7,43.5-45.7
	C827.2,710.1,847,730.8,847,755.8z M837.1,751.9c-1.7-18.1-16.4-31.9-33.6-31.9s-31.5,13.8-33.6,31.9
	C782.4,751.5,824.6,751.5,837.1,751.9z M681.1,748.5c-19-4.7-19-12.1-19-14.7c0-8.2,8.2-14.7,18.1-14.7c7.8,0,14.7,3.9,17.2,9.9
	l1.3,2.6l8.2-5.2l-0.9-1.3c-3.9-9.5-14.7-15.1-26.3-15.5c-15.1,0-28,10.8-28,24.1c0,11.6,8.6,19.8,26.3,24.1c0.4,0,0.9,0.4,1.3,0.4
	c9.9,2.6,21.5,7.8,21.5,17.2s-9.5,17.2-21.1,17.2c-9.1,0-17.2-4.7-19.8-11.6l-0.4-0.9v-3l-9.1,5.6l0.9,1.3
	c4.3,10.3,15.9,17.2,28.9,17.2c16.8,0,30.2-11.6,30.6-26.7l0,0C711.2,762.7,700.5,753.2,681.1,748.5z"/>
</svg>
