<?xml version="1.0" encoding="utf-8"?>
<!-- Generator: Adobe Illustrator 18.0.0, SVG Export Plug-In . SVG Version: 6.00 Build 0)  -->
<!DOCTYPE svg PUBLIC "-//W3C//DTD SVG 1.1//EN" "http://www.w3.org/Graphics/SVG/1.1/DTD/svg11.dtd">
<svg version="1.1" id="Layer_1" xmlns="http://www.w3.org/2000/svg" xmlns:xlink="http://www.w3.org/1999/xlink" x="0px" y="0px"
	 viewBox="33.1 383.2 542.5 25.5" enable-background="new 33.1 383.2 542.5 25.5" xml:space="preserve">
<path fill="#002F65" d="M46.3,408.1h-4v-19.8h-9.1v-4h22.3v4h-9.1V408.1z M100.9,384.1h-4v9.6H82.2v-9.6h-4v23.8h4v-10.2h14.7v10.2
	h4V384.1z M150.2,396c0,4.7-3.8,8.7-10.6,8.7c-6.6,0-10.6-4-10.6-8.7c0-4.7,4-8.7,10.6-8.7C146.2,387.5,150.2,391.5,150.2,396
	 M139.6,408.8c9.1,0,14.7-5.7,14.7-12.8c0-6.8-5.5-12.8-14.7-12.8c-9.1,0-14.7,5.7-14.7,12.8C125.2,403,130.7,408.8,139.6,408.8
	 M204.9,384.1h-4l-9.1,13.8l-9.1-13.8h-4v23.8h4v-16.8l0,0l8.9,13.4l8.9-13.4l0,0v16.8h4v-23.8H204.9z M245.2,398.3h-10.4l5.3-9.8
	L245.2,398.3z M242.2,384.1h-4l-13,24h4.7l3-5.5h14.7l3,5.5h4.9L242.2,384.1z M295.8,386.6c-1.7-0.9-6-3.2-11.9-3.2
	c-8.1,0-11.1,3.6-11.1,7.6c0,4.9,3.8,6.6,9.1,6.6c8.9,0.2,10.4,0.4,10.4,3.4c0,2.8-3,3.6-7.2,3.6c-6.8,0-9.3-1.9-12.1-3.6l-1.9,3.6
	c1.5,1.1,5.9,4,14,4c5.3,0,11.7-1.3,11.7-8.1c0-3.8-1.3-7-12.1-7c-6.8,0-7.7-0.6-7.7-3c0-2.1,2.3-3.2,6.6-3.2c5.3,0,7.9,1.7,9.8,2.8
	L295.8,386.6z M352.5,392.8l9.1-8.7h-5.3l-11.7,10.6v-10.6h-4v23.8h4v-8.5l4.5-4l9.1,12.5h4.9L352.5,392.8z M405.9,403.9h-17.4v-6.2
	h9.3v-4h-9.3v-5.5h17v-4h-21v23.8h21.5V403.9z M446.9,403.9h-14.7v-19.8h-4v23.8h18.7L446.9,403.9L446.9,403.9z M486.2,403.9h-14.7
	v-19.8h-4v23.8h18.7V403.9z M528.5,403.9h-17.4v-6.2h9.3v-4h-9.3v-5.5h17v-4h-21v23.8h21.5L528.5,403.9L528.5,403.9z M555.3,394.3
	v-5.9h10.8c3.2,0,4.9,0.2,4.9,3c0,2.3-1.9,3.2-4.7,3.2h-11V394.3z M568.7,398.1c2.8-0.4,6.4-1.9,6.4-7.2s-4.2-6.8-9.1-6.8h-14.7
	v23.8h4v-9.6h8.5l6.8,9.8h5.1L568.7,398.1z"/>
</svg>
